<svg xmlns="http://www.w3.org/2000/svg" width="88" height="88" viewBox="0 0 88 88">
  <g fill="none" fill-rule="evenodd" transform="translate(0 8)">
    <path fill="#B2B2B2" d="M60,72 L60,78 L44,78 L28,78 L28,72 L34,64 L34,69.4 L32,72 L40,72 L40,74 L48,74 L48,72 L56,72 L54,69.4 L54,64 L60,72 Z M36.2,56.75 C35.8,57.15 36,57.95 36.6,57.95 L42,57.95 L42,67.35 C42,67.75 42.2,67.95 42.6,67.95 L45.2,67.95 C45.8,67.95 46,67.75 46,67.35 L46,57.95 L51.4,57.95 C52,57.95 52.4,57.15 51.8,56.75 L44.4,50.15 C44,49.95 43.6,49.95 43.4,50.15 L36.2,56.75 Z"/>
    <g transform="translate(30)">
      <path fill="#B2B2B2" d="M28,21.849115 L26,27.3440698 L26,12 L16,12 L16,2 L2,2 L2,25.6293182 L-9.65894031e-14,20.1343634 L-9.62563362e-14,0 L17.52,0 L28,9.7125 L28,21.849115 Z M22.8494991,36 L5.77461947,36 L5.046679,34 L23.5774395,34 L22.8494991,36 Z"/>
      <path fill="#009845" d="M8,29 L11.9853211,21.8067485 L8.24220183,15 L11.853211,15 L13.1082569,17.6411043 C13.4385321,18.2852761 13.746789,19.0153374 14.1431193,19.8957055 L14.2311927,19.8957055 C14.5614679,19.0153374 14.8697248,18.2852761 15.1559633,17.6411043 L16.3009174,15 L19.7577982,15 L16.0366972,21.9570552 L20,29 L16.3889908,29 L14.9577982,26.1441718 C14.6055046,25.4141104 14.2752294,24.7055215 13.8788991,23.8466258 L13.7908257,23.8466258 C13.4605505,24.7055215 13.1302752,25.4141104 12.8220183,26.1441718 L11.4788991,29 L8,29 Z"/>
    </g>
    <g transform="rotate(-20 55.512 9.788)">
      <path fill="#009845" d="M18.7259924,21.6527874 C18.7259924,24.2495748 16.5577786,26.3548976 13.8825496,26.3548976 C11.2074504,26.3548976 9.03884733,24.2495748 9.03884733,21.6524094 C9.03884733,19.055622 11.2074504,16.9506772 13.8825496,16.9506772 C16.5575191,16.9506772 18.7259924,19.055622 18.7259924,21.6527874 Z M22.7543435,27.5305827 L20.548626,25.7337953 C21.3179084,24.5525669 21.7649695,23.1536378 21.7649695,21.6527874 C21.7649695,17.4262677 18.2359771,14 13.8825496,14 C9.52925191,14 6,17.4262677 6,21.6524094 C6,25.8785512 9.52925191,29.3053228 13.8825496,29.3053228 C15.5713893,29.3053228 17.1355191,28.7882835 18.4183053,27.9102992 L20.7704046,29.8262677 C20.7704046,29.8262677 21.1200076,30.1109921 21.4134198,29.7715906 L22.8106641,28.1549606 C22.8106641,28.1549606 23.1042061,27.8154331 22.7543435,27.5305827 Z"/>
      <path fill="#54565A" d="M10.7776489,21.6524094 C10.7776489,19.9879055 12.167626,18.6384882 13.8825496,18.6384882 C15.5972137,18.6384882 16.9869313,19.9879055 16.9869313,21.6527874 C16.9869313,23.3174173 15.5972137,24.6669606 13.8825496,24.6667087 C12.167626,24.6667087 10.7776489,23.3174173 10.7776489,21.6524094"/>
      <path fill="#B2B2B2" d="M26,12 L16,12 L16,2 L2,2 L2,34 L26,34 L26,12 Z M0,0 L17.52,0 L28,9.7125 L28,36 L0,36 L0,0 Z"/>
    </g>
    <g transform="rotate(20 2.8 181.697)">
      <path fill="#B2B2B2" d="M26,12 L16,12 L16,2 L2,2 L2,34 L26,34 L26,12 Z M-3.41060513e-13,5.68434189e-14 L17.52,5.68434189e-14 L28,9.7125 L28,36 L-3.41060513e-13,36 L-3.41060513e-13,5.68434189e-14 Z"/>
      <rect width="6" height="2" x="4" y="14" fill="#B2B2B2"/>
      <rect width="6" height="2" x="11" y="14" fill="#B2B2B2"/>
      <rect width="6" height="2" x="18" y="14" fill="#B2B2B2"/>
      <rect width="6" height="2" x="4" y="18" fill="#B2B2B2"/>
      <rect width="6" height="2" x="11" y="18" fill="#B2B2B2"/>
      <rect width="6" height="2" x="18" y="18" fill="#B2B2B2"/>
      <path fill="#009845" d="M7.53696498,31 C5.61089494,31 4,29.6390533 4,27.0473373 C4,24.4911243 5.6692607,23 7.59533074,23 C8.57587549,23 9.36964981,23.4733728 9.88326848,24.0059172 L8.97276265,25.1183432 C8.58754864,24.7633136 8.17898833,24.5029586 7.63035019,24.5029586 C6.59143969,24.5029586 5.76264591,25.4378698 5.76264591,26.9881657 C5.76264591,28.5739645 6.48638132,29.4970414 7.60700389,29.4970414 C8.22568093,29.4970414 8.71595331,29.1775148 9.08949416,28.7751479 L10,29.8639053 C9.36964981,30.6094675 8.52918288,31 7.53696498,31 Z M13.9691992,31 C12.9219713,31 11.8131417,30.6213018 11,29.887574 L12.0349076,28.6923077 C12.613963,29.1656805 13.3531828,29.4970414 14.0184805,29.4970414 C14.7700205,29.4970414 15.1396304,29.2130178 15.1396304,28.7514793 C15.1396304,28.2662722 14.6837782,28.112426 13.9815195,27.8284024 L12.9342916,27.4023669 C12.1088296,27.0828402 11.3203285,26.4201183 11.3203285,25.295858 C11.3203285,24.0177515 12.5030801,23 14.1786448,23 C15.1026694,23 16.0759754,23.3550296 16.7659138,24.0177515 L15.8418891,25.1183432 C15.312115,24.7278107 14.8193018,24.5029586 14.1786448,24.5029586 C13.550308,24.5029586 13.1560575,24.7633136 13.1560575,25.2011834 C13.1560575,25.6745562 13.6858316,25.8402367 14.37577,26.112426 L15.4106776,26.5147929 C16.3839836,26.8934911 17,27.5207101 17,28.6094675 C17,29.887574 15.8911704,31 13.9691992,31 Z M19.4192982,31 L17,23 L18.9157895,23 L19.8736842,26.7300613 C20.1192982,27.601227 20.2789474,28.4110429 20.5245614,29.2944785 L20.5736842,29.2944785 C20.8070175,28.4110429 20.9789474,27.601227 21.2122807,26.7300613 L22.1578947,23 L24,23 L21.5929825,31 L19.4192982,31 Z"/>
    </g>
  </g>
</svg>
