<svg xmlns="http://www.w3.org/2000/svg" width="88" height="88" viewBox="0 0 88 88">
  <path fill="#B2B2B2" fill-rule="evenodd" d="M7.99360578e-15,78 L10,78 L10,88 L7.99360578e-15,88 L7.99360578e-15,78 Z M13,78 L23,78 L23,88 L13,88 L13,78 Z M26,78 L36,78 L36,88 L26,88 L26,78 Z M39,78 L49,78 L49,88 L39,88 L39,78 Z M52,78 L62,78 L62,88 L52,88 L52,78 Z M65,78 L75,78 L75,88 L65,88 L65,78 Z M78,78 L88,78 L88,88 L78,88 L78,78 Z M7.99360578e-15,65 L10,65 L10,75 L7.99360578e-15,75 L7.99360578e-15,65 Z M13,65 L23,65 L23,75 L13,75 L13,65 Z M26,65 L36,65 L36,75 L26,75 L26,65 Z M39,65 L49,65 L49,75 L39,75 L39,65 Z M52,65 L62,65 L62,75 L52,75 L52,65 Z M65,65 L75,65 L75,75 L65,75 L65,65 Z M78,65 L88,65 L88,75 L78,75 L78,65 Z M7.99360578e-15,52 L10,52 L10,62 L7.99360578e-15,62 L7.99360578e-15,52 Z M13,52 L23,52 L23,62 L13,62 L13,52 Z M26,52 L36,52 L36,62 L26,62 L26,52 Z M39,52 L49,52 L49,62 L39,62 L39,52 Z M52,52 L62,52 L62,62 L52,62 L52,52 Z M65,52 L75,52 L75,62 L65,62 L65,52 Z M78,52 L88,52 L88,62 L78,62 L78,52 Z M7.99360578e-15,39 L10,39 L10,49 L7.99360578e-15,49 L7.99360578e-15,39 Z M13,39 L23,39 L23,49 L13,49 L13,39 Z M26,39 L36,39 L36,49 L26,49 L26,39 Z M39,39 L49,39 L49,49 L39,49 L39,39 Z M52,39 L62,39 L62,49 L52,49 L52,39 Z M65,39 L75,39 L75,49 L65,49 L65,39 Z M78,39 L88,39 L88,49 L78,49 L78,39 Z M7.99360578e-15,26 L10,26 L10,36 L7.99360578e-15,36 L7.99360578e-15,26 Z M13,26 L23,26 L23,36 L13,36 L13,26 Z M26,26 L36,26 L36,36 L26,36 L26,26 Z M52,26 L62,26 L62,36 L52,36 L52,26 Z M65,26 L75,26 L75,36 L65,36 L65,26 Z M78,26 L88,26 L88,36 L78,36 L78,26 Z M13,13 L23,13 L23,23 L13,23 L13,13 Z M26,13 L36,13 L36,23 L26,23 L26,13 Z M52,13 L62,13 L62,23 L52,23 L52,13 Z M78,13 L88,13 L88,23 L78,23 L78,13 Z M13,7.99360578e-15 L23,7.99360578e-15 L23,10 L13,10 L13,7.99360578e-15 Z M78,7.99360578e-15 L88,7.99360578e-15 L88,10 L78,10 L78,7.99360578e-15 Z"/>
</svg>
