<svg xmlns="http://www.w3.org/2000/svg" width="88" height="88" viewBox="0 0 88 88">
  <path fill="#009845" fill-rule="evenodd" d="M87.1084672,72.1610077 C88.9271339,73.6800028 87.4000456,75.4913621 87.4000456,75.4913621 L80.1361595,84.1129828 C78.6108262,85.9223447 76.7921595,84.4033495 76.7921595,84.4033495 L64.5654245,74.1850862 C57.8942222,78.8689042 49.7628718,81.6257655 40.9831795,81.6257655 C18.3486268,81.6257655 -9.9475983e-14,63.3496374 -9.9475983e-14,40.8128828 C-9.9475983e-14,18.2743804 18.3486268,0 40.9831795,0 C63.6159772,0 81.964604,18.2743804 81.964604,40.8146305 C81.964604,48.8175677 79.6384957,56.2789697 75.6403875,62.578655 L87.1084672,72.1610077 Z M27,62.3816047 L39.7749511,62.3816047 C52.4833659,62.3816047 61,55.3953033 61,40.4911937 C61,25.5870841 52.4833659,19 39.2426614,19 L27,19 L27,62.3816047 Z M36.7808219,54.4637965 L36.7808219,26.9178082 L38.6438356,26.9178082 C46.0293542,26.9178082 50.9530333,30.111546 50.9530333,40.4911937 C50.9530333,50.8708415 46.0293542,54.4637965 38.6438356,54.4637965 L36.7808219,54.4637965 Z" transform="translate(0 2)"/>
</svg>
