<?xml version="1.0" standalone="no"?>
<!DOCTYPE svg PUBLIC "-//W3C//DTD SVG 1.1//EN" "http://www.w3.org/Graphics/SVG/1.1/DTD/svg11.dtd" >
<svg xmlns="http://www.w3.org/2000/svg" xmlns:xlink="http://www.w3.org/1999/xlink" version="1.1">
<metadata>
  Copyright (c) 2016-present QlikTech International AB
  Created by Philiphe Netterby
</metadata>
<defs>
<font id="LUI-icons" horiz-adv-x="2048" >
  <font-face
    font-family="LUI icons"
    font-weight="400"
    font-stretch="normal"
    units-per-em="2048"
    ascent="1664"
    descent="-384"
    x-height="1280"
    cap-height="1664"
    bbox="-6.39482 -512 3370 1730"
    underline-thickness="100"
    underline-position="-100"
  />
    <missing-glyph horiz-adv-x="2048" />
    <glyph glyph-name="abort" unicode="abort" horiz-adv-x="2048" d="M1664 1536C1792 1536 1856 1472 1894 1408 1907 1370 1920 1331 1920 1280L1920 128C1920 0 1856-64 1792-102 1754-115 1715-128 1664-128L1280-128 1088-384 896-128 512-128C384-128 320-64 282 0 269 38 256 77 256 128L256 1280C256 1331 269 1370 282 1408 320 1472 384 1536 512 1536L1664 1536ZM1293 704L1626 1037C1677 1088 1677 1178 1626 1242 1562 1293 1485 1293 1421 1242L1088 909 768 1229C717 1280 627 1280 563 1229 512 1178 512 1075 563 1024L896 691 563 358C512 307 512 218 563 154 614 102 704 102 768 154L1101 486 1434 154C1498 102 1574 102 1638 154 1690 205 1690 294 1638 358L1293 704Z" />
    <glyph glyph-name="add" unicode="add" horiz-adv-x="2048" d="M832 832L832 1408C832 1479 889 1536 960 1536L1088 1536C1159 1536 1216 1479 1216 1408L1216 832 1792 832C1863 832 1920 775 1920 704L1920 576C1920 505 1863 448 1792 448L1216 448 1216-128C1216-199 1159-256 1088-256L960-256C889-256 832-199 832-128L832 448 256 448C185 448 128 505 128 576L128 704C128 775 185 832 256 832L832 832Z" />
    <glyph glyph-name="align_center" unicode="align_center" horiz-adv-x="2048" d="M0 1536L2048 1536 2048 1280 0 1280 0 1536ZM1920 1024L1920 768 128 768 128 1024 1920 1024ZM0 256L0 512 2048 512 2048 256 0 256ZM384-256L384 0 1664 0 1664-256 384-256Z" />
    <glyph glyph-name="align_left" unicode="align_left" horiz-adv-x="2048" d="M0 1536L1920 1536 1920 1280 0 1280 0 1536ZM1664 1024L1664 768 0 768 0 1024 1664 1024ZM0 256L0 512 2048 512 2048 256 0 256ZM0-256L0 0 1280 0 1280-256 0-256Z" />
    <glyph glyph-name="align_object_center" unicode="align_object_center" horiz-adv-x="2048" d="M1933 1280L115 1280C51 1280 0 1229 0 1165L0 115C0 51 51 0 115 0L1933 0C1997 0 2048 51 2048 115L2048 1165C2048 1229 1997 1280 1933 1280ZM1920 128L128 128 128 1152 1920 1152 1920 128ZM1408 1024L640 1024 640 256 1408 256 1408 1024Z" />
    <glyph glyph-name="align_object_left" unicode="align_object_left" horiz-adv-x="2048" d="M1933 1280L115 1280C51 1280 0 1229 0 1165L0 115C0 51 51 0 115 0L1933 0C1997 0 2048 51 2048 115L2048 1165C2048 1229 1997 1280 1933 1280ZM1920 128L128 128 128 1152 1920 1152 1920 128ZM1024 1024L256 1024 256 256 1024 256 1024 1024Z" />
    <glyph glyph-name="align_object_right" unicode="align_object_right" horiz-adv-x="2048" d="M1933 1280L115 1280C51 1280 0 1229 0 1165L0 115C0 51 51 0 115 0L1933 0C1997 0 2048 51 2048 115L2048 1165C2048 1229 1997 1280 1933 1280ZM1920 128L128 128 128 1152 1920 1152 1920 128ZM1792 1024L1024 1024 1024 256 1792 256 1792 1024Z" />
    <glyph glyph-name="align_right" unicode="align_right" horiz-adv-x="2048" d="M2048 1536L2048 1280 128 1280 128 1536 2048 1536ZM384 1024L2048 1024 2048 768 384 768 384 1024ZM2048 256L0 256 0 512 2048 512 2048 256ZM2048-256L768-256 768 0 2048 0 2048-256Z" />
    <glyph glyph-name="analyze" unicode="analyze" horiz-adv-x="2048" d="M196 1408C213 1408 230 1398 239 1388 247 1367 256 1357 256 1336L256 261C256 241 256 220 239 210 230 179 213 179 196 179L68 179C51 179 34 179 26 200 9 210 0 230 0 251L0 1336C0 1357 9 1377 17 1388 34 1398 51 1408 68 1408L196 1408ZM708 1101C725 1101 742 1091 751 1080 768 1060 768 1039 768 1019L768 251C768 230 768 210 751 200 742 179 725 179 708 179L580 179C563 179 555 179 538 200 521 210 512 230 512 251L512 1019C512 1039 521 1060 529 1080 546 1091 563 1101 580 1101L708 1101ZM2038-15C2048-26 2048-46 2038-56L1976-118C1966-128 1946-128 1935-118L1761 56C1679 5 1587-36 1495-36 1229-26 1024 179 1024 435 1024 691 1229 896 1485 896 1741 896 1946 691 1946 435 1946 333 1915 241 1853 169L2038-15ZM1485 179C1628 179 1741 292 1741 435 1741 579 1628 691 1485 691 1341 691 1229 579 1229 435 1229 292 1341 179 1485 179Z" />
    <glyph glyph-name="application" unicode="application" horiz-adv-x="2048" d="M1388 748C1388 737 1377 725 1365 725L364 725C353 725 341 737 341 748L341 816C341 828 353 839 364 839L1365 839C1377 839 1388 828 1388 816L1388 748ZM1684 612C1695 612 1707 600 1707 589L1707 509C1707 509 1695 498 1684 498L592 498C580 498 569 509 569 521L569 589C569 600 580 612 592 612L1684 612ZM1456 384C1468 384 1479 373 1479 361L1479 282C1479 270 1468 259 1456 259L592 259C580 270 569 282 569 293L569 373C569 373 580 384 592 384L1456 384ZM1923 1408C2025 1408 2048 1385 2048 1283L2048-60C2048-162 2025-185 1923-185L125-185C23-185 0-162 0-60L0 1283C0 1385 23 1408 125 1408L1923 1408ZM398 1294C364 1294 341 1271 341 1237 341 1203 364 1180 398 1180 432 1180 455 1203 455 1237 455 1271 432 1294 398 1294ZM171 1294C137 1294 114 1271 114 1237 114 1203 137 1180 171 1180 205 1180 228 1203 228 1237 228 1271 205 1294 171 1294ZM1934 1044C1934 1055 1923 1067 1911 1067L137 1067C125 1067 114 1055 114 1044L114-48C114-60 125-71 137-71L1911-71C1923-71 1934-60 1934-48L1934 1044Z" />
    <glyph glyph-name="approve" unicode="approve" horiz-adv-x="2048" d="M1920 1280L1728 1280 1728 1446C1728 1461 1717 1472 1702 1472L346 1472C331 1472 320 1461 320 1446L320-166C320-181 331-192 346-192L1702-192C1717-192 1728-181 1728-166L1728 0 1920 0 1920-256C1920-327 1863-384 1792-384L256-384C185-384 128-327 128-256L128 1536C128 1607 185 1664 256 1664L1792 1664C1863 1664 1920 1607 1920 1536L1920 1280ZM1901 1024L2012 914C2032 894 2032 862 2012 842L1261 91C1241 71 1209 71 1189 91L804 476C784 496 784 528 804 548L915 659C935 679 967 679 987 659L1225 421 1829 1024C1849 1044 1881 1044 1901 1024Z" />
    <glyph glyph-name="arrow_down" unicode="arrow_down" horiz-adv-x="2048" d="M1024 512L1600 1088 1792 896 1216 320 1024 128 256 896 448 1088 1024 512Z" />
    <glyph glyph-name="arrow_down_2" unicode="arrow_down_2" horiz-adv-x="2048" d="M934 1664L1114 1664C1139 1664 1152 1651 1152 1626L1152 90 1604 499C1617 512 1642 512 1655 499L1782 371C1795 358 1795 333 1782 307L1024-384 266 307C253 333 253 358 266 371L393 499C406 512 431 512 444 499L896 90 896 1626C896 1651 909 1664 934 1664Z" />
    <glyph glyph-name="arrow_left" unicode="arrow_left" horiz-adv-x="2048" d="M896 640L1472 64 1280-128 512 640 1280 1408 1472 1216Z" />
    <glyph glyph-name="arrow_right" unicode="arrow_right" horiz-adv-x="2048" d="M1088 640L512 1216 704 1408 1472 640 704-128 512 64 1088 640Z" />
    <glyph glyph-name="arrow_up" unicode="arrow_up" horiz-adv-x="2048" d="M1024 768L448 192 256 384 1024 1152 1792 384 1600 192Z" />
    <glyph glyph-name="arrow_up_2" unicode="arrow_up_2" horiz-adv-x="2048" d="M1114-384L934-384C909-384 896-371 896-346L896 1190 444 781C431 768 406 768 393 781L266 909C253 922 253 947 266 973L1024 1664 1782 973C1795 947 1795 922 1782 909L1655 781C1642 768 1617 768 1604 781L1152 1190 1152-346C1152-371 1139-384 1114-384Z" />
    <glyph glyph-name="ascending" unicode="ascending" horiz-adv-x="2048" d="M390-152L0 335 293 335 293 1408 488 1408 488 335 780 335 390-152ZM975 1213L975 1018 2048 1018 2048 1213 975 1213ZM975 725L975 530 2048 530 2048 725 975 725ZM975 238L975 43 2048 43 2048 238 975 238Z" />
    <glyph glyph-name="associate" unicode="associate" horiz-adv-x="2048" d="M1600 1664C1843 1664 2048 1459 2048 1216 2048 973 1843 768 1600 768 1510 768 1434 794 1357 845L1254 742C1267 704 1280 678 1280 640 1280 499 1165 384 1024 384 986 384 960 397 922 410L819 307C870 230 896 154 896 64 896-179 691-384 448-384 205-384 0-179 0 64 0 307 205 512 448 512 538 512 614 486 691 435L794 538C781 576 768 602 768 640 768 781 883 896 1024 896 1062 896 1088 883 1126 870L1229 973C1178 1050 1152 1126 1152 1216 1152 1459 1357 1664 1600 1664ZM627-115C678-64 704 0 704 64 704 128 678 192 627 243 576 294 512 320 448 320 384 320 320 294 269 243 218 192 192 128 192 64 192 0 218-64 269-115 320-166 384-192 448-192 512-192 576-166 627-115ZM1779 1037C1830 1088 1856 1152 1856 1216 1856 1280 1830 1344 1779 1395 1728 1446 1664 1472 1600 1472 1536 1472 1472 1446 1421 1395 1370 1344 1344 1280 1344 1216 1344 1152 1370 1088 1421 1037 1472 986 1536 960 1600 960 1664 960 1728 986 1779 1037Z" />
    <glyph glyph-name="auto_layout" unicode="auto_layout" horiz-adv-x="2048" d="M1387-384L1565-65 1323 81C1247 2 1132-52 1018-52 903-52 789-12 712 81L471-65 649-384 0-224 165 454 343 121 585 268C572 334 572 374 572 427 572 640 700 826 890 879L890 1172 547 1172 1018 1664 1488 1172 1145 1172 1145 879C1348 826 1476 640 1476 427 1476 374 1476 334 1463 281L1705 135 1883 467 2048-211 1387-384Z" />
    <glyph glyph-name="back" unicode="back" horiz-adv-x="2048" d="M704 1509C742 1560 768 1534 768 1470L768 1023C1382 1023 1920 831 1920 256 1920 51 1856-103 1754-256 1766-179 1779-141 1779-64 1779 447 1293 639 768 639L768 256C768 192 742 179 691 217L166 780C115 831 115 895 166 946L704 1509Z" />
    <glyph glyph-name="bar_chart" unicode="bar_chart" horiz-adv-x="2048" d="M128 1152L384 1152C455 1152 512 1095 512 1024L512-256C512-327 455-384 384-384L128-384C57-384 0-327 0-256L0 1024C0 1095 57 1152 128 1152ZM896 640L1152 640C1223 640 1280 583 1280 512L1280-256C1280-327 1223-384 1152-384L896-384C825-384 768-327 768-256L768 512C768 583 825 640 896 640ZM1664 1664L1920 1664C1991 1664 2048 1607 2048 1536L2048-256C2048-327 1991-384 1920-384L1664-384C1593-384 1536-327 1536-256L1536 1536C1536 1607 1593 1664 1664 1664Z" />
    <glyph glyph-name="bar_chart_horizontal" unicode="bar_chart_horizontal" horiz-adv-x="2048" d="M1536 23L1536-277C1536-343 1485-382 1434-382L102-382C51-395 0-343 0-290L0 10C0 76 51 128 102 128L1421 128C1485 128 1536 76 1536 23ZM1024 794L1024 499C1024 435 973 384 922 384L102 384C51 384 0 435 0 486L0 794C0 845 51 896 102 896L909 896C973 896 1024 845 1024 794ZM2048 1562L2048 1267C2048 1203 1997 1152 1946 1152L102 1152C51 1152 0 1203 0 1254L0 1562C0 1613 51 1664 102 1664L1933 1664C1997 1664 2048 1613 2048 1562Z" />
    <glyph glyph-name="bars_grouped" unicode="bars_grouped" horiz-adv-x="2048" d="M1024 1664L2048 1664 2048-384 1024-384 128-384 128 832 1024 832 1024 1664ZM1920-244L1920 1536 1152 1536 1152-256 1920-256 1920-244Z" />
    <glyph glyph-name="bars_horizontal" unicode="bars_horizontal" horiz-adv-x="2048" d="M0 1536L2048 1536 2048 1152 0 1152 0 1536ZM1024 0L1024-384 0-384 0 0 1024 0ZM0 768L1408 768 1408 384 0 384 0 768Z" />
    <glyph glyph-name="bars_stacked" unicode="bars_stacked" horiz-adv-x="2048" d="M512 1664L1536 1664 1536 640 1536 320 1536-384 512-384 512 320 512 640 512 1664ZM640 640L1408 640 1408 1536 640 1536 640 640Z" />
    <glyph glyph-name="bars_vertical" unicode="bars_vertical" horiz-adv-x="2048" d="M128-384L128 1664 512 1664 512-384 128-384ZM896-384L896 1024 1280 1024 1280-384 896-384ZM1664 640L2048 640 2048-384 1664-384 1664 640Z" />
    <glyph glyph-name="bell" unicode="bell" horiz-adv-x="2048" d="M1920-128C1792-256 1536-256 1536-256 1536-256 1820-101 1802-96 1543-32 1283 0 1024 0 769 0 515-31 260-93 241-98 512-256 512-256 341-256 213-213 128-128L128-51C128-13 141 13 166 26L307 166C358 230 384 294 384 358L384 768C384 1101 589 1331 896 1408L896 1536C896 1626 934 1664 1024 1664 1114 1664 1152 1626 1152 1536L1152 1408C1459 1331 1664 1101 1664 768L1664 358C1664 294 1690 230 1741 179L1882 38C1907 13 1920-13 1920-38 1920-98 1920-128 1920-128ZM1024-384C822-384 779-382 770-213 815-156 900-128 1024-128 1148-128 1233-156 1278-213 1269-382 1227-384 1024-384Z" />
    <glyph glyph-name="bin" unicode="bin" horiz-adv-x="2048" d="M1472 1408L1664 1408C1735 1408 1792 1351 1792 1280L384 1280C384 1351 441 1408 512 1408L704 1408 832 1536 1344 1536 1472 1408ZM512 1152L1664 1152 1664-64C1664-170 1578-256 1472-256L704-256C598-256 512-170 512-64L512 1152ZM640 896L640 0 768 0 768 896 640 896ZM896 896L896 0 1024 0 1024 896 896 896ZM1152 896L1152 0 1280 0 1280 896 1152 896ZM1408 896L1408 0 1536 0 1536 896 1408 896Z" />
    <glyph glyph-name="bold" unicode="bold" horiz-adv-x="2048" d="M1156-255L1156-256 384-256 384 1536 1156 1536 1156 1532C1174 1534 1193 1536 1212 1536 1425 1536 1598 1341 1598 1101 1598 925 1505 773 1371 704 1543 629 1664 451 1664 243 1664-33 1452-256 1190-256 1178-256 1167-256 1156-255ZM715 1216L715 806 1062 806C1175 806 1267 898 1267 1011 1267 1124 1175 1216 1062 1216L715 1216ZM715 512L715 26 1134 26C1268 26 1377 134 1377 269 1377 403 1268 512 1134 512L715 512Z" />
    <glyph glyph-name="book" unicode="book" horiz-adv-x="2048" d="M256 1254L256 154C256 139 267 128 282 128L715 128C831 128 942 82 1024 0L1024 0C1106 82 1217 128 1333 128L1766 128C1781 128 1792 139 1792 154L1792 1254C1792 1269 1781 1280 1766 1280L1280 1280C1174 1280 1088 1194 1088 1088L1088 64C1088 29 1059 0 1024 0L1024 0C989 0 960 29 960 64L960 1088C960 1194 874 1280 768 1280L282 1280C267 1280 256 1269 256 1254ZM1984-128L1333-128C1217-128 1106-174 1024-256L1024-256C942-174 831-128 715-128L64-128C29-128 0-99 0-64L0 1088C0 1123 29 1152 64 1152L128 1152 128 1344C128 1379 157 1408 192 1408L817 1408C905 1408 985 1358 1024 1280L1024 1280C1063 1358 1143 1408 1231 1408L1856 1408C1891 1408 1920 1379 1920 1344L1920 1152 1984 1152C2019 1152 2048 1123 2048 1088L2048-64C2048-99 2019-128 1984-128Z" />
    <glyph glyph-name="bookmark" unicode="bookmark" horiz-adv-x="2048" d="M1024 128L384-384 384 1408C384 1549 499 1664 640 1664L1408 1664C1549 1664 1664 1549 1664 1408L1664-384 1024 128ZM576 1363L576 17 1024 365 1472 17 1472 1363C1472 1423 1422 1472 1360 1472L688 1472C626 1472 576 1423 576 1363Z" />
    <glyph glyph-name="bookmark_2" unicode="bookmark_2" horiz-adv-x="2048" d="M1024 128L384-384 384 1408C384 1549 499 1664 640 1664L1408 1664C1549 1664 1664 1549 1664 1408L1664-384 1024 128ZM576 1363L576 17 1024 365 1472 17 1472 1363C1472 1423 1422 1472 1360 1472L688 1472C626 1472 576 1423 576 1363Z" />
    <glyph glyph-name="box" unicode="box" horiz-adv-x="2048" d="M1024 1664L1920 1152 1024 640 128 1152 1024 1664ZM1152-384L1152 384 1920 832 1920 0 1152-384ZM128 0L128 832 909 384 909-384 128 0Z" />
    <glyph glyph-name="boxplot" unicode="boxplot" horiz-adv-x="2048" d="M1920 512L1664 512 1664 0C1664-71 1607-128 1536-128L512-128C441-128 384-71 384 0L384 512 136 512 136 324C136 286 106 256 68 256 30 256 0 286 0 324L0 956C0 994 30 1024 68 1024 106 1024 136 994 136 956L136 768 384 768 384 1280C384 1351 441 1408 512 1408L1536 1408C1607 1408 1664 1351 1664 1280L1664 768 1920 768 1920 956C1920 994 1950 1024 1988 1024 2026 1024 2056 994 2056 956L2056 324C2056 286 2026 256 1988 256 1950 256 1920 286 1920 324L1920 512ZM1536 0L1536 1280 1024 1280 1024 0 1536 0ZM896 0L896 1280 512 1280 512 0 896 0Z" />
    <glyph glyph-name="break_association" unicode="break_association" horiz-adv-x="2048" d="M1587 1663C1843 1676 2060 1459 2047 1203 2035 960 1843 768 1600 768 1510 768 1433 794 1357 845L1216 691C1190 678 1165 678 1152 691L1075 768C1062 781 1062 819 1075 832L1216 973C1178 1049 1152 1126 1152 1216 1152 1459 1344 1651 1587 1663ZM1779 1037C1830 1088 1856 1152 1856 1216 1856 1280 1830 1344 1779 1395 1728 1446 1664 1472 1600 1472 1536 1472 1472 1446 1421 1395 1369 1344 1344 1280 1344 1216 1344 1152 1369 1088 1421 1037 1472 985 1536 960 1600 960 1664 960 1728 985 1779 1037ZM832 589C845 602 883 602 896 589L973 512C986 499 986 461 973 448L832 307C870 231 896 154 896 64 896-179 704-371 461-383 205-396-12-179 1 77 13 320 205 512 448 512 538 512 615 486 691 435L832 589ZM627-115C679-64 704 0 704 64 704 128 679 192 627 243 576 295 512 320 448 320 384 320 320 295 269 243 218 192 192 128 192 64 192 0 218-64 269-115 320-166 384-192 448-192 512-192 576-166 627-115ZM832 1024C794 1024 768 1049 768 1088L768 1344C768 1382 794 1408 832 1408 870 1408 896 1382 896 1344L896 1088C896 1049 870 1024 832 1024ZM576 768L320 768C282 768 256 794 256 832 256 870 282 896 320 896L576 896C615 896 640 870 640 832 640 794 615 768 576 768ZM1216-128C1178-128 1152-102 1152-64L1152 192C1152 231 1178 256 1216 256 1254 256 1280 231 1280 192L1280-64C1280-102 1254-128 1216-128ZM1728 384L1472 384C1433 384 1408 410 1408 448 1408 486 1433 512 1472 512L1728 512C1766 512 1792 486 1792 448 1792 410 1766 384 1728 384Z" />
    <glyph glyph-name="bubbles" unicode="bubbles" horiz-adv-x="2048" d="M1664 896C1664 896 1254 934 1152 1318 1126 1510 960 1664 768 1664 550 1664 384 1498 384 1280 384 1203 410 1126 448 1062 448 1062 614 653 205 333 90 282 0 154 0 0 0-218 166-384 384-384 602-384 768-218 768 0 768 64 755 115 730 166 691 307 627 666 922 922 947 922 1242 909 1280 538 1280 525 1280 525 1280 512 1280 294 1446 128 1664 128 1882 128 2048 294 2048 512 2048 730 1882 896 1664 896ZM614 1434C653 1485 704 1498 768 1498 832 1498 883 1472 922 1434 973 1395 986 1344 986 1280 986 1216 973 1165 922 1126 883 1075 832 1062 768 1062 704 1062 653 1075 614 1126 563 1165 550 1216 550 1280 550 1344 563 1395 614 1434ZM538-154C499-192 435-218 384-218 333-218 269-192 230-154 192-115 166-51 166 0 166 51 192 115 230 154 269 192 333 218 384 218 435 218 499 192 538 154 576 115 602 51 602 0 602-51 589-115 538-154ZM1818 358C1779 320 1715 294 1664 294 1613 294 1549 320 1510 358 1472 397 1446 461 1446 512 1446 563 1472 627 1510 666 1549 704 1613 730 1664 730 1715 730 1779 704 1818 666 1856 627 1882 563 1882 512 1882 461 1869 397 1818 358Z" />
    <glyph glyph-name="building" unicode="building" horiz-adv-x="2048" d="M0-384L896-384 896 1664 0 1664 0-384ZM512 1280L768 1280 768 1536 512 1536 512 1280ZM128 1280L384 1280 384 1536 128 1536 128 1280ZM512 768L768 768 768 1024 512 1024 512 768ZM128 768L384 768 384 1024 128 1024 128 768ZM512 256L768 256 768 512 512 512 512 256ZM128 256L384 256 384 512 128 512 128 256ZM1024 896L1024-384 1408-384 1408 0 1664 0 1664-384 2048-384 2048 896 1024 896Z" />
    <glyph glyph-name="calendar" unicode="calendar" horiz-adv-x="2048" d="M1792 1664C1958 1664 2048 1574 2048 1408L2048-128C2048-294 1958-384 1792-384L256-384C90-384 0-294 0-128L0 1408C0 1574 90 1664 256 1664L384 1664 384 1536C384 1459 435 1408 512 1408 589 1408 640 1459 640 1536L640 1664 1408 1664 1408 1536C1408 1459 1459 1408 1536 1408 1613 1408 1664 1459 1664 1536L1664 1664 1792 1664ZM1920 1152L128 1152 128-128C128-154 141-179 141-192 154-230 192-256 256-256L1792-256C1818-256 1843-243 1856-243 1894-230 1920-192 1920-128L1920 1152ZM384 13L384 115C384 122 390 128 397 128L499 128C506 128 512 134 512 141L512 627C512 634 506 640 499 640L397 640C390 640 384 646 384 653L384 755C384 762 390 768 397 768L512 768 512 883C512 890 518 896 525 896L627 896C634 896 640 890 640 883L640 141C640 134 646 128 653 128L755 128C762 128 768 122 768 115L768 13C768 6 762 0 755 0L397 0C390 0 384 6 384 13ZM1536 896C1607 896 1664 839 1664 768L1664 512C1664 441 1607 384 1536 384L1178 384C1163 384 1152 373 1152 358L1152 154C1152 139 1163 128 1178 128L1638 128C1653 128 1664 117 1664 102L1664 26C1664 11 1653 0 1638 0L1088 0C1053 0 1024 29 1024 64L1024 384C1024 455 1081 512 1152 512L1510 512C1525 512 1536 523 1536 538L1536 742C1536 757 1525 768 1510 768L1178 768C1163 768 1152 757 1152 742L1152 666C1152 651 1141 640 1126 640L1050 640C1035 640 1024 651 1024 666L1024 768C1024 839 1081 896 1152 896L1536 896Z" />
    <glyph glyph-name="camera" unicode="camera" horiz-adv-x="2048" d="M1259 694C1284 694 1308 694 1332 706 1332 682 1344 658 1344 634 1344 465 1199 320 1030 320 849 320 704 465 704 634 704 815 849 960 1030 960 1054 960 1078 960 1102 948 1090 936 1078 912 1078 875 1078 779 1163 694 1259 694ZM1920 1408C2048 1408 2048 1280 2048 1280L2048 0C2048-121 1920-128 1920-128L128-128C128-128 0-121 0 0L0 1280C0 1401 128 1408 128 1408L256 1408 256 1514C256 1525 267 1536 279 1536L575 1536C586 1536 597 1525 597 1514L597 1408C1479 1408 1920 1408 1920 1408ZM1018 128C1306 128 1536 358 1536 646 1536 922 1306 1152 1018 1152 742 1152 512 922 512 646 512 358 742 128 1018 128ZM1792 1280L1536 1280 1536 1152 1792 1152 1792 1280Z" />
    <glyph glyph-name="chart" unicode="chart" horiz-adv-x="2048" d="M0 640L320 640 320-256 0-256 0 640ZM576 896L896 896 896-256 576-256 576 896ZM1152 512L1472 512 1472-256 1152-256 1152 512ZM1728 896L2048 896 2048-256 1728-256 1728 896ZM1468 967C1479 944 1479 933 1479 910 1479 819 1399 740 1308 740 1217 740 1138 819 1138 910 1138 922 1138 933 1138 956L865 1126C831 1104 785 1081 740 1081 683 1081 637 1104 603 1149L341 1024C341 922 262 853 171 853 80 853 0 933 0 1024 0 1115 80 1195 171 1195 228 1195 273 1172 307 1126L569 1263C569 1354 649 1422 740 1422 831 1422 910 1343 910 1252 910 1240 910 1240 910 1240L1206 1047C1229 1070 1274 1081 1308 1081 1343 1081 1377 1070 1399 1058L1707 1320C1707 1331 1707 1343 1707 1365 1707 1456 1786 1536 1877 1536 1968 1536 2048 1456 2048 1365 2048 1274 1968 1195 1877 1195 1843 1195 1809 1206 1775 1229L1468 967ZM1877 1445C1832 1445 1798 1411 1798 1365 1798 1320 1832 1286 1877 1286 1923 1286 1957 1320 1957 1365 1957 1411 1923 1445 1877 1445ZM171 944C216 944 250 978 250 1024 250 1070 216 1104 171 1104 125 1104 91 1070 91 1024 91 978 125 944 171 944ZM740 1172C785 1172 819 1206 819 1252 819 1297 785 1331 740 1331 694 1331 660 1297 660 1252 660 1206 694 1172 740 1172ZM1308 831C1354 831 1388 865 1388 910 1388 956 1354 990 1308 990 1263 990 1229 956 1229 910 1229 865 1263 831 1308 831Z" />
    <glyph glyph-name="chat" unicode="chat" horiz-adv-x="2048" d="M128 1408L1920 1408C1991 1408 2048 1351 2048 1280L2048 0C2048-71 1991-128 1920-128L896-128 384-384 384-128 128-128C57-128 0-71 0 0L0 1280C0 1351 57 1408 128 1408ZM384 1024L384 896 1152 896 1152 1024 384 1024ZM384 512L384 384 1408 384 1408 512 384 512ZM384 768L384 640 1536 640 1536 768 384 768Z" />
    <glyph glyph-name="checkbox_indetermined" unicode="checkbox_indetermined" horiz-adv-x="2048" d="M512 640C512 711 570 768 640 768L1408 768C1479 768 1536 711 1536 640 1536 569 1478 512 1408 512L640 512C569 512 512 569 512 640Z" />
    <glyph glyph-name="checkbox_tick" unicode="checkbox_tick" horiz-adv-x="2048" d="M1474 986C1424 1037 1343 1037 1293 986L862 556 756 662C706 712 625 712 575 662 525 612 525 531 575 481L772 284C822 234 903 234 953 284L1474 805C1524 855 1524 936 1474 986" />
    <glyph glyph-name="clear_filter" unicode="clear_filter" horiz-adv-x="2048" d="M1897 647C1702 852 1374 852 1168 647 973 441 963 123 1168-82 1374-277 1692-277 1897-82 2103 123 2092 441 1897 647ZM1805 133C1836 103 1836 51 1805 20 1774-10 1723-10 1692 20L1538 174 1384 20C1353-10 1302-10 1271 20 1240 51 1240 103 1271 133L1425 287 1271 441C1240 472 1240 523 1271 554 1302 585 1353 585 1384 554L1538 400 1692 554C1723 585 1774 585 1805 554 1836 523 1836 472 1805 441L1651 287 1805 133ZM1271 842C1066 739 922 534 922 287 922 205 943 133 963 61L676-226C655-247 614-226 614-195L614 462C614 482 614 503 604 513L8 1345C-12 1376 8 1417 39 1406L1589 1406C1630 1406 1651 1376 1630 1345L1271 842Z" />
    <glyph glyph-name="clear_selections" unicode="clear_selections" horiz-adv-x="2048" d="M768-320L768-320C768-285 797-256 832-256L1216-256C1251-256 1280-285 1280-320L1280-320C1280-355 1251-384 1216-384L832-384C797-384 768-355 768-320ZM128-64L128-192C128-227 157-256 192-256L320-256C355-256 384-285 384-320L384-320C384-355 355-384 320-384L128-384C57-384 0-327 0-256L0-64C0-29 29 0 64 0L64 0C99 0 128-29 128-64ZM128 832L128 448C128 413 99 384 64 384L64 384C29 384 0 413 0 448L0 832C0 867 29 896 64 896L64 896C99 896 128 867 128 832ZM0 1344L0 1536C0 1607 57 1664 128 1664L320 1664C355 1664 384 1635 384 1600L384 1600C384 1565 355 1536 320 1536L192 1536C157 1536 128 1507 128 1472L128 1344C128 1309 99 1280 64 1280L64 1280C29 1280 0 1309 0 1344ZM768 1600L768 1600C768 1635 797 1664 832 1664L1216 1664C1251 1664 1280 1635 1280 1600L1280 1600C1280 1565 1251 1536 1216 1536L832 1536C797 1536 768 1565 768 1600ZM1920 1344L1920 1472C1920 1507 1891 1536 1856 1536L1728 1536C1693 1536 1664 1565 1664 1600L1664 1600C1664 1635 1693 1664 1728 1664L1920 1664C1991 1664 2048 1607 2048 1536L2048 1344C2048 1309 2019 1280 1984 1280L1984 1280C1949 1280 1920 1309 1920 1344ZM1173 875C1372 1074 1700 1074 1899 875 2098 676 2098 348 1899 149 1700-50 1372-50 1173 149 974 348 974 669 1173 875ZM1809 676C1835 701 1841 746 1809 778 1777 811 1732 804 1706 778L1539 612 1372 778C1347 811 1295 811 1270 778 1237 753 1237 701 1270 676L1436 509 1270 342C1237 316 1237 271 1270 239 1302 207 1347 207 1372 239L1539 406 1706 239C1732 207 1777 207 1809 239 1835 265 1841 316 1809 342L1642 509 1809 676Z" />
    <glyph glyph-name="clipboard" unicode="clipboard" horiz-adv-x="2048" d="M1536 1024L512 1024 512 1152 1536 1152 1536 1024ZM1792 1664C1856 1664 1894 1638 1907 1600 1907 1587 1920 1562 1920 1536L1920-256C1920-282 1907-307 1907-320 1894-358 1856-384 1792-384L256-384C192-384 154-358 141-320 141-307 128-282 128-256L128 1536C128 1562 141 1587 141 1600 154 1638 192 1664 256 1664L1792 1664ZM1792 1536L256 1536 256 256 768 256 768-256 1792-256 1792 1536ZM1536 640L512 640 512 768 1536 768 1536 640Z" />
    <glyph glyph-name="clock" unicode="clock" horiz-adv-x="2048" d="M1136 704L1093 1216C1090 1252 1060 1280 1024 1280 988 1280 958 1252 955 1216L907 640C906 636 906 633 906 630 906 568 954 517 1014 512L1353 292C1383 272 1423 281 1442 311 1442 311 1442 311 1443 312 1463 344 1458 387 1431 414L1161 684C1153 692 1145 698 1136 704ZM1024 1664C1587 1664 2048 1203 2048 640 2048 77 1587-384 1024-384 461-384 0 77 0 640 0 1203 461 1664 1024 1664Z" />
    <glyph glyph-name="clock_2" unicode="clock_2" horiz-adv-x="2048" d="M1136 704C1145 698 1153 692 1161 684L1431 414C1458 387 1463 344 1443 312 1442 311 1442 311 1442 311 1423 281 1383 272 1353 292L1014 512C954 517 906 568 906 630 906 633 906 636 907 640L955 1216C958 1252 988 1280 1024 1280 1060 1280 1090 1252 1093 1216L1136 704ZM1024 1664C1587 1664 2048 1203 2048 640 2048 77 1587-384 1024-384 461-384 0 77 0 640 0 1203 461 1664 1024 1664ZM1024 1408C602 1408 256 1062 256 640 256 218 602-128 1024-128 1446-128 1792 218 1792 640 1792 1062 1446 1408 1024 1408Z" />
    <glyph glyph-name="close" unicode="close" horiz-adv-x="2048" d="M1196 640L1706 130C1753 83 1753 6 1706-42 1658-89 1581-89 1534-42L1024 468 514-42C467-89 390-89 342-42 295 6 295 83 342 130L852 640 342 1150C295 1197 295 1274 342 1322 390 1369 467 1369 514 1322L1024 812 1534 1322C1581 1369 1658 1369 1706 1322 1753 1274 1753 1197 1706 1150L1196 640Z" />
    <glyph glyph-name="cloud" unicode="cloud" horiz-adv-x="2048" d="M1310 1123C1351 1134 1393 1145 1424 1145 1497 1145 1591 1123 1674 1057 1767 980 1767 870 1767 859 1819 837 1871 794 1913 750 1996 651 2048 530 2048 388L2048 377 2048 366C2048 300 2038 234 2006 168 1986 102 1944 59 1902 4 1861-40 1798-84 1747-106 1684-117 1622-128 1559-128L489-128C426-128 364-117 301-84 239-62 187-18 146 26 104 69 62 124 42 190 10 256 0 322 0 388 0 508 42 629 114 717 146 761 187 794 229 827 229 827 229 837 239 837 239 837 239 837 250 837 260 903 270 958 291 1024 322 1101 364 1156 416 1221 478 1276 530 1331 613 1364 686 1386 759 1408 842 1408 1008 1408 1216 1331 1310 1123ZM1861 388C1861 563 1736 706 1570 706 1580 728 1580 761 1580 783 1580 925 1497 1035 1351 1035 1341 1035 1331 1035 1320 1035 1351 859 1310 750 1258 673 1227 629 1196 607 1154 585 1258 739 1227 914 1196 991 1123 1134 988 1221 832 1221 624 1221 447 1068 416 859 593 848 686 772 738 706 790 640 811 596 821 552 697 706 509 717 437 706 301 673 198 552 198 399 198 223 333 80 499 80L1559 80C1726 69 1861 212 1861 388Z" />
    <glyph glyph-name="code" unicode="code" horiz-adv-x="2048" d="M1425 1660C1458 1648 1475 1611 1463 1578L764-342C752-375 715-392 682-380 649-368 632-331 644-298L1343 1622C1355 1655 1391 1672 1425 1660ZM1601 148C1575 121 1534 121 1509 148L1427 232C1402 259 1402 301 1427 328L1728 640 1427 952C1402 979 1402 1021 1427 1048L1509 1132C1534 1159 1575 1159 1601 1132L2048 640 1601 148ZM447 148L0 640 447 1132C473 1159 514 1159 539 1132L621 1048C646 1021 646 979 621 952L320 640 621 328C646 301 646 259 621 232L539 148C514 121 473 121 447 148Z" />
    <glyph glyph-name="cogwheel" unicode="cogwheel" horiz-adv-x="2048" d="M1792 640C1792 614 1792 589 1792 563L2048 435 1971 205 1690 256C1664 218 1638 166 1600 128L1741-128 1536-256 1331-51C1280-64 1242-90 1190-102L1152-384 896-384 858-102C806-90 755-77 717-51L512-256 307-115 448 141C410 179 384 218 358 269L77 218 0 435 256 563C256 589 256 614 256 640 256 666 256 691 256 717L0 845 77 1075 358 1024C384 1062 410 1114 448 1152L307 1408 512 1536 717 1331C768 1357 806 1370 858 1382L896 1664 1152 1664 1190 1382C1242 1370 1293 1357 1331 1331L1536 1536 1741 1395 1600 1139C1638 1101 1664 1062 1690 1011L1971 1062 2048 845 1792 717C1792 691 1792 666 1792 640ZM1024 256C1242 256 1408 422 1408 640 1408 858 1242 1024 1024 1024 806 1024 640 858 640 640 640 422 806 256 1024 256Z" />
    <glyph glyph-name="collapse" unicode="collapse" horiz-adv-x="2048" d="M1856 768L1152 768 1152 1472C1152 1498 1190 1510 1216 1498L1408 1293 1626 1510C1651 1536 1690 1536 1715 1510L1882 1344C1907 1318 1907 1280 1882 1254L1677 1024 1882 819C1894 806 1882 768 1856 768ZM192 512L896 512 896-192C896-218 858-230 832-218L640-13 422-230C397-256 358-256 333-230L166-64C141-38 141 0 166 26L371 256 166 448C154 474 166 512 192 512Z" />
    <glyph glyph-name="collapse_2" unicode="collapse_2" horiz-adv-x="2048" d="M2048 1408L2048 1152 0 1152 0 1408 2048 1408ZM1485 307C1498 282 1498 256 1459 256L1152 256 1152-90C1152-115 1139-128 1114-128L934-128C909-128 896-115 896-90L896 256 589 256C563 256 550 294 563 307L998 742C1011 755 1037 755 1050 742L1485 307Z" />
    <glyph glyph-name="collapse_3" unicode="collapse_3" horiz-adv-x="2048" d="M998 538L563 973C550 986 550 998 563 1011 576 1024 589 1024 589 1024L896 1024 896 1382C896 1395 909 1408 934 1408L1114 1408C1139 1408 1152 1395 1152 1382L1152 1024 1459 1024C1485 1024 1510 998 1485 973L1050 538C1037 525 1011 525 998 538ZM0 128L2048 128 2048-128 0-128 0 128Z" />
    <glyph glyph-name="combo_chart" unicode="combo_chart" horiz-adv-x="2048" d="M384 384L512 512 512-384 128-384 128 128 384 384ZM1024 256L1152 384 1152-384 768-384 768 512 1024 256ZM1408 640L1792 1024 1792-384 1408-384 1408 640ZM1005 755L1767 1517C1792 1542 1832 1542 1857 1517L1902 1473C1927 1448 1927 1408 1902 1383L1005 486 646 845 153 351C128 327 88 327 63 351L19 396C-6 421-6 461 19 486L646 1114 1005 755Z" />
    <glyph glyph-name="comment" unicode="comment" horiz-adv-x="2048" d="M1792 1664C1920 1664 2048 1536 2048 1408L2048-128C2048-256 1920-384 1792-384L1344-384 730-384 256-384C128-384 0-256 0-128L0 1408C0 1536 128 1664 256 1664L1792 1664ZM1024 1280L768 1280 384 0 640 0 1024 1280ZM1664 1280L1408 1280 1024 0 1280 0 1664 1280Z" />
    <glyph glyph-name="compass" unicode="compass" horiz-adv-x="2048" d="M1024 1664C1587 1664 2048 1203 2048 640 2048 77 1587-384 1024-384 461-384 0 77 0 640 0 1203 461 1664 1024 1664ZM1613 51C1690 128 1754 218 1792 320 1830 422 1856 525 1856 640 1856 755 1830 858 1792 960 1754 1062 1690 1152 1613 1229 1536 1306 1446 1357 1344 1408 1242 1446 1139 1472 1024 1472 909 1472 806 1446 704 1408 602 1357 512 1306 435 1229 358 1152 307 1062 256 960 218 858 192 755 192 640 192 525 218 422 256 320 294 218 358 128 435 51 512-26 602-77 704-128 806-166 909-192 1024-192 1139-192 1242-166 1344-128 1446-77 1536-26 1613 51ZM768 896L1536 1152 1280 384 512 128 768 896ZM1024 768C960 768 896 704 896 640 896 563 947 512 1024 512 1101 512 1152 563 1152 640 1152 704 1101 768 1024 768Z" />
    <glyph glyph-name="configuration" unicode="configuration" horiz-adv-x="2048" d="M1664 384C1882 384 2048 218 2048 0 2048-218 1882-384 1664-384 1446-384 1280-218 1280 0 1280 115 1331 218 1408 294L1101 909C1075 896 1050 896 1024 896 998 896 973 896 947 909L640 294C717 218 768 115 768 0 768-218 602-384 384-384 166-384 0-218 0 0 0 218 166 384 384 384 410 384 435 384 461 371L768 986C691 1062 640 1165 640 1280 640 1498 806 1664 1024 1664 1242 1664 1408 1498 1408 1280 1408 1165 1357 1062 1280 986L1587 371C1613 384 1638 384 1664 384ZM384-128C461-128 512-77 512 0 512 77 461 128 384 128 307 128 256 77 256 0 256-77 307-128 384-128ZM1664-128C1741-128 1792-77 1792 0 1792 77 1741 128 1664 128 1587 128 1536 77 1536 0 1536-77 1587-128 1664-128Z" />
    <glyph glyph-name="container" unicode="container" horiz-adv-x="2048" d="M2048 896L1920 896 1920 1024 128 1024 128 896 0 896 0 1408C0 1479 57 1536 128 1536L1920 1536C1991 1536 2048 1479 2048 1408L2048 896ZM1408 1408L1408 1152 1920 1152 1920 1357C1920 1385 1897 1408 1869 1408L1408 1408ZM768 1408L768 1152 1280 1152 1280 1408 768 1408ZM179 1408C151 1408 128 1385 128 1357L128 1152 640 1152 640 1408 179 1408ZM2048 640L2048 256 1920 256 1920 640 2048 640ZM2048 0L2048-128C2048-199 1991-256 1920-256L1792-256 1792-128 1869-128C1897-128 1920-105 1920-77L1920 0 2048 0ZM1536-256L1152-256 1152-128 1536-128 1536-256ZM896-256L512-256 512-128 896-128 896-256ZM256-256L128-256C57-256 0-199 0-128L0 0 128 0 128-77C128-105 151-128 179-128L256-128 256-256ZM0 256L0 640 128 640 128 256 0 256Z" />
    <glyph glyph-name="control" unicode="control" horiz-adv-x="2048" d="M474 1408C499 1408 512 1395 512 1370L512 934C512 909 499 896 474 896L384 896 384-346C384-371 371-384 346-384L166-384C141-384 128-371 128-346L128 896 38 896C13 896 0 909 0 934L0 1370C0 1395 13 1408 38 1408L128 1408 128 1626C128 1651 141 1664 166 1664L346 1664C371 1664 384 1651 384 1626L384 1408 474 1408ZM384 1280L128 1280 128 1024 384 1024 384 1280ZM2010 1152C2035 1152 2048 1139 2048 1114L2048 678C2048 653 2035 640 2010 640L1920 640 1920-346C1920-371 1907-384 1882-384L1702-384C1677-384 1664-371 1664-346L1664 640 1574 640C1549 640 1536 653 1536 678L1536 1114C1536 1139 1549 1152 1574 1152L1664 1152 1664 1626C1664 1651 1677 1664 1702 1664L1882 1664C1907 1664 1920 1651 1920 1626L1920 1152 2010 1152ZM1920 1024L1664 1024 1664 768 1920 768 1920 1024ZM1242 384C1267 384 1280 371 1280 346L1280-90C1280-115 1267-128 1242-128L1152-128 1152-346C1152-371 1139-384 1114-384L934-384C909-384 896-371 896-346L896-128 806-128C781-128 768-115 768-90L768 346C768 371 781 384 806 384L896 384 896 1626C896 1651 909 1664 934 1664L1114 1664C1139 1664 1152 1651 1152 1626L1152 384 1242 384ZM1152 256L896 256 896 0 1152 0 1152 256Z" />
    <glyph glyph-name="copy" unicode="copy" horiz-adv-x="2048" d="M1408 384L1408-128C1408-199 1351-256 1280-256L128-256C57-256 0-199 0-128L0 768C0 839 57 896 128 896L640 896 640 1408C640 1479 697 1536 768 1536L1920 1536C1991 1536 2048 1479 2048 1408L2048 512C2048 441 1991 384 1920 384L1408 384ZM1216 384L768 384C697 384 640 441 640 512L640 704 256 704C221 704 192 675 192 640L192 0C192-35 221-64 256-64L1152-64C1187-64 1216-35 1216 0L1216 384ZM896 1344C861 1344 832 1315 832 1280L832 640C832 605 861 576 896 576L1792 576C1827 576 1856 605 1856 640L1856 1280C1856 1315 1827 1344 1792 1344L896 1344Z" />
    <glyph glyph-name="corner" unicode="corner" horiz-adv-x="2048" d="M1792 1664C1933 1664 2048 1549 2048 1408V-384L0 1664H1792Z" />
    <glyph glyph-name="cross" unicode="cross" horiz-adv-x="2048" d="M1024 896L1536 1408 1792 1152 1280 640 1792 128 1536-128 1024 384 512-128 256 128 768 640 256 1152 512 1408 1024 896Z" />
    <glyph glyph-name="cube" unicode="cube" horiz-adv-x="2048" d="M422 614L0 819 0 1280 333 1408 730 1229 422 1088 422 614ZM1190 1229L1600 1408 1920 1280 1920 819 1498 627 1498 1088 1190 1229ZM602 960L960 1126 1306 960 1306 525 960 358 602 525 602 960ZM960 1331L576 1510 960 1664 1344 1510 960 1331ZM1498 410L1920 602 1920 128 1498-90 1498 410ZM422 410L422-90 0 128 0 602 422 410ZM1318 320L1318-192 960-384 602-192 602 320 960 154 1318 320Z" />
    <glyph glyph-name="cut" unicode="cut" horiz-adv-x="2048" d="M757 373C655 360 566 335 502 322L400 309C221 283 42 398 3 590-22 769 106 961 284 986 476 1025 642 897 681 705L681 654 809 680 860 961C911 1217 1026 1383 1141 1498 1205 1562 1282 1626 1358 1664 1307 1562 1269 1447 1230 1344 1167 1153 1103 923 1103 719 1307 719 1537 783 1728 846 1831 885 1946 923 2048 974 2010 898 1946 821 1882 757 1767 642 1601 527 1345 476L1064 425 1038 297 1089 297C1281 258 1409 92 1370-100 1345-278 1153-406 974-381 782-342 667-163 693 16L706 118C719 182 744 271 757 373ZM499 495C583 579 583 716 499 801 415 885 278 885 193 801 109 716 109 579 193 495 278 411 415 411 499 495ZM879 115C795 30 795-107 879-191 964-275 1101-275 1185-191 1269-107 1269 30 1185 115 1101 199 964 199 879 115ZM984 513C1009 538 1009 578 984 603 960 628 919 628 895 603 870 578 870 538 895 513 919 488 960 488 984 513Z" />
    <glyph glyph-name="data_manager" unicode="data_manager" horiz-adv-x="2048" d="M1409 570L1280 443 1280 1152 128 1152 128-128 908-128 883-256 114-256C91-256 68-245 57-245 23-222 0-199 0-142L0 1422C0 1445 11 1468 11 1479 34 1513 57 1536 114 1536L1295 1536C1352 1536 1374 1513 1397 1479 1397 1468 1409 1445 1409 1422L1409 570 1409 570ZM1090 256L960 128 934 0 768 0 768 256 1090 256ZM256 1024L640 1024 640 768 256 768 256 1024ZM256 640L640 640 640 384 256 384 256 640ZM768 1024L1152 1024 1152 768 768 768 768 1024ZM768 640L1152 640 1152 384 768 384 768 640ZM256 256L640 256 640 0 256 0 256 256ZM2048 489L1968 398C1934 523 1816 640 1707 658L1787 749C1925 708 2031 569 2048 489ZM1900 341L1343-216 1024-284 1092 34 1468 410 1638 592C1739 580 1900 421 1900 341ZM1156-3L1106-202 1318-155 1156-3Z" />
    <glyph glyph-name="data_model" unicode="data_model" horiz-adv-x="2048" d="M1920 1024C1984 1024 2022 998 2035 960 2035 947 2048 922 2048 896L2048 256C2048 230 2035 205 2035 192 2022 154 1984 128 1920 128L1280 128C1254 128 1229 141 1216 141 1190 154 1152 192 1152 256L1152 397 896 38 896-256C896-320 870-358 832-371 819-371 794-384 768-384L128-384C102-384 77-371 64-371 26-358 0-320 0-256L0 384C0 410 13 435 13 448 26 486 64 512 128 512L384 512 384 768 128 768C64 768 26 794 13 832 13 845 0 870 0 896L0 1536C0 1562 13 1587 13 1600 26 1638 64 1664 128 1664L768 1664C832 1664 870 1638 883 1600 883 1587 896 1562 896 1536L896 896C896 870 883 845 883 832 870 794 832 768 768 768L512 768 512 512 768 512C794 512 819 499 832 499 870 486 896 448 896 384L896 256 1152 614 1152 896C1152 922 1165 947 1165 960 1178 998 1216 1024 1280 1024L1920 1024ZM256 1024L640 1024 640 1408 256 1408 256 1024ZM640 256L256 256 256-128 640-128 640 256ZM1792 768L1408 768 1408 589 1408 384 1792 384 1792 768Z" />
    <glyph glyph-name="database" unicode="database" horiz-adv-x="2048" d="M1024-64C1587-64 2048 102 2048 320L2048-13C2048-218 1587-384 1024-384 461-384 0-218 0-13L0 320C0 102 461-64 1024-64ZM1024 448C1587 448 2048 614 2048 832L2048 512C2048 474 2035 448 2010 410 1997 397 1984 371 1958 346L1946 346C1779 218 1434 128 1024 128 614 128 256 218 102 346L90 346C77 358 51 384 38 410 13 448 0 474 0 512L0 832C0 614 461 448 1024 448ZM2048 1318C2048 1331 2048 1267 2048 1280L2048 1024C2048 986 2035 960 2010 922 1997 909 1984 883 1958 870L1946 858C1792 730 1434 640 1024 640 614 640 256 730 102 858L90 870C64 883 51 909 38 922 13 960 0 998 0 1024L0 1344 0 1318C26 1510 474 1664 1024 1664 1587 1664 2035 1510 2048 1318ZM1843 1267C1869 1280 1894 1306 1894 1306 1882 1318 1869 1331 1843 1344 1792 1382 1728 1408 1651 1434 1485 1485 1254 1510 1024 1510 794 1510 563 1485 397 1434 320 1408 256 1382 205 1357 179 1331 166 1318 154 1306L205 1267C256 1242 320 1216 397 1190 576 1139 794 1114 1024 1114 1254 1114 1485 1139 1651 1190 1728 1216 1792 1242 1843 1267Z" />
    <glyph glyph-name="database_arrow" unicode="database_arrow" horiz-adv-x="2048" d="M62 856C45 865 36 883 27 892 9 918 0 945 0 963L0 1168C18 1301 329 1408 712 1408 1104 1408 1416 1301 1425 1168 1425 1176 1425 1132 1425 1141L1425 963C1425 936 1416 918 1398 892 1389 883 1380 865 1362 856L1353 847C1247 758 997 696 712 696 427 696 178 758 71 847L62 856ZM142 1194C125 1176 116 1168 107 1159L142 1132C178 1114 223 1096 276 1079 401 1043 552 1025 712 1025 873 1025 1033 1043 1149 1079 1202 1096 1247 1114 1282 1132 1300 1141 1318 1159 1318 1159 1309 1168 1300 1176 1282 1185 1247 1212 1202 1230 1149 1248 1033 1283 873 1301 712 1301 552 1301 392 1283 276 1248 223 1230 178 1212 142 1194ZM712 206C1104 206 1425 322 1425 473L1425 242C1425 99 1104-17 712-17 321-17 0 99 0 242L0 473C0 322 321 206 712 206ZM1425 776C1469 829 1549 874 1674 874L1692 874 1692 1141 2048 785 1692 429 1692 696C1505 696 1434 535 1345 482 1220 402 988 339 721 339 436 339 187 402 80 491L71 491C62 500 45 518 36 535 9 562 0 580 0 607L0 829C0 678 321 562 712 562 979 562 1202 616 1327 696 1345 705 1353 722 1371 731 1389 749 1416 767 1425 776Z" />
    <glyph glyph-name="debug" unicode="debug" horiz-adv-x="2048" d="M1702-142C1734 174 1567 246 1531 258L1531 454C1531 533 1530 590 1531 637 1590 632 1699 643 1760 533 1760 533 1768 513 1791 509 1834 502 2021 406 2030 406 2027 406 1871 537 1836 567 1830 571 1826 576 1822 582 1717 741 1608 736 1539 752 1542 773 1545 794 1551 818 1573 886 1638 918 1653 950 1668 982 1656 1007 1623 1020 1623 1020 1534 1055 1443 1096 1487 1127 1555 1184 1653 1144 1653 1144 1670 1134 1688 1144 1722 1163 1907 1200 1913 1205 1912 1203 1729 1208 1687 1210 1681 1210 1675 1211 1669 1213 1491 1271 1384 1174 1323 1154 1323 1154 1323 1154 1323 1154 1307 1162 1292 1171 1280 1178 1243 1202 1204 1232 1169 1261 1202 1382 1285 1580 1480 1590L1476 1654C1256 1642 1157 1445 1115 1307 1085 1334 1065 1353 1065 1353 1051 1367 1036 1374 1019 1374 1003 1374 987 1367 973 1353 973 1353 953 1334 923 1307 881 1445 783 1642 562 1654L559 1590C753 1580 836 1382 869 1261 834 1232 795 1202 758 1178 747 1171 734 1164 719 1156 658 1180 552 1270 378 1213 372 1211 366 1210 360 1210 318 1208 136 1203 134 1205 140 1200 325 1163 359 1144 377 1134 394 1144 394 1144 489 1183 556 1130 601 1098 507 1056 416 1020 416 1020 382 1007 371 982 386 950 401 918 465 886 487 818 493 793 497 772 500 750 430 736 326 735 225 582 221 576 217 571 211 567 175 537 20 406 17 406 26 406 213 502 256 509 279 513 287 533 287 533 346 638 447 633 508 637 508 589 507 533 507 454L507 254C458 234 315 152 345-142 347-158 342-175 332-188L200-377 412-206C435-190 431-169 429-158 389 11 468 94 507 123L507 112C507 40 540-29 596-74L952-363C971-377 995-385 1019-384 1043-385 1068-377 1086-363L1442-74C1498-29 1531 40 1531 112L1531 129C1565 107 1662 24 1619-158 1616-169 1612-190 1635-206L1847-377 1715-188C1705-175 1700-158 1702-142" />
    <glyph glyph-name="default" unicode="default" horiz-adv-x="2048" d="M1024 1664C1587 1664 2048 1203 2048 640 2048 77 1587-384 1024-384 461-384 0 77 0 640 0 1203 461 1664 1024 1664ZM1613 51C1690 128 1754 218 1792 320 1830 422 1856 525 1856 640 1856 755 1843 858 1792 973 1754 1075 1690 1165 1613 1242 1536 1306 1446 1370 1357 1408 1242 1459 1139 1472 1024 1472 909 1472 806 1459 704 1408 602 1370 512 1306 435 1229 358 1152 294 1062 256 973 205 858 192 755 192 640 192 525 205 422 256 320 294 218 358 128 435 51 512-26 602-90 704-128 806-166 909-192 1024-192 1139-192 1242-166 1344-128 1446-90 1536-26 1613 51ZM1600 832L1280 512 896 512 896 294C896 282 896 282 883 269L870 256C858 243 832 243 819 256L397 614C384 627 384 653 397 666L832 1011C845 1024 870 1024 883 1011L883 998C896 998 896 986 896 973L896 768 1152 768 1408 1024 1600 832Z" />
    <glyph glyph-name="descending" unicode="descending" horiz-adv-x="2048" d="M1658 1408L2048 920 1755 920 1755-152 1560-152 1560 920 1268 920 1658 1408ZM1073 43L1073 238 0 238 0 43 1073 43ZM1073 530L1073 725 0 725 0 530 1073 530ZM1073 1018L1073 1213 0 1213 0 1018 1073 1018Z" />
    <glyph glyph-name="deselect_all" unicode="deselect_all" horiz-adv-x="2048" d="M819 1664C858 1664 896 1626 896 1587L896 832C896 806 858 768 819 768L77 768C38 768 0 806 0 845L0 1587C0 1638 26 1664 77 1664L819 1664ZM1984 1664C2022 1664 2048 1638 2048 1587L2048 832C2048 806 2022 768 1984 768L1229 768C1190 768 1152 806 1152 845L1152 1587C1152 1626 1190 1664 1229 1664L1984 1664ZM819 512C858 512 896 474 896 435L896-320C896-358 858-384 819-384L77-384C26-384 0-358 0-320L0 435C0 474 38 512 77 512L819 512ZM1843 346C1894 397 1971 397 2010 358 2061 320 2048 243 1997 192L1574-230 1562-243C1562-243 1562-243 1562-256 1510-307 1434-294 1395-243L1190-38C1139 13 1139 90 1178 128 1229 179 1306 166 1344 115L1472-13 1843 346Z" />
    <glyph glyph-name="direct_discovery" unicode="direct_discovery" horiz-adv-x="2048" d="M1561 402L1658 500 1366 500C1307 178 1024-86 683-86 302-86 0 217 0 597 0 978 302 1280 683 1280 1034 1280 1317 1026 1366 695L1658 695 1561 792 1561 1085 2049 597 1561 109 1561 402ZM683 109C937 109 1171 343 1171 607 1171 861 946 1085 693 1085 429 1085 195 861 195 607 195 343 419 109 683 109ZM683 792C790 792 878 704 878 597 878 490 790 402 683 402 576 402 488 490 488 597 488 704 576 792 683 792Z" />
    <glyph glyph-name="direction" unicode="direction" horiz-adv-x="2048" d="M1152 512L1152 0 1408 0 1024-384 640 0 896 0 896 512 384 512 384 256 0 640 384 1024 384 768 896 768 896 1280 640 1280 1024 1664 1408 1280 1152 1280 1152 768 1664 768 1664 1024 2048 640 1664 256 1664 512 1152 512Z" />
    <glyph glyph-name="direction_left" unicode="direction_left" horiz-adv-x="2048" d="M2048 640L2048 550C2048 525 2035 512 2010 512L474 512 883 60C896 47 896 22 883 9L755-118C742-131 717-131 691-118L0 640 691 1398C717 1411 742 1411 755 1398L883 1271C896 1258 896 1233 883 1220L474 768 2010 768C2035 768 2048 755 2048 730L2048 640Z" />
    <glyph glyph-name="direction_left_right" unicode="direction_left_right" horiz-adv-x="2048" d="M2030 622L1708 300C1698 290 1681 290 1671 300 1667 305 1664 311 1664 318L1664 486C1664 501 1653 512 1638 512L410 512C395 512 384 501 384 486L384 318C384 304 373 292 358 292 352 292 345 295 340 300L18 622C8 632 8 648 18 658L340 980C350 990 367 990 377 980 381 975 384 969 384 962L384 794C384 779 395 768 410 768L1638 768C1653 768 1664 779 1664 794L1664 962C1664 976 1675 988 1690 988 1696 988 1703 985 1708 980L2030 658C2040 648 2040 632 2030 622Z" />
    <glyph glyph-name="direction_right" unicode="direction_right" horiz-adv-x="2048" d="M0 550L0 730C0 755 13 768 38 768L1574 768 1165 1220C1152 1233 1152 1258 1165 1271L1293 1398C1306 1411 1331 1411 1357 1398L2048 640 1357-118C1331-131 1306-131 1293-118L1165 9C1152 22 1152 47 1165 60L1574 512 38 512C13 512 0 525 0 550Z" />
    <glyph glyph-name="direction_up_down" unicode="direction_up_down" horiz-adv-x="2048" d="M1006-366L684-44C674-34 674-17 684-7 689-3 695 0 702 0L870 0C885 0 896 11 896 26L896 1254C896 1269 885 1280 870 1280L702 1280C688 1280 676 1291 676 1306 676 1312 679 1319 684 1324L1006 1646C1016 1656 1032 1656 1042 1646L1364 1324C1374 1314 1374 1297 1364 1287 1359 1283 1353 1280 1346 1280L1178 1280C1163 1280 1152 1269 1152 1254L1152 26C1152 11 1163 0 1178 0L1346 0C1360 0 1372-11 1372-26 1372-32 1369-39 1364-44L1042-366C1032-376 1016-376 1006-366L1006-366Z" />
    <glyph glyph-name="disconnect" unicode="disconnect" horiz-adv-x="2048" d="M124 251L507 774 1158 123 635-272 456-81 163-374C150-387 124-387 99-374L10-285C-3-272-3-247 10-221L290 59 124 251ZM1911 1654C1924 1667 1949 1667 1975 1654L2038 1591C2051 1565 2051 1540 2038 1527L1745 1233 1936 1042 1554 519 1426 646 1298 519 903 902 1030 1029 903 1157 1426 1552 1617 1361 1911 1654Z" />
    <glyph glyph-name="distributionplot" unicode="distributionplot" horiz-adv-x="2048" d="M640 1024C499 1024 384 1139 384 1280 384 1421 499 1536 640 1536L1792 1536C1933 1536 2048 1421 2048 1280 2048 1139 1933 1024 1792 1024L640 1024ZM1792 640C1792 499 1677 384 1536 384L256 384C115 384 0 499 0 640 0 781 115 896 256 896L1536 896C1677 896 1792 781 1792 640ZM1792 256C1933 256 2048 141 2048 0 2048-141 1933-256 1792-256L768-256C627-256 512-141 512 0 512 141 627 256 768 256L1792 256ZM1536 1408C1472 1408 1408 1357 1408 1280 1408 1203 1459 1152 1536 1152 1613 1152 1664 1203 1664 1280 1664 1357 1613 1408 1536 1408ZM1024 1408C960 1408 896 1357 896 1280 896 1203 947 1152 1024 1152 1101 1152 1152 1203 1152 1280 1152 1357 1101 1408 1024 1408ZM512 512C589 512 640 563 640 640 640 717 589 768 512 768 435 768 384 717 384 640 384 563 448 512 512 512ZM1280 512C1357 512 1408 563 1408 640 1408 717 1357 768 1280 768 1203 768 1152 717 1152 640 1152 563 1216 512 1280 512ZM1280-128C1357-128 1408-77 1408 0 1408 77 1357 128 1280 128 1203 128 1152 77 1152 0 1152-77 1203-128 1280-128Z" />
    <glyph glyph-name="download" unicode="download" horiz-adv-x="2048" d="M2048 128L2048-256 1024-256 0-256 0 128 384 640 384 294 256 128 768 128 768 0 1280 0 1280 128 1792 128 1664 294 1664 640 2048 128ZM525 819C499 845 512 896 550 896L896 896 896 1498C896 1523 909 1536 934 1536L1101 1536C1139 1536 1152 1523 1152 1498L1152 896 1498 896C1536 896 1562 845 1523 819L1050 397C1024 384 998 384 986 397L525 819Z" />
    <glyph glyph-name="draggable" unicode="draggable" horiz-adv-x="2048" d="M512 1536C589 1536 640 1485 640 1408 640 1331 589 1280 512 1280 435 1280 384 1331 384 1408 384 1485 435 1536 512 1536ZM1024 1536C1101 1536 1152 1485 1152 1408 1152 1331 1101 1280 1024 1280 947 1280 896 1331 896 1408 896 1485 947 1536 1024 1536ZM1536 1280C1459 1280 1408 1331 1408 1408 1408 1485 1459 1536 1536 1536 1613 1536 1664 1485 1664 1408 1664 1331 1613 1280 1536 1280ZM512 1024C589 1024 640 973 640 896 640 819 589 768 512 768 435 768 384 819 384 896 384 973 435 1024 512 1024ZM1024 1024C1101 1024 1152 973 1152 896 1152 819 1101 768 1024 768 947 768 896 819 896 896 896 973 947 1024 1024 1024ZM1536 1024C1613 1024 1664 973 1664 896 1664 819 1613 768 1536 768 1459 768 1408 819 1408 896 1408 973 1459 1024 1536 1024ZM512 512C589 512 640 461 640 384 640 307 589 256 512 256 435 256 384 307 384 384 384 461 435 512 512 512ZM1024 512C1101 512 1152 461 1152 384 1152 307 1101 256 1024 256 947 256 896 307 896 384 896 461 947 512 1024 512ZM1536 512C1613 512 1664 461 1664 384 1664 307 1613 256 1536 256 1459 256 1408 307 1408 384 1408 461 1459 512 1536 512ZM512 0C589 0 640-51 640-128 640-205 589-256 512-256 435-256 384-205 384-128 384-51 435 0 512 0ZM1024 0C1101 0 1152-51 1152-128 1152-205 1101-256 1024-256 947-256 896-205 896-128 896-51 947 0 1024 0ZM1536 0C1613 0 1664-51 1664-128 1664-205 1613-256 1536-256 1459-256 1408-205 1408-128 1408-51 1459 0 1536 0Z" />
    <glyph glyph-name="drill_down" unicode="drill_down" horiz-adv-x="2048" d="M2048 1280L2048 1024 640 1024 640 1280 2048 1280ZM1152 768L2048 768 2048 512 1152 512 1152 768ZM1536 256L2048 256 2048 0 1536 0 1536 256ZM282 256L896 256 896 512C896 526 907 537 922 537 929 537 935 534 940 529L1304 146C1313 136 1313 120 1304 110L940-274C930-284 914-284 904-275 899-270 896-263 896-256L896 12C614 12 359 9 131 4L131 4C61 2 2 58 0 128 0 130 0 131 0 132L0 1280 256 1280 256 282C256 267 267 256 282 256Z" />
    <glyph glyph-name="drop" unicode="drop" horiz-adv-x="2048" d="M512 916L512 1280 154 1280C139 1280 128 1269 128 1254L128 26C128 11 139 0 154 0L512 0 512 804C431 773 346 728 256 668 341 775 427 858 512 916ZM640 840L640 0 1894 0C1909 0 1920 11 1920 26L1920 1254C1920 1269 1909 1280 1894 1280L640 1280 640 986C891 1089 1143 983 1394 668 1394 668 1441 716 1536 811L1536 384 1109 384C1204 479 1252 526 1252 526 1091 783 887 888 640 840ZM128 1408L1920 1408C1991 1408 2048 1351 2048 1280L2048 0C2048-71 1991-128 1920-128L128-128C57-128 0-71 0 0L0 1280C0 1351 57 1408 128 1408Z" />
    <glyph glyph-name="dropdown_arrow" unicode="dropdown_arrow" horiz-adv-x="2048" d="M1390 878L1024 512 658 878C648 888 632 888 622 878 622 878 622 878 622 878L530 786C520 776 520 760 530 750L896 384 1006 274C1016 264 1032 264 1042 274L1152 384 1518 750C1528 760 1528 776 1518 786L1426 878C1416 888 1400 888 1390 878 1390 878 1390 878 1390 878Z" />
    <glyph glyph-name="edit" unicode="edit" horiz-adv-x="2048" d="M1686 1573L1957 1302C2007 1252 2007 1171 1957 1121L1863 1027 1411 1479 1505 1573C1555 1623 1636 1623 1686 1573ZM1324 1392L1776 940 781-56 328 397 1324 1392ZM167-266C159-268 150-268 142-266 122-259 112-237 118-217L328 397 781-56 167-266ZM328 216L234-59 325-150 600-56 328 216ZM1116 960C1135 941 1135 911 1116 892L572 348C554 329 523 329 504 348 486 367 486 397 504 416L1048 960C1067 979 1097 979 1116 960ZM576-256L1984-256C2019-256 2048-285 2048-320 2048-355 2019-384 1984-384L576-384C541-384 512-355 512-320 512-285 541-256 576-256Z" />
    <glyph glyph-name="edit_list" unicode="edit_list" horiz-adv-x="2048" d="M993 20L1106 307 1280 133 993 20ZM1792 983L1966 809 1352 195 1178 369 1792 983ZM0 1075L0 1280 205 1280 205 1075 0 1075ZM1434 1280L1434 1075 410 1075 410 1280 1434 1280ZM0 666L0 870 205 870 205 666 0 666ZM1126 870L1126 666 410 666 410 870 1126 870ZM0 256L0 461 205 461 205 256 0 256ZM410 256L410 461 819 461 819 256 410 256Z" />
    <glyph glyph-name="effects" unicode="effects" horiz-adv-x="2048" d="M0 73L1463 1536 1801 1198 338-265 0 73ZM338-141L563 73 338 298 124 73 338-141ZM1463 973L1688 1198 1463 1423 1238 1198 1463 973ZM720 1288L608 1322 709 1390 709 1513 799 1446 912 1480 878 1367 946 1266 822 1266 754 1176 720 1288ZM1992 1007L2049 928 1959 928 1902 849 1880 939 1790 973 1868 1029 1868 1120 1947 1063 2037 1097 1992 1007ZM1610 478L1565 332 1655 208 1508 208 1418 84 1373 230 1227 275 1351 365 1351 523 1475 433 1610 478Z" />
    <glyph glyph-name="embed" unicode="embed" horiz-adv-x="2048" d="M1997 1536C2035 1536 2048 1523 2048 1485L2048 1203C2048 1178 2022 1152 1997 1152L435 1152C410 1152 384 1178 384 1203L384 1485C384 1523 397 1536 435 1536L1997 1536ZM1664 435C1664 397 1651 384 1613 384L51 384C13 384 0 397 0 435L0 845C0 883 13 896 51 896L1613 896C1651 896 1664 883 1664 845L1664 435ZM1997 128C2022 128 2048 102 2048 77L2048-205C2048-243 2035-256 1997-256L435-256C397-256 384-243 384-205L384 77C384 102 410 128 435 128L1997 128Z" />
    <glyph glyph-name="engine" unicode="engine" horiz-adv-x="2048" d="M1933 1178L2048 1126 2010 1024 1882 1050C1869 1037 1856 1011 1843 998L1907 883 1818 819 1728 909C1715 896 1690 896 1664 883L1651 755 1549 755 1523 883C1498 883 1485 896 1459 909L1370 819 1280 883 1344 998 1306 1050 1178 1024 1152 1126 1267 1178 1267 1216 1267 1254 1152 1306 1178 1408 1306 1382 1344 1434 1280 1549 1370 1613 1459 1523 1523 1536 1549 1664 1651 1664 1664 1536 1728 1510 1818 1600 1907 1536 1843 1421C1856 1408 1869 1382 1882 1370L2010 1395 2048 1306 1933 1254 1933 1216 1933 1178ZM1600 1024C1702 1024 1779 1101 1779 1216 1779 1318 1702 1395 1600 1395 1498 1395 1408 1318 1408 1216 1408 1114 1498 1024 1600 1024ZM1229 320L1229 269 1408 179 1357 13 1165 51C1152 26 1126 0 1101-38L1190-205 1062-307 922-166C896-179 858-192 819-192L794-384 627-384 602-192C563-179 525-179 499-166L358-307 230-205 320-38C294-13 269 13 256 51L51 13 0 179 179 269 179 320 179 371 0 461 51 627 256 589C269 614 282 640 307 666L218 845 346 947 486 806C512 819 550 832 589 832L627 1024 794 1024 819 832C858 819 883 819 922 806L1062 947 1190 845 1101 666C1126 640 1139 614 1165 589L1357 627 1408 461 1229 371 1229 320ZM704 26C870 26 998 154 998 320 998 486 870 614 704 614 538 614 410 486 410 320 410 154 538 26 704 26Z" />
    <glyph glyph-name="expand" unicode="expand" horiz-adv-x="2048" d="M1357 1664L2048 1664 2048 973C2048 947 2010 934 1997 947L1792 1152 1587 947C1562 922 1523 922 1498 947L1331 1114C1306 1139 1306 1178 1331 1203L1536 1408 1331 1613C1318 1626 1331 1664 1357 1664ZM691-384L0-384 0 307C0 333 38 346 51 333L256 128 461 333C486 358 525 358 550 333L717 166C742 141 742 102 717 77L512-128 717-333C730-346 717-384 691-384Z" />
    <glyph glyph-name="expand_2" unicode="expand_2" horiz-adv-x="2048" d="M2048 1536L2048 1280 0 1280 0 1536 2048 1536ZM2048 1024L2048 768 0 768 0 1024 2048 1024ZM563 205C538 218 563 256 589 256L896 256 896 602C896 627 909 640 934 640L1126 640C1139 640 1152 627 1152 602L1152 256 1459 256C1485 256 1498 218 1485 205L1050-230C1037-243 1011-243 998-230L563 205Z" />
    <glyph glyph-name="export" unicode="export" horiz-adv-x="2048" d="M1536 967C1169 970 870 818 640 512 796 980 1095 1252 1536 1328L1536 1664 2048 1152 1536 640 1536 967ZM768 1408L768 1216 256 1216C221 1216 192 1187 192 1152L192 128C192 93 221 64 256 64L1664 64C1699 64 1728 93 1728 128L1728 512 1920 512 1920 0C1920-71 1863-128 1792-128L128-128C57-128 0-71 0 0L0 1280C0 1351 57 1408 128 1408L768 1408Z" />
    <glyph glyph-name="expression" unicode="expression" horiz-adv-x="2048" d="M1091 794L924 794C850 518 813 381 813 381 813 381 701 57 601-55 501-167 367-256 223-256 78-256 0-189 0-77 0 12 45 90 145 90 234 90 267 46 267-10 267-77 234-111 234-133 234-155 245-167 256-167 289-167 323-100 356 12 390 124 388 102 456 336 502 492 547 648 590 805 508 805 458 805 439 805 409 816 435 906 479 906L623 906C657 1040 768 1319 879 1419 991 1520 1070 1549 1191 1531 1312 1513 1414 1464 1414 1341 1414 1263 1369 1196 1291 1196 1213 1196 1180 1241 1169 1308 1169 1352 1191 1419 1169 1431 1146 1442 1113 1386 1091 1341 1076 1311 1028 1166 946 906L1091 906C1133 906 1129 805 1091 794ZM1926 950C2015 950 2048 906 2048 827 2048 749 2013 684 1926 671 1848 660 1832 732 1803 749 1785 760 1770 738 1747 716 1714 671 1681 604 1670 593 1670 571 1692 526 1714 437 1747 336 1747 314 1770 314 1803 314 1825 347 1848 403 1859 448 1870 459 1892 459 1903 459 1914 448 1914 414 1914 314 1770 34 1592 34 1536 34 1503 79 1469 135 1447 191 1425 269 1402 347 1391 314 1325 191 1235 113 1191 68 1146 46 1091 46 1002 46 968 101 968 180 968 247 1002 358 1091 358 1135 358 1158 347 1169 314 1191 262 1210 235 1224 235 1269 235 1313 302 1391 425 1369 515 1347 593 1336 649 1313 716 1302 749 1269 749 1235 749 1213 705 1202 671 1180 626 1180 582 1146 582 1124 582 1113 604 1113 626 1113 727 1247 973 1436 973 1536 973 1566 938 1592 870L1647 693C1781 872 1814 950 1926 950Z" />
    <glyph glyph-name="field" unicode="field" horiz-adv-x="2048" d="M1792 1664C1869 1664 1920 1613 1920 1536L1920-256C1920-333 1869-384 1792-384L256-384C179-384 128-333 128-256L128 1536C128 1613 179 1664 256 1664L1792 1664ZM1792 0L256 0 256-256 1792-256 1792 0ZM1792 384L256 384 256 128 1792 128 1792 384ZM1792 768L256 768 256 512 1792 512 1792 768ZM1792 1152L256 1152 256 896 1792 896 1792 1152ZM1792 1536L256 1536 256 1280 1792 1280 1792 1536Z" />
    <glyph glyph-name="file" unicode="file" horiz-adv-x="2048" d="M256 1664L1269 1664C1276 1664 1283 1661 1287 1657L1913 1031C1917 1027 1920 1020 1920 1013L1920-256C1920-327 1863-384 1792-384L256-384C185-384 128-327 128-256L128 1536C128 1607 185 1664 256 1664ZM320 1446L320-166C320-181 331-192 346-192L1702-192C1717-192 1728-181 1728-166L1728 896 1280 896C1209 896 1152 953 1152 1024L1152 1472 346 1472C331 1472 320 1461 320 1446Z" />
    <glyph glyph-name="file_setup" unicode="file_setup" horiz-adv-x="2048" d="M1792 1152L1792 1024 1792-256C1792-333 1728-384 1664-384L384-384C307-384 256-320 256-256L256 1536C256 1613 320 1664 384 1664L1280 1664 1408 1536 1792 1152ZM1664 1024L1280 1024 1152 1024 1152 1536 384 1536C384 1536 384 1536 384 1536L384-256C384-256 384-256 384-256L1664-256C1664-256 1664-256 1664-256L1664 1024ZM755 282C806 307 870 269 896 218 922 166 883 102 832 77 781 51 717 77 691 141 678 192 704 256 755 282ZM819 1011C896 1037 973 1011 998 934 1024 870 986 781 922 755 845 730 768 768 742 832 717 909 755 986 819 1011ZM768 576C781 512 755 435 691 410 627 384 550 422 525 486 499 550 525 627 602 653 666 678 742 640 768 576ZM1421 192C1382 179 1331 192 1318 243 1306 282 1318 320 1370 346 1408 358 1446 333 1472 307 1472 256 1459 205 1421 192ZM1088 179C1126 192 1178 179 1203 128 1216 77 1203 38 1152 13 1114 0 1062 13 1037 64 1024 115 1050 154 1088 179ZM1485 486C1446 474 1408 486 1395 525 1382 563 1395 602 1434 614 1472 627 1510 614 1523 576 1536 538 1510 499 1485 486Z" />
    <glyph glyph-name="filter" unicode="filter" horiz-adv-x="2048" d="M768 489L5 1563C-2 1574-7 1587-7 1600-7 1635 22 1664 57 1664L1991 1664C2004 1664 2017 1660 2028 1652 2056 1632 2063 1592 2043 1563L1280 489 1280 43C1280 23 1272 4 1258-9L874-367C847-392 807-389 784-360 774-348 768-331 768-315L768 489Z" />
    <glyph glyph-name="filterpane" unicode="filterpane" horiz-adv-x="2048" d="M1408 66L1033 594C1025 605 1021 618 1021 631 1021 666 1050 695 1085 695L1987 695C2000 695 2013 691 2024 683 2053 663 2059 623 2039 594L1664 66 1664-160C1664-170 1660-181 1653-187L1461-376C1448-390 1427-388 1416-373 1411-366 1408-358 1408-349L1408 66ZM1664 896L1536 896 1536 1472C1536 1507 1507 1536 1472 1536L192 1536C157 1536 128 1507 128 1472L128-192C128-227 157-256 192-256L1152-256 1152-384 128-384C57-384 0-327 0-256L0 1536C0 1607 57 1664 128 1664L1536 1664C1607 1664 1664 1607 1664 1536L1664 896Z" />
    <glyph glyph-name="flag" unicode="flag" horiz-adv-x="2048" d="M384 512L384-320C384-355 355-384 320-384 285-384 256-355 256-320L256 1600C256 1635 285 1664 320 1664 355 1664 384 1635 384 1600L384 1536C592 1481 749 1454 853 1454 1010 1454 1080 1582 1349 1607 1517 1623 1658 1603 1771 1547L1771 1547C1784 1541 1792 1527 1792 1513L1792 573C1792 552 1775 534 1754 534 1748 534 1743 535 1739 537 1624 586 1495 603 1349 591 1096 569 1082 449 853 430 701 418 544 445 384 512Z" />
    <glyph glyph-name="folder" unicode="folder" horiz-adv-x="2048" d="M896 1152L1920 1152C1991 1152 2048 1095 2048 1024L2048 0C2048-71 1991-128 1920-128L128-128C57-128 0-71 0 0L0 1152 1152 1152C1152 1081 1095 1024 1024 1024L0 1024 0 1280C0 1351 57 1408 128 1408L640 1408C781 1408 896 1293 896 1152Z" />
    <glyph glyph-name="folder_q" unicode="folder_q" horiz-adv-x="2048" d="M1024 668C1115 668 1183 589 1183 498 1183 407 1115 338 1024 338 933 338 853 407 853 498 853 589 933 668 1024 668ZM1479 498C1479 395 1445 304 1388 225L1525 88 1445 9 1308 145C1217 88 1126 43 1024 43 774 43 569 247 569 498 569 748 774 953 1024 953 1274 953 1479 748 1479 498ZM1229 293C1286 350 1320 430 1320 509 1320 589 1286 668 1229 725 1172 771 1104 805 1024 805 944 805 865 771 808 714 751 657 717 577 717 498 717 418 751 338 808 282 865 225 933 191 1024 191 1104 202 1172 236 1229 293ZM1820 1180C1934 1180 1991 1124 2025 1067 2037 1033 2048 998 2048 953L2048 43C2048-3 2037-37 2025-71 1991-128 1934-185 1820-185L228-185C114-185 57-128 23-71 11-37 0-3 0 43L0 1317C0 1374 46 1408 91 1408L671 1408C751 1408 808 1362 842 1317L910 1180 1820 1180ZM1934 953C1934 1010 1911 1044 1877 1055 1866 1055 1843 1067 1820 1067L228 1067C228 1067 114 1067 114 953L114 43C114 20 125-3 125-14 137-48 171-71 228-71L1820-71C1843-71 1866-60 1877-60 1911-48 1934-14 1934 43L1934 953Z" />
    <glyph glyph-name="forward" unicode="forward" horiz-adv-x="2048" d="M1344 1509L1882 946C1933 895 1933 831 1882 780L1357 217C1306 179 1280 192 1280 256L1280 639C755 639 269 447 269-64 269-141 282-179 294-256 192-103 128 51 128 256 128 831 666 1023 1280 1023L1280 1470C1280 1534 1306 1560 1344 1509Z" />
    <glyph glyph-name="funnel" unicode="funnel" horiz-adv-x="2048" d="M1952 1280L91 1280C43 1377 10 1480 0 1597-3 1633 28 1664 65 1664L1978 1664C2015 1664 2046 1633 2043 1597 2033 1480 1999 1377 1952 1280ZM536 640L1506 640C1468 579 1433 515 1406 448 1379 382 1355 318 1333 256L709 256C686 318 663 382 637 448 609 515 575 579 536 640ZM165 1152L1878 1152C1793 1020 1689 897 1594 768L449 768C354 897 249 1019 165 1152ZM752 128L1290 128C1221-81 1178-255 1160-335 1154-364 1128-384 1098-384L940-384C910-384 884-364 878-335 860-254 818-81 752 128Z" />
    <glyph glyph-name="gauge_chart" unicode="gauge_chart" horiz-adv-x="2048" d="M337-248C130-60 0 211 0 512 0 1078 458 1536 1024 1536 1590 1536 2048 1078 2048 512 2048 211 1918-60 1711-248 1664-166 1617-93 1570-28 1707 110 1792 301 1792 512 1792 936 1448 1280 1024 1280 600 1280 256 936 256 512 256 301 341 110 478-28 431-93 384-166 337-248ZM1111 750L1542 1024 1268 593C1299 503 1278 398 1206 326 1105 225 943 225 843 325 743 424 743 587 844 688 916 760 1021 781 1111 750Z" />
    <glyph glyph-name="gauge_gauge" unicode="gauge_gauge" horiz-adv-x="2048" d="M0 128C0 694 458 1152 1024 1152 1590 1152 2048 694 2048 128L1792 128C1792 552 1448 896 1024 896 600 896 256 552 256 128L0 128ZM1002 376L1216 512 1080 298C1095 253 1085 202 1049 166 999 116 919 115 869 165 819 215 820 295 870 345 906 381 957 391 1002 376Z" />
    <glyph glyph-name="gauge_vertical_bar" unicode="gauge_vertical_bar" horiz-adv-x="2048" d="M640-384L640 1664 1024 1664 1024-384 640-384ZM1024 1152L1408 1408 1408 896 1024 1152Z" />
    <glyph glyph-name="general_data_class" unicode="general_data_class" horiz-adv-x="2048" d="M0 1664L128 1664 640 1664 640 1408 256 1408 256 1024 0 1024 0 1536 0 1664ZM256 256L256-128 640-128 640-384 128-384 0-384 0-256 0 256 256 256ZM1920 1664L2048 1664 2048 1536 2048 1024 1792 1024 1792 1408 1408 1408 1408 1664 1920 1664ZM1792-128L1792 256 2048 256 2048-256 2048-384 1920-384 1408-384 1408-128 1792-128Z" />
    <glyph glyph-name="global_selector" unicode="global_selector" horiz-adv-x="2048" d="M896 1536L896 1024 1152 1024 1152 1536 896 1536ZM51 1664L461 1664C489 1664 512 1641 512 1613L512 947C512 919 489 896 461 896L51 896C23 896 0 919 0 947L0 1613C0 1641 23 1664 51 1664ZM128 1536L128 1024 384 1024 384 1536 128 1536ZM819 1664L1229 1664C1257 1664 1280 1641 1280 1613L1280 947C1280 919 1257 896 1229 896L819 896C791 896 768 919 768 947L768 1613C768 1641 791 1664 819 1664ZM51 384L461 384C489 384 512 361 512 333L512-333C512-361 489-384 461-384L51-384C23-384 0-361 0-333L0 333C0 361 23 384 51 384ZM819 384L1229 384C1257 384 1280 361 1280 333L1280-333C1280-361 1257-384 1229-384L819-384C791-384 768-361 768-333L768 333C768 361 791 384 819 384ZM1587 384L1997 384C2025 384 2048 361 2048 333L2048-333C2048-361 2025-384 1997-384L1587-384C1559-384 1536-361 1536-333L1536 333C1536 361 1559 384 1587 384ZM0 640L2048 640 2048 512 0 512 0 640Z" />
    <glyph glyph-name="globe" unicode="globe" horiz-adv-x="2048" d="M2048 678L2048 640C2048 77 1587-384 1024-384 461-384 0 77 0 640L0 678 0 704 0 730C51 1254 486 1664 1024 1664 1562 1664 2010 1254 2048 717L2048 691 2048 678ZM1894 691C1882 794 1869 896 1830 986 1805 1037 1792 1075 1754 1126 1690 1062 1587 998 1446 960 1459 858 1472 755 1472 653 1472 576 1472 512 1459 435 1549 461 1626 486 1690 512 1792 563 1882 627 1894 691ZM1024-230C1050-230 1126-179 1178-26 1216 51 1242 128 1254 230 1178 218 1101 218 1024 218 947 218 858 218 781 230 794 128 832 51 858-26 922-166 998-230 1024-230ZM1024 1510C998 1510 922 1459 858 1306 832 1229 806 1152 794 1062 870 1050 947 1050 1024 1050 1101 1050 1178 1050 1254 1062 1242 1152 1216 1229 1190 1306 1126 1446 1050 1510 1024 1510ZM1024 883C934 883 845 896 768 909 755 819 742 730 742 640 742 550 742 474 755 397 832 384 922 384 1011 384 1101 384 1190 384 1267 397 1280 474 1280 563 1280 640 1280 730 1280 819 1267 909 1203 896 1114 883 1024 883ZM1638 1254C1562 1331 1459 1395 1370 1434 1344 1446 1318 1459 1293 1459 1344 1370 1395 1242 1421 1101 1459 1114 1485 1126 1510 1139 1613 1178 1638 1229 1638 1254 1638 1242 1638 1242 1638 1254ZM691 1434C589 1395 486 1331 410 1254L397 1242C397 1229 435 1178 538 1139 576 1126 602 1114 640 1101 666 1242 717 1370 768 1459 742 1459 717 1446 691 1434ZM230 973C192 896 179 806 166 730 166 717 166 704 166 691 179 640 256 563 371 512 435 474 512 448 602 422 589 499 589 563 589 640 589 742 602 845 614 947 474 986 358 1037 307 1114 269 1062 243 1024 230 973ZM410 26C486-51 589-115 691-166 717-179 742-192 768-192 704-77 653 77 627 256 448 294 307 346 192 422 205 384 218 346 230 307 269 205 333 102 410 26ZM1638 26C1715 102 1779 205 1818 294 1830 333 1856 371 1856 410 1754 333 1600 282 1421 243 1382 64 1344-90 1267-205 1293-192 1318-192 1344-179 1459-115 1562-51 1638 26Z" />
    <glyph glyph-name="goto" unicode="goto" horiz-adv-x="2048" d="M2010 1664L1792 1664 1191 1664C1165 1664 1152 1651 1152 1626L1152 1446C1152 1421 1165 1408 1191 1408L1613 1408 934 729C922 716 922 678 934 665L1050 550C1062 537 1101 537 1114 550L1792 1229 1792 806C1792 780 1805 767 1831 767L2010 767C2036 767 2049 780 2049 806L2049 1408 2049 1626C2049 1651 2036 1664 2010 1664ZM1498-128L294-128C269-128 256-115 256-90L256 1114C256 1139 269 1152 294 1152L896 1152 896 1408 115 1408C51 1408 0 1357 0 1293L0-282C0-333 51-384 115-384L1677-384C1741-384 1792-346 1792-282L1792 512 1536 512C1536 115 1536-85 1536-90 1536-96 1523-128 1498-128Z" />
    <glyph glyph-name="grid" unicode="grid" horiz-adv-x="2048" d="M896 768L0 768 0 1536 896 1536 896 768ZM2048 768L1152 768 1152 1536 2048 1536 2048 768ZM896-256L0-256 0 512 896 512 896-256ZM2048-256L1152-256 1152 512 2048 512 2048-256Z" />
    <glyph glyph-name="grid_menu" unicode="grid_menu" horiz-adv-x="2048" d="M128 1664L512 1664 512 1152 0 1152 0 1536C0 1607 57 1664 128 1664ZM768 1664L1280 1664 1280 1152 768 1152 768 1664ZM1536 1664L1920 1664C1991 1664 2048 1607 2048 1536L2048 1152 1536 1152 1536 1664ZM0 896L512 896 512 384 0 384 0 896ZM768 896L1280 896 1280 384 768 384 768 896ZM1536 896L2048 896 2048 384 1536 384 1536 896ZM0 128L512 128 512-384 128-384C57-384 0-327 0-256L0 128ZM768 128L1280 128 1280-384 768-384 768 128ZM1536 128L2048 128 2048-256C2048-327 1991-384 1920-384L1536-384 1536 128Z" />
    <glyph glyph-name="group" unicode="group" horiz-adv-x="2048" d="M512 384L1024 384C1307 384 1536 155 1536-128L0-128C0 155 229 384 512 384ZM768 512C556 512 384 684 384 896 384 1108 556 1280 768 1280 980 1280 1152 1108 1152 896 1152 684 980 512 768 512ZM1611 128C1522 331 1330 480 1101 507 1145 545 1182 590 1212 640L1536 640C1819 640 2048 411 2048 128L1611 128ZM1266 778C1275 816 1280 855 1280 896 1280 1054 1208 1196 1095 1290 1154 1362 1244 1408 1344 1408 1521 1408 1664 1265 1664 1088 1664 911 1521 768 1344 768 1317 768 1291 771 1266 778Z" />
    <glyph glyph-name="grouped" unicode="grouped" horiz-adv-x="2048" d="M1024 1664L2048 1664 2048-384 1024-384 128-384 128 832 1024 832 1024 1664ZM1920-244L1920 1536 1152 1536 1152-256 1920-256 1920-244Z" />
    <glyph glyph-name="hand" unicode="hand" horiz-adv-x="2048" d="M1779 717C1651 550 1702 525 1587 192 1523-38 1434-179 1370-269 1331-320 1293-358 1254-384L538-384C410-384 333-320 294-256 269-218 256-179 256-128L256 1126C256 1178 294 1216 346 1216 397 1216 435 1178 435 1126L435 666 550 678 550 1459C550 1510 589 1549 640 1549 691 1549 730 1510 730 1459L730 806 870 832 870 1574C858 1626 896 1664 947 1664 998 1664 1037 1626 1037 1574L1037 819 1178 806 1178 1459C1178 1510 1216 1549 1267 1549 1318 1549 1357 1510 1357 1459L1357 474C1357 474 1357 474 1357 474 1357 474 1370 474 1370 499L1446 678C1587 947 1843 819 1779 717Z" />
    <glyph glyph-name="handle" unicode="handle" horiz-adv-x="2048" d="M128 1280L1920 1280 1920 1024 128 1024 128 1280ZM128 768L1920 768 1920 512 128 512 128 768ZM128 0L128 256 1920 256 1920 0 128 0Z" />
    <glyph glyph-name="handle_horizontal" unicode="handle_horizontal" horiz-adv-x="2048" d="M384-256L384 1536 640 1536 640-256 384-256ZM896-256L896 1536 1152 1536 1152-256 896-256ZM1664-256L1408-256 1408 1536 1664 1536 1664-256Z" />
    <glyph glyph-name="help" unicode="help" horiz-adv-x="2048" d="M1024 1664C1587 1664 2048 1203 2048 640 2048 77 1587-384 1024-384 461-384 0 77 0 640 0 1203 461 1664 1024 1664ZM1152 192C1152 230 1126 256 1088 256L960 256C922 256 896 230 896 192L896 64C896 26 922 0 960 0L1088 0C1126 0 1152 26 1152 64L1152 192ZM1459 922C1459 1094 1265 1280 1024 1280 783 1280 550 1063 589 832 593 832 770 752 794 845 817 938 849 1075 1024 1075 1199 1075 1229 963 1229 909 1229 855 1154 772 1068 690 981 609 909 461 909 397 909 397 973 384 1024 384 1075 384 1114 397 1126 410 1139 422 1116 402 1229 576 1342 750 1459 749 1459 922Z" />
    <glyph glyph-name="high_resolution" unicode="high_resolution" horiz-adv-x="2048" d="M1928 1664C1988 1664 2048 1604 2048 1544L2048-143C2048-203 1988-264 1928-264L120-264C60-264 24-239 12-203 12-191 0-167 0-143L0 1544C0 1604 60 1664 120 1664L1928 1664ZM482 98L120 98 120-143 482-143 482 98ZM482 459L120 459 120 218 482 218 482 459ZM482 821L120 821 120 580 482 580 482 821ZM482 1182L120 1182 120 941 482 941 482 1182ZM482 1544L120 1544 120 1303 482 1303 482 1544ZM964 98L602 98 602-143 964-143 964 98ZM964 459L602 459 602 218 964 218 964 459ZM964 821L602 821 602 580 964 580 964 821ZM964 1182L602 1182 602 941 964 941 964 1182ZM964 1544L602 1544 602 1303 964 1303 964 1544ZM1446 98L1084 98 1084-143 1446-143 1446 98ZM1446 459L1084 459 1084 218 1446 218 1446 459ZM1446 821L1084 821 1084 580 1446 580 1446 821ZM1446 1182L1084 1182 1084 941 1446 941 1446 1182ZM1446 1544L1084 1544 1084 1303 1446 1303 1446 1544ZM1928 98L1566 98 1566-143 1928-143 1928 98ZM1928 459L1566 459 1566 218 1928 218 1928 459ZM1928 821L1566 821 1566 580 1928 580 1928 821ZM1928 1182L1566 1182 1566 941 1928 941 1928 1182ZM1928 1544L1566 1544 1566 1303 1928 1303 1928 1544Z" />
    <glyph glyph-name="histogram" unicode="histogram" horiz-adv-x="2048" d="M1792 256L1792 576C1792 611 1821 640 1856 640L1984 640C2019 640 2048 611 2048 576L2048-256 1792-256 1536-256 1280-256 1024-256 768-256 512-256 256-256 0-256 0 832C0 867 29 896 64 896L256 896 256 1216C256 1251 285 1280 320 1280L448 1280C483 1280 512 1251 512 1216L512 384 768 384 768 704C768 739 797 768 832 768L1024 768 1024 1472C1024 1507 1053 1536 1088 1536L1216 1536C1251 1536 1280 1507 1280 1472L1280 1280 1472 1280C1507 1280 1536 1251 1536 1216L1536 256 1792 256Z" />
    <glyph glyph-name="history" unicode="history" horiz-adv-x="2048" d="M301 1363C486 1549 742 1664 1024 1664 1587 1664 2048 1203 2048 640 2048 77 1587-384 1024-384 461-384 0 77 0 640L256 640C256 218 602-128 1024-128 1446-128 1792 218 1792 640 1792 1062 1446 1408 1024 1408 813 1408 621 1322 482 1182L640 1024 128 1024 128 1536 301 1363ZM1136 704C1145 698 1153 692 1161 684L1431 414C1458 387 1463 344 1443 312 1442 311 1442 311 1442 311 1423 281 1383 272 1353 292L1014 512C954 517 906 568 906 630 906 633 906 636 907 640L955 1216C958 1252 988 1280 1024 1280 1060 1280 1090 1252 1093 1216L1136 704Z" />
    <glyph glyph-name="home" unicode="home" horiz-adv-x="2048" d="M256 653L1024 1229 1792 653 1792-384 1536-384 1536 230C1536 245 1525 256 1510 256L1178 256C1163 256 1152 245 1152 230L1152-384 256-384 256 653ZM896-102L896 230C896 245 885 256 870 256L538 256C523 256 512 245 512 230L512-102C512-117 523-128 538-128L870-128C885-128 896-117 896-102ZM1664 1139L2048 832 1920 704 1024 1408 128 704 0 832 1024 1664 1408 1357 1408 1536 1664 1536 1664 1139Z" />
    <glyph glyph-name="hourglass" unicode="hourglass" horiz-adv-x="2048" d="M1910 1410L1782 1410C1795 1232 1770 952 1617 799 1579 761 1541 735 1515 710 1490 710 1477 697 1464 685 1414 659 1414 621 1464 595 1477 583 1503 570 1515 557 1541 532 1579 506 1617 468 1757 316 1782 48 1782-130L1910-130 1910-384 1655-384 510-384 256-384 256-130 383-130C383 48 396 316 549 468 587 519 625 545 650 557 663 570 688 583 701 595 752 621 752 659 701 685 688 697 676 710 650 723 625 735 587 761 549 799 396 952 370 1232 383 1410L256 1410 256 1664 510 1664 1655 1664 1910 1664 1910 1410ZM1477 341C1452 367 1426 392 1401 405L1375 417C1286 468 1235 545 1235 634 1235 672 1261 748 1274 774L1083 672 892 774C905 748 930 672 930 634 930 545 879 468 790 417 790 417 727 379 676 341 625 290 587 201 574 74L1083 265 1579 74C1566 201 1528 290 1477 341ZM1579 1410L587 1410 587 1270C587 1181 612 1092 638 1028L1528 1028C1553 1092 1579 1181 1579 1282L1579 1410Z" />
    <glyph glyph-name="hub_logo" unicode="hub_logo" horiz-adv-x="2048" d="M1728 1024C1907 986 2048 832 2048 640 2048 422 1882 256 1664 256 1626 256 1587 269 1549 269L1357 26C1395-13 1408-64 1408-128 1408-269 1293-384 1152-384 1011-384 896-269 896-128 896 13 1011 128 1152 128 1190 128 1216 115 1254 102L1434 333C1344 410 1280 512 1280 640 1280 678 1280 717 1293 755L448 1242C397 1190 333 1152 256 1152 115 1152 0 1267 0 1408 0 1549 115 1664 256 1664 397 1664 512 1549 512 1408 512 1382 512 1370 512 1357L1357 870C1421 947 1498 1011 1613 1024L1613 1165C1485 1190 1408 1293 1408 1408 1408 1549 1523 1664 1664 1664 1805 1664 1920 1549 1920 1408 1920 1293 1843 1190 1728 1165L1728 1024ZM1664 448C1766 448 1856 538 1856 640 1856 742 1766 832 1664 832 1562 832 1472 742 1472 640 1472 538 1562 448 1664 448Z" />
    <glyph glyph-name="idle" unicode="idle" horiz-adv-x="2048" d="M1399 765L1946 799 1957 549 1092 492 1081 754 1479 1300 1593 1402 1035 1368 1024 1618 1889 1664 1900 1425 1513 868 1399 765ZM512 128L910 299 990 105 341-156 262 37 432 560 489 663 80 503 0 697 649 959 728 754 569 230 512 128Z" />
    <glyph glyph-name="image" unicode="image" horiz-adv-x="2048" d="M128 1408L1920 1408C1991 1408 2048 1351 2048 1280L2048 0C2048-71 1991-128 1920-128L128-128C57-128 0-71 0 0L0 1280C0 1351 57 1408 128 1408ZM192 1280C157 1280 128 1251 128 1216L128 64C128 29 157 0 192 0L1856 0C1891 0 1920 29 1920 64L1920 1216C1920 1251 1891 1280 1856 1280L192 1280ZM1397 896L1792 457 1792 161C1792 139 1770 128 1759 128L256 128 805 677 1013 468 1397 896ZM597 981C597 890 518 811 427 811 336 811 256 890 256 981 256 1072 336 1152 427 1152 518 1152 597 1072 597 981Z" />
    <glyph glyph-name="import" unicode="import" horiz-adv-x="2048" d="M1152 939C1519 936 1818 1088 2048 1394 1892 926 1593 654 1152 578L1152 242 640 754 1152 1266 1152 939 1152 939ZM768 1408L768 1216 256 1216C221 1216 192 1187 192 1152L192 128C192 93 221 64 256 64L1664 64C1699 64 1728 93 1728 128L1728 512 1920 512 1920 0C1920-71 1863-128 1792-128L128-128C57-128 0-71 0 0L0 1280C0 1351 57 1408 128 1408L768 1408Z" />
    <glyph glyph-name="inbox" unicode="inbox" horiz-adv-x="2048" d="M569 1536L1479 1536 2048 976 2048-32C2048-144 1934-256 1820-256L228-256C114-256 0-144 0-32L0 976 569 1536ZM284 1088L1764 1088 1422 1424 626 1424 284 1088ZM1195 768L853 768C768 768 768 768 768 640 768 512 768 512 853 512L1195 512C1280 512 1280 512 1280 640 1280 768 1280 768 1195 768Z" />
    <glyph glyph-name="indent" unicode="indent" horiz-adv-x="2048" d="M896 640L512 256 512 512 0 512 0 768 512 768 512 1024 896 640ZM896 1408L2048 1408 2048 1152 896 1152 896 1408ZM1152 768L2048 768 2048 512 1152 512 1152 768ZM896 128L2048 128 2048-128 896-128 896 128Z" />
    <glyph glyph-name="info" unicode="info" horiz-adv-x="2048" d="M1024 1664C1587 1664 2048 1203 2048 640 2048 77 1587-384 1024-384 461-384 0 77 0 640 0 1203 461 1664 1024 1664ZM1152 704C1152 742 1126 768 1088 768L1024 768 960 768 768 768 768 640 896 640 896 128 768 128 768 0 960 0 1024 0 1088 0C1126 0 1152 26 1152 64L1152 704ZM1152 1216C1152 1254 1126 1280 1088 1280L960 1280C922 1280 896 1254 896 1216L896 1088C896 1050 922 1024 960 1024L1088 1024C1126 1024 1152 1050 1152 1088L1152 1216Z" />
    <glyph glyph-name="insert" unicode="insert" horiz-adv-x="2048" d="M838 477L279 477 279 570 838 570 838 477ZM279 291L838 291 838 198 279 198 279 291ZM1024 198L1117 105 1117 12C1117-7 1108-26 1108-35 1098-63 1071-81 1024-81L93-81C47-81 19-63 9-35 9-26 0-7 0 12L0 1315C0 1334 9 1352 9 1361 19 1389 47 1408 93 1408L1024 1408C1071 1408 1098 1389 1108 1361 1108 1352 1117 1334 1117 1315L1117 1036 1024 943 1024 1222C1024 1315 1024 1315 931 1315L186 1315C93 1315 93 1315 93 1222L93 105C93 12 93 12 186 12L931 12C1024 12 1024 12 1024 105L1024 198ZM838 1036L279 1036 279 1129 838 1129 838 1036ZM838 756L279 756 279 849 838 849 838 756ZM2048-81C2029 12 1992 95 1936 179 1843 310 1685 449 1396 477L1396 198 1024 570 1396 943 1396 663C1592 654 2048 570 2048-81Z" />
    <glyph glyph-name="italic" unicode="italic" horiz-adv-x="2048" d="M1399 1503L901-237C898-248 888-256 877-256L674-256C660-256 648-245 648-230 648-228 649-226 649-223L1147 1517C1150 1528 1160 1536 1171 1536L1374 1536C1388 1536 1400 1525 1400 1510 1400 1508 1399 1506 1399 1503Z" />
    <glyph glyph-name="join" unicode="join" horiz-adv-x="2048" d="M1920 1024L1408 1024 1408 1536C1408 1613 1344 1664 1280 1664L128 1664C64 1664 0 1613 0 1536L0 384C0 307 64 256 128 256L640 256 640-256C640-333 691-384 768-384L1920-384C1997-384 2048-333 2048-256L2048 896C2048 973 1997 1024 1920 1024ZM166 384C141 384 128 397 128 422L128 1498C128 1523 141 1536 166 1536L1254 1536C1267 1536 1280 1523 1280 1498L1280 1024 1152 1024 1152 1382C1152 1395 1139 1408 1126 1408L282 1408C269 1408 256 1395 256 1382L256 538C256 525 269 512 282 512L1126 512C1139 512 1152 525 1152 538L1152 640 1280 640 1280 422C1280 397 1267 384 1254 384L1024 384 896 384 768 384 640 384 166 384ZM640 896L640 640 397 640C397 640 384 640 384 653L384 1267C384 1280 397 1280 397 1280L1011 1280C1024 1280 1024 1280 1024 1267L1024 1024 768 1024C704 1024 640 973 640 896ZM1024 256L1280 256C1357 256 1408 307 1408 384L1408 640 1651 640C1664 640 1664 640 1664 627L1664 13C1664 0 1664 0 1651 0L1037 0C1037 0 1024 0 1024 13L1024 256ZM1920-218C1920-230 1907-256 1882-256L806-256C781-256 768-243 768-218L768 256 896 256 896-102C896-115 909-128 922-128L1766-128C1779-128 1792-115 1792-102L1792 742C1792 755 1779 768 1766 768L1408 768 1280 768 1152 768 1024 768 922 768C909 768 896 755 896 742L896 640 768 640 768 858C768 883 781 896 806 896L1024 896 1152 896 1280 896 1408 896 1882 896C1907 896 1920 883 1920 858L1920-218Z" />
    <glyph glyph-name="key" unicode="key" horiz-adv-x="2048" d="M640-128L384-128 384-384 0-384 0 0 806 806C781 870 768 947 768 1024 768 1382 1050 1664 1408 1664 1766 1664 2048 1382 2048 1024 2048 666 1766 384 1408 384 1331 384 1254 397 1190 422L1152 384 896 384 896 128 640 128 640-128ZM1600 1024C1702 1024 1792 1114 1792 1216 1792 1318 1702 1408 1600 1408 1498 1408 1408 1318 1408 1216 1408 1114 1498 1024 1600 1024Z" />
    <glyph glyph-name="kpi" unicode="kpi" horiz-adv-x="2048" d="M2048 1408L2048-128 1792-128 1792 896 1536 896 1536 1152C1754 1152 1792 1254 1792 1408L2048 1408ZM1011 1024L1280 1024 1280 832 986 832 934 448 1152 448 1152 256 909 256 858-128 666-128 717 256 435 256 384-128 192-128 243 256 0 256 0 448 269 448 320 832 128 832 128 1024 333 1024 384 1408 576 1408 525 1024 819 1024 870 1408 1062 1408 1011 1024ZM794 832L499 832 448 448 730 448 794 832Z" />
    <glyph glyph-name="lasso" unicode="lasso" horiz-adv-x="2048" d="M2041 997C2054 806 1965 601 1798 473 1619 319 1389 281 1133 332L941 383 737 422C737 396 724 383 698 358 647 307 583 281 519 281 481 281 443 294 404 307 391 268 404 230 443 166 647-128 494-371 481-384L289-294C289-282 379-128 251 51 212 128 148 256 200 383 212 409 225 435 251 460 212 524 200 601 238 678 200 716 161 754 148 806 110 908 123 1087 212 1240 251 1330 327 1407 404 1471 507 1547 634 1586 788 1624 1159 1714 1530 1650 1786 1458 1939 1343 2029 1176 2041 997ZM1671 626C1773 716 1837 844 1837 985 1824 1125 1734 1228 1658 1292 1555 1356 1440 1407 1300 1432 1146 1458 993 1445 826 1420 609 1368 468 1279 391 1138 327 1023 340 908 353 870 353 857 366 844 391 844 404 844 417 844 430 844 443 844 443 844 443 844L455 844 468 844C596 844 698 780 750 665L750 639C814 626 903 601 993 575L1184 524C1287 511 1376 511 1466 537 1543 550 1607 588 1671 626Z" />
    <glyph glyph-name="left_right" unicode="left_right" horiz-adv-x="2048" d="M1152 1536L2048 640 1152-256 1152 1536ZM896-256L0 640 896 1536 896-256Z" />
    <glyph glyph-name="library" unicode="library" horiz-adv-x="2048" d="M1959 861C1968 853 1977 844 1977 826 1986 808 1995 772 1995 728 1995 683 1986 648 1977 630 1968 621 1968 603 1959 594L784 238 748 229 0 594 196 621 784 345C784 354 784 354 784 363 784 407 775 434 766 461 766 479 757 488 748 496L1006 577C1015 559 1015 550 1024 523 1033 496 1033 461 1033 443 1033 434 1033 416 1024 407L1193 461C1193 470 1193 479 1202 496 1202 514 1202 541 1202 577 1193 603 1193 621 1184 630L1959 861ZM1968 977L757 621 0 977 1247 1280 1968 977ZM810 746L1256 870 766 1084 329 977 810 746ZM1959 488C1968 479 1977 470 1977 452 1986 434 1995 398 1995 354 1995 309 1986 274 1977 256 1968 247 1968 229 1959 220L784-136 757-145 0 220 196 247 784-29C784-20 784-20 784-2 784 33 775 69 766 96 757 105 757 122 748 131L1006 211C1015 203 1015 185 1024 158 1033 131 1033 96 1033 78 1033 69 1033 51 1024 42L1193 96C1193 105 1193 114 1202 131 1202 149 1202 176 1202 211 1193 238 1193 256 1184 265L1959 488Z" />
    <glyph glyph-name="license" unicode="license" horiz-adv-x="2048" d="M1843-26L205-26C82-26 0 56 0 179L0 1203C0 1326 82 1408 205 1408L1843 1408C1976 1408 2048 1336 2048 1203L2048 179C2048 46 1976-26 1843-26ZM205 1306C164 1306 102 1244 102 1203L102 179C102 138 164 77 205 77L1843 77C1884 77 1946 138 1946 179L1946 1203C1946 1244 1884 1306 1843 1306L205 1306ZM1044 282C1044 404 922 497 758 517L758 579C799 609 840 671 850 732 860 732 870 742 870 742 870 773 870 804 870 835 870 988 788 1070 676 1070 563 1070 481 978 481 824L481 732C481 722 492 722 502 722 512 660 543 609 594 579L594 527C430 497 307 394 307 282L1044 282ZM1741 589L1229 589 1229 486 1741 486 1741 589ZM1741 384L1229 384 1229 282 1741 282 1741 384ZM1741 794L1229 794 1229 691 1741 691 1741 794ZM1741 998L1229 998 1229 896 1741 896 1741 998Z" />
    <glyph glyph-name="lightbulb" unicode="lightbulb" horiz-adv-x="2048" d="M640 0L1408 0 1408-192C1408-230 1382-256 1344-256L1280-256 1280-320C1280-358 1254-384 1216-384L832-384C794-384 768-358 768-320L768-256 704-256C666-256 640-230 640-192L640 0ZM640 128C640 384 256 512 256 1024 256 1408 640 1664 1024 1664 1408 1664 1792 1408 1792 1024 1792 512 1408 512 1408 128L1024 128 640 128ZM576 1024C614 1024 640 1050 640 1088 640 1126 666 1178 704 1216 742 1254 781 1280 832 1280 870 1280 896 1306 896 1344 896 1382 870 1408 832 1408 755 1408 678 1370 614 1306 550 1242 512 1165 512 1088 512 1050 538 1024 576 1024Z" />
    <glyph glyph-name="lightbulb_2" unicode="lightbulb_2" horiz-adv-x="2048" d="M640 0L1408 0 1408-192C1408-230 1382-256 1344-256L1280-256 1280-320C1280-358 1254-384 1216-384L832-384C794-384 768-358 768-320L768-256 704-256C666-256 640-230 640-192L640 0ZM640 128C640 384 256 512 256 1024 256 1408 640 1664 1024 1664 1408 1664 1792 1408 1792 1024 1792 512 1408 512 1408 128L640 128ZM1292 256C1314 366 1368 455 1462 564 1469 572 1496 604 1503 611 1621 749 1664 843 1664 1024 1664 1308 1371 1536 1024 1536 677 1536 384 1308 384 1024 384 837 436 709 550 557 566 536 636 446 621 466 650 429 669 401 688 373 713 334 733 295 746 256L1292 256ZM576 1024C538 1024 512 1050 512 1088 512 1165 550 1242 614 1306 678 1370 755 1408 832 1408 870 1408 896 1382 896 1344 896 1306 870 1280 832 1280 781 1280 742 1254 704 1216 666 1178 640 1126 640 1088 640 1050 614 1024 576 1024Z" />
    <glyph glyph-name="line_chart" unicode="line_chart" horiz-adv-x="2048" d="M2048-256L2048-384 166-384 0-384 0-218 0 1664 128 1664 128 0 691 934 1203 640 1690 1485C1728 1549 1843 1562 1907 1536 1971 1498 2010 1395 1971 1331L1331 205 819 499 384-256 2048-256Z" />
    <glyph glyph-name="line_chart_area" unicode="line_chart_area" horiz-adv-x="2048" d="M2048-256L2048-384 128-384 0-384 0 1664 128 1664 128 300 749 795 1254 539 2048 1336 2048-256Z" />
    <glyph glyph-name="line_chart_line" unicode="line_chart_line" horiz-adv-x="2048" d="M128-384L0-384 0 1664 128 1664 128 300 749 795 1254 539 2048 1336 2048 1152 1280 384 768 640 128 128 128-256 2048-256 2048-384 128-384Z" />
    <glyph glyph-name="link" unicode="link" horiz-adv-x="2048" d="M737 715L300 278C250 228 250 147 300 97L481-84C531-134 612-134 662-84L1099 353C1167 210 1142 34 1024-84L843-265C693-415 450-415 300-265L119-84C-31 66-31 309 119 459L300 640C418 758 594 783 737 715L737 715ZM1311 565L1748 1002C1798 1052 1798 1133 1748 1183L1567 1364C1517 1414 1436 1414 1386 1364L949 927C881 1070 906 1246 1024 1364L1205 1545C1355 1695 1598 1695 1748 1545L1929 1364C2079 1214 2079 971 1929 821L1748 640C1630 522 1454 497 1311 565L1311 565ZM662 459L1205 1002C1255 1052 1336 1052 1386 1002 1436 952 1436 871 1386 821L843 278C793 228 712 228 662 278 612 328 612 409 662 459Z" />
    <glyph glyph-name="list" unicode="list" horiz-adv-x="2048" d="M0 1536L2048 1536 2048 1280 0 1280 0 1536ZM0 768L0 1024 2048 1024 2048 768 0 768ZM0 256L0 512 2048 512 2048 256 0 256ZM0-256L0 0 2048 0 2048-256 0-256Z" />
    <glyph glyph-name="lock" unicode="lock" horiz-adv-x="2048" d="M1664 768L1024 768 1664 768 1664 1026C1664 1379 1377 1664 1024 1664 671 1664 384 1379 384 1026L384 768 480 768 384 768 576 768 576 982C576 1252 710 1472 1024 1472 1338 1472 1472 1252 1472 982L1472 768 1568 768 384 768C313 768 256 711 256 640L256-256C256-327 313-384 384-384L1664-384C1735-384 1792-327 1792-256L1792 640C1792 711 1735 768 1664 768L384 768 1664 768Z" />
    <glyph glyph-name="log_in" unicode="log_in" horiz-adv-x="2048" d="M384-102C384-117 395-128 410-128L1280-128 1280-384 256-384C185-384 128-327 128-256L128 1536C128 1607 185 1664 256 1664L1280 1664 1280 1408 410 1408C395 1408 384 1397 384 1382L384-102ZM1280 768L2048 768 2048 512 1280 512 1536 256 1408 128 896 640 1408 1152 1536 1024 1280 768Z" />
    <glyph glyph-name="log_out" unicode="log_out" horiz-adv-x="2048" d="M256-102C256-117 267-128 282-128L1024-128 1024-384 128-384C57-384 0-327 0-256L0 1536C0 1607 57 1664 128 1664L1024 1664 1024 1408 282 1408C267 1408 256 1397 256 1382L256-102ZM1536 768L1280 1024 1408 1152 1920 640 1408 128 1280 256 1536 512 768 512 768 768 1536 768Z" />
    <glyph glyph-name="low_resolution" unicode="low_resolution" horiz-adv-x="2048" d="M1957 1536C2002 1536 2048 1502 2048 1445L2048-193C2048-250 2002-284 1957-284L91-284C46-284 0-239 0-193L0 1445C0 1502 46 1536 91 1536L1957 1536ZM1820 1308L1138 1308 1138 740 1820 740 1820 1308ZM228 1308L228 740 910 740 910 1308 228 1308ZM228-57L910-57 910 512 228 512 228-57ZM1820-57L1820 512 1138 512 1138-57 1820-57Z" />
    <glyph glyph-name="mail" unicode="mail" horiz-adv-x="2048" d="M640 640L0 82 0 1198 640 640ZM1408 640L2048 1198 2048 82 1408 640ZM768 542L974 371C1003 347 1045 347 1074 371L1280 542 1984-85C1941-113 1899-127 1856-127 1792-127 279-129 192-127 134-126 91-112 64-85L768 542ZM982 578L64 1365C64 1393 107 1407 192 1407 320 1407 1743 1410 1856 1407 1931 1405 1974 1391 1984 1365L1066 578C1042 557 1006 557 982 578Z" />
    <glyph glyph-name="mail_2" unicode="mail_2" horiz-adv-x="2048" d="M122 1408L1926 1408C1994 1408 2048 1346 2048 1271L2048 9C2048-66 1994-128 1926-128L122-128C55-128 0-66 0 9L0 1271C0 1346 55 1408 122 1408ZM742 602L192 1024 192 128 742 602ZM1306 602L1856 128 1856 1024 1306 602ZM905 512L384 64 1664 64 1143 512 1060 455C1038 440 1010 440 988 455L905 512ZM986 669C1008 652 1040 652 1062 669L1792 1216 256 1216 986 669Z" />
    <glyph glyph-name="map" unicode="map" horiz-adv-x="2048" d="M347 1226L614 1279 689 1319 773 1295 906 1303 952 1375 1019 1364 1181 1379 1226 1428 1289 1470 1379 1457 1387 1458 1766 1142 1607 1124 1566 1059 1537 1069 1421 1172 1382 1284 1310 1349 1224 1366 1222 1327 1306 1245 1303 1199 1263 1184 1207 1207 1209 1253 1135 1283 1111 1176 1037 1159 1044 1100 1141 1081 1157 1176 1237 1165 1275 1143 1334 1143 1375 1061 1483 951 1475 909 1388 920 1237 844 1129 713 1115 656 1076 656 1003 689 933 656 950 581 981 617 1035 618 1031 552 1076 539 1120 488 1193 509 1447 461 1503 371 1661 304 1559 83 1451 33 1387-94 1254-183 1242-228 1137-248 1129-151 1170 18 1062 288 1111 389 994 501 843 535 793 640 793 578 771 578 640 754 640 899 524 1034 291 1028 240 1061 305 1113 258 1102 347 1226ZM1215 1476L1129 1410 1046 1402 1009 1426 1155 1510 1215 1476ZM911 1401L787 1368 728 1403 787 1451 828 1434 882 1451 911 1401ZM1024 1664C458 1664 0 1206 0 640 0 74 458-384 1024-384 1590-384 2048 74 2048 640 2048 1206 1590 1664 1024 1664Z" />
    <glyph glyph-name="mashup" unicode="mashup" horiz-adv-x="2048" d="M341 955L967 955 967 615 341 615 341 955ZM1081 955L1707 955 1707 615 1081 615 1081 955ZM341 502L967 502 967 162 341 162 341 502ZM1081 502L1707 502 1707 162 1081 162 1081 502ZM1923 1408C2025 1408 2048 1385 2048 1283L2048 61C2048-41 2025-64 1923-64L125-64C23-64 0-41 0 61L0 1283C0 1385 23 1408 125 1408L1923 1408ZM1934 1046C1934 1057 1923 1068 1911 1068L137 1068C125 1068 114 1057 114 1046L114 72C114 61 125 49 137 49L1911 49C1923 49 1934 61 1934 72L1934 1046Z" />
    <glyph glyph-name="measure" unicode="measure" horiz-adv-x="2048" d="M1024 896C806 896 640 1062 640 1280 640 1498 806 1664 1024 1664 1242 1664 1408 1498 1408 1280 1408 1062 1242 896 1024 896ZM1024 1408C947 1408 896 1357 896 1280 896 1203 947 1152 1024 1152 1101 1152 1152 1203 1152 1280 1152 1357 1101 1408 1024 1408ZM2048 768L2048 384 1920 384 1920 512 1626 512 1920 0 1920-384 1664-128 1293 512 755 512 384-128 128-384 128 0 422 512 128 512 128 384 0 384 0 768 128 768 128 640 499 640 640 896C704 832 768 794 819 781 845 781 870 768 896 768L819 640 1216 640 1152 768C1178 768 1203 781 1229 781 1280 794 1344 832 1408 896L1549 640 1920 640 1920 768 2048 768Z" />
    <glyph glyph-name="megaphone" unicode="megaphone" horiz-adv-x="2048" d="M1022 1153L1024 386 787 386C774 214 838 22 978-190 983-300 640-384 640-384 469-128 384 129 384 386L319 386C284 386 256 415 256 450L256 514 0 640 0 896 256 1025 256 1089C256 1124 284 1153 319 1153L1022 1153ZM1150 1152C1231 1168 1402 1253 1664 1408L1664 128C1408 299 1237 384 1150 384L1150 1152ZM1792 1024C1933 1024 2048 909 2048 768 2048 627 1933 512 1792 512L1792 1024Z" />
    <glyph glyph-name="menu" unicode="menu" horiz-adv-x="2048" d="M1920 1152L128 1152 128 1408 1920 1408 1920 1152ZM1920-128L128-128 128 128 1920 128 1920-128ZM1920 512L128 512 128 768 1920 768 1920 512Z" />
    <glyph glyph-name="minus" unicode="minus" horiz-adv-x="2048" d="M1024 1664C1587 1664 2048 1203 2048 640 2048 77 1587-384 1024-384 461-384 0 77 0 640 0 1203 461 1664 1024 1664ZM1600 512C1632 512 1664 550 1664 589L1664 691C1664 730 1632 768 1600 768L448 768C416 768 384 730 384 691L384 602C384 550 416 512 448 512L1600 512Z" />
    <glyph glyph-name="minus_2" unicode="minus_2" horiz-adv-x="2048" d="M256 832L1792 832C1863 832 1920 775 1920 704L1920 576C1920 505 1863 448 1792 448L256 448C185 448 128 505 128 576L128 704C128 775 185 832 256 832Z" />
    <glyph glyph-name="more" unicode="more" horiz-adv-x="2048" d="M256 832L384 832C455 832 512 775 512 704L512 576C512 505 455 448 384 448L256 448C185 448 128 505 128 576L128 704C128 775 185 832 256 832ZM960 832L1088 832C1159 832 1216 775 1216 704L1216 576C1216 505 1159 448 1088 448L960 448C889 448 832 505 832 576L832 704C832 775 889 832 960 832ZM1664 832L1792 832C1863 832 1920 775 1920 704L1920 576C1920 505 1863 448 1792 448L1664 448C1593 448 1536 505 1536 576L1536 704C1536 775 1593 832 1664 832Z" />
    <glyph glyph-name="more_rounded" unicode="more_rounded" horiz-adv-x="2048" d="M1024 1664C1587 1664 2048 1203 2048 640 2048 77 1587-384 1024-384 461-384 0 77 0 640 0 1203 461 1664 1024 1664ZM384 448C486 448 576 538 576 640 576 742 486 832 384 832 282 832 192 742 192 640 192 538 282 448 384 448ZM1024 448C1126 448 1216 538 1216 640 1216 742 1126 832 1024 832 922 832 832 742 832 640 832 538 922 448 1024 448ZM1664 448C1766 448 1856 538 1856 640 1856 742 1766 832 1664 832 1562 832 1472 742 1472 640 1472 538 1562 448 1664 448Z" />
    <glyph glyph-name="more_vertical" unicode="more_vertical" horiz-adv-x="2048" d="M929 108C1056 171 1207 95 1257-32 1320-158 1245-311 1119-361 992-425 841-349 791-222 728-95 803 57 929 108ZM1119 1172C992 1109 841 1185 791 1312 728 1438 803 1591 929 1641 1056 1705 1207 1629 1257 1502 1320 1375 1245 1223 1119 1172ZM929 868C1056 931 1207 855 1257 729 1320 602 1245 450 1119 399 992 336 841 412 791 539 728 665 803 817 929 868Z" />
    <glyph glyph-name="network_folder" unicode="network_folder" horiz-adv-x="2048" d="M1984-128L1280-128C1280-64 1229 0 1152 0L1088 0 1088 128 1792 128C1920 128 1984 192 2022 256 2035 294 2048 333 2048 384L2048 1152C2048 1203 2035 1242 2022 1280 1984 1344 1920 1408 1792 1408L1050 1408C1037 1408 1024 1421 1011 1434L947 1562C909 1613 845 1664 742 1664L102 1664C51 1664 0 1626 0 1562L0 384C0 333 13 294 26 256 64 192 128 128 256 128L960 128 960 0 896 0C832 0 768-51 768-128L64-128C26-128 0-154 0-192 0-230 26-256 64-256L768-256C768-320 819-384 896-384L1152-384C1216-384 1280-333 1280-256L1984-256C2022-256 2048-230 2048-192 2048-154 2022-128 1984-128ZM128 371L128 1152 1920 1152 1920 371C1920 307 1869 256 1805 256L243 256C179 256 128 307 128 371Z" />
    <glyph glyph-name="new_tab" unicode="new_tab" horiz-adv-x="2048" d="M1920 1024C1946 1024 1971 1011 1984 1011 2022 998 2048 960 2048 896L2048-256C2048-320 2022-358 1984-371 1971-384 1946-384 1920-384L640-384C576-384 538-358 525-320 525-307 512-282 512-256L512 256 128 256C64 256 26 282 13 320 13 333 0 358 0 384L0 1536C0 1600 26 1638 64 1651 77 1651 102 1664 128 1664L1408 1664C1434 1664 1459 1651 1472 1651 1510 1638 1536 1600 1536 1536L1536 1024 1920 1024ZM448 1536C410 1536 384 1510 384 1472 384 1434 410 1408 448 1408 486 1408 512 1434 512 1472 512 1510 486 1536 448 1536ZM192 1536C154 1536 128 1510 128 1472 128 1434 154 1408 192 1408 230 1408 256 1434 256 1472 256 1510 230 1536 192 1536ZM1280 384C1408 384 1408 384 1408 512L1408 1280 128 1280 128 499C128 384 128 384 256 384L1280 384ZM1920 640L1536 640 1536 384C1536 358 1523 333 1523 320 1510 282 1472 256 1408 256L640 256 640-128C640-256 640-256 768-256L1792-256C1920-256 1920-256 1920-128L1920 640Z" />
    <glyph glyph-name="next" unicode="next" horiz-adv-x="2048" d="M1088 640L512 1216 704 1408 1472 640 704-128 512 64 1088 640Z" />
    <glyph glyph-name="object" unicode="object" horiz-adv-x="2048" d="M113 77L1925 77 1946 77 1946 1203 1946 1306 1935 1306 113 1306 102 1306C102 1295 102 1295 102 1295L102 97 102 77 113 77ZM2048 77C2048 56 2038 36 2038 26 2028-5 1997-26 1946-26L102-26C82-26 61-15 51-15 20-5 0 26 0 77L0 1306C0 1357 20 1388 51 1398 61 1398 82 1408 102 1408L1946 1408C1997 1408 2028 1388 2038 1357 2038 1347 2048 1326 2048 1306L2048 77ZM471 896C502 896 512 876 512 855L512 312C512 292 502 282 471 282L348 282C317 282 307 292 307 323L307 855C307 876 317 896 348 896L471 896ZM881 794C911 794 922 773 922 753L922 312C922 292 911 282 881 282L758 282C727 282 717 292 717 323L717 753C717 773 727 794 758 794L881 794ZM1290 998C1321 998 1331 978 1331 957L1331 312C1331 292 1321 271 1290 271L1157 271C1137 271 1116 282 1116 312L1116 957C1126 978 1137 998 1167 998L1290 998ZM1700 1101C1731 1101 1741 1080 1741 1060L1741 312C1741 292 1731 271 1700 271L1567 271C1546 271 1526 282 1526 312L1526 1060C1536 1080 1546 1101 1577 1101L1700 1101Z" />
    <glyph glyph-name="objects" unicode="objects" horiz-adv-x="2048" d="M1408 1664C1766 1664 2048 1382 2048 1024 2048 666 1766 384 1408 384L1408-269C1408-333 1357-384 1293-384L115-384C51-384 0-333 0-269L0 909C0 973 51 1024 115 1024L768 1024C768 1382 1050 1664 1408 1664ZM320 832L704 448 1088 832 320 832ZM192 704L192-51 576 333 192 704ZM320-192L1075-192 691 192 320-192ZM1216-64L1216 704 832 320 1216-64ZM1728 704C1818 794 1856 909 1856 1024 1856 1139 1805 1254 1728 1344 1638 1434 1536 1472 1408 1472 1293 1472 1178 1421 1088 1344 1011 1254 960 1152 960 1024L1293 1024C1357 1024 1408 973 1408 909L1408 576C1536 576 1638 627 1728 704Z" />
    <glyph glyph-name="operators" unicode="operators" horiz-adv-x="2048" d="M0 1664L896 1664 896 768 0 768 0 1664ZM128 1216C128 1178 154 1152 192 1152L704 1152C742 1152 768 1178 768 1216 768 1254 742 1280 704 1280L192 1280C154 1280 128 1254 128 1216ZM0 512L896 512 896-384 0-384 0 512ZM358 64L218-77C192-102 192-141 218-166 230-179 243-179 269-179 294-179 307-179 320-166L461-26 602-166C614-179 627-179 653-179 678-179 691-179 704-166 730-141 730-102 704-77L563 64 704 205C730 230 730 269 704 294 678 320 640 320 614 294L474 154 333 294C307 320 269 320 243 294 218 269 218 230 243 205L358 64ZM2048 1664L2048 768 1152 768 1152 1664 2048 1664ZM1920 1216C1920 1254 1894 1280 1856 1280L1664 1280 1664 1472C1664 1510 1638 1536 1600 1536 1562 1536 1536 1510 1536 1472L1536 1280 1344 1280C1306 1280 1280 1254 1280 1216 1280 1178 1306 1152 1344 1152L1536 1152 1536 960C1536 922 1562 896 1600 896 1638 896 1664 922 1664 960L1664 1152 1856 1152C1894 1152 1920 1178 1920 1216ZM1152 512L2048 512 2048-384 1152-384 1152 512ZM1664-192C1664-154 1638-128 1600-128 1562-128 1536-154 1536-192 1536-230 1562-256 1600-256 1638-256 1664-230 1664-192ZM1536 320C1536 282 1562 256 1600 256 1638 256 1664 282 1664 320 1664 358 1638 384 1600 384 1562 384 1536 358 1536 320ZM1280 64C1280 26 1306 0 1344 0L1856 0C1894 0 1920 26 1920 64 1920 102 1894 128 1856 128L1344 128C1306 128 1280 102 1280 64Z" />
    <glyph glyph-name="palette" unicode="palette" horiz-adv-x="2048" d="M1024-384C458-384 0 74 0 640 0 1206 458 1664 1024 1664 1485 1664 1875 1359 2003 940 2079 427 1845 255 1589 203 1413 167 1223 221 1132 125 921-61 1405-220 1024-384ZM512 384C653 384 768 499 768 640 768 781 653 896 512 896 371 896 256 781 256 640 256 499 371 384 512 384ZM704 1024C810 1024 896 1110 896 1216 896 1322 810 1408 704 1408 598 1408 512 1322 512 1216 512 1110 598 1024 704 1024ZM1280 1152C1351 1152 1408 1209 1408 1280 1408 1351 1351 1408 1280 1408 1209 1408 1152 1351 1152 1280 1152 1209 1209 1152 1280 1152ZM1664 896C1735 896 1792 953 1792 1024 1792 1095 1735 1152 1664 1152 1593 1152 1536 1095 1536 1024 1536 953 1593 896 1664 896Z" />
    </font>
</defs>
</svg>
