<?xml version="1.0" encoding="UTF-8"?>
<svg width="100px" height="100px" viewBox="0 0 100 100" version="1.1" xmlns="http://www.w3.org/2000/svg" xmlns:xlink="http://www.w3.org/1999/xlink">
    <!-- Generator: Sketch 51.2 (57519) - http://www.bohemiancoding.com/sketch -->
    <title>Artboard</title>
    <desc>Created with Sketch.</desc>
    <defs>
        <path d="M24.9258137,68.75 L51.5590816,68.75 C52.2184128,66.841958 53.1790085,64.9605583 54.422322,63.0265151 C55.3098199,61.6459628 56.2849297,60.3081402 57.687023,58.498862 C56.9393803,59.4637515 60.3505683,55.0950755 61.125,54.0625 C65.5463386,48.1673819 68.0607856,43.0427899 68.9155197,36.6182956 C69.1439205,34.9959478 69.2497855,33.232219 69.2499997,31.2560113 C69.2499999,31.2540077 69.25,31.2520039 69.25,31.25 C69.25,17.3858836 54.9324354,6.25 38,6.25 C21.0675646,6.25 6.75,17.3858836 6.75,31.25 C6.75,33.2286426 6.8558479,34.994303 7.0844803,36.6182956 C7.93921436,43.0427899 10.4536614,48.1673819 14.875,54.0625 C15.6494317,55.0950755 19.0606197,59.4637515 18.312977,58.498862 C19.7150703,60.3081402 20.6901801,61.6459628 21.577678,63.0265151 C22.8209915,64.9605583 23.7815872,66.841958 24.4409184,68.75 L24.9258137,68.75 Z M75.4908138,32.2033616 C75.0218014,56.4114585 56.75,62.660429 56.75,75 L38,75 L19.25,75 C19.25,62.5 0.5,56.25 0.5,31.25 C0.5,12.5 19.25,0 38,0 C56.75,0 75.5,12.5 75.5,31.25 C75.5,31.5718715 75.496892,31.889599 75.4907559,32.2032758 Z M19.25,81.25 L56.75,81.25 L56.75,90.625 C56.75,92.5 55.5,93.75 53.625,93.75 L50.5,93.75 L50.5,96.875 C50.5,98.75 49.25,100 47.375,100 L28.625,100 C26.75,100 25.5,98.75 25.5,96.875 L25.5,93.75 L22.375,93.75 C20.5,93.75 19.25,92.5 19.25,90.625 L19.25,81.25 Z M16.125,31.25 C14.25,31.25 13,30 13,28.125 C13,24.375 14.875,20.625 18,17.5 C21.125,14.375 24.875,12.5 28.625,12.5 C30.5,12.5 31.75,13.75 31.75,15.625 C31.75,17.5 30.5,18.75 28.625,18.75 C26.125,18.75 24.25,20 22.375,21.875 C20.5,23.75 19.25,26.25 19.25,28.125 C19.25,30 18,31.25 16.125,31.25 Z" id="path-1"></path>
    </defs>
    <g id="Artboard" stroke="none" stroke-width="1" fill="none" fill-rule="evenodd">
        <g id="DLSicons-/Generic-/lightbulb-alt" transform="translate(12.000000, 0.000000)">
            <mask id="mask-2" fill="white">
                <use xlink:href="#path-1"></use>
            </mask>
            <use id="Shape" fill="#000000" fill-rule="nonzero" xlink:href="#path-1"></use>
            <g id="Greyscale-/65" mask="url(#mask-2)" fill="#A6A6A6">
                <g transform="translate(-12.000000, 0.000000)" id="Greyscale-65">
                    <rect x="0" y="0" width="100" height="100"></rect>
                </g>
            </g>
        </g>
    </g>
</svg>
