<svg xmlns="http://www.w3.org/2000/svg" xmlns:xlink="http://www.w3.org/1999/xlink" width="16" height="16" viewBox="0 0 16 16">
  <defs>
    <path id="low-copy-a" d="M0,15 L1.2246468e-16,13 C5.48293048e-17,12.4477153 0.44771525,12 1,12 L15,12 C15.5522847,12 16,12.4477153 16,13 L16,15 C16,15.5522847 15.5522847,16 15,16 L1,16 C0.44771525,16 6.76353751e-17,15.5522847 0,15 Z M0,9 L1.2246468e-16,7 C1.56282367e-16,6.44771525 0.596953667,6 1.33333333,6 L15,6 C15.5522847,6 16,6.44771525 16,7 L16,9 C16,9.55228475 15.5522847,10 15,10 L1.33333333,10 C0.596953667,10 -3.38176876e-17,9.55228475 0,9 Z M15,9 L15,7 L1,7 L1,9 L15,9 Z M0,3 L1.2246468e-16,1 C1.56282367e-16,0.44771525 0.44771525,0 1,0 L15,1.77635684e-15 C15.5522847,1.77635684e-15 16,0.44771525 16,1 L16,3 C16,3.55228475 15.5522847,4 15,4 L1,4 C0.44771525,4 -3.38176876e-17,3.55228475 0,3 Z M15,3 L15,1 L1,1 L1,3 L15,3 Z"/>
  </defs>
  <g fill="none" fill-rule="evenodd">
    <mask id="low-copy-b" fill="#fff">
      <use xlink:href="#low-copy-a"/>
    </mask>
    <use fill="#000" xlink:href="#low-copy-a"/>
    <g fill="#FFBB2A" mask="url(#low-copy-b)">
      <rect width="16" height="16"/>
    </g>
  </g>
</svg>

