<svg xmlns="http://www.w3.org/2000/svg" xmlns:xlink="http://www.w3.org/1999/xlink" width="16" height="16" viewBox="0 0 16 16">
  <defs>
    <path fill="#595959" id="luiicons_view_disabled-a" d="M9.03002308,7.96997692 C9.11752487,7.98961266 9.20789683,8 9.3,8 C9.5,8 9.8,7.9 10,7.8 L10,8 C10,9.1 9.1,10 8,10 C7.70741016,10 7.42897054,9.93632402 7.17785453,9.82214547 L5.71862057,11.2813794 C6.3574056,11.7604598 7.14876027,12 8,12 C9.1,12 10.1,11.6 10.8,10.8 C11.6,10.1 12,9.1 12,8 C12,7.14876027 11.7604598,6.3574056 11.2813794,5.71862057 L9.03002308,7.96997692 L9.03002308,7.96997692 Z M8.03002308,6.96997692 L10.2813794,4.71862057 C9.6425944,4.23954019 8.85123973,4 8,4 C6.9,4 5.9,4.4 5.2,5.2 C4.4,5.9 4,6.9 4,8 C4,8.85123973 4.23954019,9.6425944 4.71862057,10.2813794 L6.17785453,8.82214547 C6.06367598,8.57102946 6,8.29258984 6,8 C6,6.9 6.9,6 8,6 L8.2,6 C8.1,6.2 8,6.4 8,6.7 C8,6.79210317 8.01038734,6.88247513 8.03002308,6.96997692 L8.03002308,6.96997692 Z M14.5,0.5 C14.7761424,0.223857625 15.2238576,0.223857625 15.5,0.5 C15.7761424,0.776142375 15.7761424,1.22385763 15.5,1.5 L12.9267572,4.07324284 C13.2736896,4.37556622 13.5942469,4.68972627 13.888429,5 C14.6882862,5.85714286 15.415429,6.88571429 15.9971433,8 C15.415429,9.11428571 14.6882862,10.1428571 13.888429,11 C12.5068575,12.4571429 10.5435717,14 7.99857167,14 C6.54481479,14 5.2808673,13.4965763 4.20672921,12.7932708 L1.5,15.5 C1.22385763,15.7761424 0.776142375,15.7761424 0.5,15.5 C0.223857625,15.2238576 0.223857625,14.7761424 0.5,14.5 L3.07191277,11.9280872 C2.72439402,11.6253553 2.40332788,11.3107288 2.10871435,11 C1.30885718,10.1428571 0.581714303,9.11428571 -4.88498131e-14,8 C0.581714303,6.88571429 1.30885718,5.85714286 2.10871435,5 C3.49028582,3.54285714 5.45357159,2 7.99857167,2 C9.45310736,2 10.7176302,2.50396327 11.7921403,3.20785972 L14.5,0.5 Z"/>
  </defs>
  <use xlink:href="#luiicons_view_disabled-a"/>
</svg>
