<?xml version="1.0" encoding="utf-8"?>
<!-- Generator: Adobe Illustrator 21.0.0, SVG Export Plug-In . SVG Version: 6.00 Build 0)  -->
<svg version="1.1" id="Layer_2" xmlns="http://www.w3.org/2000/svg" xmlns:xlink="http://www.w3.org/1999/xlink" x="0px" y="0px"
	 viewBox="0 0 201.4 43.4" style="enable-background:new 0 0 201.4 43.4;" xml:space="preserve">
<style type="text/css">
	.st0{fill:#54565A;}
	.st1{fill:#009845;}
	.st2{fill:#B3B3B3;}
</style>
<g>
	<path class="st0" d="M58.6,23.1c-0.4-0.7,0.1-1.3,0.1-1.3l5.1-5.3c0.6-0.6-0.3-0.6-0.3-0.6h-4.8c-0.8,0-1.4,0.6-1.4,0.6l-4.7,5
		c-0.6,0.6-0.6-0.2-0.6-0.2v-11c0-0.8-0.8-0.8-0.8-0.8h-3.6c-0.8,0-0.8,0.8-0.8,0.8v23c0,0.8,0.8,0.8,0.8,0.8h3.6
		c0.8,0,0.8-0.8,0.8-0.8v-4c0-0.8,0.6-1.4,0.6-1.4l1.7-1.6l4.2,7.1c0.4,0.7,1.3,0.7,1.3,0.7h4.5c0.8,0,0.4-0.7,0.4-0.7L58.6,23.1
		L58.6,23.1z M43,33.2V16.7c0-0.8-0.8-0.8-0.8-0.8h-3.6c-0.8,0-0.8,0.8-0.8,0.8v16.5c0,0.8,0.8,0.8,0.8,0.8h3.6
		C43,34.1,43,33.2,43,33.2L43,33.2z M42.9,12.6v-2.4c0,0,0-0.8-0.8-0.8h-3.5c0,0-0.8,0-0.8,0.8v2.4c0,0,0,0.8,0.8,0.8h3.5
		C42.1,13.4,42.9,13.4,42.9,12.6L42.9,12.6z M33.8,33.2V10.3c0-0.8-0.8-0.8-0.8-0.8h-3.7c-0.8,0-0.8,0.8-0.8,0.8v22.9
		c0,0.8,0.8,0.8,0.8,0.8H33C33.8,34.1,33.8,33.2,33.8,33.2L33.8,33.2z M25.5,32.2c0,0,0.5-0.5-0.1-1l-3-2.6c1.3-2,2.1-4.3,2.1-6.9
		c0-6.8-5.5-12.3-12.3-12.3C5.5,9.4,0,15,0,21.8c0,6.8,5.5,12.3,12.3,12.3c2.5,0,4.8-0.7,6.7-2l3.2,2.8c0,0,0.5,0.5,1-0.1L25.5,32.2
		L25.5,32.2z M19.4,21.8c0,3.9-3.2,7.1-7.1,7.1c-3.9,0-7.1-3.2-7.1-7.1c0-3.9,3.2-7.1,7.1-7.1C16.2,14.7,19.4,17.8,19.4,21.8
		L19.4,21.8z"/>
	<path class="st1" d="M99.6,32.5l-4-3.3c1.4-2.2,2.2-4.8,2.2-7.5c0-7.8-6.3-14.1-14.1-14.1c-7.8,0-14.1,6.3-14.1,14.1
		c0,7.8,6.3,14.1,14.1,14.1c3,0,5.8-1,8.1-2.6l4.2,3.5c0,0,0.6,0.5,1.2-0.1l2.5-3C99.7,33.6,100.2,33,99.6,32.5L99.6,32.5z
		 M92.4,21.6c0,4.8-3.9,8.7-8.7,8.7c-4.8,0-8.7-3.9-8.7-8.7c0-4.8,3.9-8.7,8.7-8.7C88.5,13,92.4,16.8,92.4,21.6L92.4,21.6z"/>
	<path class="st0" d="M78.1,21.6c0-3.1,2.5-5.6,5.6-5.6c3.1,0,5.6,2.5,5.6,5.6c0,3.1-2.5,5.6-5.6,5.6C80.6,27.2,78.1,24.7,78.1,21.6
		L78.1,21.6z"/>
	<g>
		<path class="st0" d="M97.2,11.7c0-0.9,0.7-1.5,1.5-1.5c0.9,0,1.5,0.7,1.5,1.5c0,0.8-0.7,1.5-1.5,1.5
			C97.9,13.2,97.2,12.5,97.2,11.7z M98.8,10.3c-0.7,0-1.3,0.6-1.3,1.3c0,0.7,0.6,1.3,1.3,1.3c0.7,0,1.3-0.6,1.3-1.3
			C100,10.9,99.5,10.3,98.8,10.3z M98.4,12.6h-0.2v-1.9h0.7c0.3,0,0.6,0.2,0.6,0.5c0,0.3-0.2,0.5-0.4,0.5l0.5,0.8h-0.3l-0.5-0.8
			h-0.4V12.6z M98.4,11.6h0.4c0.2,0,0.4-0.1,0.4-0.3c0-0.2-0.2-0.3-0.4-0.3h-0.4V11.6z"/>
	</g>
</g>
<g>
	<path class="st0" d="M133.1,30.1h2.1c2.6,0,4,1.5,4,4.2c0,2.7-1.4,4.3-4,4.3h-2.2V30.1z M135.2,37.7c2,0,3-1.3,3-3.4
		c0-2.1-1-3.3-3-3.3h-1v6.8H135.2z"/>
	<path class="st0" d="M143.2,32.1c1.6,0,2.5,1.2,2.5,3c0,0.2,0,0.4,0,0.6h-4.3c0.1,1.4,0.9,2.2,2.1,2.2c0.6,0,1.1-0.2,1.6-0.5
		l0.4,0.7c-0.5,0.4-1.2,0.7-2.1,0.7c-1.7,0-3-1.2-3-3.3C140.3,33.4,141.7,32.1,143.2,32.1z M144.8,35c0-1.3-0.6-2-1.6-2
		c-0.9,0-1.7,0.7-1.8,2H144.8z"/>
	<path class="st0" d="M146.9,37.2c0.5,0.4,1.1,0.8,1.9,0.8c0.8,0,1.2-0.4,1.2-1c0-0.6-0.8-0.9-1.4-1.2c-0.9-0.3-1.9-0.8-1.9-1.8
		c0-1,0.8-1.8,2.2-1.8c0.8,0,1.5,0.3,2,0.7l-0.5,0.7c-0.4-0.3-0.9-0.6-1.4-0.6c-0.8,0-1.2,0.4-1.2,0.9c0,0.6,0.7,0.8,1.4,1.1
		c0.9,0.3,1.9,0.7,1.9,1.9c0,1-0.8,1.9-2.3,1.9c-0.9,0-1.8-0.4-2.4-0.9L146.9,37.2z"/>
	<path class="st0" d="M152.3,29.3h1.1v6.3h0l2.7-3.3h1.2l-2.1,2.5l2.4,3.8h-1.2l-1.8-3l-1.2,1.4v1.7h-1.1V29.3z"/>
	<path class="st0" d="M158.9,33.1H158v-0.8l1-0.1l0.1-1.8h0.9v1.8h1.7v0.9H160v3.5c0,0.8,0.2,1.2,1,1.2c0.2,0,0.5-0.1,0.7-0.2
		l0.2,0.8c-0.4,0.1-0.8,0.2-1.2,0.2c-1.4,0-1.8-0.9-1.8-2.1V33.1z"/>
	<path class="st0" d="M165.2,32.1c1.5,0,2.9,1.2,2.9,3.3c0,2.1-1.4,3.3-2.9,3.3c-1.5,0-2.9-1.2-2.9-3.3
		C162.3,33.3,163.7,32.1,165.2,32.1z M165.2,37.9c1.1,0,1.8-1,1.8-2.4c0-1.5-0.7-2.4-1.8-2.4c-1.1,0-1.8,1-1.8,2.4
		C163.4,36.9,164.1,37.9,165.2,37.9z"/>
	<path class="st0" d="M170.6,39.1v2.1h-1.1v-9h0.9l0.1,0.7h0c0.6-0.5,1.3-0.9,2-0.9c1.6,0,2.5,1.3,2.5,3.2c0,2.1-1.3,3.4-2.7,3.4
		c-0.6,0-1.2-0.3-1.8-0.7L170.6,39.1z M172.1,37.8c1,0,1.8-0.9,1.8-2.5c0-1.4-0.5-2.3-1.7-2.3c-0.5,0-1.1,0.3-1.7,0.9v3.3
		C171.2,37.7,171.7,37.8,172.1,37.8z"/>
</g>
<g>
	<g>
		<path class="st0" d="M131,20.3c1.4,1.4,3.2,2.4,5.3,2.4c2.5,0,4-1.2,4-3.1c0-1.9-1.4-2.6-3.2-3.4l-2.7-1.2
			c-1.8-0.8-3.9-2.1-3.9-4.9c0-2.9,2.6-5,6-5c2.3,0,4.3,1,5.6,2.3L140.8,9c-1.2-1.1-2.6-1.8-4.3-1.8c-2.1,0-3.6,1.1-3.6,2.8
			c0,1.8,1.7,2.5,3.2,3.2l2.7,1.2c2.2,1,3.9,2.3,3.9,5.1c0,3-2.5,5.4-6.5,5.4c-2.7,0-5-1.1-6.6-2.8L131,20.3z"/>
		<path class="st0" d="M151,10c3.6,0,5.6,2.6,5.6,6.6c0,0.5,0,1-0.1,1.3H147c0.2,3,2,5,4.7,5c1.3,0,2.5-0.4,3.5-1.1l0.8,1.6
			c-1.2,0.8-2.7,1.5-4.6,1.5c-3.8,0-6.8-2.8-6.8-7.4S147.8,10,151,10z M154.5,16.4c0-2.9-1.3-4.5-3.5-4.5c-2,0-3.8,1.6-4.1,4.5
			H154.5z"/>
		<path class="st0" d="M159.5,10.4h2l0.2,2h0.1c1.3-1.3,2.8-2.4,4.7-2.4c3,0,4.3,1.9,4.3,5.5v8.9h-2.4v-8.6c0-2.6-0.8-3.8-2.7-3.8
			c-1.5,0-2.4,0.8-3.9,2.2v10.2h-2.4V10.4z"/>
		<path class="st0" d="M174.2,21.3c1.2,1,2.5,1.7,4.1,1.7c1.9,0,2.8-1,2.8-2.2c0-1.5-1.7-2.1-3.2-2.7c-2-0.7-4.2-1.7-4.2-4.1
			c0-2.3,1.8-4,4.8-4c1.8,0,3.3,0.7,4.4,1.6l-1.1,1.5c-1-0.7-2-1.2-3.2-1.2c-1.8,0-2.6,1-2.6,2c0,1.3,1.5,1.8,3.1,2.4
			c2,0.8,4.3,1.6,4.3,4.3c0,2.3-1.8,4.2-5.2,4.2c-2,0-3.9-0.8-5.2-1.9L174.2,21.3z"/>
		<path class="st0" d="M191.5,10c3.6,0,5.6,2.6,5.6,6.6c0,0.5,0,1-0.1,1.3h-9.5c0.2,3,2,5,4.7,5c1.3,0,2.5-0.4,3.5-1.1l0.8,1.6
			c-1.2,0.8-2.7,1.5-4.6,1.5c-3.8,0-6.8-2.8-6.8-7.4S188.2,10,191.5,10z M195,16.4c0-2.9-1.3-4.5-3.5-4.5c-2,0-3.8,1.6-4.1,4.5H195z
			"/>
	</g>
	<g>
		<g>
			<path class="st0" d="M198.3,11.8c0-0.9,0.7-1.5,1.5-1.5c0.9,0,1.5,0.7,1.5,1.5c0,0.8-0.7,1.5-1.5,1.5
				C199,13.4,198.3,12.7,198.3,11.8z M199.9,10.5c-0.7,0-1.3,0.6-1.3,1.3c0,0.7,0.6,1.3,1.3,1.3c0.7,0,1.3-0.6,1.3-1.3
				C201.2,11.1,200.6,10.5,199.9,10.5z M199.5,12.8h-0.2v-1.9h0.7c0.3,0,0.6,0.2,0.6,0.5c0,0.3-0.2,0.5-0.4,0.5l0.5,0.8h-0.3
				l-0.5-0.8h-0.4V12.8z M199.5,11.7h0.4c0.2,0,0.4-0.1,0.4-0.3c0-0.2-0.2-0.3-0.4-0.3h-0.4V11.7z"/>
		</g>
	</g>
</g>
<rect x="114.5" class="st2" width="1.1" height="43.4"/>
</svg>
