<?xml version="1.0" encoding="utf-8"?>
<!-- Generator: Adobe Illustrator 21.0.0, SVG Export Plug-In . SVG Version: 6.00 Build 0)  -->
<svg version="1.1" id="Layer_2" xmlns="http://www.w3.org/2000/svg" xmlns:xlink="http://www.w3.org/1999/xlink" x="0px" y="0px"
	 viewBox="0 0 204.5 43.4" style="enable-background:new 0 0 204.5 43.4;" xml:space="preserve">
<style type="text/css">
	.st0{fill:#54565A;}
	.st1{fill:#009845;}
	.st2{enable-background:new    ;}
	.st3{fill:#B3B3B3;}
</style>
<g>
	<path class="st0" d="M58.6,23.1c-0.4-0.7,0.1-1.3,0.1-1.3l5.1-5.3c0.6-0.6-0.3-0.6-0.3-0.6h-4.8c-0.8,0-1.4,0.6-1.4,0.6l-4.7,5
		C52,22.1,52,21.3,52,21.3v-11c0-0.8-0.8-0.8-0.8-0.8h-3.6c-0.8,0-0.8,0.8-0.8,0.8v23c0,0.8,0.8,0.8,0.8,0.8h3.6
		c0.8,0,0.8-0.8,0.8-0.8v-4c0-0.8,0.6-1.4,0.6-1.4l1.7-1.6l4.2,7.1c0.4,0.7,1.3,0.7,1.3,0.7h4.5c0.8,0,0.4-0.7,0.4-0.7L58.6,23.1
		L58.6,23.1z M43,33.2V16.7c0-0.8-0.8-0.8-0.8-0.8h-3.6c-0.8,0-0.8,0.8-0.8,0.8v16.5c0,0.8,0.8,0.8,0.8,0.8h3.6
		C43,34.1,43,33.2,43,33.2L43,33.2z M42.9,12.6v-2.4c0,0,0-0.8-0.8-0.8h-3.5c0,0-0.8,0-0.8,0.8v2.4c0,0,0,0.8,0.8,0.8h3.5
		C42.1,13.4,42.9,13.4,42.9,12.6L42.9,12.6z M33.8,33.2V10.3c0-0.8-0.8-0.8-0.8-0.8h-3.7c-0.8,0-0.8,0.8-0.8,0.8v22.9
		c0,0.8,0.8,0.8,0.8,0.8H33C33.8,34.1,33.8,33.2,33.8,33.2L33.8,33.2z M25.5,32.2c0,0,0.5-0.5-0.1-1l-3-2.6c1.3-2,2.1-4.3,2.1-6.9
		c0-6.8-5.5-12.3-12.3-12.3C5.5,9.4,0,15,0,21.8s5.5,12.3,12.3,12.3c2.5,0,4.8-0.7,6.7-2l3.2,2.8c0,0,0.5,0.5,1-0.1L25.5,32.2
		L25.5,32.2z M19.4,21.8c0,3.9-3.2,7.1-7.1,7.1s-7.1-3.2-7.1-7.1s3.2-7.1,7.1-7.1C16.2,14.7,19.4,17.8,19.4,21.8L19.4,21.8z"/>
	<path class="st1" d="M99.6,32.5l-4-3.3c1.4-2.2,2.2-4.8,2.2-7.5c0-7.8-6.3-14.1-14.1-14.1s-14.1,6.3-14.1,14.1s6.3,14.1,14.1,14.1
		c3,0,5.8-1,8.1-2.6l4.2,3.5c0,0,0.6,0.5,1.2-0.1l2.5-3C99.7,33.6,100.2,33,99.6,32.5L99.6,32.5z M92.4,21.6c0,4.8-3.9,8.7-8.7,8.7
		c-4.8,0-8.7-3.9-8.7-8.7s3.9-8.7,8.7-8.7C88.5,13,92.4,16.8,92.4,21.6L92.4,21.6z"/>
	<path class="st0" d="M78.1,21.6c0-3.1,2.5-5.6,5.6-5.6s5.6,2.5,5.6,5.6s-2.5,5.6-5.6,5.6S78.1,24.7,78.1,21.6L78.1,21.6z"/>
</g>
<g class="st2">
	<path class="st0" d="M133.1,30.1h4.9V31h-3.8v2.7h3.2v0.9h-3.2v3.1h4v0.9h-5V30.1z"/>
	<path class="st0" d="M139.8,32.3h0.9l0.1,0.9h0c0.6-0.6,1.2-1.1,2.1-1.1c1.3,0,1.9,0.9,1.9,2.5v4h-1.1v-3.9c0-1.2-0.4-1.7-1.2-1.7
		c-0.7,0-1.1,0.3-1.7,1v4.6h-1.1V32.3z"/>
	<path class="st0" d="M147.1,33.1h-0.9v-0.8l1-0.1l0.1-1.8h0.9v1.8h1.7v0.9h-1.7v3.5c0,0.8,0.2,1.2,1,1.2c0.2,0,0.5-0.1,0.7-0.2
		l0.2,0.8c-0.4,0.1-0.8,0.2-1.2,0.2c-1.4,0-1.8-0.9-1.8-2.1V33.1z"/>
	<path class="st0" d="M153.6,32.1c1.6,0,2.5,1.2,2.5,3c0,0.2,0,0.4,0,0.6h-4.3c0.1,1.4,0.9,2.2,2.1,2.2c0.6,0,1.1-0.2,1.6-0.5
		l0.4,0.7c-0.5,0.4-1.2,0.7-2.1,0.7c-1.7,0-3-1.2-3-3.3C150.8,33.4,152.1,32.1,153.6,32.1z M155.2,35c0-1.3-0.6-2-1.6-2
		c-0.9,0-1.7,0.7-1.8,2H155.2z"/>
	<path class="st0" d="M157.7,32.3h0.9l0.1,1.1h0c0.4-0.8,1.1-1.3,1.8-1.3c0.3,0,0.5,0,0.7,0.1l-0.2,0.9c-0.2-0.1-0.4-0.1-0.6-0.1
		c-0.5,0-1.2,0.4-1.6,1.5v4.1h-1.1V32.3z"/>
	<path class="st0" d="M163.2,39.1v2.1h-1.1v-9h0.9l0.1,0.7h0c0.6-0.5,1.3-0.9,2-0.9c1.6,0,2.5,1.3,2.5,3.2c0,2.1-1.3,3.4-2.7,3.4
		c-0.6,0-1.2-0.3-1.8-0.7L163.2,39.1z M164.8,37.8c1,0,1.8-0.9,1.8-2.5c0-1.4-0.5-2.3-1.7-2.3c-0.5,0-1.1,0.3-1.7,0.9v3.3
		C163.8,37.7,164.4,37.8,164.8,37.8z"/>
	<path class="st0" d="M169.4,32.3h0.9l0.1,1.1h0c0.4-0.8,1.1-1.3,1.8-1.3c0.3,0,0.5,0,0.7,0.1l-0.2,0.9c-0.2-0.1-0.4-0.1-0.6-0.1
		c-0.5,0-1.2,0.4-1.6,1.5v4.1h-1.1V32.3z"/>
	<path class="st0" d="M173.7,30.3c0-0.4,0.3-0.7,0.7-0.7s0.7,0.3,0.7,0.7c0,0.4-0.3,0.7-0.7,0.7S173.7,30.7,173.7,30.3z M173.9,32.3
		h1.1v6.3h-1.1V32.3z"/>
	<path class="st0" d="M176.9,37.2c0.5,0.4,1.1,0.8,1.9,0.8c0.8,0,1.2-0.4,1.2-1c0-0.7-0.8-0.9-1.4-1.2c-0.9-0.3-1.9-0.8-1.9-1.8
		c0-1,0.8-1.8,2.2-1.8c0.8,0,1.5,0.3,2,0.7l-0.5,0.7c-0.4-0.3-0.9-0.6-1.4-0.6c-0.8,0-1.2,0.4-1.2,0.9c0,0.6,0.7,0.8,1.4,1.1
		c0.9,0.3,1.9,0.7,1.9,1.9c0,1-0.8,1.9-2.3,1.9c-0.9,0-1.8-0.4-2.4-0.9L176.9,37.2z"/>
	<path class="st0" d="M184.9,32.1c1.6,0,2.5,1.2,2.5,3c0,0.2,0,0.4,0,0.6h-4.3c0.1,1.4,0.9,2.2,2.1,2.2c0.6,0,1.1-0.2,1.6-0.5
		l0.4,0.7c-0.5,0.4-1.2,0.7-2.1,0.7c-1.7,0-3-1.2-3-3.3C182.1,33.4,183.5,32.1,184.9,32.1z M186.5,35c0-1.3-0.6-2-1.6-2
		c-0.9,0-1.7,0.7-1.8,2H186.5z"/>
</g>
<g class="st2">
	<path class="st0" d="M131,20.3c1.4,1.4,3.2,2.4,5.2,2.4c2.5,0,4-1.2,4-3.1c0-1.9-1.4-2.6-3.2-3.4l-2.7-1.2
		c-1.8-0.8-3.9-2.1-3.9-4.9c0-2.9,2.6-5,6-5c2.3,0,4.3,1,5.6,2.3L140.8,9c-1.2-1.1-2.6-1.8-4.3-1.8c-2.1,0-3.6,1.1-3.6,2.8
		c0,1.8,1.7,2.5,3.2,3.2l2.7,1.2c2.2,1,3.9,2.3,3.9,5.1c0,3-2.5,5.4-6.5,5.4c-2.7,0-5-1.1-6.6-2.8L131,20.3z"/>
	<path class="st0" d="M151.4,10c3.6,0,5.6,2.6,5.6,6.6c0,0.5,0,1-0.1,1.3h-9.5c0.2,3,2,5,4.7,5c1.3,0,2.5-0.4,3.5-1.1l0.8,1.6
		c-1.2,0.8-2.7,1.5-4.6,1.5c-3.8,0-6.8-2.8-6.8-7.4S148.2,10,151.4,10z M154.9,16.4c0-2.9-1.3-4.5-3.5-4.5c-2,0-3.8,1.6-4.1,4.5
		H154.9z"/>
	<path class="st0" d="M160.5,10.4h2l0.2,2h0.1c1.3-1.3,2.8-2.4,4.7-2.4c3,0,4.3,1.9,4.3,5.5v8.9h-2.4v-8.6c0-2.6-0.8-3.8-2.7-3.8
		c-1.5,0-2.4,0.8-3.9,2.2v10.2h-2.4V10.4z"/>
	<path class="st0" d="M176,21.3c1.2,1,2.5,1.7,4.1,1.7c1.9,0,2.8-1,2.8-2.2c0-1.5-1.7-2.1-3.2-2.7c-2-0.7-4.2-1.7-4.2-4.1
		c0-2.3,1.8-4,4.8-4c1.8,0,3.3,0.7,4.4,1.6l-1.1,1.5c-1-0.7-2-1.2-3.2-1.2c-1.8,0-2.6,1-2.6,2c0,1.3,1.5,1.8,3.1,2.4
		c2,0.8,4.3,1.6,4.3,4.3c0,2.3-1.8,4.2-5.2,4.2c-2,0-3.9-0.8-5.3-1.9L176,21.3z"/>
	<path class="st0" d="M193.8,10c3.6,0,5.6,2.6,5.6,6.6c0,0.5,0,1-0.1,1.3h-9.5c0.2,3,2,5,4.7,5c1.3,0,2.5-0.4,3.5-1.1l0.8,1.6
		c-1.2,0.8-2.7,1.5-4.6,1.5c-3.8,0-6.8-2.8-6.8-7.4S190.6,10,193.8,10z M197.3,16.4c0-2.9-1.3-4.5-3.5-4.5c-2,0-3.8,1.6-4.1,4.5
		H197.3z"/>
</g>
<rect x="114.5" class="st3" width="1.1" height="43.4"/>
<g>
	<path class="st0" d="M201.4,10.5c0-0.9,0.7-1.5,1.5-1.5c0.9,0,1.5,0.7,1.5,1.5c0,0.8-0.7,1.5-1.5,1.5
		C202.1,12,201.4,11.3,201.4,10.5z M202.9,9.2c-0.7,0-1.3,0.6-1.3,1.3c0,0.7,0.6,1.3,1.3,1.3c0.7,0,1.3-0.6,1.3-1.3
		C204.2,9.8,203.7,9.2,202.9,9.2z M202.6,11.4h-0.2V9.6h0.7c0.3,0,0.6,0.2,0.6,0.5c0,0.3-0.2,0.5-0.4,0.5l0.5,0.8h-0.3l-0.5-0.8
		h-0.4V11.4z M202.6,10.4h0.4c0.2,0,0.4-0.1,0.4-0.3c0-0.2-0.2-0.3-0.4-0.3h-0.4V10.4z"/>
</g>
<g>
	<path class="st0" d="M97.4,11.7c0-0.9,0.7-1.5,1.5-1.5c0.9,0,1.5,0.7,1.5,1.5c0,0.8-0.7,1.5-1.5,1.5C98.1,13.2,97.4,12.5,97.4,11.7
		z M98.9,10.4c-0.7,0-1.3,0.6-1.3,1.3c0,0.7,0.6,1.3,1.3,1.3c0.7,0,1.3-0.6,1.3-1.3C100.2,11,99.7,10.4,98.9,10.4z M98.6,12.6h-0.2
		v-1.9h0.7c0.3,0,0.6,0.2,0.6,0.5c0,0.3-0.2,0.5-0.4,0.5l0.5,0.8h-0.3L99,11.8h-0.4V12.6z M98.6,11.6H99c0.2,0,0.4-0.1,0.4-0.3
		c0-0.2-0.2-0.3-0.4-0.3h-0.4V11.6z"/>
</g>
</svg>
