<?xml version="1.0" encoding="utf-8"?>
<!-- Generator: Adobe Illustrator 21.0.0, SVG Export Plug-In . SVG Version: 6.00 Build 0)  -->
<svg version="1.0" id="Layer_1" xmlns="http://www.w3.org/2000/svg" xmlns:xlink="http://www.w3.org/1999/xlink" x="0px" y="0px"
	 width="360px" height="360px" viewBox="0 0 360 360" enable-background="new 0 0 360 360" xml:space="preserve">
<g>
	<path fill="#595959" d="M351.9,298.8l-45.7-38.4c15.9-25.2,25.2-55.1,25.2-87.2C331.4,83,258.2,9.8,168,9.8
		C77.7,9.8,4.5,83,4.5,173.2c0,90.3,73.2,163.5,163.5,163.5c35,0,67.5-11,94.1-29.8l48.8,40.9c0,0,7.3,6.1,13.3-1.2l29-34.5
		C353.1,312.1,359.2,304.9,351.9,298.8z"/>
	<path fill="#FFFFFF" d="M180.3,157.9l-15.4-2.5c-15.4-2.5-22.3-6.5-22.3-15.3c0-10.2,13.5-16.3,22.8-16.3
		c17.2,0,32.5,7.5,43.1,20.3l30.5-21.9c-18.1-20.1-44-30.9-70.9-30.9c-34.3,0-65.7,16-65.7,54.9c0,23.7,16,39.5,46,44.2l33.4,5.4
		c12,2,18.1,6.1,18.1,14.2c0,14-19.2,18.5-30,18.5c-19.2,0-32.3-7.5-46.5-20.1l-30.7,19.9c21.9,24.1,45.1,32.7,72.4,32.7
		c30,0,73.6-9,73.6-57.3C238.8,172.8,212.1,163.3,180.3,157.9z"/>
</g>
</svg>
