<?xml version="1.0" encoding="iso-8859-1"?>
<!-- Generator: Adobe Illustrator 15.1.0, SVG Export Plug-In . SVG Version: 6.00 Build 0)  -->
<!DOCTYPE svg PUBLIC "-//W3C//DTD SVG 1.1//EN" "http://www.w3.org/Graphics/SVG/1.1/DTD/svg11.dtd">
<svg focusable="false" version="1.1" id="Shape" xmlns="http://www.w3.org/2000/svg" xmlns:xlink="http://www.w3.org/1999/xlink" x="0px" y="0px"
	 width="600px" height="600px" viewBox="0 0 600 600" style="enable-background:new 0 0 600 600;" xml:space="preserve">
<path d="M299.995,49.684C161.932,49.684,50,161.616,50,299.683c0,138.069,111.933,250.001,249.995,250.001
	c138.084,0,250.004-111.932,250.004-250.001C549.999,161.616,438.079,49.684,299.995,49.684z M299.995,112.988
	c40.214,0,77.457,12.715,107.931,34.341L147.646,407.607c-21.628-30.473-34.345-67.714-34.345-107.925
	C113.302,196.572,196.889,112.988,299.995,112.988z M299.995,486.367c-40.044,0-77.14-12.613-107.542-34.075l260.162-260.161
	c21.467,30.403,34.082,67.503,34.082,107.552C486.696,402.783,403.108,486.367,299.995,486.367z"/>
</svg>
