<?xml version="1.0" encoding="iso-8859-1"?>
<!-- Generator: Adobe Illustrator 15.1.0, SVG Export Plug-In . SVG Version: 6.00 Build 0)  -->
<!DOCTYPE svg PUBLIC "-//W3C//DTD SVG 1.1//EN" "http://www.w3.org/Graphics/SVG/1.1/DTD/svg11.dtd">
<svg focusable="false" version="1.1" id="Shape" xmlns="http://www.w3.org/2000/svg" xmlns:xlink="http://www.w3.org/1999/xlink" x="0px" y="0px"
	 width="470px" height="600px" viewBox="0 0 470 600" style="enable-background:new 0 0 470 600;" xml:space="preserve">
<g>
	<g>
		<path style="fill-rule:evenodd;clip-rule:evenodd;" d="M419.314,299.478l-11.31-164.414c0.119-0.738,0.211-1.477,0.211-2.22
			c0-28.072-84.845-50.825-176.073-50.825c-91.227,0-172.44,22.753-172.44,50.825c0,1.043,0.145,2.07,0.366,3.099L48.822,299.478
			c-0.039,0.771,0.07,1.496,0.238,2.199c-0.146,0.572-0.25,1.169-0.25,1.794v166.995c0,4.01,3.251,7.261,7.263,7.261h14.52v25.413
			c0,8.02,6.503,14.521,14.521,14.521h18.151c8.02,0,14.522-6.502,14.522-14.521v-25.413h232.341v25.413
			c0,8.02,6.504,14.521,14.523,14.521h18.15c8.02,0,14.521-6.502,14.521-14.521v-25.413h14.521c4.01,0,7.264-3.251,7.264-7.261
			V303.471c0-0.468-0.056-0.929-0.14-1.372C419.221,301.279,419.357,300.403,419.314,299.478z M186.763,103.802
			c0-2.008,1.626-3.632,3.632-3.632h87.128c2.007,0,3.63,1.624,3.63,3.632v14.521c0,2.007-1.623,3.63-3.63,3.63h-87.128
			c-2.006,0-3.632-1.623-3.632-3.63V103.802z M143.2,423.271c0,2.007-1.625,3.63-3.632,3.63H74.224c-2.008,0-3.631-1.623-3.631-3.63
			v-21.782c0-2.006,1.623-3.631,3.631-3.631h65.345c2.007,0,3.632,1.625,3.632,3.631V423.271z M397.323,423.271
			c0,2.007-1.622,3.63-3.628,3.63h-65.347c-2.007,0-3.632-1.623-3.632-3.63v-21.782c0-2.006,1.625-3.631,3.632-3.631h65.347
			c2.006,0,3.628,1.625,3.628,3.631V423.271z M394.75,299.839H73.159c-3.594,0-6.365-3.073-6.188-6.859L77.623,142.7
			c0.16-3.443,3.061-6.227,6.478-6.227h299.704c3.419,0,6.32,2.783,6.479,6.227l10.654,150.279
			C401.114,296.766,398.347,299.839,394.75,299.839z"/>
	</g>
</g>
</svg>
