<?xml version="1.0" encoding="iso-8859-1"?>
<!-- Generator: Adobe Illustrator 15.1.0, SVG Export Plug-In . SVG Version: 6.00 Build 0)  -->
<!DOCTYPE svg PUBLIC "-//W3C//DTD SVG 1.1//EN" "http://www.w3.org/Graphics/SVG/1.1/DTD/svg11.dtd">
<svg focusable="false" version="1.1" id="Shape" xmlns="http://www.w3.org/2000/svg" xmlns:xlink="http://www.w3.org/1999/xlink" x="0px" y="0px"
	 width="470px" height="600px" viewBox="0 0 470 600" style="enable-background:new 0 0 470 600;" xml:space="preserve">
<path style="fill-rule:evenodd;clip-rule:evenodd;" d="M403.153,514.316h-22.719c-8.12,0-14.703-6.599-14.703-14.738v-26.69
	c-30.884,5.307-76.437,13.804-128.17,13.804c-1.174,0-5.815,0-6.987,0c-51.735,0-97.416-8.497-128.299-13.804v26.69
	c0,8.14-6.581,14.738-14.703,14.738H64.981c-8.121,0-14.701-6.599-14.701-14.738v-47.899v-7.371v-40.529
	c0-22.846,8.62-37.593,18.378-47.9c3.909-3.919,20.732-21.568,25.731-29.477c4.995-7.91,27.806-46.731,33.081-55.27
	c5.273-8.54,13.871-11.055,29.404-11.055h154.384c15.534,0,24.134,2.515,29.404,11.055c5.275,8.538,28.086,47.359,33.082,55.27
	c4.999,7.908,21.822,25.558,25.731,29.477c9.757,10.308,18.38,25.055,18.38,47.9v40.529v7.371v47.899
	C417.856,507.718,411.273,514.316,403.153,514.316z M69.232,397.795c-2.028,0-3.677,1.648-3.677,3.686v11.418
	c0,2.038,1.648,3.686,3.677,3.686c0,0,15.579,6.024,31.923,7.843c16.735,1.867,34.239,4.141,34.239,4.141
	c2.032,0,3.676-1.65,3.676-3.686v-14.006c0-2.033-1.644-3.686-3.676-3.686c0,0-17.807-1.543-34.682-3.421
	C84.517,401.969,69.232,397.795,69.232,397.795z M351.693,315.345l-16.681-33.927c-2.683-6.772-9.362-12.232-21.801-12.232H154.923
	c-11.454,0-19.119,5.46-21.802,12.232l-16.678,33.927c-3.867,9.639-1.761,12.821,5.406,14.741c0,0,32.666,6.566,112.385,6.566
	c79.714,0,112.051-6.566,112.051-6.566C353.132,327.849,355.559,324.983,351.693,315.345z M402.579,401.48
	c0-2.037-1.649-3.686-3.677-3.686c0,0-15.285,4.174-31.481,5.975c-16.875,1.878-34.682,3.421-34.682,3.421
	c-2.031,0-3.675,1.652-3.675,3.686v13.973c0,2.037,1.644,3.687,3.675,3.687c0,0,17.505-2.278,34.239-4.138
	c16.346-1.822,31.924-7.813,31.924-7.813c2.027,0,3.677-1.647,3.677-3.686V401.48z"/>
</svg>
