<?xml version="1.0" encoding="iso-8859-1"?>
<!-- Generator: Adobe Illustrator 15.1.0, SVG Export Plug-In . SVG Version: 6.00 Build 0)  -->
<!DOCTYPE svg PUBLIC "-//W3C//DTD SVG 1.1//EN" "http://www.w3.org/Graphics/SVG/1.1/DTD/svg11.dtd">
<svg focusable="false" version="1.1" id="Shape" xmlns="http://www.w3.org/2000/svg" xmlns:xlink="http://www.w3.org/1999/xlink" x="0px" y="0px"
	 width="600px" height="600px" viewBox="0 0 600 600" style="enable-background:new 0 0 600 600;" xml:space="preserve">
<g>
	<path style="fill-rule:evenodd;clip-rule:evenodd;" d="M299.996,49.684C161.933,49.684,50,161.616,50,299.683
		c0,138.069,111.933,250.001,249.996,250.001C438.079,549.684,550,437.752,550,299.683C550,161.616,438.079,49.684,299.996,49.684z
		 M299.996,499.867c-110.562,0-200.195-89.629-200.195-200.185c0-110.566,89.633-200.194,200.195-200.194
		c110.57,0,200.202,89.628,200.202,200.194C500.198,410.238,410.566,499.867,299.996,499.867z M324.998,289.728V150.135
		c0-13.775-11.179-24.938-24.949-24.938c-13.775,0-24.941,11.163-24.941,24.938v149.342c0,1.97,0.253,3.879,0.684,5.718
		c0.94,4.645,3.203,9.076,6.807,12.681l68.106,68.107c9.748,9.749,25.542,9.749,35.29,0c9.737-9.736,9.737-25.524,0-35.273
		L324.998,289.728z"/>
</g>
</svg>
