<?xml version="1.0" encoding="iso-8859-1"?>
<!-- Generator: Adobe Illustrator 15.1.0, SVG Export Plug-In . SVG Version: 6.00 Build 0)  -->
<!DOCTYPE svg PUBLIC "-//W3C//DTD SVG 1.1//EN" "http://www.w3.org/Graphics/SVG/1.1/DTD/svg11.dtd">
<svg focusable="false" version="1.1" id="Shape" xmlns="http://www.w3.org/2000/svg" xmlns:xlink="http://www.w3.org/1999/xlink" x="0px" y="0px"
	 width="600px" height="600px" viewBox="0 0 600 600" style="enable-background:new 0 0 600 600;" xml:space="preserve">
<g>
	<g>
		<path d="M552.146,277.97c-4.507-51.355-47.349-92.57-99.599-92.57c-13.062,0-25.488,2.58-36.929,7.144
			c-13.848-57.383-65.248-98.935-126.694-98.935c-72.04,0-130.438,57.156-130.501,129.413c-10.112-5.271-21.572-8.296-33.75-8.296
			c-36.357,0-66.459,27.776-72.25,62.779c-1.06,7.689,2.5,25.622,7.793,25.622h484.381
			C549.846,303.127,552.8,283.555,552.146,277.97z M163.614,380.215c-10.328,21.491-28.501,61.336-28.501,75.377
			c0,19.596,15.878,35.468,35.458,35.468c19.58,0,35.459-15.872,35.459-35.474c0-14.108-18.369-54.283-28.657-75.708
			C173.359,371.534,167.715,371.678,163.614,380.215z M292.948,328.958c-7.305,16.047-20.16,45.799-20.16,56.28
			c0,14.629,11.229,26.485,25.077,26.485s25.073-11.856,25.079-26.489c0-10.535-12.999-40.53-20.27-56.529
			C299.837,322.476,295.843,322.586,292.948,328.958z M431.59,358.982c-9.126,19.134-25.195,54.604-25.195,67.101
			c0,17.44,14.033,31.572,31.343,31.572s31.343-14.132,31.348-31.581c0-12.557-16.24-48.321-25.337-67.39
			C440.208,351.26,435.213,351.391,431.59,358.982z"/>
	</g>
</g>
</svg>
