<?xml version="1.0" encoding="iso-8859-1"?>
<!-- Generator: Adobe Illustrator 15.1.0, SVG Export Plug-In . SVG Version: 6.00 Build 0)  -->
<!DOCTYPE svg PUBLIC "-//W3C//DTD SVG 1.1//EN" "http://www.w3.org/Graphics/SVG/1.1/DTD/svg11.dtd">
<svg focusable="false" version="1.1" id="Shape" xmlns="http://www.w3.org/2000/svg" xmlns:xlink="http://www.w3.org/1999/xlink" x="0px" y="0px"
	 width="600px" height="600px" viewBox="0 0 600 600" style="enable-background:new 0 0 600 600;" xml:space="preserve">
<path d="M366.054,299.999l107.141-107.142c9.005-9.006,13.523-19.927,13.523-32.767c0-12.824-4.519-23.744-13.523-32.767
	c-9.722-9.702-20.802-14.563-33.286-14.563c-12.483,0-23.583,4.861-33.286,14.563L299.479,233.425L193.378,127.324
	c-9.719-9.702-20.802-14.563-33.288-14.563c-12.481,0-23.58,4.861-33.286,14.563c-9.019,9.022-13.521,19.942-13.521,32.767
	c0,12.84,4.503,23.761,13.521,32.767l107.143,107.142L126.804,407.14c-9.019,9.023-13.521,19.943-13.521,32.768
	c0,12.843,4.503,23.762,13.521,32.769c9.706,9.718,20.805,14.562,33.286,14.562c12.486,0,23.569-4.845,33.288-14.562
	l106.102-106.104l107.143,106.104c9.703,9.718,20.803,14.562,33.286,14.562c12.484,0,23.564-4.845,33.286-14.562
	c9.005-9.007,13.523-19.926,13.523-32.769c0-12.824-4.519-23.744-13.523-32.768L366.054,299.999z"/>
</svg>
