<?xml version="1.0" encoding="iso-8859-1"?>
<!-- Generator: Adobe Illustrator 15.1.0, SVG Export Plug-In . SVG Version: 6.00 Build 0)  -->
<!DOCTYPE svg PUBLIC "-//W3C//DTD SVG 1.1//EN" "http://www.w3.org/Graphics/SVG/1.1/DTD/svg11.dtd">
<svg focusable="false" version="1.1" id="Shape" xmlns="http://www.w3.org/2000/svg" xmlns:xlink="http://www.w3.org/1999/xlink" x="0px" y="0px"
	 width="600px" height="600px" viewBox="0 0 600 600" style="enable-background:new 0 0 600 600;" xml:space="preserve">
<g>
	<path d="M250.421,229.022c0,25.27,14.447,36.404,36.662,44.152v-86.319C262.75,191.281,250.421,205.448,250.421,229.022z"/>
	<path d="M299.996,49.684C161.933,49.684,50,161.616,50,299.683c0,138.069,111.933,250.001,249.996,250.001
		C438.078,549.684,550,437.752,550,299.683C550,161.616,438.078,49.684,299.996,49.684z M377.667,420.827
		c-13.299,14.075-32.596,23.051-55.98,26.075v35.05h-34.604v-34.943c-46.879-4.688-76.441-32.005-85.608-79.202l-0.605-3.129
		l35.055-16.743l1.198,4.934c5.761,23.717,16.671,51.316,49.961,57.553v-97.417c-17.97-4.392-36.405-9.874-50.76-21.283
		c-17.125-13.613-25.448-33.449-25.448-60.639c0-23.333,8.182-43.269,23.663-57.652c13.182-12.246,31.289-20.301,52.545-23.404
		v-34.698h34.604v34.197c41.615,5.128,66.67,30.899,76.535,78.664l0.707,3.42l-36.646,14.135l-0.969-4.781
		c-6.596-32.566-18.574-49.133-39.628-54.294v95.579c18.94,4.813,36.998,10.26,51.286,20.976
		c17.603,13.201,26.159,32.184,26.159,58.031C399.132,385.366,391.709,405.966,377.667,420.827z"/>
	<path d="M321.687,322.367v87.681c25.309-4.339,36.662-18.15,36.662-44.263C358.349,340.6,343.899,329.738,321.687,322.367z"/>
	<path style="fill:#FFFFFF;" d="M372.973,303.223c-14.288-10.716-32.346-16.162-51.286-20.976v-95.579
		c21.054,5.161,33.032,21.728,39.628,54.294l0.969,4.781l36.646-14.135l-0.707-3.42c-9.865-47.765-34.92-73.536-76.535-78.664
		v-34.197h-34.604v34.698c-21.256,3.104-39.363,11.158-52.545,23.404c-15.481,14.384-23.663,34.319-23.663,57.652
		c0,27.189,8.323,47.025,25.448,60.639c14.354,11.409,32.79,16.892,50.76,21.283v97.417c-33.29-6.236-44.2-33.836-49.961-57.553
		l-1.198-4.934l-35.055,16.743l0.605,3.129c9.167,47.197,38.729,74.515,85.608,79.202v34.943h34.604v-35.05
		c23.385-3.024,42.682-12,55.98-26.075c14.042-14.861,21.465-35.461,21.465-59.573C399.132,335.406,390.575,316.424,372.973,303.223
		z M287.083,273.175c-22.215-7.748-36.662-18.883-36.662-44.152c0-23.574,12.329-37.741,36.662-42.167V273.175z M321.687,410.048
		v-87.681c22.213,7.371,36.662,18.232,36.662,43.418C358.349,391.897,346.995,405.709,321.687,410.048z"/>
</g>
</svg>
