<?xml version="1.0" encoding="iso-8859-1"?>
<!-- Generator: Adobe Illustrator 15.1.0, SVG Export Plug-In . SVG Version: 6.00 Build 0)  -->
<!DOCTYPE svg PUBLIC "-//W3C//DTD SVG 1.1//EN" "http://www.w3.org/Graphics/SVG/1.1/DTD/svg11.dtd">
<svg focusable="false" version="1.1" id="Shape" xmlns="http://www.w3.org/2000/svg" xmlns:xlink="http://www.w3.org/1999/xlink" x="0px" y="0px"
	 width="600px" height="600px" viewBox="0 0 600 600" style="enable-background:new 0 0 600 600;" xml:space="preserve">
<g>
	<path d="M299.995,49.684c-138.062,0-249.996,111.933-249.996,249.999c0,138.069,111.935,250.001,249.996,250.001
		c138.084,0,250.004-111.932,250.004-250.001C549.999,161.616,438.079,49.684,299.995,49.684z M404.619,388.522
		c-8.521,20.179-21.188,37.035-36.631,48.743c-17.587,13.335-38.416,20.096-61.91,20.096c-31.891,0-57.286-9.334-75.482-27.743
		c-17.687-17.892-29.118-44.997-34.004-80.598h-40.816l5.947-34.603h32.064c-0.169-4.201-0.169-8.598-0.169-13.183
		c0-3.013,0.108-6.008,0.215-8.906c0.048-1.319,0.094-2.605,0.131-3.863h-29.538l5.948-34.603h26.71
		c11.53-71.768,52.324-111.225,115.174-111.225c27.352,0,49.412,8.755,65.57,26.021c13.814,14.763,23.058,35.435,27.47,61.445
		l0.55,3.244l-35.738,14.716l-0.934-4.978c-8.551-45.599-25.519-64.198-58.566-64.198c-40.165,0-63.698,24.539-71.839,74.974h91.22
		l-6.488,34.603h-87.693c-0.172,3.84-0.172,7.605-0.172,11.534c0,5.047,0,9.876,0.189,14.418h85.514l-6.487,34.603h-75.635
		c8.186,48.497,29.953,72.09,66.448,72.09c36.29,0,53.074-20.445,67.107-51.146l1.953-4.274l31.257,19.601L404.619,388.522z"/>
	<path style="fill:#FFFFFF;" d="M372.773,369.965c-14.033,30.7-30.817,51.146-67.107,51.146c-36.495,0-58.263-23.593-66.448-72.09
		h75.635l6.487-34.603h-85.514c-0.189-4.542-0.189-9.371-0.189-14.418c0-3.929,0-7.694,0.172-11.534h87.693l6.488-34.603h-91.22
		c8.141-50.435,31.674-74.974,71.839-74.974c33.048,0,50.016,18.6,58.566,64.198l0.934,4.978l35.738-14.716l-0.55-3.244
		c-4.412-26.011-13.655-46.683-27.47-61.445c-16.158-17.267-38.219-26.021-65.57-26.021c-62.85,0-103.644,39.457-115.174,111.225
		h-26.71l-5.948,34.603h29.538c-0.037,1.258-0.083,2.544-0.131,3.863c-0.106,2.898-0.215,5.894-0.215,8.906
		c0,4.585,0,8.981,0.169,13.183h-32.064l-5.947,34.603h40.816c4.886,35.601,16.317,62.706,34.004,80.598
		c18.196,18.409,43.592,27.743,75.482,27.743c23.494,0,44.323-6.761,61.91-20.096c15.443-11.708,28.109-28.564,36.631-48.743
		l1.364-3.231l-31.257-19.601L372.773,369.965z"/>
</g>
</svg>
