<?xml version="1.0" encoding="iso-8859-1"?>
<!-- Generator: Adobe Illustrator 15.1.0, SVG Export Plug-In . SVG Version: 6.00 Build 0)  -->
<!DOCTYPE svg PUBLIC "-//W3C//DTD SVG 1.1//EN" "http://www.w3.org/Graphics/SVG/1.1/DTD/svg11.dtd">
<svg focusable="false" version="1.1" id="Shape" xmlns="http://www.w3.org/2000/svg" xmlns:xlink="http://www.w3.org/1999/xlink" x="0px" y="0px"
	 width="600px" height="600px" viewBox="0 0 600 600" style="enable-background:new 0 0 600 600;" xml:space="preserve">
<path d="M300,50c34.388,0,66.791,6.622,97.223,19.842c30.42,13.231,56.869,31.088,79.365,53.571
	c22.482,22.494,40.34,48.945,53.57,79.365C543.379,233.21,550,265.612,550,300c0,34.399-6.621,66.803-19.842,97.222
	c-13.23,30.433-31.088,57.02-53.57,79.762c-22.496,22.756-48.945,40.613-79.365,53.572C366.791,543.527,334.388,550,300,550
	c-34.4,0-66.803-6.473-97.223-19.444c-30.432-12.959-57.018-30.816-79.762-53.572c-22.756-22.742-40.612-49.329-53.572-79.762
	C56.475,366.803,50,334.399,50,300c0-34.388,6.475-66.79,19.443-97.222c12.96-30.42,30.816-56.871,53.572-79.365
	c22.744-22.483,49.33-40.34,79.762-53.571C233.197,56.622,265.6,50,300,50z M319.048,324.604c0.94,0.476,9.099,3.109,7.54,0
	c-1.332-2.66-1.256-5.65-1.16-8.567c0.102-3.052,1.624-7.574,0.762-10.479c-0.686-2.313-2.23-1.393-2.559-4.673
	c-0.16-1.606,0.324-16.582-2.404-14.769c-2.514,1.672-10.115,4.488-10.115,8.329c-1.078,1.791-0.463,3.969-3.969,3.969
	c-1.039,0.206-3.02,0.281-3.968,0c-1.716,0-3.711-3.175-6.35-3.175c-1.376-1.362-2.634-4.477-3.571-6.349
	c-1.938-3.875-0.818-9.157-0.396-13.493c0-2.79,1.168-6.497,2.379-8.926c0.584-1.171,6.015-6.482,6.352-6.153
	c0,1.13,14.548,1.853,15.078,1.587c2.9,0,1.887-2.796,5.061-2.624c3.352,0.182,6.748,2.624,10.021,2.624
	c0,1.778,0.155,5.531,0.792,7.144c1,2.524,3.986,4.275,6.967,5.56c6.637,2.86,2.558-10.01,2.558-12.703
	c0-6.164,1.874-15.202,7.938-18.254c3.099,0,2.126-5.45,2.229-7.139c0.258-4.201,4.953-5.294,5.578-9.337
	c0.42-2.714-0.34-5.155,2.605-6.338c2.857-1.146,4.645-0.972,6.253-4.17c0.806-0.979-0.582-3.05,2.468-2.291
	c3.202,0.797,3.504,3.841,7.055,3.878c4.947,0.052,2.121-2.118,0.796-4.762c-0.427-0.852-0.796-1.787-0.796-3.852
	c0-1.8,0.119-3.043-1.585-4.085c3.63-1.798,4.417,4.155,5.905,5.647c1.254,1.256,4.752,0.702,6.381,0.702
	c2.963,0,6.012-3.261,7.554-5.556c4.509-2.228-3.79-2.316-3.626-3.271c0.602-3.491-3.066-1.299-5.107-3.344
	c-1.441-1.442-0.13-2.717-1.145-4.232c-2.75-4.112-10.756,4.28-10.756-1.059c0-5.107,10.673-5.821,14.545-6.259
	c3.721-0.42,6.969,0.636,10.105-1.874c3.75-3,8.245-8.582,4.714-13.295c-0.86-0.531-3.366,0-4.464,0
	c-3.873,0-3.775-2.433-5.857-5.554c-1.896-2.842-4.602-4.94-5.551-8.336c-0.76-2.627-2.66-7.623-4.417-9.698
	c-0.743-0.877-4.414-0.223-5.489-0.223c-1.682,0-1.451,0.736-1.999,2.382c-0.696,2.09-1.096,3.174-3.671,3.174
	c-4.525,0-2.805-2.13-4.18-5.906c-1.261-3.465-2.121-4.411-6.037-4.411c-0.52,0-3.622-2.806-5.16-3.175
	c-1.134-0.272-5.557,0.551-5.557-1.586c0-3.62-5.388-0.595-5.953,1.392c-0.406,1.427,0.322,8.131-1.982,8.131
	c-2.576,0-0.906,6.094,0.546,6.896c2.853,1.578,3.685,1.886,3.683,5.892c-0.004,4.82-2.545,6.252-5.086,9.438
	c-2.284,2.866-0.852,6.713-1.922,9.917c-0.934,2.795-5.664-0.713-6.479-2.071c-1.996-3.321-1.615-6.964-4.619-9.977
	c-2.047-2.053-3.453-0.296-6.092-0.535c-3.568-0.323-4.936-5.91-7.961-7.555c-2.572-1.398-6.184-0.895-9.02-0.895
	c-3.033,0-4.846-5.274-6.702-7.143c-1.128-0.698-6.808-0.329-3.968-3.175c2.338,2.367,4.762-6.03,4.762-7.539
	c0-4.731,6.037-5.244,8.531-7.736c1.43-1.429,1.438-3.088,3.461-4.301c1.082-0.65,2.992,0.362,3.878-0.529
	c1.08-1.087-1.234-3.704,1.591-3.704c0.843-0.94,2.285-1.259,3.175-2.381c1.598,3.276-2.708,10.318,3.64,10.318
	c2.178,0,4.354,0,6.531,0c1.236,0,2.91,0.298,4.115,0c1.527,0,4.742-3.176,2.38-3.176c-2.919,0-5.804-3.565-7.936-4.762
	c-2.979-1.672-4.21-0.367-0.62-3.438c1.424-1.217,4.588-1.385,4.588-3.704c1.24-1.242,1.615-3.234,2.381-4.762
	c0-3.363,6.349-2.004,6.349-4.366c0-1.641-13.163,0.064-7.142-5.951c4.139-4.142,13.389-0.554,17.855,2.381
	c1.558,1.047,6.217,2.309,6.213,4.675c-0.003,2.05-1.846,3.841-1.846,6.039c0,2.572-1.25,7.629-3.708,8.862
	c-1.808,0.906-3.421-1.341-4.626-0.133c-3.49,3.499,2.621,2.643,4.609,2.878c2.644,0.313,3.964,1.728,5.732,3.496
	c1.199,1.199,9.506,10.557,10.953,10.075c3.348-1.115,1.716-4.94,6.084-4.94c1.068,0,7.764-1.762,5.366-4.159
	c-2.458-2.457-4.438-5.185-7.745-6.158c0.268-0.269,1.761-3.175,1.984-3.175c1.877,0,5.224,6.681,8.332,7.143
	c0-2.966,2.793-5.179,4.365-6.746c3.309-3.301,3.546-5.952-2.381-5.952c-2.391,0-1.467-2.961-4.808-3.262
	c-2.168-0.196-5.05-0.42-7.097-1.1c-2.822-0.938,0.334-3.082,1.09-4.217c2.294-3.443,0.645-10.377-3.252-12.052
	c-5.223-2.246-10.648-1.734-15.699-4.767c-4.363-2.619-5.696-3.968-10.611-3.968c-0.758,0-10.108-2.289-9.822-2.575
	c-1.742,1.74-2.559,3.332-3.77,5.749c-0.955,1.864-0.631,3.746-3.57,3.175c0-1.153,0.354-2.882,0-3.968
	c0-1.035-0.269-2.381-1.587-2.381c-2.14,0-0.971-1.76-1.987-2.777c-3.416-3.42-5.156,6.041-5.156,7.142
	c0,2.239,2.372,7.54,4.762,7.54c2.552,0,2.08,2.382,4.763,2.382c1.101,1.114,2.122,2.896,1.322,4.496
	c-0.735,1.468-2.271,0.408-3.114,1.26c-0.029,0.03,0.768,2.581,0.998,2.973c-1.965,0.169-4.012,0.17-5.646-1.059
	c-1.57-1.18-2.73-2.793-4.671-3.438c-1.524-0.508-4.151,0.246-5.31-1.153c-1.666-2.011-4.215-5.954-4.215-8.635
	c0-3.703-6.262-1.969-2.91-6.436c1.436-1.914,6.48-1.153,7.673-3.088c1.907,0,0.021-2.62-0.265-2.905
	c-1.668-1.669-2.219-1.046-4.502-0.456c-2.123,0.549-8.332,1.03-8.332,4.255c0,2.412,0.4,5.018,0.4,7.514
	c0,2.78,0.391,5.738,1.852,8.173c0.465,0.774,5.963,7.229,0.528,7.229c-3.339,1.184-2.864-1.872-3.969-3.174
	c0-2.951-3.263-2.381-5.059-2.381c-1.597,0-2.079,3.174-0.496,3.174c2.913,0,0.7,2.381-1.587,2.381c-0.691,0-1.688-0.146-2.381,0
	c-2.777,0-1.896,1.343-3.617,2.031c-4.501,1.798-3.342-1.444-4.818-2.921c-2.316-2.316-6.531,0.89-9.025,0.89
	c-5.33,0-6.873,2.101-10.316,5.557c-1.576-1.575-4.195-5.535-6.351-5.557c-1.231-0.013-2.464,1.838-4.325,2.117
	c-1.979,0.297-3.994,0.28-5.992,0.265c1.5-1.502,7.135-7.789,9.922-5.16c1.146,1.216,4.586,3.686,5.648,3.476
	c4.061-0.801,3.885-5.459,8.239-5.459c1.397-0.218,2.993,0,4.409,0c2.521,0,5.094,2.388,7.098,2.388
	c2.156,0,2.779-4.849,2.779-6.354c0-4.573-4.962-8.059-7.047-11.8c-0.438-0.787-1.225-7.729-3.67-5.264
	c-1.006,1.014,0.148,2.777-1.98,2.777c-2.482,0-1.98,1.188-2.584,2.981c-1.109,3.301-3.47-1.531-4.402-2.152
	c-2.518-1.674-5.959-1.623-8.854-1.623c-3.979,0-7.959,0-11.939,0c0-1.626,0.793-2.496,0.793-3.969c0-1.926-2.38-1.182-2.38-2.381
	c-2.644-0.94-9.056,2.021-11.674,2.895c-1.542,0.515-8.87,2.469-9.558,3.854c-1.119,2.254,4.049,4.505,5.357,5.156
	c3.113,0,6.104,1.989,7.938-0.794c1.318-2.002-0.164-4.761,3.174-4.761c3.98,0,4.188,11.413,9.524,8.729
	c0.057,0,3.969-0.206,3.969,0.794c0.942,0.963,1.339,3.263-0.265,3.794c-1.254,0.415-2.66-0.077-3.705,0.972
	c-1.443,1.448-0.861,3.832-2.912,5.199c-3.313,2.209-4.047-2.028-6.611-2.028c-2.299,0-4.297-1.113-6.543-1.755
	c-2.123-0.607-6.268,0.091-7.742-1.42c0-0.7-6.951-2.381-7.937-2.381c-3.358,0-2.296,4.763-5.952,4.763
	c-1,0-2.242,0.793-3.572,0.793c-2.094,0-1.154-2.38-3.174-2.38c0,2.58-5.924,4.76-7.937,4.76c-3.11,0-4.613-2.38-7.936-2.38
	c-7.065,0.671-16.073,9.352-21.693,13.624c-15.574,11.837-29.865,25.618-41.8,41.138c4.619,0,3.092-5.519,7.144-5.556
	c3.019-0.027,5.505,7.716,9.168,4.061c1.634-1.63-1.894-3.592-2.819-4.061c-1.824-2.719,0.323-6.7,2.027-8.857
	c2.686-3.394,5.156-3.047,9.084-3.047c6.362,0,13.816-1.067,19.837,1.19c5.263,1.974,9.585,7.54,15.495,7.54
	c1.224,0,3.488-0.443,4.598,0.298c2.463,1.643,0.048,5.552,1.733,7.243c0.466,0.467,1.83-2.17,2.036-2.329
	c1.582-1.227,3.453,2.215,4.18,3.126c2.887,3.619,6.154,7.891,8.471,11.9c2.1,3.708,3.225,8.453,6.951,11.003
	c1.807,1.235,3.396,1.85,3.959,4.228c0.418,1.762-0.152,3.984,1.625,5.168c1.916,1.273,5.535,0.632,7.688,0.632
	c3.979,0,0.445,5.216-0.381,7.144c-3.127,9.306-0.48,24.025,2.602,33.086c0.948,2.785,2.77,3.88,5.004,5.556
	c4.37,3.278,7.859,10.944,10.832,15.526c5.057,7.795,11.15,16,14.546,24.703c2.46,6.308,2.73-3.836,2.73-5.502
	c0-3.169-0.795-7.722-0.795-11.465c1.673,4.208,6.341,5.729,8.334,9.524c1.755,3.588,5.12,11.072,7.937,13.889
	c0.658,0.658-0.33,1.804-0.396,2.778c-4.168,0,2.92,6.818,3.073,6.95c1.292,1.105,3.015,1.675,3.274,3.367
	c0.182,1.176-1.678,3.791-0.44,4.411c2.596,1.3,7.692,0.351,10.487,0.351c2.568,0,5.098,0.436,7.415,1.587
	c1.147,1.177,3.89,4.188,4.762,4.762c3.506,1.774,11.904,0.332,11.904,5.909c0,1.282-0.382,3.191,0,4.409
	C314.286,322.953,318.535,322.576,319.048,324.604C321.156,325.67,319.048,324.604,319.048,324.604z M452.381,387.302
	c0.926-1.112,7.984-6.763,7.893-7.494c-0.246-1.971-0.314-4.062-0.749-5.998c-0.663-4.589-2.618-4.768-6.526-3.703
	c-4.715,1.283-4.848,0.533-7.167-3.289c-1.704-2.808-4.333-4.912-7.736-4.912c-3.917-0.976-6.362-2.708-9.677-4.695
	c-1.588-0.952-8.533-2.912-9.618-1.282c-1.122,1.686-2.019,3.367-2.926,5.183c-3.399-3.356-1.038-10.62-1.942-14.9
	c-0.83-3.928-4.166-6.946-7.76-8.462c-3.684-1.554-11.002-2.125-13.316-5.602c-1.308-1.965-1.122-3.503-2.979-5.359
	c-2.02-2.019-4.118-3.713-6.808-4.737c-5.376-2.048-11.261-0.477-16.579-2.473c-4.876-1.829-6.203-5.286-12.126-4.099
	c-2.64,0.528-5.663,1.267-7.937,2.78c-1.646,1.098-2.423,2.978-4.363,4.056c-5.203,2.891-11.172-0.029-15.875,4.669
	c2.842,0.474,7.108,0.498,8.928,3.104c2.832,4.057,0.598,9.239,0.598,13.563c0,6.044-0.297,8.713-5.707,11.959
	c-4.815,2.889,0.59,6.087-1.34,9.623c-1.574,2.885-1.788,9.37,2.682,9.37c2.753,0,2.01,1.068,2.625,3.672
	c0.826,3.491,2.184,6.844,3.785,10.046c1.574,3.145,3.326,6.126,5.495,8.901c1.12,1.445,3.866,3.667,4.438,5.381
	c1.033,3.1,2.104,6.189,3.1,9.302c0.927,2.892,1.787,5.806,2.68,8.707c1.642,5.335-1.014,13.311-1.496,18.896
	c-0.547,6.287-0.518,12.97-2.429,19.047c-1.964,6.246-5.2,12.049-6.792,18.432c-1.692,6.78,1.689,12.933,1.689,19.442
	c0,3.481-2.382,4.616-2.382,7.98c0,4.677-2.38,8.577-2.38,13.052c2.988-0.845,3.174,2.418,3.174,4.762
	c5.062-0.554,10.047-1.792,14.93-3.21c2.105-0.611,3.706-1.312,5.793-1.727c4.517-0.897,3.756-2.207,3.307-6.237
	c-0.369-3.324-2.162-9.897,0.574-12.637c2.172-3.344,3.213-2.059,2.477-6.541c-0.709-4.314-0.266-4.468,3.461-6.703
	c2.47-1.481,5.297-3.087,7.977-4.427c2.543-1.271,6.414-2.451,7.672-5.216c0.894-1.965,0.225-4.236,1.398-6.093
	c1.248-1.975,3.367-2.348,5.328-3.239c4.101-1.861,10.547-7.616,13.053-11.626c2.654-4.245,3.332-9.446,4.959-14.087
	c2.072-5.91,5.291-8.746,10.555-11.818c3.391-1.979,9.5-2.803,12.07-5.738c1.48-1.688,0.916-4.482,1.594-6.518
	c0.73-2.191,2.437-4.007,3.065-6.186c0.476-1.65-0.11-3.764,1.985-4.466c2.18-0.729,3.752-1.106,4.723-3.529
	C449.741,397.323,448.174,391.51,452.381,387.302C455.021,384.127,451.315,388.368,452.381,387.302z"/>
</svg>
