<?xml version="1.0" encoding="iso-8859-1"?>
<!-- Generator: Adobe Illustrator 15.1.0, SVG Export Plug-In . SVG Version: 6.00 Build 0)  -->
<!DOCTYPE svg PUBLIC "-//W3C//DTD SVG 1.1//EN" "http://www.w3.org/Graphics/SVG/1.1/DTD/svg11.dtd">
<svg focusable="false" version="1.1" id="Shape" xmlns="http://www.w3.org/2000/svg" xmlns:xlink="http://www.w3.org/1999/xlink" x="0px" y="0px"
	 width="600px" height="600px" viewBox="0 0 600 600" style="enable-background:new 0 0 600 600;" xml:space="preserve">
<g>
	<g>
		<path d="M80.939,274.038c-7.185,0-12.492,5.312-12.492,12.504c0,7.184,5.308,12.236,12.492,12.236h51.664
			c-0.327-4.304-0.543-7.857-0.543-12.244c0-4.384,0.216-8.196,0.543-12.496H80.939z M173.281,173.118
			c5.653-6.592,11.806-12.743,18.397-18.406l-36.53-36.546c-5.078-5.081-13.317-5.081-18.394,0c-5.084,5.083-5.084,13.323,0,18.405
			L173.281,173.118z M432.321,172.679l36.098-36.104c5.08-5.086,5.08-13.326,0-18.405c-5.083-5.081-13.323-5.081-18.404,0
			l-36.147,36.16C420.477,159.972,426.645,166.104,432.321,172.679z M313.295,114.015v-51.68c0-7.193-5.18-12.632-12.367-12.632
			c-7.186,0-12.369,5.438-12.369,12.632v51.68c4.306-0.328,7.989-0.543,12.369-0.543
			C305.311,113.472,308.992,113.687,313.295,114.015z M173.281,399.955l-36.526,36.542c-5.084,5.08-5.084,13.32,0,18.404
			c2.539,2.543,5.866,3.813,9.196,3.813c3.326,0,6.661-1.271,9.201-3.813l36.526-36.543
			C185.087,412.697,178.935,406.545,173.281,399.955z M302.822,146.341c-76.1,0-138.012,62.15-138.012,138.54
			c0,37.889,13.896,71.108,36.28,99.04c6.063,7.566,12.734,17.464,14.151,20.971l0.367,1.255
			c9.762,33.917,15.074,41.913,22.708,51.158c3.319,4.021,6.89,7.359,10.562,10.257c-1.025,1.725-1.481,3.518-1.128,5.363
			c0.603,3.167,3.321,6.088,7.514,8.626c-3.268,2.491-4.866,5.257-4.313,8.129c0.535,2.812,3.07,5.41,6.998,7.665
			c-3.109,2.221-4.638,4.679-4.152,7.248c0.483,2.511,2.855,4.834,6.553,6.854c-2.966,1.988-4.44,4.195-4,6.499
			c0.644,3.383,4.303,6.168,9.344,8.403l20.553,11.798c0.162,6.73,7.453,12.149,16.463,12.149c8.958,0,16.208-5.363,16.441-12.042
			l20.596-10.57c0.771-0.362,1.521-0.742,2.223-1.145l1.29-0.665h-0.234c3.2-2.061,5.458-4.649,6.084-7.929
			c0.439-2.304-1.038-4.511-4-6.499c3.696-2.021,6.072-4.344,6.55-6.854c0.494-2.569-1.042-5.027-4.151-7.248
			c3.93-2.255,6.462-4.853,6.997-7.665c0.555-2.872-1.045-5.638-4.312-8.129c4.192-2.538,6.909-5.459,7.515-8.626
			c0.381-2.009-0.199-3.953-1.434-5.818c3.328-2.74,6.576-5.872,9.663-9.57c7.983-9.555,11.925-16.034,17.695-38.332
			c1.266-4.896,2.47-9.535,3.657-13.715c1.484-2.821,5.977-8.559,13.36-17.069c1.375-1.586,2.505-2.909,3.285-3.85
			c22.757-27.637,36.9-61.106,36.9-99.689C440.835,208.491,378.922,146.341,302.822,146.341z M382.059,366.142
			c-3.878,4.709-18.621,20.537-21.115,29.176c-5.146,17.854-10.125,36.41-16.146,43.619c-10.503,12.57-23.884,16.4-41.838,16.4
			c-18.037,0-32.607-3.826-43.105-16.521c-5.377-6.511-12.613-25.637-17.771-43.528c-2.534-8.781-15.165-25.226-18.6-29.518
			c-18.021-22.492-29.892-49.751-29.892-80.918c0-60.693,48.961-109.887,109.367-109.887c60.415,0,109.381,49.193,109.381,109.887
			C412.34,316.216,400.493,343.752,382.059,366.142z M525.039,274.03l-51.658,0.004c0.326,4.3,0.546,8.112,0.546,12.5
			c0,4.383-0.22,7.94-0.546,12.24h51.658c7.186,0,12.492-5.057,12.492-12.24C537.531,279.347,532.225,274.03,525.039,274.03z
			 M432.696,399.955c-5.648,6.59-11.804,12.742-18.392,18.403l36.531,36.543c2.534,2.543,5.863,3.813,9.196,3.813
			c3.324,0,6.661-1.271,9.195-3.813c5.081-5.084,5.081-13.324,0-18.404L432.696,399.955z"/>
	</g>
</g>
</svg>
