<?xml version="1.0" encoding="iso-8859-1"?>
<!-- Generator: Adobe Illustrator 15.1.0, SVG Export Plug-In . SVG Version: 6.00 Build 0)  -->
<!DOCTYPE svg PUBLIC "-//W3C//DTD SVG 1.1//EN" "http://www.w3.org/Graphics/SVG/1.1/DTD/svg11.dtd">
<svg focusable="false" version="1.1" id="Shape" xmlns="http://www.w3.org/2000/svg" xmlns:xlink="http://www.w3.org/1999/xlink" x="0px" y="0px"
	 width="383.016px" height="600px" viewBox="0 0 383.016 600" style="enable-background:new 0 0 383.016 600;" xml:space="preserve"
	>
<path style="fill-rule:evenodd;clip-rule:evenodd;" d="M315.673,351.08c-3.228,1.267-6.563,1.862-9.839,1.862
	c-10.886,0-21.161-6.586-25.337-17.351l-25.291-65.056v78.706l34.447,163.413c3.481,16.522-7.087,32.741-23.61,36.224
	c-2.13,0.45-4.249,0.669-6.344,0.669c-14.147,0-26.847-9.875-29.88-24.277l-30.938-146.745h-0.207c-0.257-3.58-3.227-6.43-6.88-6.43
	c-0.098,0-0.183,0.025-0.28,0.036c-0.098-0.011-0.195-0.036-0.293-0.036c-3.652,0-6.611,2.85-6.865,6.43h-0.207l-30.94,146.745
	c-3.044,14.402-15.743,24.277-29.892,24.277c-2.094,0-4.213-0.219-6.344-0.669c-16.523-3.482-27.092-19.701-23.609-36.224
	l34.457-163.413v-78.706l-25.301,65.056c-4.176,10.765-14.452,17.351-25.338,17.351c-3.275,0-6.6-0.596-9.839-1.862
	c-13.989-5.431-20.93-21.187-15.487-35.176l49.496-127.301c3.238-8.354,10.166-14.161,18.189-16.352l0.013-0.014
	c0,0,0.109-0.022,0.194-0.036c1.254-0.341,2.533-0.596,3.836-0.741c8.316-1.67,27.408-5.772,35.798-10.107
	c9.144-4.7,6.173-12.443,3.007-18.909c-13.102-9.083-21.685-24.205-21.685-41.361c0-27.786,22.526-51.104,50.323-51.104
	c0.157,0,0.316,0.024,0.486,0.024c0.158,0,0.316-0.024,0.487-0.024c27.786,0,50.323,23.317,50.323,51.104
	c0,17.156-8.596,32.278-21.697,41.361c-3.166,6.466-6.137,14.209,3.007,18.909c8.402,4.335,27.494,8.438,35.81,10.107
	c1.291,0.146,2.569,0.4,3.836,0.741c0.073,0.014,0.195,0.036,0.195,0.036v0.014c8.023,2.19,14.951,7.998,18.191,16.352
	l49.494,127.301C336.603,329.894,329.663,345.649,315.673,351.08z"/>
</svg>
