<?xml version="1.0" encoding="iso-8859-1"?>
<!-- Generator: Adobe Illustrator 15.1.0, SVG Export Plug-In . SVG Version: 6.00 Build 0)  -->
<!DOCTYPE svg PUBLIC "-//W3C//DTD SVG 1.1//EN" "http://www.w3.org/Graphics/SVG/1.1/DTD/svg11.dtd">
<svg focusable="false" version="1.1" id="Shape" xmlns="http://www.w3.org/2000/svg" xmlns:xlink="http://www.w3.org/1999/xlink" x="0px" y="0px"
	 width="600px" height="600px" viewBox="0 0 600 600" style="enable-background:new 0 0 600 600;" xml:space="preserve">
<path d="M465.704,271.664c-0.81,0-46.482,0.004-89.472,0.009c-11.213-0.811-19.653-10.234-19.653-10.234L206.169,91.878
	c0,0-4.75-5.377-12.723-5.377c-7.969,0-45.986,0-45.986,0s-8.586-1.836-4.289,7.344c4.289,9.183,80.323,147.375,80.323,147.375
	s10.422,15.91,6.129,22.647c-3.704,5.804-8.355,9.775-20.558,11.548c-21.78,1.379-42.04,2.896-58.851,4.097
	c-3.648,0.259-7.028,0.541-10.367,0.828l-0.042-0.062c0,0-7.062-0.177-11.146-4.462c-4.092-4.281-30.334-28.507-30.951-29.168
	c-1.259-1.343-4.36-3.223-9.043-3.223c-4.073,0-24.595-0.039-24.595-0.039s-6.054,0.507-3.271,5.304
	c4.498,7.756,20.487,36.081,20.487,36.081s3.354,5.541-2.985,7.172c0,0.004,0.005,0.008,0.005,0.008
	c-8.41,3.283-10.305,6.231-10.305,7.71c0,1.603,2.116,4.958,12.329,8.574c3.444,2.179,0.956,6.325,0.956,6.325
	S65.298,343.139,60.8,350.89c-2.784,4.805,3.271,5.301,3.271,5.301s20.522-0.044,24.595-0.044c4.683,0,7.784-1.871,9.043-3.22
	c0.617-0.656,26.859-24.878,30.951-29.167c4.085-4.282,11.146-4.458,11.146-4.458l0.028-0.04c2.813,0.237,5.578,0.476,8.613,0.696
	c15.261,1.096,33.905,2.501,54.207,3.821c0,0.017-0.008,0.032-0.008,0.048c17.165,1.218,22.685,5.507,26.978,12.236
	c4.292,6.735-6.129,22.651-6.129,22.651s-76.034,137.935-80.323,147.119c-4.297,9.18,4.289,7.343,4.289,7.343s38.017,0,45.986,0
	c7.973,0,12.723-5.378,12.723-5.378l150.409-169.31c0,0,9.172-10.382,21.128-10.382c0.75,0,1.359-0.071,1.844-0.201
	c41.999,0.006,85.277,0.009,86.154,0.009c27.861,0,77.697-6.715,77.697-28.252C543.4,278.131,493.346,271.664,465.704,271.664z"/>
</svg>
