<?xml version="1.0" encoding="iso-8859-1"?>
<!-- Generator: Adobe Illustrator 15.1.0, SVG Export Plug-In . SVG Version: 6.00 Build 0)  -->
<!DOCTYPE svg PUBLIC "-//W3C//DTD SVG 1.1//EN" "http://www.w3.org/Graphics/SVG/1.1/DTD/svg11.dtd">
<svg focusable="false" version="1.1" id="Shape" xmlns="http://www.w3.org/2000/svg" xmlns:xlink="http://www.w3.org/1999/xlink" x="0px" y="0px"
	 width="600px" height="600px" viewBox="0 0 600 600" style="enable-background:new 0 0 600 600;" xml:space="preserve">
<g>
	<path d="M299.996,49.684C161.934,49.684,50,161.616,50,299.683c0,138.069,111.934,250.001,249.996,250.001
		C438.079,549.684,550,437.752,550,299.683C550,161.616,438.079,49.684,299.996,49.684z M412.953,367.628
		c-2.983,25.583-11.379,43.779-25.662,55.628c-13.637,11.31-32.722,16.809-58.345,16.809H194.653v-36.663H219
		c20.707-19.266,32.089-41.889,32.089-63.851c0-10.882-3.083-24.343-7.952-35.015h-44.364v-35.839h28.832
		c-7.017-12.646-15.649-29.567-15.649-52.316c0-24.516,9.828-46.594,27.672-62.166c17.684-15.431,42.674-23.93,70.369-23.93
		c26.438,0,47.944,6.582,63.926,19.563c16.123,13.096,25.927,32.112,29.138,56.52l0.435,3.299l-36.53,13.045l-0.875-4.762
		c-6.858-37.295-22.816-51.826-56.916-51.826c-34.558,0-54.376,16.816-54.376,46.138c0,21.01,8.68,37.874,15.654,51.425
		c0.887,1.727,1.742,3.388,2.557,5.011h96.72v35.839h-82.898c3.716,10.433,5.866,22.784,5.866,34.19
		c0,22.672-9.199,45.787-25.5,64.675h64.221c14.82,0,24.944-3.418,31.865-10.756c6.652-7.056,10.809-18.211,13.073-35.105
		l0.654-4.869l36.338,11.586L412.953,367.628z"/>
	<path style="fill:#FFFFFF;" d="M376.354,357.54c-2.265,16.895-6.421,28.05-13.073,35.105c-6.921,7.338-17.045,10.756-31.865,10.756
		h-64.221c16.301-18.888,25.5-42.003,25.5-64.675c0-11.406-2.15-23.758-5.866-34.19h82.898v-35.839h-96.72
		c-0.814-1.623-1.67-3.284-2.557-5.011c-6.975-13.551-15.654-30.415-15.654-51.425c0-29.321,19.818-46.138,54.376-46.138
		c34.1,0,50.058,14.531,56.916,51.826l0.875,4.762l36.53-13.045l-0.435-3.299c-3.211-24.407-13.015-43.424-29.138-56.52
		c-15.981-12.981-37.488-19.563-63.926-19.563c-27.695,0-52.686,8.499-70.369,23.93c-17.844,15.572-27.672,37.65-27.672,62.166
		c0,22.749,8.633,39.67,15.649,52.316h-28.832v35.839h44.364c4.869,10.672,7.952,24.133,7.952,35.015
		c0,21.962-11.382,44.585-32.089,63.851h-24.347v36.663h134.293c25.623,0,44.708-5.499,58.345-16.809
		c14.283-11.849,22.679-30.045,25.662-55.628l0.394-3.371l-36.338-11.586L376.354,357.54z"/>
</g>
</svg>
