<?xml version="1.0" encoding="iso-8859-1"?>
<!-- Generator: Adobe Illustrator 15.1.0, SVG Export Plug-In . SVG Version: 6.00 Build 0)  -->
<!DOCTYPE svg PUBLIC "-//W3C//DTD SVG 1.1//EN" "http://www.w3.org/Graphics/SVG/1.1/DTD/svg11.dtd">
<svg focusable="false" version="1.1" id="Shape" xmlns="http://www.w3.org/2000/svg" xmlns:xlink="http://www.w3.org/1999/xlink" x="0px" y="0px"
	 width="600px" height="600px" viewBox="0 0 600 600" style="enable-background:new 0 0 600 600;" xml:space="preserve">
<path d="M511.523,244.581c-4.977-15.69-21.709-24.374-37.412-19.409c0,0-25.93,8.205-41.289,13.074
	c-7.105,2.555-12.145,2.409-16.156-4.796c-8.879-14.406-26.246-42.548-26.246-42.548c-3.719-12.217-9.771-27.322,4.268-31.945
	c-0.086-0.27-0.207-0.526-0.293-0.795c22.285-2.324,41.814-18.126,47.723-41.095c7.582-29.511-10.188-59.585-39.699-67.18
	c-29.514-7.582-59.586,10.2-67.182,39.71c-4.258,16.586-0.514,33.353,8.832,46.194c2.471,14.396-6.656,8.451-15.789,6.361
	l-72.834-26.894c-13.906-5.139-29.473,0.733-36.529,13.757l-40.619,75.009c-7.838,14.469-2.471,32.557,12.012,40.396
	c4.512,2.445,9.369,3.607,14.162,3.607c10.58,0,20.828-5.661,26.223-15.616c0,0,15.729-29.036,23.748-43.835
	c2.582-5.211,8.111-8.145,12.686-5.467c8.598,3.17,20.949,7.729,20.949,7.729c-7.779,21.551-27.578,62.413-41.189,89.746
	c-1.555,1.848-2.936,3.866-4.102,6.092l-41.812,80.205l-70.691-21.305c-17.732-5.345-36.422,4.697-41.766,22.418
	c-5.346,17.734,4.695,36.435,22.416,41.779l97.258,29.315c3.203,0.966,6.469,1.432,9.672,1.432c12.232,0,23.84-6.729,29.734-18.026
	l34.477-66.131l47.27,61.434l-19.887,90.613c-3.975,18.09,7.475,35.97,25.549,39.932c2.422,0.539,4.844,0.796,7.229,0.796
	c15.398,0,29.266-10.69,32.703-26.345l23.248-105.877c2.117-9.674-0.145-19.789-6.174-27.642c0,0-32.803-42.623-47.109-61.212
	c0-4.477-6.74-11.115,1.479-19.336c7.264-9.857,16.461-22.564,25.086-35.039l11.787,19.116c5.527,8.977,15.238,14.162,25.365,14.162
	c2.998,0,6.018-0.453,8.99-1.394l74.494-23.592C507.793,277.014,516.488,260.272,511.523,244.581z"/>
</svg>
