<?xml version="1.0" encoding="iso-8859-1"?>
<!-- Generator: Adobe Illustrator 15.1.0, SVG Export Plug-In . SVG Version: 6.00 Build 0)  -->
<!DOCTYPE svg PUBLIC "-//W3C//DTD SVG 1.1//EN" "http://www.w3.org/Graphics/SVG/1.1/DTD/svg11.dtd">
<svg focusable="false" version="1.1" id="Shape" xmlns="http://www.w3.org/2000/svg" xmlns:xlink="http://www.w3.org/1999/xlink" x="0px" y="0px"
	 width="600px" height="600px" viewBox="0 0 600 600" style="enable-background:new 0 0 600 600;" xml:space="preserve">
<path d="M501.19,100.479c12.012,0,22.665,4.379,31.961,13.112c8.733,9.296,13.112,19.949,13.112,31.961
	c0,12.023-4.379,22.677-13.112,31.96L248.32,460.704c-8.745,8.746-19.259,13.112-31.551,13.112
	c-12.293,0-22.818-4.366-31.551-13.112L63.112,339.417C54.366,330.134,50,319.48,50,307.456c0-12.011,4.366-22.664,13.112-31.96
	c9.283-8.733,19.937-13.112,31.961-13.112c12.011,0,22.664,4.379,31.96,13.112l90.146,90.146L469.23,113.591
	C478.514,104.857,489.167,100.479,501.19,100.479z"/>
</svg>
