<?xml version="1.0" encoding="iso-8859-1"?>
<!-- Generator: Adobe Illustrator 15.1.0, SVG Export Plug-In . SVG Version: 6.00 Build 0)  -->
<!DOCTYPE svg PUBLIC "-//W3C//DTD SVG 1.1//EN" "http://www.w3.org/Graphics/SVG/1.1/DTD/svg11.dtd">
<svg focusable="false" version="1.1" id="Shape" xmlns="http://www.w3.org/2000/svg" xmlns:xlink="http://www.w3.org/1999/xlink" x="0px" y="0px"
	 width="470px" height="600px" viewBox="0 0 470 600" style="enable-background:new 0 0 470 600;" xml:space="preserve">
<g>
	<g>
		<path style="fill-rule:evenodd;clip-rule:evenodd;" d="M417.976,543.052c-19.648-17.467-63.757-60.938-84.836-81.836
			c40.45-5.678,71.606-40.332,71.606-82.346V133.258C404.747,87.276,367.47,50,321.49,50H146.647
			c-45.983,0-83.261,37.276-83.261,83.258V378.87c0,42.014,31.158,76.668,71.608,82.346c-21.079,20.897-65.186,64.369-84.835,81.836
			c-3.046,3.046-2.613,6.627,3.691,6.627c14.766,0,36.694-0.131,47.002-0.131c5.435,0,9.441-1.669,13.182-6.118
			c11.741-14.825,42.401-59.368,57.397-81.302h125.271c14.996,21.934,45.658,66.477,57.397,81.302
			c3.741,4.449,7.749,6.118,13.181,6.118c10.312,0,32.238,0.131,47.003,0.131C420.589,549.679,421.019,546.098,417.976,543.052z
			 M138.32,412.174c-13.793,0-24.977-11.186-24.977-24.978c0-13.795,11.184-24.978,24.977-24.978
			c13.794,0,24.977,11.183,24.977,24.978C163.296,400.988,152.114,412.174,138.32,412.174z M113.343,312.263
			c-13.794,0-24.979-11.182-24.979-24.977V137.423c0-13.795,11.185-24.979,24.979-24.979h241.447
			c13.795,0,24.979,11.184,24.979,24.979v149.863c0,13.795-11.184,24.977-24.979,24.977H113.343z M304.837,387.196
			c0-13.795,11.185-24.978,24.976-24.978c13.796,0,24.978,11.183,24.978,24.978c0,13.792-11.182,24.978-24.978,24.978
			C316.022,412.174,304.837,400.988,304.837,387.196z"/>
	</g>
</g>
</svg>
