<?xml version="1.0" encoding="iso-8859-1"?>
<!-- Generator: Adobe Illustrator 15.1.0, SVG Export Plug-In . SVG Version: 6.00 Build 0)  -->
<!DOCTYPE svg PUBLIC "-//W3C//DTD SVG 1.1//EN" "http://www.w3.org/Graphics/SVG/1.1/DTD/svg11.dtd">
<svg focusable="false" version="1.1" id="Shape" xmlns="http://www.w3.org/2000/svg" xmlns:xlink="http://www.w3.org/1999/xlink" x="0px" y="0px"
	 width="600px" height="600px" viewBox="0 0 600 600" style="enable-background:new 0 0 600 600;" xml:space="preserve">
<path d="M473.773,422.926l-97.379-122.925l60.245-0.009c1.485,0,2.833-0.854,3.474-2.197c0.642-1.344,0.459-2.939-0.467-4.104
	l-77.384-98.019h46.592c1.485,0,2.833-0.857,3.473-2.201c0.642-1.343,0.459-2.938-0.466-4.098L302.646,51.383
	c-1.461-1.844-4.552-1.844-6.01,0L187.422,189.377c-0.924,1.165-1.11,2.757-0.47,4.1c0.642,1.347,1.992,2.201,3.473,2.201h47.558
	l-77.384,98.023c-0.926,1.163-1.108,2.758-0.467,4.102c0.641,1.344,1.988,2.198,3.473,2.198h60.246L126.472,422.93
	c-0.926,1.162-1.113,2.754-0.472,4.098c0.642,1.347,1.993,2.202,3.475,2.202h133.363v116.896c0,2.141,1.725,3.875,3.851,3.875
	h66.868c2.126,0,3.851-1.734,3.851-3.875v-116.9h133.363c1.481,0,2.833-0.858,3.475-2.202
	C474.885,425.68,474.699,424.085,473.773,422.926z"/>
</svg>
