<?xml version="1.0" encoding="iso-8859-1"?>
<!-- Generator: Adobe Illustrator 15.1.0, SVG Export Plug-In . SVG Version: 6.00 Build 0)  -->
<!DOCTYPE svg PUBLIC "-//W3C//DTD SVG 1.1//EN" "http://www.w3.org/Graphics/SVG/1.1/DTD/svg11.dtd">
<svg focusable="false" version="1.1" id="Shape" xmlns="http://www.w3.org/2000/svg" xmlns:xlink="http://www.w3.org/1999/xlink" x="0px" y="0px"
	 width="383.016px" height="600px" viewBox="0 0 383.016 600" style="enable-background:new 0 0 383.016 600;" xml:space="preserve"
	>
<path style="fill-rule:evenodd;clip-rule:evenodd;" d="M317.607,341.16c-2.416,1.052-4.955,1.552-7.443,1.552
	c-7.199,0-14.068-4.198-17.132-11.227l-38.716-88.952l31.479,149.218c0,3.403-3.172,7.382-7.101,7.382h-31.14l-0.072,126.668
	c-0.013,13.13-11.434,23.757-24.55,23.757c-0.015,0-0.015,0-0.025,0c-13.129-0.013-25.318-10.652-25.318-23.782l0.072-126.643H191.5
	h-6.149l0.073,126.643c0,13.13-11.801,23.77-24.929,23.782c-0.011,0-0.011,0-0.023,0c-13.117,0-24.93-10.627-24.94-23.757
	l-0.073-126.668h-30.75c-3.93,0-7.101-3.979-7.101-7.382l31.078-149.218l-38.704,88.952c-3.063,7.028-9.932,11.227-17.134,11.227
	c-2.488,0-5.025-0.5-7.44-1.552c-9.469-4.123-13.8-15.116-9.677-24.586l58.776-135.062c2.282-5.235,6.675-8.896,11.75-10.422
	c6.431-3.354,26.491-13.837,35.971-18.717c10.311-5.321,5.895-14.301,2.367-21.33c-10.896-8.224-16.803-21.255-16.803-35.959
	c0-24.83,18.914-44.964,43.708-45.085c24.807,0.121,43.72,20.255,43.72,45.085c0,14.704-5.906,27.735-16.802,35.959
	c-3.526,7.029-7.943,16.009,2.367,21.33c9.468,4.88,29.54,15.362,35.971,18.717c5.077,1.526,9.471,5.187,11.751,10.422
	l58.777,135.062C331.408,326.044,327.077,337.037,317.607,341.16z"/>
</svg>
