<?xml version="1.0" encoding="iso-8859-1"?>
<!-- Generator: Adobe Illustrator 15.1.0, SVG Export Plug-In . SVG Version: 6.00 Build 0)  -->
<!DOCTYPE svg PUBLIC "-//W3C//DTD SVG 1.1//EN" "http://www.w3.org/Graphics/SVG/1.1/DTD/svg11.dtd">
<svg focusable="false" version="1.1" id="Shape" xmlns="http://www.w3.org/2000/svg" xmlns:xlink="http://www.w3.org/1999/xlink" x="0px" y="0px"
	 width="600px" height="600px" viewBox="0 0 600 600" style="enable-background:new 0 0 600 600;" xml:space="preserve">
<g>
	<path d="M299.996,49.684C161.934,49.684,50,161.616,50,299.683c0,138.069,111.934,250.001,249.996,250.001
		C438.078,549.684,550,437.752,550,299.683C550,161.616,438.078,49.684,299.996,49.684z M376.148,270.628v34.603h-56.436v26.776
		h56.436v34.603h-56.436v84.448h-42.02v-84.448h-56.847v-34.603h56.847V305.23h-56.847v-34.603h38.227L188.22,146.222h48.267
		l63.52,117.513l65.903-117.513h45.872l-73.326,124.406H376.148z"/>
	<polygon style="fill:#FFFFFF;" points="365.909,146.222 300.006,263.734 236.486,146.222 188.22,146.222 259.073,270.628 
		220.847,270.628 220.847,305.23 277.693,305.23 277.693,332.007 220.847,332.007 220.847,366.609 277.693,366.609 277.693,451.058 
		319.713,451.058 319.713,366.609 376.148,366.609 376.148,332.007 319.713,332.007 319.713,305.23 376.148,305.23 376.148,270.628 
		338.455,270.628 411.781,146.222 	"/>
</g>
</svg>
