<?xml version="1.0" encoding="UTF-8"?>
<svg width="408px" height="264px" viewBox="0 0 408 264" version="1.1" xmlns="http://www.w3.org/2000/svg" xmlns:xlink="http://www.w3.org/1999/xlink">
    <!-- Generator: Sketch 52.5 (67469) - http://www.bohemiancoding.com/sketch -->
    <title>Default_thumbnail_app</title>
    <desc>Created with Sketch.</desc>
    <defs>
        <rect id="path-1" x="0.410344828" y="0.0702439024" width="408" height="264"></rect>
    </defs>
    <g id="Default_thumbnail_app" stroke="none" stroke-width="1" fill="none" fill-rule="evenodd">
        <rect id="Rectangle-12" fill="#006580" transform="translate(204.000000, 132.000000) scale(-1, 1) translate(-204.000000, -132.000000) " x="0" y="0" width="408" height="264"></rect>
        <g id="Group-2">
            <mask id="mask-2" fill="white">
                <use xlink:href="#path-1"></use>
            </mask>
            <g id="Mask"></g>
            <g id="Group" opacity="0.3" mask="url(#mask-2)" fill="#FFFFFF">
                <g transform="translate(-46.000000, -136.000000)">
                    <path d="M127.719162,210.147011 L128.833486,210.147011 C128.833486,209.391528 128.798297,208.63019 128.745514,207.892277 L127.637054,207.974267 C127.689838,208.688754 127.719162,209.420811 127.719162,210.147011 Z M127.39073,205.807381 L128.493324,205.6434 C128.381892,204.899631 128.23527,204.155862 128.071054,203.423805 L126.986054,203.669776 C127.15027,204.37255 127.285162,205.092894 127.39073,205.807381 Z M126.417162,201.573167 L127.478703,201.239349 C127.255838,200.519006 127.003649,199.804519 126.722135,199.107602 L125.689919,199.517553 C125.959703,200.185188 126.200162,200.87625 126.417162,201.573167 Z M124.810189,197.52636 L125.807216,197.034418 C125.478784,196.366783 125.121027,195.699147 124.739811,195.043225 L123.777973,195.62887 C124.147459,196.25551 124.493486,196.905576 124.810189,197.549786 L124.810189,197.52636 Z M122.605,193.789945 L123.519919,193.157448 C123.091784,192.571803 122.634324,191.93345 122.15927,191.353661 L121.297135,192.050579 C121.754595,192.636224 122.194459,193.221869 122.605,193.807514 L122.605,193.789945 Z M119.860243,190.428342 L120.669595,189.667003 C120.153486,189.116497 119.613919,188.58356 119.056757,188.079905 L118.306054,188.899808 C118.839757,189.385894 119.36173,189.901261 119.860243,190.428342 Z M116.640432,187.500117 L117.326622,186.627506 C116.740135,186.164846 116.118459,185.719756 115.496784,185.303948 L114.910297,186.223411 C115.496784,186.627506 116.08327,187.055027 116.669757,187.500117 L116.640432,187.500117 Z M113.057,185.034551 L113.602432,184.068237 C112.951432,183.705137 112.276973,183.35375 111.590784,183.037502 L111.121595,184.038955 C111.778459,184.349346 112.429459,184.683164 113.057,185.034551 Z M109.115811,183.195626 L109.479432,182.159034 C108.775649,181.895494 108.05427,181.655379 107.332892,181.438691 L107.022054,182.504565 C107.714108,182.70954 108.412027,182.943798 109.086486,183.201482 L109.115811,183.195626 Z M104.904838,181.971628 L105.139432,180.888184 C104.400459,180.73006 103.649757,180.601218 102.904919,180.501659 L102.758297,181.573389 C103.473811,181.667092 104.195189,181.795934 104.904838,181.942345 L104.904838,181.971628 Z M100.588297,181.3567 L100.652811,180.249831 C100.066324,180.214692 99.4329189,180.208836 98.8933514,180.197123 L98.3948378,180.197123 L98.3948378,181.309849 L98.864027,181.309849 C99.4505135,181.309849 100.037,181.309849 100.582432,181.3567 L100.588297,181.3567 Z M0.586486486,181.339131 L2.79754054,181.339131 L2.79754054,180.226405 L0.574756757,180.226405 L0.586486486,181.339131 Z M5.03205405,181.339131 L7.25483784,181.339131 L7.25483784,180.226405 L5.03205405,180.226405 L5.03205405,181.339131 Z M9.47762162,181.339131 L11.7004054,181.339131 L11.7004054,180.226405 L9.47762162,180.226405 L9.47762162,181.339131 Z M13.9231892,181.339131 L16.145973,181.339131 L16.145973,180.226405 L13.9407838,180.226405 L13.9231892,181.339131 Z M18.3687568,181.339131 L20.5915405,181.339131 L20.5915405,180.226405 L18.3687568,180.226405 L18.3687568,181.339131 Z M22.8143243,181.339131 L25.0371081,181.339131 L25.0371081,180.226405 L22.8143243,180.226405 L22.8143243,181.339131 Z M27.2598919,181.339131 L29.4826757,181.339131 L29.4826757,180.226405 L27.2598919,180.226405 L27.2598919,181.339131 Z M31.7054595,181.339131 L33.9282432,181.339131 L33.9282432,180.226405 L31.7054595,180.226405 L31.7054595,181.339131 Z M36.151027,181.339131 L38.3738108,181.339131 L38.3738108,180.226405 L36.151027,180.226405 L36.151027,181.339131 Z M40.6024595,181.339131 L42.8252432,181.339131 L42.8252432,180.226405 L40.6024595,180.226405 L40.6024595,181.339131 Z M45.048027,181.339131 L47.2708108,181.339131 L47.2708108,180.226405 L45.0245676,180.226405 L45.048027,181.339131 Z M49.4935946,181.339131 L51.7163784,181.339131 L51.7163784,180.226405 L49.4935946,180.226405 L49.4935946,181.339131 Z M53.9391622,181.339131 L56.1678108,181.339131 L56.1678108,180.226405 L53.9391622,180.226405 L53.9391622,181.339131 Z M58.3847297,181.339131 L60.6075135,181.339131 L60.6075135,180.226405 L58.3847297,180.226405 L58.3847297,181.339131 Z M62.8302973,181.339131 L65.0530811,181.339131 L65.0530811,180.226405 L62.8302973,180.226405 L62.8302973,181.339131 Z M67.2758649,181.339131 L69.4986486,181.339131 L69.4986486,180.226405 L67.2758649,180.226405 L67.2758649,181.339131 Z M71.7214324,181.339131 L73.9442162,181.339131 L73.9442162,180.226405 L71.7214324,180.226405 L71.7214324,181.339131 Z M76.167,181.339131 L78.3897838,181.339131 L78.3897838,180.226405 L76.167,180.226405 L76.167,181.339131 Z M80.6184324,181.339131 L82.8353514,181.339131 L82.8353514,180.226405 L80.6184324,180.226405 L80.6184324,181.339131 Z M85.064,181.339131 L87.2867838,181.339131 L87.2867838,180.226405 L85.064,180.226405 L85.064,181.339131 Z M89.5095676,181.339131 L91.7323514,181.339131 L91.7323514,180.226405 L89.5095676,180.226405 L89.5095676,181.339131 Z M93.9551351,181.339131 L96.1779189,181.339131 L96.1779189,180.226405 L93.9551351,180.226405 L93.9551351,181.339131 Z" id="Shape" fill-rule="nonzero"></path>
                    <path d="M98.8698919,349.542244 C115.412576,349.522874 128.817327,336.134736 128.833486,319.615782 L128.833486,210.147011 L127.719162,210.147011 L127.719162,319.615782 C127.719162,335.529169 114.800278,348.429518 98.864027,348.429518 C82.9277759,348.429518 70.0088919,335.529169 70.0088919,319.615782 L70.0088919,116.010426 L68.9062973,116.010426 L68.9062973,319.615782 C68.9224567,336.134736 82.3272073,349.522874 98.8698919,349.542244" id="Path" fill-rule="evenodd"></path>
                    <path d="M171.641135,198.492674 L172.755459,198.492674 L172.755459,196.27308 L171.641135,196.27308 L171.641135,198.492674 Z M171.641135,194.053485 L172.755459,194.053485 L172.755459,191.83389 L171.641135,191.83389 L171.641135,194.053485 Z M171.641135,189.614295 L172.755459,189.614295 L172.755459,187.394701 L171.641135,187.394701 L171.641135,189.614295 Z M171.641135,185.175106 L172.755459,185.175106 L172.755459,182.955511 L171.641135,182.955511 L171.641135,185.175106 Z M171.641135,180.735917 L172.755459,180.735917 L172.755459,178.516322 L171.641135,178.516322 L171.641135,180.735917 Z M171.641135,176.296727 L172.755459,176.296727 L172.755459,174.077132 L171.641135,174.077132 L171.641135,176.296727 Z M171.641135,171.857538 L172.755459,171.857538 L172.755459,169.637943 L171.641135,169.637943 L171.641135,171.857538 Z M171.641135,167.418348 L172.755459,167.418348 L172.755459,165.175328 L171.641135,165.175328 L171.641135,167.418348 Z M171.641135,162.979159 L172.755459,162.979159 L172.755459,160.753708 L171.641135,160.753708 L171.641135,162.979159 Z M171.641135,158.534113 L172.755459,158.534113 L172.755459,156.314518 L171.641135,156.314518 L171.641135,158.534113 Z M171.641135,154.094924 L172.755459,154.094924 L172.755459,151.875329 L171.641135,151.875329 L171.641135,154.094924 Z M171.641135,149.655734 L172.755459,149.655734 L172.755459,147.436139 L171.641135,147.436139 L171.641135,149.655734 Z M171.641135,145.216545 L172.755459,145.216545 L172.755459,142.99695 L171.641135,142.99695 L171.641135,145.216545 Z M171.641135,140.777355 L172.755459,140.777355 L172.755459,138.557761 L171.641135,138.557761 L171.641135,140.777355 Z M171.641135,136.338166 L172.755459,136.338166 L172.755459,134.136141 L171.641135,134.136141 L171.641135,136.338166 Z M171.641135,131.898976 L172.755459,131.898976 L172.755459,129.679382 L171.641135,129.679382 L171.641135,131.898976 Z M171.641135,127.459787 L172.755459,127.459787 L172.755459,125.240192 L171.641135,125.240192 L171.641135,127.459787 Z M171.641135,123.020598 L172.755459,123.020598 L172.755459,120.795146 L171.641135,120.795146 L171.641135,123.020598 Z M171.641135,118.581408 L172.755459,118.581408 L172.755459,116.355957 L171.641135,116.355957 L171.641135,118.581408 Z M70.0440811,114.312056 C70.0440811,113.574143 70.1085946,112.847943 70.1613784,112.121743 L69.0705135,112.033897 C69.0177297,112.777666 68.9766757,113.527291 68.9473514,114.276917 L70.0440811,114.312056 Z M171.605946,114.159788 L172.72027,114.118793 C172.72027,113.369167 172.649892,112.619542 172.591243,111.881629 L171.482784,111.969476 C171.541432,112.695676 171.582486,113.421875 171.605946,114.159788 Z M70.3783784,109.937287 C70.4604865,109.205231 70.5660541,108.484888 70.6833514,107.764544 L69.5866216,107.582994 C69.4634595,108.320907 69.3637568,109.05882 69.2699189,109.802589 L70.3783784,109.937287 Z M171.254054,109.78502 L172.356649,109.650321 C172.268676,108.906552 172.163108,108.162783 172.039946,107.430727 L170.943216,107.612277 C171.066378,108.33262 171.166081,109.052963 171.254054,109.78502 Z M71.088027,105.603514 C71.2346486,104.883171 71.3988649,104.17454 71.5806757,103.46591 L70.5015405,103.190656 C70.3197297,103.916856 70.1496486,104.643056 69.9971622,105.375112 L71.088027,105.603514 Z M170.532676,105.439533 L171.623541,105.211132 C171.465189,104.473219 171.295108,103.747019 171.107432,103.026676 L170.034162,103.301929 C170.215973,104.004703 170.380189,104.71919 170.532676,105.439533 Z M72.1671622,101.340018 C72.3841622,100.637244 72.607027,99.9403265 72.8474865,99.2492653 L71.7976757,98.8861654 C71.5572162,99.5889395 71.3226216,100.303426 71.1056216,101.017913 L72.1671622,101.340018 Z M169.441811,101.193607 L170.509216,100.871502 C170.292216,100.151159 170.051757,99.4366718 169.805432,98.7338977 L168.773216,99.114567 C169.019541,99.8056281 169.24827,100.502546 169.459405,101.20532 L169.441811,101.193607 Z M73.6216486,97.2405029 C73.8914324,96.5552982 74.2081351,95.8876628 74.4779189,95.2200275 L73.4632973,94.7632243 C73.1583243,95.4425726 72.8768108,96.1336337 72.5894324,96.8246949 L73.6216486,97.2405029 Z M167.981459,97.0823787 L169.007811,96.6724272 C168.726297,95.9755096 168.421324,95.2844484 168.122216,94.6051002 L167.107595,95.0619033 C167.412568,95.7295386 167.694081,96.4030304 167.981459,97.0823787 Z M75.4221622,93.2171214 C75.7505946,92.561199 76.0907568,91.9169894 76.4485135,91.2786363 L75.4808108,90.7398429 C75.1171892,91.3899089 74.7652973,92.0516878 74.431,92.7193231 L75.4221622,93.2171214 Z M166.151622,93.0531408 L167.142784,92.5494861 C166.802622,91.8818507 166.45073,91.2200718 166.081243,90.5700058 L165.113541,91.1146557 C165.477162,91.7530088 165.823189,92.3972183 166.151622,93.0531408 Z M77.5921622,89.3928593 C77.9792432,88.7662191 78.3780541,88.1571482 78.7651351,87.5480774 L77.8678108,86.9272937 C77.4455405,87.5129387 77.0408649,88.1688611 76.6479189,88.8072142 L77.5921622,89.3928593 Z M164.022676,89.2230222 L164.961054,88.6373772 C164.568108,88.0048805 164.157568,87.3782403 163.735297,86.7574566 L162.814514,87.3840968 C163.230919,87.9697418 163.635595,88.6022385 164.022676,89.2230222 Z M80.0319459,85.76186 C80.4659459,85.176215 80.9175405,84.5905699 81.3808649,84.0049249 L80.5128649,83.3080073 C80.0436757,83.8936523 79.5862162,84.4792974 79.1404865,85.0649424 L80.0319459,85.76186 Z M161.506649,85.5978794 L162.398108,84.941957 C161.946514,84.3563119 161.483189,83.7706669 161.008135,83.1850218 L160.151865,83.8877959 C160.615189,84.4734409 161.066784,85.059086 161.506649,85.644731 L161.506649,85.5978794 Z M82.8001622,82.3592623 C83.2869459,81.808756 83.7854595,81.275819 84.2957027,80.7487385 L83.4922162,79.975687 C82.9761081,80.5144804 82.4658649,81.0649868 81.9673514,81.6213496 L82.8001622,82.3592623 Z M158.720838,82.2011382 L159.547784,81.4632254 C159.04927,80.8775804 158.539027,80.3622127 158.011189,79.8234193 L157.219432,80.5964707 C157.729676,81.1235513 158.228189,81.6564883 158.720838,82.2011382 Z M85.8557568,79.2026355 C86.3894595,78.6989808 86.929027,78.207039 87.4803243,77.72681 L86.7530811,76.8893376 C86.1665946,77.375423 85.6328919,77.8849342 85.0933243,78.4003018 L85.8557568,79.2026355 Z M155.647649,79.0562243 L156.410081,78.2480341 C155.870514,77.7385229 155.313351,77.2348682 154.744459,76.7487828 L154.017216,77.5921117 C154.574378,78.0664842 155.113946,78.558426 155.647649,79.0562243 Z M89.1752703,76.3212619 C89.7617568,75.8644588 90.3482432,75.4193686 90.9347297,74.9859912 L90.2778649,74.0899543 C89.6913784,74.5350446 89.1048919,74.9859912 88.5184054,75.4545073 L89.1752703,76.3212619 Z M152.351595,76.19242 L153.043649,75.3198089 C152.457162,74.8571493 151.870676,74.4062026 151.284189,73.9669689 L150.592135,74.8688622 C151.178622,75.2963831 151.765108,75.7414733 152.351595,76.19242 Z M92.7293784,73.7327108 C93.3158649,73.3286158 93.9551351,72.9362336 94.5826757,72.5614208 L93.9961892,71.6126758 C93.3510541,71.9992015 92.7176486,72.3974401 92.095973,72.7839659 L92.7293784,73.7327108 Z M148.762297,73.6214383 L149.378108,72.6961191 C148.752523,72.2861676 148.119117,71.8957376 147.477892,71.524829 L146.891405,72.4794305 C147.518946,72.8542433 148.134757,73.240769 148.744703,73.6507205 L148.762297,73.6214383 Z M96.4946216,71.472121 C97.1397568,71.120734 97.7907568,70.7810598 98.4476216,70.4589551 L97.9608378,69.4633585 C97.2863784,69.7913197 96.6177838,70.1368503 95.9609189,70.4940938 L96.4946216,71.472121 Z M145.002919,71.3784178 L145.530757,70.406247 C144.873892,70.0490035 144.205297,69.7093294 143.536703,69.3813682 L143.049919,70.3769648 C143.706784,70.7010217 144.357784,71.0348394 145.002919,71.3784178 Z M100.429946,69.5336359 C101.098541,69.2408134 101.778865,68.9479908 102.465054,68.690307 L102.066243,67.6595718 C101.362459,67.9289685 100.670405,68.2452168 99.9842162,68.5146135 L100.429946,69.5336359 Z M141.03827,69.4633585 L141.484,68.4443361 C140.797811,68.1456571 140.105757,67.8586911 139.407838,67.5951508 L139.009027,68.6317425 C139.695216,68.8952828 140.369676,69.170536 141.03827,69.4633585 Z M104.552946,67.9582507 C105.245,67.7298492 105.948784,67.507304 106.652568,67.3023283 L106.34173,66.2364543 C105.620351,66.4472865 104.904838,66.6698316 104.195189,66.9099461 L104.552946,67.9582507 Z M136.956324,67.9113991 L137.308216,66.857238 C136.604432,66.62298 135.888919,66.4004349 135.167541,66.1954591 L134.856703,67.2613331 C135.566351,67.4604524 136.26427,67.6829976 136.956324,67.9113991 Z M108.804973,66.740109 C109.514622,66.570272 110.230135,66.4121478 110.951514,66.271593 L110.711054,65.1471545 C109.972081,65.2935658 109.244838,65.4516899 108.517595,65.6273835 L108.804973,66.740109 Z M132.762946,66.7049703 L132.997541,65.6156706 C132.270297,65.4458335 131.543054,65.2877093 130.804081,65.1412981 L130.592946,66.2305979 C131.314324,66.3711527 132.029838,66.5234204 132.739486,66.6932574 L132.762946,66.7049703 Z M113.092189,65.8792108 C113.815523,65.7698904 114.542766,65.6761872 115.273919,65.5981012 L115.150757,64.4912321 C114.405919,64.5732224 113.661081,64.672782 112.922108,64.7840546 L113.092189,65.8792108 Z M128.422946,65.8792108 L128.587162,64.7840546 C127.854054,64.672782 127.109216,64.5790788 126.358514,64.4970885 L126.241216,65.6039577 C126.980189,65.6800915 127.701568,65.7737947 128.422946,65.8792108 Z M117.461514,65.4282641 C118.188757,65.3814125 118.921865,65.3521303 119.654973,65.3345609 L119.654973,64.2218354 C118.90427,64.2218354 118.159432,64.2745434 117.414595,64.321395 L117.461514,65.4282641 Z M124.053622,65.4282641 L124.124,64.321395 C123.379162,64.2745434 122.628459,64.2452612 121.877757,64.2335483 L121.877757,65.3404174 C122.61673,65.3404174 123.349838,65.3696996 124.077081,65.4282641 L124.053622,65.4282641 Z" id="Shape" fill-rule="nonzero"></path>
                    <path d="M282.803784,353.454352 L283.055973,353.454352 L283.055973,352.347483 L282.803784,352.347483 C282.152784,352.347483 281.507649,352.347483 280.868378,352.300632 L280.80973,353.407501 C281.466595,353.44264 282.135189,353.454352 282.803784,353.454352 Z M285.284622,353.454352 L287.507405,353.454352 L287.507405,352.347483 L285.284622,352.347483 L285.284622,353.454352 Z M289.730189,353.454352 L291.935378,353.454352 L291.935378,352.347483 L289.712595,352.347483 L289.730189,353.454352 Z M294.175757,353.454352 L296.398541,353.454352 L296.398541,352.347483 L294.175757,352.347483 L294.175757,353.454352 Z M298.621324,353.454352 L300.844108,353.454352 L300.844108,352.347483 L298.621324,352.347483 L298.621324,353.454352 Z M303.066892,353.454352 L305.289676,353.454352 L305.289676,352.347483 L303.078622,352.347483 L303.066892,353.454352 Z M307.512459,353.454352 L309.735243,353.454352 L309.735243,352.347483 L307.512459,352.347483 L307.512459,353.454352 Z M311.958027,353.454352 L314.180811,353.454352 L314.180811,352.347483 L311.958027,352.347483 L311.958027,353.454352 Z M316.403595,353.454352 L318.626378,353.454352 L318.626378,352.347483 L316.403595,352.347483 L316.403595,353.454352 Z M320.849162,353.454352 L323.077811,353.454352 L323.077811,352.347483 L320.849162,352.347483 L320.849162,353.454352 Z M325.300595,353.454352 L325.517595,353.454352 C326.197919,353.454352 326.872378,353.454352 327.546838,353.407501 L327.488189,352.294775 C326.835234,352.329914 326.178369,352.347483 325.517595,352.347483 L325.300595,352.347483 L325.300595,353.454352 Z M278.563486,353.225951 L278.680784,352.124938 C277.959405,352.042948 277.226297,351.943388 276.510784,351.820403 L276.328973,352.915559 C277.062081,353.038544 277.812784,353.143961 278.563486,353.225951 Z M329.793081,353.225951 C330.543784,353.143961 331.294486,353.038544 332.027595,352.915559 L331.839919,351.820403 C331.13027,351.943388 330.397162,352.042948 329.669919,352.124938 L329.793081,353.225951 Z M274.117919,352.482182 L274.340784,351.410451 C273.637,351.252327 272.927351,351.064921 272.223568,350.859945 L271.91273,351.925819 C272.634108,352.136651 273.373081,352.329914 274.094459,352.511464 L274.117919,352.482182 Z M334.215189,352.511464 C334.936568,352.347483 335.669676,352.15422 336.396919,351.925819 L336.080216,350.865801 C335.376432,351.070777 334.666784,351.258184 333.963,351.416308 L334.215189,352.511464 Z M269.766189,351.252327 L270.141541,350.209879 C269.461216,349.963908 268.775027,349.694511 268.106432,349.413402 L267.672432,350.432424 C268.358622,350.725247 269.062405,351.018069 269.766189,351.252327 Z M338.537595,351.252327 C339.247243,351.0005 339.956892,350.71939 340.643081,350.426568 L340.203216,349.407545 C339.540486,349.694511 338.854297,349.963908 338.162243,350.209879 L338.537595,351.252327 Z M265.625595,349.495392 L266.129973,348.482226 C265.473108,348.154265 264.827973,347.808734 264.200432,347.451491 L263.649135,348.411949 C264.29427,348.780905 264.962865,349.138149 265.631459,349.471966 L265.625595,349.495392 Z M342.695784,349.471966 C343.364378,349.138149 344.032973,348.780905 344.683973,348.406092 L344.132676,347.445634 C343.49927,347.808734 342.84827,348.154265 342.203135,348.47637 L342.695784,349.471966 Z M261.725459,347.258228 L262.311946,346.327052 C261.725459,345.93467 261.097919,345.513006 260.511432,345.079628 L259.854568,345.975665 C260.441054,346.420756 261.074459,346.848276 261.702,347.258228 L261.725459,347.258228 Z M346.584189,347.258228 C347.21173,346.848276 347.833405,346.414899 348.437486,345.969809 L347.774757,345.073772 C347.18827,345.507149 346.601784,345.928814 345.980108,346.327052 L346.584189,347.258228 Z M258.077514,344.611112 L258.793027,343.761927 C258.235865,343.299267 257.684568,342.813182 257.150865,342.315384 L256.388432,343.123574 C256.93973,343.638942 257.508622,344.13674 258.077514,344.611112 Z M350.208676,344.575974 C350.795162,344.095745 351.381649,343.59209 351.897757,343.082579 L351.135324,342.274389 C350.607486,342.772187 350.056189,343.258272 349.499027,343.726788 L350.208676,344.575974 Z M254.834243,341.454486 L255.63773,340.693147 C255.139216,340.171923 254.646568,339.621417 254.171514,339.065054 L253.326973,339.779541 C253.813757,340.365186 254.318135,340.921549 254.834243,341.454486 Z M353.516459,341.454486 C354.032568,340.909836 354.542811,340.34176 355.017865,339.773684 L354.173324,339.059197 C353.704135,339.609704 353.211486,340.16021 352.712973,340.687291 L353.516459,341.454486 Z M251.901811,338.057744 L252.79327,337.390109 C252.353405,336.804464 251.931135,336.218819 251.526459,335.603892 L250.617405,336.18368 C251.033811,336.804464 251.467811,337.425248 251.919405,338.022606 L251.901811,338.057744 Z M356.448892,337.98161 C356.900486,337.395965 357.334486,336.769325 357.750892,336.142685 L356.818378,335.55704 C356.419568,336.142685 355.997297,336.763469 355.563297,337.343257 L356.448892,337.98161 Z M249.438568,334.274477 L250.400405,333.718115 C250.036784,333.091474 249.684892,332.441408 249.356459,331.791342 L248.359432,332.294997 C248.699595,332.962632 249.063216,333.630268 249.438568,334.274477 Z M358.935595,334.233482 C359.310946,333.583416 359.668703,332.921637 360.008865,332.254002 L359.017703,331.750347 C358.68927,332.400413 358.337378,333.044623 357.973757,333.671263 L358.935595,334.233482 Z M247.403459,330.251096 L248.418081,329.811862 C248.130703,329.144227 247.831595,328.459022 247.60873,327.779674 L246.564784,328.160343 C246.822838,328.863117 247.104351,329.565891 247.403459,330.251096 Z M360.964838,330.215957 C361.258081,329.536609 361.551324,328.833835 361.797649,328.131061 L360.753703,327.750392 C360.501514,328.42974 360.23173,329.114945 359.944351,329.776723 L360.964838,330.215957 Z M245.837541,326.016882 L246.904946,325.700634 C246.693811,325.003716 246.50027,324.295086 246.318459,323.586455 L245.239324,323.844139 C245.409405,324.570339 245.602946,325.302395 245.825811,326.016882 L245.837541,326.016882 Z M362.483838,326.016882 C362.700838,325.296539 362.894378,324.564483 363.070324,323.838283 L361.991189,323.586455 C361.826973,324.289229 361.633432,324.99786 361.404703,325.700634 L362.483838,326.016882 Z M244.78773,321.66554 L245.884459,321.472277 C245.755432,320.751933 245.649865,320.025733 245.567757,319.311247 L244.459297,319.434232 C244.54727,320.178001 244.652838,320.927627 244.78773,321.66554 Z M363.521919,321.636257 C363.650946,320.904201 363.756514,320.154575 363.844486,319.410806 L362.741892,319.281964 C362.653919,320.002308 362.548351,320.734364 362.425189,321.442994 L363.521919,321.636257 Z M244.265757,317.191211 L245.374216,317.12679 C245.333162,316.406447 245.315568,315.668534 245.315568,314.942334 L244.201243,314.942334 C244.201243,315.69196 244.201243,316.447442 244.265757,317.191211 Z M364.038027,317.191211 C364.079081,316.453299 364.102541,315.703673 364.102541,314.96576 L362.988216,314.96576 C362.988216,315.703673 362.988216,316.429873 362.929568,317.150216 L364.038027,317.191211 Z M362.923703,312.752022 L364.032162,312.687601 C363.991108,311.943832 363.926595,311.18835 363.838622,310.450437 L362.736027,310.579279 C362.818135,311.293766 362.882649,312.031679 362.923703,312.752022 Z M362.413459,308.412392 L363.510189,308.219129 C363.381162,307.487073 363.228676,306.74916 363.05273,306.017104 L361.973595,306.274788 C362.137811,306.983418 362.290297,307.703762 362.413459,308.412392 Z M361.404703,304.160609 L362.466243,303.844361 C362.249243,303.124018 362.008784,302.403674 361.75073,301.7009 L360.706784,302.087426 C360.958973,302.766774 361.193568,303.463692 361.404703,304.160609 Z M359.891568,300.061094 L360.912054,299.616004 C360.612946,298.930799 360.290378,298.245594 359.950216,297.577959 L358.959054,298.081614 C359.287486,298.725823 359.598324,299.393459 359.891568,300.061094 Z M357.909243,296.154842 L358.871081,295.598479 C358.49573,294.954269 358.096919,294.31006 357.698108,293.683419 L356.771459,294.298347 C357.176135,294.883992 357.563216,295.528201 357.944432,296.154842 L357.909243,296.154842 Z M355.522243,292.512129 L356.413703,291.844494 C355.956243,291.258849 355.487054,290.673204 355.006135,290.087559 L354.15573,290.807902 C354.624919,291.352552 355.082378,291.932341 355.522243,292.512129 Z M352.695378,289.179809 L353.498865,288.412614 C352.988622,287.873821 352.449054,287.340884 351.897757,286.825516 L351.111865,287.575142 C351.651432,288.07294 352.173405,288.588308 352.671919,289.115388 L352.695378,289.179809 Z M349.469703,286.128598 L350.185216,285.273557 C349.59873,284.793328 349.012243,284.324812 348.425757,283.885578 L347.768892,284.781615 C348.355378,285.203279 348.941865,285.660082 349.487297,286.128598 L349.469703,286.128598 Z M345.968378,283.534191 L346.554865,282.603015 C345.927324,282.193064 345.282189,281.800682 344.631189,281.431725 L344.079892,282.392183 C344.707432,282.755283 345.334973,283.135952 345.944919,283.534191 L345.968378,283.534191 Z M342.150351,281.367304 L342.643,280.371708 C341.974405,280.03789 341.282351,279.721642 340.596162,279.434676 L340.162162,280.453698 C340.830757,280.734808 341.499351,281.039343 342.150351,281.367304 Z M338.127054,279.657221 L338.502405,278.614772 C337.792757,278.362945 337.071378,278.128687 336.355865,277.917855 L336.045027,278.983729 C336.737081,279.188705 337.440865,279.417106 338.127054,279.657221 Z M333.927811,278.433223 L334.174135,277.349779 C333.441027,277.185799 332.696189,277.039387 331.963081,276.910545 L331.78127,278.005702 C332.490919,278.128687 333.212297,278.269242 333.927811,278.433223 Z M329.61127,277.707023 L329.728568,276.60601 C328.989595,276.52402 328.233027,276.465455 327.482324,276.42446 L327.429541,277.537186 C328.156784,277.572324 328.889892,277.630889 329.61127,277.707023 Z M251.872486,277.490334 L254.09527,277.490334 L254.09527,276.377608 L251.878351,276.377608 L251.872486,277.490334 Z M256.318054,277.490334 L258.540838,277.490334 L258.540838,276.377608 L256.318054,276.377608 L256.318054,277.490334 Z M260.763622,277.490334 L262.986405,277.490334 L262.986405,276.377608 L260.763622,276.377608 L260.763622,277.490334 Z M265.209189,277.490334 L267.431973,277.490334 L267.431973,276.377608 L265.209189,276.377608 L265.209189,277.490334 Z M269.654757,277.490334 L271.877541,277.490334 L271.877541,276.377608 L269.648892,276.377608 L269.654757,277.490334 Z M274.106189,277.490334 L276.328973,277.490334 L276.328973,276.377608 L274.106189,276.377608 L274.106189,277.490334 Z M278.551757,277.490334 L280.792135,277.490334 L280.792135,276.377608 L278.569351,276.377608 L278.551757,277.490334 Z M282.997324,277.490334 L285.220108,277.490334 L285.220108,276.377608 L282.997324,276.377608 L282.997324,277.490334 Z M287.442892,277.490334 L289.665676,277.490334 L289.665676,276.377608 L287.442892,276.377608 L287.442892,277.490334 Z M291.888459,277.490334 L294.111243,277.490334 L294.111243,276.377608 L291.888459,276.377608 L291.888459,277.490334 Z M296.334027,277.490334 L298.556811,277.490334 L298.556811,276.377608 L296.334027,276.377608 L296.334027,277.490334 Z M300.779595,277.490334 L303.002378,277.490334 L303.002378,276.377608 L300.779595,276.377608 L300.779595,277.490334 Z M305.225162,277.490334 L307.447946,277.490334 L307.447946,276.377608 L305.225162,276.377608 L305.225162,277.490334 Z M309.67073,277.490334 L311.875919,277.490334 L311.875919,276.377608 L309.653135,276.377608 L309.67073,277.490334 Z M314.116297,277.490334 L316.339081,277.490334 L316.339081,276.377608 L314.116297,276.377608 L314.116297,277.490334 Z M318.561865,277.490334 L320.790514,277.490334 L320.790514,276.377608 L318.561865,276.377608 L318.561865,277.490334 Z M323.013297,277.490334 L325.236081,277.490334 L325.236081,276.377608 L323.019162,276.377608 L323.013297,277.490334 Z M249.643838,277.490334 L249.643838,276.377608 L247.421054,276.377608 L247.421054,277.484478 L249.649703,277.484478 L249.643838,277.490334 Z M245.186541,277.425913 L245.186541,276.313187 L244.76427,276.313187 L244.717351,277.420057 L245.186541,277.425913 Z" id="Shape" fill-rule="nonzero"></path>
                    <path d="M244.212973,314.918909 L245.321432,314.918909 L245.321432,182.088757 C245.321433,148.774146 272.367064,121.767318 305.729541,121.767318 C339.092017,121.767318 366.137648,148.774146 366.137649,182.088757 L367.246108,182.088757 C367.246109,160.142535 355.521117,139.863391 336.487825,128.89028 C317.454532,117.917169 294.004549,117.917169 274.971256,128.89028 C255.937964,139.863391 244.212973,160.142535 244.212973,182.088757 L244.212973,314.918909 Z" id="Path" fill-rule="evenodd"></path>
                    <path d="M400.35327,251.206585 C401.115703,251.206585 401.87227,251.165589 402.611243,251.112881 L402.529135,250.006012 C401.813622,250.05872 401.080514,250.088002 400.341541,250.093859 L400.35327,251.206585 Z M398.089432,251.153876 L398.153946,250.047007 C397.432568,250.006012 396.699459,249.941591 395.972216,249.847888 L395.837324,250.954757 C396.588027,251.042604 397.344595,251.112881 398.089432,251.153876 Z M404.863351,250.86691 C405.596459,250.761494 406.347162,250.626796 407.092,250.474528 L406.86327,249.385228 C406.141892,249.537496 405.420514,249.666338 404.705,249.765898 L404.863351,250.86691 Z M393.602811,250.60337 L393.813946,249.51407 C393.104297,249.373516 392.382919,249.209535 391.679135,249.027985 L391.397622,250.099715 C392.124865,250.292978 392.869703,250.462815 393.602811,250.60337 Z M409.285459,249.924022 C410.012703,249.724903 410.734081,249.490645 411.44373,249.238817 L411.068378,248.196369 C410.388054,248.436483 409.68427,248.659029 408.986351,248.858148 L409.285459,249.924022 Z M389.227622,249.455506 L389.579514,248.401345 C388.893324,248.172943 388.20127,247.915259 387.526811,247.63415 L387.104541,248.659029 C387.802459,248.951851 388.512108,249.215391 389.227622,249.455506 Z M413.543351,248.407201 C414.235405,248.102666 414.921595,247.780561 415.584324,247.43503 L415.074081,246.451147 C414.434811,246.784964 413.772081,247.101213 413.097622,247.388179 L413.543351,248.407201 Z M385.040108,247.751279 L385.532757,246.755682 C384.881757,246.439434 384.230757,246.088047 383.603216,245.724947 L383.046054,246.685405 C383.697054,247.060218 384.365649,247.423318 385.040108,247.751279 Z M417.560784,246.351587 C418.205919,245.959205 418.845189,245.543397 419.455135,245.121733 L418.815865,244.213983 C418.229378,244.623934 417.607703,245.028029 416.980162,245.385273 L417.560784,246.351587 Z M381.122378,245.484832 L381.744054,244.56537 C381.157568,244.155418 380.571081,243.727897 379.984595,243.282807 L379.30427,244.161275 C379.890757,244.618078 380.518297,245.063168 381.139973,245.484832 L381.122378,245.484832 Z M421.279108,243.763036 C421.865595,243.29452 422.452081,242.796722 422.991649,242.287211 L422.240946,241.473164 C421.701378,241.965106 421.144216,242.445335 420.581189,242.896281 L421.279108,243.763036 Z M377.562405,242.691306 L378.301378,241.865546 C377.755946,241.379461 377.222243,240.875806 376.712,240.360438 L375.920243,241.139346 C376.448081,241.672283 376.999378,242.193507 377.562405,242.691306 Z M424.604486,240.682543 C425.120595,240.137893 425.624973,239.569818 426.111757,238.990029 L425.255486,238.281398 C424.786297,238.867043 424.299514,239.394124 423.801,239.915348 L424.604486,240.682543 Z M374.383649,239.476114 L375.228189,238.755771 C374.753135,238.205265 374.289811,237.631332 373.849946,237.051544 L372.964351,237.719179 C373.415946,238.304824 373.891,238.890469 374.383649,239.476114 Z M427.47827,237.209668 C427.924,236.624023 428.352135,235.968101 428.745081,235.34146 L427.806703,234.755815 C427.419622,235.34146 427.009081,235.973957 426.580946,236.565458 L427.47827,237.209668 Z M371.644757,235.880254 L372.57727,235.294609 C372.178459,234.708964 371.797243,234.064754 371.439486,233.426401 L370.471784,233.971051 C370.84127,234.626973 371.240081,235.277039 371.644757,235.90368 L371.644757,235.880254 Z M429.88873,233.408832 C430.240622,232.741196 430.580784,232.061848 430.891622,231.3825 L429.877,230.91984 C429.577892,231.581619 429.255324,232.237542 428.909297,232.881751 L429.88873,233.408832 Z M369.427838,231.938863 L370.43073,231.458634 C370.119892,230.802711 369.844243,230.135076 369.556865,229.461584 L368.524649,229.871536 C368.800297,230.562597 369.111135,231.265371 369.427838,231.938863 Z M431.759622,229.256608 C432.023541,228.559691 432.264,227.833491 432.486865,227.113147 L431.419459,226.796899 C431.208324,227.493817 430.97373,228.190734 430.715676,228.870083 L431.759622,229.256608 Z M367.756351,227.745644 L368.817892,227.40597 C368.595027,226.714909 368.389757,226.006278 368.231405,225.303504 L367.15227,225.572901 C367.328216,226.299101 367.539351,227.025301 367.738757,227.745644 L367.756351,227.745644 Z M433.061622,224.911122 C433.225838,224.184922 433.372459,223.435297 433.489757,222.691527 L432.393027,222.52169 C432.27573,223.236177 432.140838,223.956521 431.976622,224.665151 L433.061622,224.911122 Z M366.665486,223.341593 L367.762216,223.148331 C367.633189,222.4397 367.527622,221.707644 367.445514,220.9873 L366.342919,221.104429 C366.425027,221.854055 366.536459,222.609537 366.665486,223.341593 Z M433.77127,220.448507 C433.835784,219.704738 433.882703,218.949256 433.900297,218.193773 L432.785973,218.164491 C432.785973,218.896548 432.727324,219.628604 432.662811,220.348947 L433.77127,220.448507 Z M366.166973,218.855552 L367.281297,218.802844 C367.281297,218.322615 367.246108,217.842386 367.246108,217.356301 L367.246108,216.606675 L366.137649,216.606675 L366.137649,217.356301 C366.137649,217.854099 366.137649,218.357754 366.166973,218.855552 Z M432.797703,215.956609 L433.912027,215.956609 L433.912027,213.783866 L432.797703,213.783866 L432.797703,215.956609 Z M366.137649,214.381224 L367.246108,214.381224 L367.246108,212.16163 L366.137649,212.16163 L366.137649,214.381224 Z M432.797703,211.511564 L433.912027,211.511564 L433.912027,209.286112 L432.797703,209.286112 L432.797703,211.511564 Z M366.137649,209.936178 L367.246108,209.936178 L367.246108,207.710727 L366.137649,207.710727 L366.137649,209.936178 Z M432.797703,207.060661 L433.912027,207.060661 L433.912027,204.841067 L432.797703,204.841067 L432.797703,207.060661 Z M366.137649,205.491132 L367.246108,205.491132 L367.246108,203.265681 L366.137649,203.265681 L366.137649,205.491132 Z M432.797703,202.65661 L433.912027,202.65661 L433.912027,200.431159 L432.797703,200.431159 L432.797703,202.65661 Z M366.137649,201.081225 L367.246108,201.081225 L367.246108,198.855774 L366.137649,198.855774 L366.137649,201.081225 Z M432.797703,198.205708 L433.912027,198.205708 L433.912027,195.986113 L432.797703,195.986113 L432.797703,198.205708 Z M366.137649,196.636179 L367.246108,196.636179 L367.246108,194.410728 L366.137649,194.410728 L366.137649,196.636179 Z M432.797703,193.760662 L433.912027,193.760662 L433.912027,191.529355 L432.797703,191.529355 L432.797703,193.760662 Z M366.137649,192.185277 L367.246108,192.185277 L367.246108,189.959826 L366.137649,189.959826 L366.137649,192.185277 Z M432.797703,189.315616 L433.912027,189.315616 L433.912027,187.090165 L432.797703,187.090165 L432.797703,189.315616 Z M366.137649,187.716805 L367.246108,187.716805 L367.246108,185.491354 L366.137649,185.491354 L366.137649,187.716805 Z M432.797703,184.841288 L433.912027,184.841288 L433.912027,182.615837 L432.797703,182.615837 L432.797703,184.841288 Z M432.797703,180.396242 L433.912027,180.396242 L433.912027,178.170791 L432.797703,178.170791 L432.797703,180.396242 Z M432.797703,175.94534 L433.912027,175.94534 L433.912027,173.725745 L432.797703,173.725745 L432.797703,175.94534 Z M432.797703,171.500294 L433.912027,171.500294 L433.912027,169.274843 L432.797703,169.274843 L432.797703,171.500294 Z M432.797703,167.055248 L433.912027,167.055248 L433.912027,164.829797 L432.797703,164.829797 L432.797703,167.055248 Z M432.797703,162.604346 L433.912027,162.604346 L433.912027,160.378895 L432.797703,160.378895 L432.797703,162.604346 Z M432.797703,158.1593 L433.912027,158.1593 L433.912027,155.933849 L432.797703,155.933849 L432.797703,158.1593 Z M432.797703,153.708398 L433.912027,153.708398 L433.912027,151.482947 L432.797703,151.482947 L432.797703,153.708398 Z M432.797703,149.263352 L433.912027,149.263352 L433.912027,147.020331 L432.797703,147.020331 L432.797703,149.263352 Z M432.797703,144.81245 L433.912027,144.81245 L433.912027,142.586998 L432.797703,142.586998 L432.797703,144.81245 Z M432.797703,140.367404 L433.912027,140.367404 L433.912027,138.141953 L432.797703,138.141953 L432.797703,140.367404 Z M432.797703,135.916501 L433.912027,135.916501 L433.912027,133.696907 L432.797703,133.696907 L432.797703,135.916501 Z M432.797703,131.471456 L433.912027,131.471456 L433.912027,129.246004 L432.797703,129.246004 L432.797703,131.471456 Z M432.797703,127.02641 L433.912027,127.02641 L433.912027,124.800959 L432.797703,124.800959 L432.797703,127.02641 Z M432.797703,122.575507 L433.912027,122.575507 L433.912027,120.350056 L432.797703,120.350056 L432.797703,122.575507 Z M432.797703,118.124605 L433.912027,118.124605 L433.912027,115.90501 L432.797703,115.90501 L432.797703,118.124605 Z M432.797703,113.679559 L433.912027,113.679559 L433.912027,111.454108 L432.797703,111.454108 L432.797703,113.679559 Z M432.797703,109.234513 L433.912027,109.234513 L433.912027,107.009062 L432.797703,107.009062 L432.797703,109.234513 Z M432.797703,104.783611 L433.912027,104.783611 L433.912027,102.564016 L432.797703,102.564016 L432.797703,104.783611 Z M432.797703,100.338565 L433.912027,100.338565 L433.912027,98.113114 L432.797703,98.113114 L432.797703,100.338565 Z M432.797703,95.8876628 L433.912027,95.8876628 L433.912027,93.6680681 L432.797703,93.6680681 L432.797703,95.8876628 Z M432.797703,91.4426169 L433.912027,91.4426169 L433.912027,89.2171658 L432.797703,89.2171658 L432.797703,91.4426169 Z M432.797703,86.9917146 L433.912027,86.9917146 L433.912027,84.7721199 L432.797703,84.7721199 L432.797703,86.9917146 Z M432.797703,82.5466687 L433.912027,82.5466687 L433.912027,80.3212176 L432.797703,80.3212176 L432.797703,82.5466687 Z M432.797703,78.1016229 L433.912027,78.1016229 L433.912027,75.8761717 L432.797703,75.8761717 L432.797703,78.1016229 Z" id="Shape" fill-rule="nonzero"></path>
                    <rect id="Rectangle" fill-rule="evenodd" x="366.143514" y="182.088757" width="1.10845946" height="1.11272558"></rect>
                    <path d="M230.723784,215.329969 L231.832243,215.329969 L231.832243,213.110375 L230.723784,213.110375 L230.723784,215.329969 Z M230.723784,210.89078 L231.832243,210.89078 L231.832243,208.671185 L230.723784,208.671185 L230.723784,210.89078 Z M230.723784,206.45159 L231.832243,206.45159 L231.832243,204.231996 L230.723784,204.231996 L230.723784,206.45159 Z M230.723784,202.012401 L231.832243,202.012401 L231.832243,199.792806 L230.723784,199.792806 L230.723784,202.012401 Z M230.723784,197.573212 L231.832243,197.573212 L231.832243,195.353617 L230.723784,195.353617 L230.723784,197.573212 Z M230.723784,193.134022 L231.832243,193.134022 L231.832243,190.94371 L230.723784,190.94371 L230.723784,193.134022 Z M230.723784,188.694833 L231.832243,188.694833 L231.832243,186.469382 L230.723784,186.469382 L230.723784,188.694833 Z M230.723784,184.255643 L231.832243,184.255643 L231.832243,182.030192 L230.723784,182.030192 L230.723784,184.255643 Z M230.723784,179.810597 L231.832243,179.810597 L231.832243,177.591003 L230.723784,177.591003 L230.723784,179.810597 Z M230.723784,175.377264 L231.832243,175.377264 L231.832243,173.151813 L230.723784,173.151813 L230.723784,175.377264 Z M230.723784,170.932219 L231.832243,170.932219 L231.832243,168.689198 L230.723784,168.689198 L230.723784,170.932219 Z M230.723784,166.493029 L231.832243,166.493029 L231.832243,164.273434 L230.723784,164.273434 L230.723784,166.493029 Z M230.723784,162.05384 L231.832243,162.05384 L231.832243,159.834245 L230.723784,159.834245 L230.723784,162.05384 Z M230.723784,157.61465 L231.832243,157.61465 L231.832243,155.395056 L230.723784,155.395056 L230.723784,157.61465 Z M230.723784,153.175461 L231.832243,153.175461 L231.832243,150.955866 L230.723784,150.955866 L230.723784,153.175461 Z M230.723784,148.736271 L231.832243,148.736271 L231.832243,146.516677 L230.723784,146.516677 L230.723784,148.736271 Z M230.723784,144.297082 L231.832243,144.297082 L231.832243,142.077487 L230.723784,142.077487 L230.723784,144.297082 Z M230.723784,139.857893 L231.832243,139.857893 L231.832243,137.650011 L230.723784,137.650011 L230.723784,139.857893 Z M230.723784,135.418703 L231.832243,135.418703 L231.832243,133.193252 L230.723784,133.193252 L230.723784,135.418703 Z M230.723784,130.973657 L231.832243,130.973657 L231.832243,128.754063 L230.723784,128.754063 L230.723784,130.973657 Z M230.723784,126.534468 L231.832243,126.534468 L231.832243,124.314873 L230.723784,124.314873 L230.723784,126.534468 Z M230.723784,122.095278 L231.832243,122.095278 L231.832243,119.875684 L230.723784,119.875684 L230.723784,122.095278 Z M230.723784,117.656089 L231.832243,117.656089 L231.832243,115.436494 L230.723784,115.436494 L230.723784,117.656089 Z M230.723784,113.2169 L231.832243,113.2169 L231.832243,110.997305 L230.723784,110.997305 L230.723784,113.2169 Z M230.723784,108.77771 L231.832243,108.77771 L231.832243,106.558115 L230.723784,106.558115 L230.723784,108.77771 Z M230.723784,104.338521 L231.832243,104.338521 L231.832243,102.118926 L230.723784,102.118926 L230.723784,104.338521 Z M230.723784,99.8993313 L231.832243,99.8993313 L231.832243,97.6797366 L230.723784,97.6797366 L230.723784,99.8993313 Z M230.723784,95.4601419 L231.832243,95.4601419 L231.832243,93.2405472 L230.723784,93.2405472 L230.723784,95.4601419 Z M230.723784,91.015096 L231.832243,91.015096 L231.832243,88.7955013 L230.723784,88.7955013 L230.723784,91.015096 Z M230.723784,86.5817631 L231.832243,86.5817631 L231.832243,84.3563119 L230.723784,84.3563119 L230.723784,86.5817631 Z M230.723784,82.1367172 L231.832243,82.1367172 L231.832243,79.9171225 L230.723784,79.9171225 L230.723784,82.1367172 Z M230.723784,77.6975278 L231.832243,77.6975278 L231.832243,75.4779331 L230.723784,75.4779331 L230.723784,77.6975278 Z M230.723784,73.2583384 L231.832243,73.2583384 L231.832243,71.0387437 L230.723784,71.0387437 L230.723784,73.2583384 Z M230.723784,68.8191489 L231.832243,68.8191489 L231.832243,66.5995542 L230.723784,66.5995542 L230.723784,68.8191489 Z M230.723784,64.3799595 L231.832243,64.3799595 L231.832243,62.1603648 L230.723784,62.1603648 L230.723784,64.3799595 Z M230.723784,59.9407701 L231.832243,59.9407701 L231.832243,57.7211754 L230.723784,57.7211754 L230.723784,59.9407701 Z M230.723784,55.5015807 L231.832243,55.5015807 L231.832243,53.281986 L230.723784,53.281986 L230.723784,55.5015807 Z M230.723784,51.0623913 L231.832243,51.0623913 L231.832243,48.8369401 L230.723784,48.8369401 L230.723784,51.0623913 Z M230.723784,46.6232018 L231.832243,46.6232018 L231.832243,44.3977507 L230.723784,44.3977507 L230.723784,46.6232018 Z M230.723784,42.178156 L231.832243,42.178156 L231.832243,39.9585612 L230.723784,39.9585612 L230.723784,42.178156 Z M230.723784,37.7389665 L231.832243,37.7389665 L231.832243,35.5193718 L230.723784,35.5193718 L230.723784,37.7389665 Z M230.723784,33.2997771 L231.832243,33.2997771 L231.832243,31.0626131 L230.723784,31.0626131 L230.723784,33.2997771 Z M230.723784,28.8605877 L231.832243,28.8605877 L231.832243,26.640993 L230.723784,26.640993 L230.723784,28.8605877 Z M230.723784,24.4213983 L231.832243,24.4213983 L231.832243,22.2018036 L230.723784,22.2018036 L230.723784,24.4213983 Z M230.723784,19.9822088 L231.832243,19.9822088 L231.832243,17.7626141 L230.723784,17.7626141 L230.723784,19.9822088 Z M230.723784,15.5430194 L231.832243,15.5430194 L231.832243,13.3234247 L230.723784,13.3234247 L230.723784,15.5430194 Z M230.723784,11.10383 L231.832243,11.10383 L231.832243,8.87837884 L230.723784,8.87837884 L230.723784,11.10383 Z M230.723784,6.66464058 L231.832243,6.66464058 L231.832243,4.44504587 L230.723784,4.44504587 L230.723784,6.66464058 Z M230.723784,2.22545116 L231.832243,2.22545116 L231.832243,0.0234258017 L230.723784,0.0234258017 L230.723784,2.22545116 Z" id="Shape" fill-rule="nonzero"></path>
                    <path d="M192.848486,368.599133 C204.555624,368.586223 214.042909,359.112549 214.055838,347.422209 L214.055838,286.597114 L212.947378,286.597114 L212.947378,347.422209 C212.760054,358.371343 203.817885,367.149437 192.851419,367.149437 C181.884953,367.149437 172.942784,358.371343 172.755459,347.422209 L172.755459,256.57695 C172.768387,245.50115 181.756773,236.525659 192.848486,236.51275 L210.624892,236.51275 C222.332978,236.496614 231.819321,227.021261 231.832243,215.329969 L230.723784,215.329969 C230.714083,226.41034 221.721183,235.390338 210.624892,235.400025 L192.848486,235.400025 C181.141349,235.412935 171.654064,244.886609 171.641135,256.57695 L171.641135,347.422209 C171.654064,359.112549 181.141349,368.586223 192.848486,368.599133" id="Path" fill-rule="evenodd"></path>
                    <path d="M123.555108,206.943532 C123.552735,208.760866 124.647218,210.400572 126.327947,211.097678 C128.008677,211.794784 129.944459,211.411923 131.232195,210.127711 C132.519931,208.843499 132.905867,206.910995 132.209952,205.231769 C131.514038,203.552543 129.873406,202.457493 128.053459,202.457491 C126.860962,202.455937 125.716773,202.927885 124.873,203.76935 C124.029226,204.610814 123.555107,205.752745 123.555108,206.943532" id="Path" fill-rule="evenodd"></path>
                    <path d="M65.4577568,180.841333 C65.4577568,183.212169 67.3824604,185.134111 69.7567027,185.134111 C72.130945,185.134111 74.0556486,183.212169 74.0556486,180.841333 C74.0556486,178.470497 72.130945,176.548554 69.7567027,176.548554 C67.3824604,176.548554 65.4577568,178.470497 65.4577568,180.841333" id="Path" fill-rule="evenodd"></path>
                    <path d="M168.773216,199.084176 C168.773216,200.914862 170.259413,202.398927 172.09273,202.398927 C173.926046,202.398927 175.412243,200.914862 175.412243,199.084176 C175.412243,197.253489 173.926046,195.769425 172.09273,195.769425 C170.260752,195.772648 168.776444,197.254826 168.773216,199.084176" id="Path" fill-rule="evenodd"></path>
                    <path d="M210.102919,286.597114 C210.102919,288.427801 211.589116,289.911865 213.422432,289.911865 C215.255749,289.911865 216.741946,288.427801 216.741946,286.597114 C216.741946,284.766428 215.255749,283.282363 213.422432,283.282363 C212.541565,283.280805 211.696327,283.629537 211.073459,284.251511 C210.450591,284.873486 210.101358,285.717511 210.102919,286.597114" id="Path" fill-rule="evenodd"></path>
                    <path d="M226.982,212.32561 C226.979628,214.06294 228.026162,215.63041 229.6331,216.296352 C231.240037,216.962294 233.090512,216.595394 234.320756,215.366915 C235.551,214.138436 235.918427,212.290616 235.251528,210.685984 C234.584629,209.081353 233.014908,208.03632 231.275081,208.038688 C228.905417,208.041914 226.985231,209.959346 226.982,212.32561" id="Path" fill-rule="evenodd"></path>
                    <path d="M239.521081,277.086239 C239.521114,279.220738 240.810346,281.144492 242.786343,281.958567 C244.76234,282.772642 247.034947,282.316301 248.542219,280.802784 C250.04949,279.289266 250.493819,277.017413 249.667579,275.048816 C248.841338,273.08022 246.907668,271.803575 244.770135,271.815434 C243.372904,271.815412 242.033323,272.37166 241.048087,273.360978 C240.062851,274.350297 239.513275,275.691034 239.521081,277.086239" id="Path" fill-rule="evenodd"></path>
                    <path d="M240.565027,318.069679 C240.565027,320.388764 242.447718,322.268754 244.770135,322.268754 C247.092552,322.268754 248.975243,320.388764 248.975243,318.069679 C248.975243,315.750594 247.092552,313.870604 244.770135,313.870604 C243.654394,313.869047 242.583902,314.310948 241.794953,315.098765 C241.006004,315.886582 240.563468,316.955538 240.565027,318.069679" id="Path" fill-rule="evenodd"></path>
                    <path d="M362.395865,184.185366 C362.395865,186.556202 364.320569,188.478144 366.694811,188.478144 C369.069053,188.478144 370.993757,186.556202 370.993757,184.185366 C370.993757,181.81453 369.069053,179.892588 366.694811,179.892588 C364.320569,179.892588 362.395865,181.81453 362.395865,184.185366" id="Path" fill-rule="evenodd"></path>
                </g>
            </g>
            <g id="Group" opacity="0.3" mask="url(#mask-2)" fill="#FFFFFF">
                <g transform="translate(74.000000, 29.000000)">
                    <path d="M307.357595,158.620357 L306.251108,158.620357 C306.251108,159.374495 306.251108,160.134479 306.33307,160.876925 L307.439557,160.79508 C307.386867,160.076018 307.357595,159.351111 307.357595,158.620357 Z M307.685443,162.952266 L306.58481,163.115954 C306.696044,163.8584 306.842405,164.606692 307.006329,165.337446 L308.089399,165.086067 C307.925475,164.384543 307.790823,163.665481 307.685443,162.952266 Z M308.657278,167.184792 L307.597627,167.51217 C307.820095,168.231231 308.07769,168.944447 308.352848,169.645971 L309.383228,169.230903 C309.113924,168.564455 308.873892,167.874624 308.657278,167.184792 Z M310.261392,171.218553 L309.266139,171.70962 C309.593987,172.376067 309.951108,173.048361 310.331646,173.69727 L311.291772,173.141897 C310.922943,172.510526 310.577532,171.867463 310.261392,171.218553 Z M312.462658,174.971705 L311.549367,175.603076 C311.976741,176.21691 312.433386,176.824897 312.907595,177.4095 L313.768196,176.707976 C313.311551,176.123373 312.872468,175.53877 312.462658,174.954167 L312.462658,174.971705 Z M315.202532,178.333173 L314.39462,179.093157 C314.90981,179.636838 315.448418,180.168827 316.004589,180.671585 L316.753956,179.853141 C316.221203,179.36792 315.700158,178.859316 315.202532,178.333173 Z M318.416614,181.256188 L317.760918,182.144785 C318.346361,182.612468 318.931804,183.056766 319.5875,183.471834 L320.172943,182.548161 C319.5875,182.150631 319.002057,181.723871 318.416614,181.273726 L318.416614,181.256188 Z M322.028797,183.688137 L321.484335,184.652732 C322.134177,185.021032 322.807437,185.365948 323.492405,185.68748 L323.960759,184.681962 C323.305063,184.377969 322.655222,184.038899 322.028797,183.688137 Z M325.962975,185.529637 L325.570728,186.564384 C326.273259,186.827456 326.993354,187.072989 327.713449,187.283446 L328.029589,186.219469 C327.332911,186.014858 326.636234,185.781016 325.962975,185.529637 Z M330.137184,186.751457 L329.903006,187.838819 C330.640665,187.990816 331.390032,188.119429 332.133544,188.224657 L332.279905,187.125603 C331.565665,187.026221 330.84557,186.903454 330.137184,186.751457 Z M334.446044,187.336061 L334.381646,188.446806 C334.967089,188.481883 335.599367,188.487729 336.137975,188.493575 L336.606329,188.493575 L336.606329,187.388675 L336.137975,187.388675 C335.552532,187.388675 334.967089,187.388675 334.422627,187.336061 L334.446044,187.336061 Z M367.675791,187.388675 L365.456962,187.388675 L365.456962,188.493575 L367.675791,188.493575 L367.675791,187.388675 Z M363.238133,187.388675 L361.013449,187.388675 L361.013449,188.493575 L363.238133,188.493575 L363.238133,187.388675 Z M358.800475,187.388675 L356.575791,187.388675 L356.575791,188.493575 L358.800475,188.493575 L358.800475,187.388675 Z M354.362816,187.388675 L352.143987,187.388675 L352.143987,188.493575 L354.362816,188.493575 L354.362816,187.388675 Z M349.919304,187.388675 L347.700475,187.388675 L347.700475,188.493575 L349.960285,188.493575 L349.919304,187.388675 Z M345.481646,187.388675 L343.286234,187.388675 L343.286234,188.493575 L345.505063,188.493575 L345.481646,187.388675 Z M341.043987,187.388675 L338.836867,187.388675 L338.836867,188.493575 L341.055696,188.493575 L341.043987,187.388675 Z" id="Shape" fill-rule="nonzero"></path>
                    <path d="M336.161392,19.473129 C319.64814,19.4924637 306.267238,32.8567827 306.251108,49.3463469 L306.251108,158.620357 L307.357595,158.620357 L307.357595,49.3463469 C307.357595,33.4612722 320.253494,20.5838748 336.161392,20.5838748 C352.06929,20.5838748 364.96519,33.4612722 364.96519,49.3463469 L364.96519,252.571919 L366.071677,252.571919 L366.071677,49.3463469 C366.055547,32.8567827 352.674645,19.4924637 336.161392,19.473129" id="Path" fill-rule="evenodd"></path>
                    <path d="M263.51962,170.253958 L262.407278,170.253958 L262.407278,172.481296 L263.51962,172.481296 L263.51962,170.253958 Z M263.51962,174.68525 L262.407278,174.68525 L262.407278,176.900895 L263.51962,176.900895 L263.51962,174.68525 Z M263.51962,179.116541 L262.407278,179.116541 L262.407278,181.332187 L263.51962,181.332187 L263.51962,179.116541 Z M263.51962,183.547832 L262.407278,183.547832 L262.407278,185.763478 L263.51962,185.763478 L263.51962,183.547832 Z M263.51962,187.979124 L262.407278,187.979124 L262.407278,190.200616 L263.51962,190.200616 L263.51962,187.979124 Z M263.51962,192.410415 L262.407278,192.410415 L262.407278,194.626061 L263.51962,194.626061 L263.51962,192.410415 Z M263.51962,196.847553 L262.407278,196.847553 L262.407278,199.063199 L263.51962,199.063199 L263.51962,196.847553 Z M263.51962,201.278844 L262.407278,201.278844 L262.407278,203.49449 L263.51962,203.49449 L263.51962,201.278844 Z M263.51962,205.710136 L262.407278,205.710136 L262.407278,207.925781 L263.51962,207.925781 L263.51962,205.710136 Z M263.51962,210.141427 L262.407278,210.141427 L262.407278,212.357073 L263.51962,212.357073 L263.51962,210.141427 Z M263.51962,214.572719 L262.407278,214.572719 L262.407278,216.788364 L263.51962,216.788364 L263.51962,214.572719 Z M263.51962,219.00401 L262.407278,219.00401 L262.407278,221.219656 L263.51962,221.219656 L263.51962,219.00401 Z M263.51962,223.435301 L262.407278,223.435301 L262.407278,225.680177 L263.51962,225.680177 L263.51962,223.435301 Z M263.51962,227.866593 L262.407278,227.866593 L262.407278,230.082239 L263.51962,230.082239 L263.51962,227.866593 Z M263.51962,232.297884 L262.407278,232.297884 L262.407278,234.519376 L263.51962,234.519376 L263.51962,232.297884 Z M263.51962,236.729176 L262.407278,236.729176 L262.407278,238.950667 L263.51962,238.950667 L263.51962,236.729176 Z M263.51962,241.166313 L262.407278,241.166313 L262.407278,243.381959 L263.51962,243.381959 L263.51962,241.166313 Z M263.51962,245.597605 L262.407278,245.597605 L262.407278,247.81325 L263.51962,247.81325 L263.51962,245.597605 Z M263.51962,250.028896 L262.407278,250.028896 L262.407278,252.244542 L263.51962,252.244542 L263.51962,250.028896 Z M364.935918,254.284806 C364.935918,255.021406 364.871519,255.75216 364.818829,256.477068 L365.925316,256.558913 C365.978006,255.816467 366.018987,255.074021 366.048259,254.325729 L364.935918,254.284806 Z M263.554747,254.436803 L262.442405,254.477726 C262.442405,255.226017 262.512658,255.974309 262.571203,256.716755 L263.67769,256.629065 C263.619146,255.898311 263.578165,255.173403 263.554747,254.436803 Z M364.596361,258.657638 C364.508544,259.382545 364.409019,260.107453 364.29193,260.826515 L365.386709,261.001896 C365.503797,260.271142 365.609177,259.534542 365.702848,258.78625 L364.596361,258.657638 Z M263.900158,258.803788 L262.799525,258.944093 C262.893196,259.686539 262.998576,260.423139 263.121519,261.159739 L264.216297,260.972666 C264.093354,260.25945 263.993829,259.534542 263.900158,258.803788 Z M363.893829,262.977854 C363.747468,263.696916 363.583544,264.410132 363.402057,265.111656 L364.473418,265.386419 C364.660759,264.667357 364.830538,263.936604 364.982753,263.20585 L363.893829,262.977854 Z M264.620253,263.129851 L263.531329,263.357846 C263.689399,264.0886 263.859177,264.819354 264.046519,265.538416 L265.11788,265.257807 C264.936392,264.556283 264.766614,263.843067 264.620253,263.129851 Z M362.816614,267.222073 C362.6,267.923597 362.377532,268.619274 362.1375,269.309106 L363.185443,269.67156 C363.425475,268.970036 363.659652,268.262666 363.876266,267.543605 L362.816614,267.222073 Z M265.715032,267.368224 L264.649525,267.695601 C264.871994,268.408817 265.106171,269.122033 265.352057,269.823557 L266.4,269.455257 C266.154114,268.771271 265.925791,268.069747 265.715032,267.368224 Z M361.364715,271.361063 C361.095411,272.039202 360.779272,272.711496 360.509968,273.372097 L361.522785,273.828088 C361.827215,273.149948 362.108228,272.465963 362.395095,271.770285 L361.364715,271.361063 Z M267.178639,271.51306 L266.148259,271.928128 C266.429272,272.623805 266.733703,273.307791 267.032278,273.991777 L268.045095,273.52994 C267.740665,272.863493 267.459652,272.191199 267.178639,271.51306 Z M359.567405,275.37144 C359.239557,276.020349 358.894146,276.663413 358.54288,277.30063 L359.508861,277.844311 C359.871835,277.195402 360.223101,276.5348 360.556804,275.868353 L359.567405,275.37144 Z M268.999367,275.529283 L268.009968,276.032041 C268.349525,276.698489 268.700791,277.35909 269.06962,278.008 L270.035601,277.464319 C269.678481,276.832948 269.327215,276.184038 268.999367,275.529283 Z M357.401266,279.188898 C357.014873,279.808577 356.622627,280.422411 356.23038,281.024552 L357.149525,281.644231 C357.571044,281.030398 357.975,280.404873 358.367247,279.767655 L357.401266,279.188898 Z M271.124525,279.352587 L270.181962,279.93719 C270.572257,280.572459 270.982068,281.197984 271.411392,281.813766 L272.324684,281.188241 C271.914873,280.603638 271.516772,279.972266 271.124525,279.352587 Z M354.936551,282.813437 C354.503323,283.39804 354.052532,283.982644 353.590032,284.538016 L354.450633,285.23954 C354.924842,284.654937 355.381487,284.070334 355.826424,283.485731 L354.936551,282.813437 Z M273.636076,282.97128 L272.746203,283.637728 C273.196994,284.222331 273.659494,284.806934 274.133703,285.391537 L274.988449,284.690013 C274.525949,284.10541 274.075158,283.550037 273.636076,282.965434 L273.636076,282.97128 Z M352.202532,286.204135 C351.716614,286.747816 351.218987,287.285651 350.709652,287.811794 L351.505854,288.577624 C352.026899,288.045635 352.536234,287.496108 353.028006,286.934889 L352.202532,286.204135 Z M276.41693,286.356132 L275.609019,287.063502 C276.106646,287.613029 276.615981,288.162556 277.137025,288.694544 L277.933228,287.922868 C277.423892,287.402572 276.926266,286.864737 276.434494,286.321056 L276.41693,286.356132 Z M349.169937,289.32007 C348.637184,289.822828 348.098576,290.308049 347.542405,290.787423 L348.274209,291.629252 C348.859652,291.138185 349.392405,290.635427 349.931013,290.120976 L349.169937,289.32007 Z M279.502215,289.460374 L278.741139,290.267127 C279.285601,290.775731 279.835918,291.27849 280.403797,291.763711 L281.129747,290.927728 C280.573576,290.448354 280.029114,289.963133 279.502215,289.460374 Z M345.862184,292.213855 C345.276741,292.663999 344.691297,293.108298 344.105854,293.540904 L344.761551,294.435347 C345.346994,293.996894 345.932437,293.540904 346.51788,293.079068 L345.862184,292.213855 Z M282.804114,292.32493 L282.113291,293.195988 C282.698734,293.657825 283.284177,294.107969 283.86962,294.546421 L284.519462,293.646133 C283.934019,293.219372 283.348576,292.78092 282.763133,292.32493 L282.804114,292.32493 Z M342.25,294.786109 C341.664557,295.189485 341.026424,295.581169 340.394146,295.955315 L340.979589,296.908218 C341.617722,296.52238 342.25,296.119004 342.87057,295.703935 L342.25,294.786109 Z M286.310918,294.891337 L285.725475,295.820856 C286.351899,296.230078 286.984177,296.621762 287.62231,296.990062 L288.207753,296.043005 C287.581329,295.663013 286.966614,295.277175 286.351899,294.873799 L286.310918,294.891337 Z M338.532437,297.036831 C337.888449,297.387592 337.238608,297.720816 336.582911,298.048194 L337.068829,299.042019 C337.742089,298.708795 338.409494,298.36388 339.06519,298.007272 L338.532437,297.036831 Z M290.116297,297.124521 L289.583544,298.100808 C290.239241,298.45157 290.906646,298.796486 291.574051,299.123864 L292.059968,298.124192 C291.404272,297.802661 290.75443,297.469437 290.116297,297.124521 Z M334.609968,298.971867 C333.942563,299.264168 333.263449,299.55647 332.578481,299.807849 L332.982437,300.842597 C333.679114,300.567833 334.369937,300.257994 335.054905,299.98323 L334.609968,298.971867 Z M294.073892,299.042019 L293.628956,300.053382 C294.313924,300.35153 295.004747,300.637986 295.701424,300.901057 L296.099525,299.92477 C295.414557,299.661698 294.741297,299.386935 294.073892,299.100479 L294.073892,299.042019 Z M330.511867,300.614601 C329.821044,300.848443 329.118513,301.064746 328.415981,301.269357 L328.726266,302.333335 C329.446361,302.122877 330.160601,301.900728 330.863133,301.666887 L330.511867,300.614601 Z M298.166139,300.66137 L297.814873,301.713655 C298.517405,301.953343 299.231646,302.169646 299.951741,302.380103 L300.262025,301.310279 C299.553639,301.111514 298.856962,300.895211 298.166139,300.66137 Z M326.267405,301.830576 C325.559019,302.000111 324.844778,302.157954 324.124684,302.298258 L324.341297,303.38562 C325.073101,303.245315 325.804905,303.081627 326.530854,302.906246 L326.267405,301.830576 Z M302.352057,301.865652 L302.094462,302.941322 C302.814557,303.116703 303.546361,303.274546 304.284019,303.420696 L304.494778,302.327489 C303.774684,302.19303 303.060443,302.035187 302.352057,301.865652 Z M321.964399,302.67825 C321.244304,302.789325 320.518354,302.882861 319.786551,302.964706 L319.909494,304.06376 C320.653006,303.981915 321.396519,303.888379 322.128323,303.777304 L321.964399,302.67825 Z M306.660918,302.67825 L306.496994,303.777304 C307.228797,303.882533 307.97231,303.981915 308.715823,304.057914 L308.838766,302.95886 C308.106962,302.877015 307.381013,302.789325 306.660918,302.67825 Z M317.602848,303.128395 C316.876899,303.175163 316.145095,303.210239 315.413291,303.227777 L315.413291,304.332677 C316.162658,304.332677 316.906171,304.280063 317.649684,304.233295 L317.602848,303.128395 Z M311.022468,303.128395 L310.952215,304.233295 C311.695728,304.280063 312.445095,304.309293 313.194462,304.326831 L313.194462,303.216085 C312.462658,303.216085 311.730854,303.175163 311.004905,303.128395 L311.022468,303.128395 Z" id="Shape" fill-rule="nonzero"></path>
                    <path d="M152.554747,15.5679803 L152.303006,15.5679803 L152.303006,16.6787262 L152.554747,16.6787262 C153.204589,16.6787262 153.848576,16.6787262 154.486709,16.7254944 L154.545253,15.6205946 C153.889557,15.5855184 153.222152,15.5679803 152.554747,15.5679803 Z M150.084177,15.5679803 L147.859494,15.5679803 L147.859494,16.6728802 L150.084177,16.6728802 L150.084177,15.5679803 Z M145.640665,15.5679803 L143.421835,15.5679803 L143.421835,16.6728802 L145.640665,16.6728802 L145.640665,15.5679803 Z M141.203006,15.5679803 L138.984177,15.5679803 L138.984177,16.6728802 L141.203006,16.6728802 L141.203006,15.5679803 Z M136.765348,15.5679803 L134.546519,15.5679803 L134.546519,16.6728802 L136.765348,16.6728802 L136.765348,15.5679803 Z M132.32769,15.5679803 L130.108861,15.5679803 L130.108861,16.6728802 L132.32769,16.6728802 L132.32769,15.5679803 Z M127.890032,15.5679803 L125.671203,15.5679803 L125.671203,16.6728802 L127.890032,16.6728802 L127.890032,15.5679803 Z M123.452373,15.5679803 L121.233544,15.5679803 L121.233544,16.6728802 L123.452373,16.6728802 L123.452373,15.5679803 Z M119.014715,15.5679803 L116.795886,15.5679803 L116.795886,16.6728802 L119.014715,16.6728802 L119.014715,15.5679803 Z M114.571203,15.5679803 L112.352373,15.5679803 L112.352373,16.6728802 L114.571203,16.6728802 L114.571203,15.5679803 Z M110.133544,15.5679803 L109.928639,15.5679803 C109.249525,15.5679803 108.576266,15.5679803 107.903006,15.6205946 L107.961551,16.7254944 C108.611392,16.6904182 109.267089,16.6787262 109.928639,16.6787262 L110.145253,16.6787262 L110.133544,15.5679803 Z M156.764082,15.8076676 L156.646994,16.9125674 C157.367089,16.9885658 158.098892,17.0937944 158.813133,17.210715 L158.99462,16.1175072 C158.262816,15.9947406 157.513449,15.889512 156.764082,15.8076676 Z M105.625633,15.8076676 C104.876266,15.889512 104.126899,15.9947406 103.395095,16.1175072 L103.582437,17.210715 C104.290823,17.0879484 105.022627,16.9885658 105.748576,16.9067214 L105.625633,15.8076676 Z M161.201741,16.5501135 L160.955854,17.6316292 C161.658386,17.7953181 162.366772,17.976545 163.069304,18.1811561 L163.379589,17.1230245 C162.659494,16.9067214 161.92769,16.7196484 161.201741,16.5384214 L161.201741,16.5501135 Z M101.187975,16.5384214 C100.46788,16.7079563 99.7360759,16.9008754 99.0101266,17.1230245 L99.3262658,18.1870022 C100.028797,17.9823911 100.743038,17.7953181 101.439715,17.6316292 L101.187975,16.5384214 Z M165.545728,17.8070102 L165.171044,18.8534497 C165.856013,19.098983 166.535127,19.3620544 167.202532,19.6485099 L167.635759,18.6254545 C166.950791,18.338999 166.248259,18.0408514 165.545728,17.8070102 Z M96.8966772,17.8070102 C96.1882911,18.0642355 95.4799051,18.338999 94.7949367,18.6313005 L95.234019,19.6485099 C95.8955696,19.3679004 96.580538,19.098983 97.2713608,18.8534497 L96.8966772,17.8070102 Z M169.678956,19.5608194 L169.181329,20.5546447 C169.837025,20.8761764 170.481013,21.2210922 171.107437,21.5835461 L171.657753,20.618951 C171.013766,20.2506511 170.346361,19.8940432 169.678956,19.5608194 Z M92.7517405,19.5608194 C92.0843354,19.8881972 91.4169304,20.2506511 90.7612342,20.618951 L91.3174051,21.5835461 C91.9496835,21.2210922 92.5995253,20.8703303 93.2435127,20.5487986 L92.7517405,19.5608194 Z M173.578006,21.7647731 L172.992563,22.694292 C173.578006,23.0918221 174.20443,23.5068903 174.789873,23.9394966 L175.44557,23.0450538 C174.860127,22.6066015 174.227848,22.1739952 173.601424,21.7647731 L173.578006,21.7647731 Z M88.8526899,21.8232334 C88.2262658,22.2324556 87.6056962,22.6650618 87.0026899,23.1152062 L87.6818038,23.9921109 C88.2672468,23.5595046 88.8526899,23.1385903 89.4732595,22.7410602 L88.8526899,21.8232334 Z M177.201899,24.4656394 L176.487658,25.3133138 C177.043829,25.7751503 177.594146,26.2662169 178.126899,26.7631295 L178.887975,25.9505312 C178.337658,25.4419265 177.769778,24.9391679 177.201899,24.4656394 Z M85.2346519,24.5007155 C84.6492089,24.9800901 84.093038,25.4828487 83.5485759,25.9914534 L84.3096519,26.8040517 C84.8365506,26.3071391 85.3868671,25.8160725 85.943038,25.3542361 L85.2346519,24.5007155 Z M180.48038,27.5348056 L179.678323,28.3006356 C180.175949,28.8209324 180.667722,29.3646133 181.14193,29.9258322 L181.984968,29.2067704 C181.499051,28.6221673 180.99557,28.0726404 180.48038,27.5348056 Z M81.9561709,27.5815738 C81.440981,28.1252547 80.9316456,28.6864737 80.4574367,29.2535387 L81.3004747,29.9667544 C81.7688291,29.4172275 82.2606013,28.8677006 82.7582278,28.3415579 L81.9561709,27.5815738 Z M183.390032,30.9664257 L182.523576,31.6328733 C182.962658,32.2174763 183.384177,32.8020794 183.788133,33.4159127 L184.713133,32.8020794 C184.297468,32.1824002 183.864241,31.5627209 183.413449,30.9664257 L183.390032,30.9664257 Z M79.046519,31.0073479 C78.6015823,31.591951 78.1683544,32.2233224 77.7526899,32.8430017 L78.6835443,33.4276047 C79.0816456,32.8430017 79.5031646,32.2174763 79.9363924,31.6737955 L79.046519,31.0073479 Z M185.87231,34.7078855 L184.912184,35.2924886 C185.275158,35.9180139 185.626424,36.5610773 185.954272,37.2099867 L186.949525,36.7072281 C186.609968,36.0407806 186.246994,35.374333 185.87231,34.7312696 L185.87231,34.7078855 Z M76.5700949,34.7780379 C76.1954114,35.4211013 75.8382911,36.0875488 75.4987342,36.7481503 L76.4881329,37.250909 C76.815981,36.6019995 77.1672468,35.9589361 77.5302215,35.3334108 L76.5700949,34.7780379 Z M187.903797,38.7474929 L186.890981,39.1859452 C187.177848,39.8523927 187.476424,40.5363783 187.698892,41.2203639 L188.740981,40.8345259 C188.489241,40.1388482 188.202373,39.4314785 187.903797,38.7474929 Z M74.544462,38.7825691 C74.2517405,39.4665547 73.959019,40.1680784 73.7131329,40.8696021 L74.7552215,41.2495941 C75.006962,40.5656085 75.2762658,39.8874689 75.5631329,39.2210214 L74.544462,38.7825691 Z M189.455222,42.9741732 L188.378006,43.2840129 C188.588766,43.9738445 188.781962,44.6870603 188.963449,45.388584 L190.040665,45.1313586 C189.870886,44.4064508 189.67769,43.681543 189.455222,42.9624812 L189.455222,42.9741732 Z M73.0047468,42.9624812 C72.7881329,43.681543 72.5949367,44.4122968 72.4193038,45.1372047 L73.496519,45.388584 C73.6662975,44.6870603 73.8536392,43.9796905 74.081962,43.2840129 L73.0047468,42.9624812 Z M190.491456,47.3060821 L189.396677,47.5048472 C189.525475,48.2180629 189.630854,48.9429708 189.712816,49.6620326 L190.819304,49.5334199 C190.731487,48.79682 190.626108,48.048528 190.491456,47.3060821 Z M71.9685127,47.3762345 C71.8455696,48.1128344 71.7343354,48.8611263 71.646519,49.6035723 L72.7530063,49.7263389 C72.8349684,49.0072771 72.9403481,48.2823693 73.0632911,47.5691535 L71.9685127,47.3762345 Z M191.0125,51.813372 L189.906013,51.8776783 C189.946994,52.6025861 189.964557,53.33334 189.964557,54.0582478 L191.076899,54.0582478 C191.076899,53.3158019 191.076899,52.5558179 191.0125,51.813372 Z M71.4533228,51.813372 C71.4123418,52.5499719 71.3889241,53.2982638 71.3947785,54.0290177 L72.5012658,54.0582478 C72.5012658,53.3158019 72.5012658,52.5908941 72.5598101,51.8718323 L71.4533228,51.813372 Z M72.5656646,56.2388174 L71.4591772,56.3031237 C71.5001582,57.0455696 71.564557,57.7997076 71.6523734,58.5421535 L72.7530063,58.4135409 C72.6710443,57.6944791 72.6066456,56.9637252 72.5656646,56.2388174 Z M73.075,60.5707263 L71.9802215,60.7636453 C72.109019,61.4943991 72.2612342,62.2368451 72.4368671,62.9675989 L73.5140823,62.7103736 C73.3501582,62.0030038 73.197943,61.283942 73.075,60.5707263 Z M74.081962,64.8149447 L73.0223101,65.1364764 C73.2389241,65.8555382 73.4789557,66.568754 73.7365506,67.2702777 L74.7786392,66.8902857 C74.5268987,66.2121461 74.2927215,65.5106224 74.081962,64.8149447 Z M75.5924051,68.9071663 L74.5737342,69.3514647 C74.8723101,70.0412963 75.1943038,70.7252819 75.5338608,71.3858834 L76.5232595,70.8831248 C76.1954114,70.2400614 75.8851266,69.5736139 75.5924051,68.9071663 Z M77.5712025,72.806469 L76.6110759,73.3618419 C76.9857595,74.0049053 77.3838608,74.6479687 77.781962,75.273494 L78.706962,74.6596608 C78.3030063,74.0750577 77.9166139,73.4319943 77.5360759,72.806469 L77.5712025,72.806469 Z M79.9539557,76.4427002 L79.0640823,77.1091477 C79.5207278,77.6937508 79.9890823,78.2783539 80.4691456,78.862957 L81.318038,78.1497412 C80.8496835,77.6002143 80.393038,77.0273033 79.9539557,76.4427002 Z M82.7757911,79.7749378 L81.9737342,80.5349218 C82.4830696,81.0727567 83.0216772,81.6047455 83.5719937,82.1191962 L84.3272152,81.3124439 C83.794462,80.8155313 83.2734177,80.2952345 82.7757911,79.7749378 Z M85.9664557,82.7564136 L85.2931962,83.6216261 C85.8786392,84.1010007 86.4640823,84.5686831 87.0495253,85.0071355 L87.7052215,84.1185388 C87.1197785,83.6917785 86.5343354,83.2416341 85.984019,82.7739517 L85.9664557,82.7564136 Z M89.4966772,85.3637433 L88.9112342,86.2874162 C89.5376582,86.6966384 90.1816456,87.0941685 90.8314873,87.4566224 L91.3818038,86.4920273 C90.7553797,86.1354194 90.1289557,85.7495814 89.5200949,85.3578973 L89.4966772,85.3637433 Z M93.3079114,87.5150827 L92.8161392,88.508908 C93.4835443,88.8421317 94.1743671,89.1578174 94.8593354,89.450119 L95.2925633,88.4270635 C94.6251582,88.1464541 93.9577532,87.8424605 93.3079114,87.5150827 Z M97.3240506,89.2221237 L96.9493671,90.2627173 C97.6577532,90.5140966 98.3778481,90.7537838 99.0920886,90.9583949 L99.4023734,89.8944173 C98.7115506,89.6956523 98.009019,89.467657 97.3240506,89.2221237 Z M101.515823,90.4439442 L101.269937,91.5254599 C102.001741,91.6891488 102.745253,91.8411456 103.477057,91.9639122 L103.658544,90.8707045 C102.950158,90.7537838 102.230063,90.6076331 101.515823,90.4439442 Z M105.824684,91.168852 L105.707595,92.2679059 C106.445253,92.3497503 107.200475,92.4140566 107.949842,92.4491328 L108.002532,91.344233 C107.276582,91.3033108 106.544778,91.2506965 105.824684,91.168852 Z M183.425158,91.3910012 L181.206329,91.3910012 L181.206329,92.4959011 L183.425158,92.4959011 L183.425158,91.3910012 Z M178.9875,91.3910012 L176.768671,91.3910012 L176.768671,92.4959011 L179.010918,92.4959011 L178.9875,91.3910012 Z M174.549842,91.3910012 L172.331013,91.3910012 L172.331013,92.4959011 L174.549842,92.4959011 L174.549842,91.3910012 Z M170.112184,91.3910012 L167.8875,91.3910012 L167.8875,92.4959011 L170.106329,92.4959011 L170.112184,91.3910012 Z M165.674525,91.3910012 L163.449842,91.3910012 L163.449842,92.4959011 L165.674525,92.4959011 L165.674525,91.3910012 Z M161.231013,91.3910012 L159.012184,91.3910012 L159.012184,92.4959011 L161.231013,92.4959011 L161.231013,91.3910012 Z M156.793354,91.3910012 L154.574525,91.3910012 L154.574525,92.4959011 L156.793354,92.4959011 L156.793354,91.3910012 Z M152.355696,91.3910012 L150.136867,91.3910012 L150.136867,92.4959011 L152.355696,92.4959011 L152.355696,91.3910012 Z M147.918038,91.3910012 L145.699209,91.3910012 L145.699209,92.4959011 L147.918038,92.4959011 L147.918038,91.3910012 Z M143.48038,91.3910012 L141.261551,91.3910012 L141.261551,92.4959011 L143.48038,92.4959011 L143.48038,91.3910012 Z M139.042722,91.3910012 L136.823892,91.3910012 L136.823892,92.4959011 L139.042722,92.4959011 L139.042722,91.3910012 Z M134.605063,91.3910012 L132.386234,91.3910012 L132.386234,92.4959011 L134.605063,92.4959011 L134.605063,91.3910012 Z M130.167405,91.3910012 L127.948576,91.3910012 L127.948576,92.4959011 L130.167405,92.4959011 L130.167405,91.3910012 Z M125.729747,91.3910012 L123.510918,91.3910012 L123.510918,92.4959011 L125.735601,92.4959011 L125.729747,91.3910012 Z M121.292089,91.3910012 L119.067405,91.3910012 L119.067405,92.4959011 L121.292089,92.4959011 L121.292089,91.3910012 Z M116.85443,91.3910012 L114.612184,91.3910012 L114.612184,92.4959011 L116.836867,92.4959011 L116.85443,91.3910012 Z M112.410918,91.3910012 L110.192089,91.3910012 L110.192089,92.4959011 L112.410918,92.4959011 L112.410918,91.3910012 Z M185.649842,91.3910012 L185.649842,92.5017471 L187.868671,92.5017471 L187.868671,91.3968472 L185.643987,91.3968472 L185.649842,91.3910012 Z M190.099209,91.4553076 L190.069937,92.5660534 L190.491456,92.5660534 L190.538291,91.4611536 L190.099209,91.4553076 Z" id="Shape" fill-rule="nonzero"></path>
                    <path d="M191.076899,54.0348637 L189.964557,54.0348637 L189.964557,186.628691 C189.964557,219.88403 162.967044,246.842809 129.663924,246.842809 C96.3608041,246.842809 69.3632911,219.88403 69.3632911,186.628691 L68.2568038,186.628691 C68.2568038,220.494249 95.749708,247.947709 129.663924,247.947709 C163.57814,247.947709 191.071044,220.494249 191.071044,186.628691 L191.076899,54.0348637 Z" id="Path" fill-rule="evenodd"></path>
                    <path d="M35.2143987,117.63968 C34.4533228,117.63968 33.6981013,117.674756 32.960443,117.733216 L33.0424051,118.838116 C33.7566456,118.785502 34.4884494,118.750426 35.2261076,118.74458 L35.2143987,117.63968 Z M37.4742089,117.686448 L37.4098101,118.791348 C38.1299051,118.83227 38.8617089,118.902423 39.5876582,118.990113 L39.7223101,117.891059 C38.972943,117.797523 38.2177215,117.733216 37.4742089,117.686448 Z M30.7123418,117.97875 C29.9746835,118.078132 29.2311709,118.212591 28.4876582,118.370434 L28.715981,119.457796 C29.4360759,119.299953 30.1561709,119.177186 30.8704114,119.071958 L30.7123418,117.97875 Z M41.9528481,118.235975 L41.7420886,119.329183 C42.4504747,119.463642 43.1705696,119.627331 43.8731013,119.808557 L44.1541139,118.738734 C43.4281646,118.545815 42.6846519,118.382126 41.9528481,118.235975 Z M26.2922468,118.914115 C25.5721519,119.118726 24.852057,119.346721 24.1436709,119.603946 L24.5183544,120.64454 C25.2033228,120.399007 25.9,120.176857 26.5966772,119.978092 L26.2922468,118.914115 Z M46.3202532,119.381797 L45.9689873,120.434083 C46.6539557,120.667924 47.3447785,120.925149 48.018038,121.199913 L48.439557,120.176857 C47.7428797,119.890402 47.0344937,119.621484 46.3202532,119.381797 Z M22.0477848,120.451621 C21.356962,120.755614 20.6719937,121.077146 20.010443,121.422062 L20.5197785,122.404195 C21.1579114,122.076817 21.8253165,121.761132 22.4868671,121.46883 L22.0477848,120.451621 Z M50.5003165,121.12976 L50.0085443,122.123586 C50.6583861,122.445117 51.3082278,122.790033 51.9346519,123.158333 L52.4908228,122.199584 C51.840981,121.819592 51.1677215,121.462984 50.5003165,121.12976 Z M18.0140823,122.503578 C17.3700949,122.895262 16.731962,123.31033 16.1231013,123.73709 L16.7612342,124.643225 C17.3466772,124.228157 17.9672468,123.830627 18.5936709,123.474019 L18.0140823,122.503578 Z M54.4110759,123.374636 L53.7905063,124.298309 C54.3759494,124.701685 54.9613924,125.134292 55.5468354,125.572744 L56.2259494,124.701685 C55.6405063,124.239849 55.0199367,123.795551 54.3935127,123.374636 L54.4110759,123.374636 Z M14.3257911,125.093369 C13.7403481,125.566898 13.1549051,126.057965 12.6162975,126.566569 L13.3656646,127.385014 C13.8984177,126.888101 14.460443,126.408726 15.0224684,125.958582 L14.3257911,125.093369 Z M57.9647152,126.139809 L57.2387658,126.964099 C57.7832278,127.443474 58.315981,127.952079 58.8253165,128.466529 L59.6156646,127.689007 C59.0887658,127.157018 58.5384494,126.630876 57.9764241,126.133963 L57.9647152,126.139809 Z M11.018038,128.139152 C10.5028481,128.682832 9.99936709,129.249897 9.51344937,129.828654 L10.3681962,130.536024 C10.8365506,129.980651 11.3224684,129.431124 11.8200949,128.904982 L11.018038,128.139152 Z M61.1495253,129.343434 L60.3064873,130.068342 C60.7806962,130.617869 61.2431962,131.19078 61.6822785,131.763691 L62.5662975,131.097243 C62.1155063,130.51264 61.635443,129.928037 61.1495253,129.343434 Z M8.12594937,131.611694 C7.68686709,132.196297 7.25949367,132.851052 6.86724684,133.482424 L7.8039557,134.067027 C8.1903481,133.453194 8.60015823,132.845206 9.02753165,132.254757 L8.12594937,131.611694 Z M63.865981,132.944589 L62.9351266,133.529192 C63.3332278,134.113795 63.7137658,134.762705 64.0708861,135.394076 L65.0368671,134.850395 C64.668038,134.19564 64.2699367,133.54673 63.865981,132.927051 L63.865981,132.944589 Z M5.71977848,135.434998 C5.36851266,136.0956 5.0289557,136.773739 4.71867089,137.457725 L5.72563291,137.913715 C6.03006329,137.25896 6.35205696,136.598358 6.69746835,135.955295 L5.71977848,135.434998 Z M66.0731013,136.867276 L65.0719937,137.34665 C65.3822785,138.001406 65.6574367,138.673699 65.9443038,139.345993 L66.9746835,138.930925 C66.6995253,138.241093 66.3892405,137.545415 66.0731013,136.867276 Z M3.85221519,139.544758 C3.58876582,140.246282 3.34287975,140.965343 3.13212025,141.684405 L4.19177215,142.005937 C4.40253165,141.310259 4.63670886,140.614581 4.8943038,139.936442 L3.85221519,139.544758 Z M67.7767405,141.05888 L66.7170886,141.39795 C66.939557,142.087781 67.144462,142.795151 67.3025316,143.490829 L68.3621835,143.251141 C68.1806962,142.526234 67.9757911,141.79548 67.7767405,141.082264 L67.7767405,141.05888 Z M2.58765823,143.888359 C2.41787975,144.619113 2.27737342,145.361559 2.16028481,146.104005 L3.25506329,146.279385 C3.36629747,145.560324 3.5068038,144.841262 3.67072785,144.133892 L2.58765823,143.888359 Z M68.8656646,145.455095 L67.7708861,145.65386 C67.8996835,146.36123 68.0050633,147.086138 68.0870253,147.811046 L69.1876582,147.688279 C69.1056962,146.939987 68.994462,146.185849 68.8656646,145.455095 Z M1.85585443,148.31965 C1.7914557,149.062096 1.74462025,149.82208 1.72705696,150.570372 L2.83939873,150.599602 C2.83939873,149.874694 2.89794304,149.138095 2.96234177,148.419033 L1.85585443,148.31965 Z M69.3398734,149.915617 L68.2275316,149.962385 C68.2275316,150.441759 68.2626582,150.92698 68.2626582,151.412201 L68.2626582,152.154646 L69.3691456,152.154646 L69.3691456,151.435585 C69.3691456,150.932826 69.3691456,150.435913 69.3398734,149.939001 L69.3398734,149.915617 Z M2.82768987,152.82694 L1.7153481,152.82694 L1.7153481,155.048432 L2.82768987,155.048432 L2.82768987,152.82694 Z M69.3691456,154.3586 L68.2626582,154.3586 L68.2626582,156.580092 L69.3691456,156.580092 L69.3691456,154.3586 Z M2.82768987,157.229001 L1.7153481,157.229001 L1.7153481,159.444647 L2.82768987,159.444647 L2.82768987,157.229001 Z M69.3691456,158.795738 L68.2626582,158.795738 L68.2626582,161.017229 L69.3691456,161.017229 L69.3691456,158.795738 Z M2.82768987,161.666139 L1.7153481,161.666139 L1.7153481,163.887631 L2.82768987,163.887631 L2.82768987,161.666139 Z M69.3691456,163.238721 L68.2626582,163.238721 L68.2626582,165.466059 L69.3691456,165.466059 L69.3691456,163.238721 Z M2.82768987,166.103276 L1.7153481,166.103276 L1.7153481,168.324768 L2.82768987,168.324768 L2.82768987,166.103276 Z M69.3691456,167.675859 L68.2626582,167.675859 L68.2626582,169.89735 L69.3691456,169.89735 L69.3691456,167.675859 Z M2.82768987,170.54626 L1.7153481,170.54626 L1.7153481,172.767751 L2.82768987,172.767751 L2.82768987,170.54626 Z M69.3691456,172.118842 L68.2626582,172.118842 L68.2626582,174.334488 L69.3691456,174.334488 L69.3691456,172.118842 Z M2.82768987,174.983397 L1.7153481,174.983397 L1.7153481,177.204889 L2.82768987,177.204889 L2.82768987,174.983397 Z M69.3691456,176.573518 L68.2626582,176.573518 L68.2626582,178.795009 L69.3691456,178.795009 L69.3691456,176.573518 Z M2.82768987,179.443919 L1.7153481,179.443919 L1.7153481,181.659564 L2.82768987,181.659564 L2.82768987,179.443919 Z M69.3691456,181.016501 L68.2626582,181.016501 L68.2626582,183.232147 L69.3691456,183.232147 L69.3691456,181.016501 Z M2.82768987,183.881056 L1.7153481,183.881056 L1.7153481,186.102548 L2.82768987,186.102548 L2.82768987,183.881056 Z M2.82768987,188.318194 L1.7153481,188.318194 L1.7153481,190.539685 L2.82768987,190.539685 L2.82768987,188.318194 Z M2.82768987,192.761177 L1.7153481,192.761177 L1.7153481,194.982669 L2.82768987,194.982669 L2.82768987,192.761177 Z M2.82768987,197.198315 L1.7153481,197.198315 L1.7153481,199.419806 L2.82768987,199.419806 L2.82768987,197.198315 Z M2.82768987,201.641298 L1.7153481,201.641298 L1.7153481,203.86279 L2.82768987,203.86279 L2.82768987,201.641298 Z M2.82768987,206.078436 L1.7153481,206.078436 L1.7153481,208.299927 L2.82768987,208.299927 L2.82768987,206.078436 Z M2.82768987,210.521419 L1.7153481,210.521419 L1.7153481,212.742911 L2.82768987,212.742911 L2.82768987,210.521419 Z M2.82768987,214.958557 L1.7153481,214.958557 L1.7153481,217.180048 L2.82768987,217.180048 L2.82768987,214.958557 Z M2.82768987,219.40154 L1.7153481,219.40154 L1.7153481,221.617186 L2.82768987,221.617186 L2.82768987,219.40154 Z M2.82768987,223.838678 L1.7153481,223.838678 L1.7153481,226.060169 L2.82768987,226.060169 L2.82768987,223.838678 Z M2.82768987,228.281661 L1.7153481,228.281661 L1.7153481,230.497307 L2.82768987,230.497307 L2.82768987,228.281661 Z M2.82768987,232.718798 L1.7153481,232.718798 L1.7153481,234.94029 L2.82768987,234.94029 L2.82768987,232.718798 Z M2.82768987,237.161782 L1.7153481,237.161782 L1.7153481,239.377428 L2.82768987,239.377428 L2.82768987,237.161782 Z M2.82768987,241.598919 L1.7153481,241.598919 L1.7153481,243.802873 L2.82768987,243.802873 L2.82768987,241.598919 Z M2.82768987,246.036057 L1.7153481,246.036057 L1.7153481,248.257549 L2.82768987,248.257549 L2.82768987,246.036057 Z M2.82768987,250.47904 L1.7153481,250.47904 L1.7153481,252.694686 L2.82768987,252.694686 L2.82768987,250.47904 Z M2.82768987,254.916178 L1.7153481,254.916178 L1.7153481,257.13767 L2.82768987,257.13767 L2.82768987,254.916178 Z M2.82768987,259.359161 L1.7153481,259.359161 L1.7153481,261.574807 L2.82768987,261.574807 L2.82768987,259.359161 Z M2.82768987,263.796299 L1.7153481,263.796299 L1.7153481,266.017791 L2.82768987,266.017791 L2.82768987,263.796299 Z M2.82768987,268.239282 L1.7153481,268.239282 L1.7153481,270.454928 L2.82768987,270.454928 L2.82768987,268.239282 Z M2.82768987,272.67642 L1.7153481,272.67642 L1.7153481,274.897911 L2.82768987,274.897911 L2.82768987,272.67642 Z M2.82768987,277.113557 L1.7153481,277.113557 L1.7153481,279.335049 L2.82768987,279.335049 L2.82768987,277.113557 Z M2.82768987,281.556541 L1.7153481,281.556541 L1.7153481,283.778032 L2.82768987,283.778032 L2.82768987,281.556541 Z M2.82768987,285.993678 L1.7153481,285.993678 L1.7153481,288.232708 L2.82768987,288.232708 L2.82768987,285.993678 Z M2.82768987,290.436662 L1.7153481,290.436662 L1.7153481,292.658153 L2.82768987,292.658153 L2.82768987,290.436662 Z" id="Shape" fill-rule="nonzero"></path>
                    <rect id="Rectangle" fill-rule="evenodd" x="68.2626582" y="185.517945" width="1.10648734" height="1.11074587"></rect>
                    <path d="M204.542089,153.446619 L203.435601,153.446619 L203.435601,155.662265 L204.542089,155.662265 L204.542089,153.446619 Z M204.542089,157.877911 L203.435601,157.877911 L203.435601,160.093556 L204.542089,160.093556 L204.542089,157.877911 Z M204.542089,162.309202 L203.435601,162.309202 L203.435601,164.524848 L204.542089,164.524848 L204.542089,162.309202 Z M204.542089,166.740494 L203.435601,166.740494 L203.435601,168.973677 L204.542089,168.973677 L204.542089,166.740494 Z M204.542089,171.171785 L203.435601,171.171785 L203.435601,173.393277 L204.542089,173.393277 L204.542089,171.171785 Z M204.542089,175.608923 L203.435601,175.608923 L203.435601,177.818722 L204.542089,177.818722 L204.542089,175.608923 Z M204.542089,180.040214 L203.435601,180.040214 L203.435601,182.25586 L204.542089,182.25586 L204.542089,180.040214 Z M204.542089,184.471505 L203.435601,184.471505 L203.435601,186.687151 L204.542089,186.687151 L204.542089,184.471505 Z M204.542089,188.902797 L203.435601,188.902797 L203.435601,191.118443 L204.542089,191.118443 L204.542089,188.902797 Z M204.542089,193.334088 L203.435601,193.334088 L203.435601,195.549734 L204.542089,195.549734 L204.542089,193.334088 Z M204.542089,197.76538 L203.435601,197.76538 L203.435601,199.957641 L204.542089,199.957641 L204.542089,197.76538 Z M204.542089,202.196671 L203.435601,202.196671 L203.435601,204.412317 L204.542089,204.412317 L204.542089,202.196671 Z M204.542089,206.627963 L203.435601,206.627963 L203.435601,208.843608 L204.542089,208.843608 L204.542089,206.627963 Z M204.542089,211.059254 L203.435601,211.059254 L203.435601,213.2749 L204.542089,213.2749 L204.542089,211.059254 Z M204.542089,215.496391 L203.435601,215.496391 L203.435601,217.712037 L204.542089,217.712037 L204.542089,215.496391 Z M204.542089,219.921837 L203.435601,219.921837 L203.435601,222.172559 L204.542089,222.172559 L204.542089,219.921837 Z M204.542089,224.358974 L203.435601,224.358974 L203.435601,226.57462 L204.542089,226.57462 L204.542089,224.358974 Z M204.542089,228.790266 L203.435601,228.790266 L203.435601,231.005911 L204.542089,231.005911 L204.542089,228.790266 Z M204.542089,233.221557 L203.435601,233.221557 L203.435601,235.437203 L204.542089,235.437203 L204.542089,233.221557 Z M204.542089,237.652849 L203.435601,237.652849 L203.435601,239.868494 L204.542089,239.868494 L204.542089,237.652849 Z M204.542089,242.08414 L203.435601,242.08414 L203.435601,244.299786 L204.542089,244.299786 L204.542089,242.08414 Z M204.542089,246.515431 L203.435601,246.515431 L203.435601,248.731077 L204.542089,248.731077 L204.542089,246.515431 Z M204.542089,250.946723 L203.435601,250.946723 L203.435601,253.156523 L204.542089,253.156523 L204.542089,250.946723 Z M204.542089,255.378014 L203.435601,255.378014 L203.435601,257.59366 L204.542089,257.59366 L204.542089,255.378014 Z M204.542089,259.815152 L203.435601,259.815152 L203.435601,262.030797 L204.542089,262.030797 L204.542089,259.815152 Z M204.542089,264.246443 L203.435601,264.246443 L203.435601,266.462089 L204.542089,266.462089 L204.542089,264.246443 Z M204.542089,268.677735 L203.435601,268.677735 L203.435601,270.89338 L204.542089,270.89338 L204.542089,268.677735 Z M204.542089,273.109026 L203.435601,273.109026 L203.435601,275.324672 L204.542089,275.324672 L204.542089,273.109026 Z M204.542089,277.540317 L203.435601,277.540317 L203.435601,279.755963 L204.542089,279.755963 L204.542089,277.540317 Z M204.542089,281.971609 L203.435601,281.971609 L203.435601,284.187255 L204.542089,284.187255 L204.542089,281.971609 Z M204.542089,286.4029 L203.435601,286.4029 L203.435601,288.618546 L204.542089,288.618546 L204.542089,286.4029 Z M204.542089,290.834192 L203.435601,290.834192 L203.435601,293.049837 L204.542089,293.049837 L204.542089,290.834192 Z M204.542089,295.265483 L203.435601,295.265483 L203.435601,297.481129 L204.542089,297.481129 L204.542089,295.265483 Z M204.542089,299.696775 L203.435601,299.696775 L203.435601,301.91242 L204.542089,301.91242 L204.542089,299.696775 Z M204.542089,304.128066 L203.435601,304.128066 L203.435601,306.355404 L204.542089,306.355404 L204.542089,304.128066 Z M204.542089,308.559357 L203.435601,308.559357 L203.435601,310.780849 L204.542089,310.780849 L204.542089,308.559357 Z M204.542089,312.996495 L203.435601,312.996495 L203.435601,315.212141 L204.542089,315.212141 L204.542089,312.996495 Z M204.542089,317.427786 L203.435601,317.427786 L203.435601,319.643432 L204.542089,319.643432 L204.542089,317.427786 Z M204.542089,321.859078 L203.435601,321.859078 L203.435601,324.074723 L204.542089,324.074723 L204.542089,321.859078 Z M204.542089,326.290369 L203.435601,326.290369 L203.435601,328.506015 L204.542089,328.506015 L204.542089,326.290369 Z M204.542089,330.721661 L203.435601,330.721661 L203.435601,332.937306 L204.542089,332.937306 L204.542089,330.721661 Z M204.542089,335.152952 L203.435601,335.152952 L203.435601,337.368598 L204.542089,337.368598 L204.542089,335.152952 Z M204.542089,339.584244 L203.435601,339.584244 L203.435601,341.799889 L204.542089,341.799889 L204.542089,339.584244 Z M204.542089,344.015535 L203.435601,344.015535 L203.435601,346.231181 L204.542089,346.231181 L204.542089,344.015535 Z M204.542089,348.452672 L203.435601,348.452672 L203.435601,350.668318 L204.542089,350.668318 L204.542089,348.452672 Z M204.542089,352.883964 L203.435601,352.883964 L203.435601,355.09961 L204.542089,355.09961 L204.542089,352.883964 Z M204.542089,357.315255 L203.435601,357.315255 L203.435601,359.554285 L204.542089,359.554285 L204.542089,357.315255 Z M204.542089,361.746547 L203.435601,361.746547 L203.435601,363.962192 L204.542089,363.962192 L204.542089,361.746547 Z M204.542089,366.177838 L203.435601,366.177838 L203.435601,368.393484 L204.542089,368.393484 L204.542089,366.177838 Z" id="Shape" fill-rule="nonzero"></path>
                    <path d="M242.35,0.455990411 C230.656833,0.459208806 221.175737,9.91885455 221.162816,21.5952382 L221.162816,82.3062692 L222.269304,82.3062692 L222.269304,21.5952382 C222.14547,14.3571365 225.941609,7.61530458 232.19917,3.96008635 C238.45673,0.304868112 246.202289,0.304868112 252.459849,3.96008635 C258.71741,7.61530458 262.513549,14.3571365 262.389715,21.5952382 L262.389715,112.267178 C262.380037,123.325555 253.406699,132.288634 242.332437,132.301526 L224.605222,132.301526 C212.918913,132.314413 203.448507,141.771231 203.435601,153.440773 L204.542089,153.440773 C204.554993,142.38145 213.530009,133.419311 224.605222,133.406425 L242.35,133.406425 C254.036308,133.393538 263.506714,123.936719 263.51962,112.267178 L263.51962,21.5952382 C263.506714,9.92569632 254.036308,0.468877824 242.35,0.455990411" id="Path" fill-rule="evenodd"></path>
                    <path d="M311.520095,161.818136 C311.522464,160.004035 310.429928,158.367247 308.752189,157.671381 C307.07445,156.975515 305.142112,157.357695 303.856667,158.639622 C302.571222,159.921549 302.185973,161.850614 302.880649,163.526853 C303.575325,165.203092 305.213038,166.296194 307.029747,166.296195 C308.220123,166.297747 309.362276,165.826638 310.204548,164.986671 C311.04682,164.146703 311.520096,163.006804 311.520095,161.818136" id="Path" fill-rule="evenodd"></path>
                    <path d="M266.376582,169.669355 C266.376582,167.841926 264.89303,166.360502 263.062975,166.360502 C261.23292,166.360502 259.749367,167.841926 259.749367,169.669355 C259.749367,171.496784 261.23292,172.978209 263.062975,172.978209 C264.89303,172.978209 266.376582,171.496784 266.376582,169.669355" id="Path" fill-rule="evenodd"></path>
                    <path d="M225.126266,82.3062692 C225.126266,80.4788399 223.642713,78.9974157 221.812658,78.9974157 C219.982603,78.9974157 218.499051,80.4788399 218.499051,82.3062692 C218.499051,84.1336985 219.982603,85.6151227 221.812658,85.6151227 C222.691958,85.6166781 223.535693,85.2685673 224.157453,84.6476994 C224.779212,84.0268315 225.127823,83.1843076 225.126266,82.3062692" id="Path" fill-rule="evenodd"></path>
                    <path d="M208.28307,156.445633 C208.28307,154.079015 206.36179,152.160493 203.991772,152.160493 C201.621754,152.160493 199.700475,154.079015 199.700475,156.445633 C199.700475,158.812251 201.621754,160.730774 203.991772,160.730774 C206.36179,160.730774 208.28307,158.812251 208.28307,156.445633" id="Path" fill-rule="evenodd"></path>
                    <path d="M195.760443,91.8060694 C195.772279,89.6727468 194.49289,87.7434471 192.521368,86.9215907 C190.549845,86.0997343 188.276477,86.5480187 186.7658,88.0565287 C185.255122,89.5650387 184.806194,91.8351446 185.629231,93.8038389 C186.452268,95.7725331 188.38434,97.0500863 190.520728,97.0382671 C193.414543,97.0382671 195.760443,94.6957324 195.760443,91.8060694" id="Path" fill-rule="evenodd"></path>
                    <path d="M194.718354,50.883853 C194.718354,48.568894 192.839013,46.6922489 190.520728,46.6922489 C188.202443,46.6922489 186.323101,48.568894 186.323101,50.883853 C186.323101,53.1988121 188.202443,55.0754572 190.520728,55.0754572 C192.839013,55.0754572 194.718354,53.1988121 194.718354,50.883853" id="Path" fill-rule="evenodd"></path>
                    <path d="M73.1042722,184.535812 C73.1042722,182.169194 71.1829928,180.250671 68.8129747,180.250671 C66.4429565,180.250671 64.5216772,182.169194 64.5216772,184.535812 C64.5216772,186.90243 66.4429565,188.820952 68.8129747,188.820952 C71.1829928,188.820952 73.1042722,186.90243 73.1042722,184.535812" id="Path" fill-rule="evenodd"></path>
                </g>
            </g>
        </g>
    </g>
</svg>