<?xml version="1.0" encoding="UTF-8"?>
<svg width="16px" height="16px" viewBox="0 0 16 16" version="1.1" xmlns="http://www.w3.org/2000/svg" xmlns:xlink="http://www.w3.org/1999/xlink">
    <!-- Generator: Sketch 48.2 (47327) - http://www.bohemiancoding.com/sketch -->
    <title>Artboard</title>
    <desc>Created with Sketch.</desc>
    <defs></defs>
    <g id="Page-1" stroke="none" stroke-width="1" fill="none" fill-rule="evenodd">
        <g id="Artboard" fill="#5A5A5A" fill-rule="nonzero">
            <g id="LUIicons_stream">
                <path d="M7.4,7.3 C9.1,6 11,5.6 13.2,6.1 C14.8,6.5 16,7.3 16,7.3 L14.9,8.8 C14.7,8.7 14.5,8.6 14.3,8.5 C13.9,8.3 13.4,8.1 12.7,8 C11.1,7.6 9.7,7.9 8.5,8.8 C7.4,9.6 6,10.1 4.5,10.1 C3.9,10.1 3.3,10 2.7,9.9 C1.1,9.5 0,8.8 0,8.7 L1.1,7.2 C1.1,7.2 2,7.8 3.3,8.1 C4.8,8.5 6.2,8.2 7.4,7.3 Z M13.3,11 C14.9,11.4 16,12.1 16,12.1 L14.9,13.6 C14.9,13.6 14,13 12.7,12.7 C11.1,12.3 9.7,12.6 8.5,13.5 C7.4,14.5 6,15 4.5,15 C3.9,15 3.3,14.9 2.7,14.8 C1.2,14.4 0,13.7 0,13.7 L1.1,12.2 C1.3,12.3 1.5,12.4 1.7,12.5 C2.1,12.7 2.6,12.9 3.3,13 C4.9,13.4 6.3,13.1 7.5,12.2 C9.1,11 11.1,10.5 13.3,11 Z M2.7,5 C1.1,4.6 0,3.8 0,3.8 L1.1,2.3 C1.3,2.4 1.5,2.5 1.7,2.6 C2.1,2.8 2.6,3 3.3,3.1 C4.9,3.5 6.3,3.2 7.5,2.3 C9.2,1 11.1,0.6 13.3,1.1 C14.9,1.6 16,2.3 16,2.4 L14.9,3.9 C14.7,3.8 14.5,3.7 14.3,3.6 C13.9,3.4 13.4,3.2 12.7,3 C11.1,2.6 9.7,2.9 8.5,3.8 C7.4,4.7 6,5.2 4.5,5.2 C3.9,5.2 3.4,5.1 2.7,5 Z" id="Shape"></path>
            </g>
        </g>
    </g>
</svg>