<svg xmlns="http://www.w3.org/2000/svg" xmlns:xlink="http://www.w3.org/1999/xlink" width="105" height="88" viewBox="0 0 105 88">
  <defs>
    <polygon id="add_data-a" points="0 88 105 88 105 0 0 0"/>
  </defs>
  <g fill="none" fill-rule="evenodd">
    <polygon fill="#000" points="84.583 31.274 27.546 31.274 14.583 41.627 97.546 41.627" opacity=".654"/>
    <path fill="#FFF" d="M80.8026852,74.0174471 C81.0178704,76.3869765 79.2678704,78.4815059 76.8943519,78.6963294 L34.3187963,82.5456824 C31.9459259,82.7605059 29.8478704,81.0134471 29.6326852,78.6439176 L23.6107407,12.2569765 C23.3955556,9.88744706 25.1455556,7.79227059 27.5184259,7.57809412 L70.0939815,3.72874118 C72.4675,3.51391765 74.5655556,5.26097647 74.7807407,7.63050588 L80.8026852,74.0174471 Z"/>
    <path fill="#A1A1A1" d="M70.485463,4.68172941 C70.385,4.68172941 70.2832407,4.68625882 70.1814815,4.69531765 L27.6065741,8.54531765 C26.7173148,8.62555294 25.9123148,9.04614118 25.3406481,9.73137647 C24.7689815,10.4153176 24.4980556,11.2810824 24.5790741,12.1688471 L30.6010185,78.5564353 C30.6813889,79.4442 31.1033333,80.2472 31.7890741,80.8185529 C32.4748148,81.3899059 33.350463,81.6603765 34.2306481,81.5788471 L76.8062037,77.7301412 C77.6961111,77.6499059 78.500463,77.2280235 79.0727778,76.5440824 C79.6444444,75.8588471 79.9153704,74.9930824 79.8343519,74.1053176 L73.8124074,7.71837647 C73.6555556,5.98749412 72.1939815,4.68172941 70.485463,4.68172941 M33.9253704,83.5336118 C31.2238889,83.5342588 28.9125926,81.4694941 28.6643519,78.7317882 L22.6424074,12.3448471 C22.5147222,10.9400824 22.9425,9.57090588 23.8473148,8.48772941 C24.7514815,7.4052 26.0244444,6.73872941 27.4309259,6.61125882 L70.0058333,2.76190588 C71.4181481,2.63637647 72.7850926,3.06214118 73.8694444,3.96543529 C74.9544444,4.86808235 75.6213889,6.13890588 75.7490741,7.54302353 L81.7710185,73.9299647 C81.8980556,75.3340824 81.4702778,76.7039059 80.5661111,77.7864353 C79.6612963,78.8696118 78.3883333,79.5360824 76.9818519,79.6635529 L34.4069444,83.5122588 C34.2455556,83.5271412 34.0841667,83.5336118 33.9253704,83.5336118"/>
    <path fill="#FFF" d="M81.0938333,79.5307118 C80.7833704,81.8898882 78.6153148,83.5495941 76.2521667,83.2383588 L33.8691111,77.6652412 C31.505963,77.3546529 29.843463,75.1908882 30.1545741,72.8317118 L38.8741111,6.74435882 C39.1858704,4.38518235 41.3539259,2.72482941 43.7164259,3.03541765 L86.0994815,8.60918235 C88.4619815,8.91977059 90.1257778,11.0841824 89.8140185,13.4427118 L81.0938333,79.5307118 Z"/>
    <path fill="#A1A1A1" d="M43.1505926,3.96892941 C41.4991111,3.96892941 40.0595741,5.19381176 39.8385556,6.87098824 L31.1190185,72.9589882 C31.0017037,73.8422235 31.2369815,74.7189882 31.7801296,75.4262235 C32.3239259,76.1328118 33.1107778,76.5870471 33.9961481,76.7028706 L76.3798519,82.2766353 C77.2606852,82.3918118 78.1421667,82.1582235 78.8505926,81.6159882 C79.5596667,81.0731059 80.0133704,80.2875765 80.130037,79.4043412 L80.130037,79.4036941 L88.8502222,13.3156941 C88.9668889,12.4324588 88.7316111,11.5563412 88.1878148,10.8491059 C87.6440185,10.1412235 86.8578148,9.68763529 85.9717963,9.57116471 L43.5893889,3.99804706 C43.4416111,3.97863529 43.2957778,3.96892941 43.1505926,3.96892941 M76.8270741,84.2469294 C76.5943889,84.2469294 76.3597593,84.2320471 76.1251296,84.2009882 L33.7414259,78.6278706 C32.3414259,78.4434588 31.0969815,77.7258706 30.237537,76.6077529 C29.3780926,75.4889882 29.0067037,74.1036353 29.1907778,72.7053412 L37.9103148,6.61734118 C38.095037,5.21969412 38.8138333,3.97734118 39.9344815,3.11869412 C41.0551296,2.26004706 42.4428148,1.88798824 43.843463,2.07304706 L86.2265185,7.64681176 C87.6265185,7.83122353 88.870963,8.54816471 89.7310556,9.66757647 C90.5905,10.7856941 90.962537,12.1723412 90.7778148,13.5699882 L82.0576296,79.6579882 L82.0576296,79.6573412 C81.8735556,81.0556353 81.1554074,82.2979882 80.0341111,83.1559882 C79.1020741,83.8696941 77.9833704,84.2469294 76.8270741,84.2469294"/>
    <path fill="#FFF" d="M81.7850185,71.9372824 C81.7850185,74.3165176 79.853537,76.2447529 77.4702963,76.2447529 L34.721037,76.2447529 C32.3377963,76.2447529 30.4056667,74.3165176 30.4056667,71.9372824 L30.4056667,5.27792941 C30.4056667,2.89934118 32.3377963,0.970458824 34.721037,0.970458824 L77.4702963,0.970458824 C79.853537,0.970458824 81.7850185,2.89934118 81.7850185,5.27792941 L81.7850185,71.9372824 Z"/>
    <path fill="#A1A1A1" d="M34.7208426,1.94117647 C32.8768611,1.94117647 31.3776944,3.43782353 31.3776944,5.27805882 L31.3776944,71.9374118 C31.3776944,73.7776471 32.8768611,75.2742941 34.7208426,75.2742941 L77.4701019,75.2742941 C79.3134352,75.2742941 80.8126019,73.7776471 80.8126019,71.9374118 L80.8126019,5.27805882 C80.8126019,3.43782353 79.3134352,1.94117647 77.4701019,1.94117647 L34.7208426,1.94117647 Z M77.4701019,77.2154706 L34.7208426,77.2154706 C31.8054722,77.2154706 29.43325,74.8478824 29.43325,71.9374118 L29.43325,5.27805882 C29.43325,2.36758824 31.8054722,0 34.7208426,0 L77.4701019,0 C80.3854722,0 82.7570463,2.36758824 82.7570463,5.27805882 L82.7570463,71.9374118 C82.7570463,74.8478824 80.3854722,77.2154706 77.4701019,77.2154706 L77.4701019,77.2154706 Z"/>
    <path fill="#FFF" d="M96.6316944,79.5964529 C96.6316944,82.1529824 94.5556759,84.2255118 91.9948426,84.2255118 L20.1353056,84.2255118 C17.5738241,84.2255118 15.4978056,82.1529824 15.4978056,79.5964529 L15.4978056,42.1666882 L96.6316944,42.1666882 L96.6316944,79.5964529 Z"/>
    <path fill="#60A645" d="M16.4701574,43.1374706 L16.4701574,79.5966471 C16.4701574,81.6141765 18.1138611,83.2551176 20.134787,83.2551176 L91.9943241,83.2551176 C94.0158981,83.2551176 95.6596019,81.6141765 95.6596019,79.5966471 L95.6596019,43.1374706 L16.4701574,43.1374706 Z M91.9943241,85.1962941 L20.134787,85.1962941 C17.0418241,85.1962941 14.525713,82.6844118 14.525713,79.5966471 L14.525713,41.1962941 L97.6040463,41.1962941 L97.6040463,79.5966471 C97.6040463,82.6844118 95.0879352,85.1962941 91.9943241,85.1962941 L91.9943241,85.1962941 Z"/>
    <path fill="#7A7B7B" d="M105,74.1962941 C105,81.8199412 98.809537,88 91.1730556,88 C83.5365741,88 77.345463,81.8199412 77.345463,74.1962941 C77.345463,66.5726471 83.5365741,60.3919412 91.1730556,60.3919412 C98.809537,60.3919412 105,66.5726471 105,74.1962941"/>
    <path fill="#FFF" d="M99.247037,73.2914471 C99.3792593,73.4234471 99.4453704,73.5852118 99.4453704,73.7773882 L99.4453704,75.4804471 C99.4453704,75.6726235 99.3792593,75.8343882 99.247037,75.9663882 C99.1148148,76.0977412 98.9527778,76.1637412 98.7609259,76.1637412 L92.8699074,76.1637412 L92.8699074,82.0442118 C92.8699074,82.2363882 92.8044444,82.3988 92.6715741,82.5301529 C92.5393519,82.6621529 92.3773148,82.7275059 92.185463,82.7275059 L90.4801852,82.7275059 C90.2876852,82.7275059 90.1256481,82.6621529 89.9934259,82.5301529 C89.8612037,82.3988 89.7950926,82.2363882 89.7950926,82.0442118 L89.7950926,76.1637412 L83.9047222,76.1637412 C83.7122222,76.1637412 83.5501852,76.0977412 83.417963,75.9663882 C83.2857407,75.8343882 83.2196296,75.6726235 83.2196296,75.4804471 L83.2196296,73.7773882 C83.2196296,73.5852118 83.2857407,73.4234471 83.417963,73.2914471 C83.5501852,73.1600941 83.7122222,73.0940941 83.9047222,73.0940941 L89.7950926,73.0940941 L89.7950926,67.2136235 C89.7950926,67.0220941 89.8612037,66.8603294 89.9934259,66.7276824 C90.1256481,66.5963294 90.2876852,66.5303294 90.4801852,66.5303294 L92.185463,66.5303294 C92.3773148,66.5303294 92.5393519,66.5963294 92.6715741,66.7276824 C92.8044444,66.8603294 92.8699074,67.0220941 92.8699074,67.2136235 L92.8699074,73.0940941 L98.7609259,73.0940941 C98.9527778,73.0940941 99.1148148,73.1600941 99.247037,73.2914471"/>
    <path fill="#60A645" d="M70.2158333,52.5198235 C70.2158333,53.7110588 69.2487963,54.6764706 68.0555556,54.6764706 L44.7222222,54.6764706 C43.5289815,54.6764706 42.5619444,53.7110588 42.5619444,52.5198235 C42.5619444,51.3285882 43.5289815,50.3625294 44.7222222,50.3625294 L68.0555556,50.3625294 C69.2487963,50.3625294 70.2158333,51.3285882 70.2158333,52.5198235"/>
    <mask id="add_data-b" fill="#fff">
      <use xlink:href="#add_data-a"/>
    </mask>
    <polygon fill="#7A7B7B" points="35.648 17.794 43.443 17.794 43.443 14.639 35.648 14.639" mask="url(#add_data-b)"/>
    <polygon fill="#7A7B7B" points="46.661 17.794 54.457 17.794 54.457 14.639 46.661 14.639" mask="url(#add_data-b)"/>
    <polygon fill="#7A7B7B" points="57.674 17.794 65.469 17.794 65.469 14.639 57.674 14.639" mask="url(#add_data-b)"/>
    <polygon fill="#7A7B7B" points="68.686 17.794 76.481 17.794 76.481 14.639 68.686 14.639" mask="url(#add_data-b)"/>
    <polygon fill="#C3C3C3" points="35.648 23.428 43.443 23.428 43.443 20.273 35.648 20.273" mask="url(#add_data-b)"/>
    <polygon fill="#C3C3C3" points="46.661 23.428 54.457 23.428 54.457 20.273 46.661 20.273" mask="url(#add_data-b)"/>
    <polygon fill="#C3C3C3" points="57.674 23.428 65.469 23.428 65.469 20.273 57.674 20.273" mask="url(#add_data-b)"/>
    <polygon fill="#C3C3C3" points="68.686 23.428 76.481 23.428 76.481 20.273 68.686 20.273" mask="url(#add_data-b)"/>
    <polygon fill="#C3C3C3" points="35.648 28.668 43.443 28.668 43.443 25.513 35.648 25.513" mask="url(#add_data-b)"/>
    <polygon fill="#C3C3C3" points="46.661 28.668 54.457 28.668 54.457 25.513 46.661 25.513" mask="url(#add_data-b)"/>
    <polygon fill="#C3C3C3" points="57.674 28.668 65.469 28.668 65.469 25.513 57.674 25.513" mask="url(#add_data-b)"/>
    <polygon fill="#C3C3C3" points="68.686 28.668 76.481 28.668 76.481 25.513 68.686 25.513" mask="url(#add_data-b)"/>
    <polygon fill="#C3C3C3" points="35.648 33.907 43.443 33.907 43.443 30.752 35.648 30.752" mask="url(#add_data-b)"/>
    <polygon fill="#C3C3C3" points="46.661 33.907 54.457 33.907 54.457 30.752 46.661 30.752" mask="url(#add_data-b)"/>
    <polygon fill="#C3C3C3" points="57.674 33.907 65.469 33.907 65.469 30.752 57.674 30.752" mask="url(#add_data-b)"/>
    <polygon fill="#C3C3C3" points="68.686 33.907 76.481 33.907 76.481 30.752 68.686 30.752" mask="url(#add_data-b)"/>
    <polygon fill="#C3C3C3" points="35.648 39.147 43.443 39.147 43.443 35.992 35.648 35.992" mask="url(#add_data-b)"/>
    <polygon fill="#C3C3C3" points="46.661 39.147 54.457 39.147 54.457 35.992 46.661 35.992" mask="url(#add_data-b)"/>
    <polygon fill="#C3C3C3" points="57.674 39.147 65.469 39.147 65.469 35.992 57.674 35.992" mask="url(#add_data-b)"/>
    <polygon fill="#C3C3C3" points="68.686 39.147 76.481 39.147 76.481 35.992 68.686 35.992" mask="url(#add_data-b)"/>
    <path fill="#7A7B7B" d="M33.3846852 60.8690176L33.3846852 63.2314294 37.3468148 63.2314294C37.6955185 63.2314294 37.9781111 63.5141941 37.9781111 63.8616647L37.9781111 65.7387824C37.9781111 66.0869 37.6955185 66.3690176 37.3468148 66.3690176L33.3846852 66.3690176 33.3846852 72.1614882 37.3468148 72.1614882C37.6955185 72.1614882 37.9781111 72.4436059 37.9781111 72.7917235L37.9781111 74.6688412C37.9781111 75.0163118 37.6955185 75.2990765 37.3468148 75.2990765L33.3846852 75.2990765 33.3846852 77.6614882C33.3846852 78.2224882 32.929037 78.6773706 32.3670926 78.6773706L31.2600556 78.6773706C30.697463 78.6773706 30.2418148 78.2224882 30.2418148 77.6614882L30.2418148 60.8690176C30.2418148 60.3080176 30.697463 59.8531353 31.2600556 59.8531353L32.3670926 59.8531353C32.929037 59.8531353 33.3846852 60.3080176 33.3846852 60.8690176M22.7478611 70.8529412L22.7478611 73.4411765C22.7478611 76.4428824 25.1855463 78.6176471 28.1916574 78.6176471L28.2571204 78.6176471C28.8190648 78.6176471 29.274713 78.1627647 29.274713 77.6017647L29.274713 60.8688235C29.274713 60.3078235 28.8190648 59.8529412 28.2571204 59.8529412L28.1916574 59.8529412C25.1855463 59.8529412 22.7478611 62.0277059 22.7478611 65.0294118L22.7478611 67.6176471-.000194444444 67.6176471-.000194444444 70.8529412 22.7478611 70.8529412z" mask="url(#add_data-b)"/>
  </g>
</svg>
