<?xml version="1.0" encoding="utf-8"?>
<!-- Generator: Adobe Illustrator 21.0.0, SVG Export Plug-In . SVG Version: 6.00 Build 0)  -->
<svg version="1.1" id="Layer_1" xmlns="http://www.w3.org/2000/svg" xmlns:xlink="http://www.w3.org/1999/xlink" x="0px" y="0px"
	 viewBox="0 0 201.3 43.4" style="enable-background:new 0 0 201.3 43.4;" xml:space="preserve">
<style type="text/css">
	.st0{fill:#54565A;}
	.st1{fill:#009845;}
	.st2{fill:#B3B3B3;}
</style>
<g>
	<path class="st0" d="M130.8,27c1.4,1.4,3.2,2.4,5.3,2.4c2.5,0,4-1.2,4-3.1c0-1.9-1.4-2.6-3.2-3.4l-2.7-1.2
		c-1.8-0.8-3.9-2.1-3.9-4.9c0-2.9,2.6-5,6-5c2.3,0,4.3,1,5.6,2.3l-1.3,1.6c-1.2-1.1-2.6-1.8-4.3-1.8c-2.1,0-3.6,1.1-3.6,2.8
		c0,1.8,1.7,2.5,3.2,3.2l2.7,1.2c2.2,1,3.9,2.3,3.9,5.1c0,3-2.5,5.4-6.5,5.4c-2.7,0-5-1.1-6.6-2.8L130.8,27z"/>
	<path class="st0" d="M150.8,16.7c3.6,0,5.6,2.6,5.6,6.6c0,0.5,0,1-0.1,1.3h-9.5c0.2,3,2,5,4.7,5c1.3,0,2.5-0.4,3.5-1.1l0.8,1.6
		c-1.2,0.8-2.7,1.5-4.6,1.5c-3.8,0-6.8-2.8-6.8-7.4S147.6,16.7,150.8,16.7z M154.3,23.1c0-2.9-1.3-4.5-3.5-4.5c-2,0-3.8,1.6-4.1,4.5
		H154.3z"/>
	<path class="st0" d="M159.2,17.1h2l0.2,2h0.1c1.3-1.3,2.8-2.4,4.7-2.4c3,0,4.3,1.9,4.3,5.5v8.9h-2.4v-8.6c0-2.6-0.8-3.8-2.7-3.8
		c-1.5,0-2.4,0.8-3.9,2.2v10.2h-2.4V17.1z"/>
	<path class="st0" d="M174,28c1.2,1,2.5,1.7,4.1,1.7c1.9,0,2.8-1,2.8-2.2c0-1.5-1.7-2.1-3.2-2.7c-2-0.7-4.2-1.7-4.2-4.1
		c0-2.3,1.8-4,4.8-4c1.8,0,3.3,0.7,4.4,1.6l-1.1,1.5c-1-0.7-2-1.2-3.2-1.2c-1.8,0-2.6,1-2.6,2c0,1.3,1.5,1.8,3.1,2.4
		c2,0.8,4.3,1.6,4.3,4.3c0,2.3-1.8,4.2-5.2,4.2c-2,0-3.9-0.8-5.2-1.9L174,28z"/>
	<path class="st0" d="M191.2,16.7c3.6,0,5.6,2.6,5.6,6.6c0,0.5,0,1-0.1,1.3h-9.5c0.2,3,2,5,4.7,5c1.3,0,2.5-0.4,3.5-1.1l0.8,1.6
		c-1.2,0.8-2.7,1.5-4.6,1.5c-3.8,0-6.8-2.8-6.8-7.4S188,16.7,191.2,16.7z M194.8,23.1c0-2.9-1.3-4.5-3.5-4.5c-2,0-3.8,1.6-4.1,4.5
		H194.8z"/>
</g>
<g>
	<path class="st0" d="M58.6,23c-0.4-0.7,0.1-1.3,0.1-1.3l5.1-5.3c0.6-0.6-0.3-0.6-0.3-0.6h-4.8c-0.8,0-1.4,0.6-1.4,0.6l-4.7,5
		c-0.6,0.6-0.6-0.2-0.6-0.2v-11c0-0.8-0.8-0.8-0.8-0.8h-3.6c-0.8,0-0.8,0.8-0.8,0.8v23c0,0.8,0.8,0.8,0.8,0.8h3.6
		c0.8,0,0.8-0.8,0.8-0.8v-4c0-0.8,0.6-1.4,0.6-1.4l1.7-1.6l4.2,7.1C59,34,59.8,34,59.8,34h4.5c0.8,0,0.4-0.7,0.4-0.7L58.6,23
		L58.6,23z M43,33.1V16.6c0-0.8-0.8-0.8-0.8-0.8h-3.6c-0.8,0-0.8,0.8-0.8,0.8v16.5c0,0.8,0.8,0.8,0.8,0.8h3.6C43,34,43,33.1,43,33.1
		L43,33.1z M42.9,12.6v-2.4c0,0,0-0.8-0.8-0.8h-3.5c0,0-0.8,0-0.8,0.8v2.4c0,0,0,0.8,0.8,0.8h3.5C42.1,13.4,42.9,13.4,42.9,12.6
		L42.9,12.6z M33.8,33.1V10.2c0-0.8-0.8-0.8-0.8-0.8h-3.7c-0.8,0-0.8,0.8-0.8,0.8v22.9c0,0.8,0.8,0.8,0.8,0.8H33
		C33.8,34,33.8,33.1,33.8,33.1L33.8,33.1z M25.5,32.2c0,0,0.5-0.5-0.1-1l-3-2.6c1.3-2,2.1-4.3,2.1-6.9c0-6.8-5.5-12.3-12.3-12.3
		C5.5,9.4,0,14.9,0,21.7C0,28.5,5.5,34,12.3,34c2.5,0,4.8-0.7,6.7-2l3.2,2.8c0,0,0.5,0.5,1-0.1L25.5,32.2L25.5,32.2z M19.4,21.7
		c0,3.9-3.2,7.1-7.1,7.1c-3.9,0-7.1-3.2-7.1-7.1c0-3.9,3.2-7.1,7.1-7.1C16.2,14.6,19.4,17.8,19.4,21.7L19.4,21.7z"/>
	<path class="st1" d="M99.6,32.4l-4-3.3c1.4-2.2,2.2-4.8,2.2-7.5c0-7.8-6.3-14.1-14.1-14.1c-7.8,0-14.1,6.3-14.1,14.1
		c0,7.8,6.3,14.1,14.1,14.1c3,0,5.8-1,8.1-2.6l4.2,3.5c0,0,0.6,0.5,1.2-0.1l2.5-3C99.7,33.6,100.2,32.9,99.6,32.4L99.6,32.4z
		 M92.4,21.6c0,4.8-3.9,8.7-8.7,8.7c-4.8,0-8.7-3.9-8.7-8.7c0-4.8,3.9-8.7,8.7-8.7C88.5,12.9,92.4,16.8,92.4,21.6L92.4,21.6z"/>
	<path class="st0" d="M78.1,21.6c0-3.1,2.5-5.6,5.6-5.6c3.1,0,5.6,2.5,5.6,5.6c0,3.1-2.5,5.6-5.6,5.6C80.6,27.1,78.1,24.6,78.1,21.6
		L78.1,21.6z"/>
	<g>
		<path class="st0" d="M97.2,11.6c0-0.9,0.7-1.5,1.5-1.5c0.9,0,1.5,0.7,1.5,1.5c0,0.8-0.7,1.5-1.5,1.5
			C97.9,13.1,97.2,12.4,97.2,11.6z M98.8,10.3c-0.7,0-1.3,0.6-1.3,1.3c0,0.7,0.6,1.3,1.3,1.3c0.7,0,1.3-0.6,1.3-1.3
			C100,10.9,99.5,10.3,98.8,10.3z M98.4,12.5h-0.2v-1.9h0.7c0.3,0,0.6,0.2,0.6,0.5c0,0.3-0.2,0.5-0.4,0.5l0.5,0.8h-0.3l-0.5-0.8
			h-0.4V12.5z M98.4,11.5h0.4c0.2,0,0.4-0.1,0.4-0.3c0-0.2-0.2-0.3-0.4-0.3h-0.4V11.5z"/>
	</g>
</g>
<rect x="114.5" class="st2" width="1.1" height="43.4"/>
<g>
	<path class="st0" d="M198.2,18.6c0-0.9,0.7-1.5,1.5-1.5c0.9,0,1.5,0.7,1.5,1.5c0,0.8-0.7,1.5-1.5,1.5
		C198.9,20.1,198.2,19.4,198.2,18.6z M199.7,17.2c-0.7,0-1.3,0.6-1.3,1.3c0,0.7,0.6,1.3,1.3,1.3c0.7,0,1.3-0.6,1.3-1.3
		C201,17.8,200.5,17.2,199.7,17.2z M199.4,19.5h-0.2v-1.9h0.7c0.3,0,0.6,0.2,0.6,0.5c0,0.3-0.2,0.5-0.4,0.5l0.5,0.8h-0.3l-0.5-0.8
		h-0.4V19.5z M199.4,18.5h0.4c0.2,0,0.4-0.1,0.4-0.3c0-0.2-0.2-0.3-0.4-0.3h-0.4V18.5z"/>
</g>
</svg>
