<svg xmlns="http://www.w3.org/2000/svg" width="140" height="140" viewBox="0 0 140 140">
  <g fill="none">
    <path fill="#DDD" d="M15.4359945,113.853327 C5.77938859,101.853514 0,86.6016814 0,70 C0,31.3400675 31.3400675,0 70,0 C108.659932,0 140,31.3400675 140,70 C140,86.6016814 134.220611,101.853514 124.564005,113.853327 L110.305112,99.5944342 C116.39946,91.3083948 120,81.0746729 120,70 C120,42.3857625 97.6142375,20 70,20 C42.3857625,20 20,42.3857625 20,70 C20,81.0746729 23.6005397,91.3083948 29.6948877,99.5944342 L15.4359945,113.853327 Z"/>
    <path fill="#D5D5D5" d="M70,76 C72.209139,76 87.5424723,74 116,70 C87.5424723,66 72.209139,64 70,64 C66.6862915,64 64,66.6862915 64,70 C64,73.3137085 66.6862915,76 70,76 Z"/>
    <rect width="60" height="12" x="40" y="112" fill="#DDD"/>
    <rect width="46" height="8" x="47" y="132" fill="#E5E5E5"/>
  </g>
</svg>
