<svg xmlns="http://www.w3.org/2000/svg" width="140" height="140" viewBox="0 0 140 140">
  <g fill="none" fill-rule="evenodd">
    <path fill="#D5D5D5" d="M67,18 L67,6 L57.9166667,6 C56.3058361,6 55,4.69416385 55,3.08333333 L55,2.91666667 C55,1.30583615 56.3058361,0 57.9166667,0 L82.0833333,0 C83.6941639,0 85,1.30583615 85,2.91666667 L85,3.08333333 C85,4.69416385 83.6941639,6 82.0833333,6 L73,6 L73,18 L85,18 L85,82 L73,82 L73,94 L82.0833333,94 C83.6941639,94 85,95.3058361 85,96.9166667 L85,97.0833333 C85,98.6941639 83.6941639,100 82.0833333,100 L57.9166667,100 C56.3058361,100 55,98.6941639 55,97.0833333 L55,96.9166667 C55,95.3058361 56.3058361,94 57.9166667,94 L67,94 L67,82 L55,82 L55,18 L67,18 Z"/>
    <path fill="#DDD" d="M12,65 L12,54 L2.91666667,54 C1.30583615,54 0,52.6941639 0,51.0833333 L0,50.9166667 C0,49.3058361 1.30583615,48 2.91666667,48 L27.0833333,48 C28.6941639,48 30,49.3058361 30,50.9166667 L30,51.0833333 C30,52.6941639 28.6941639,54 27.0833333,54 L18,54 L18,65 L30,65 L30,123 L18,123 L18,134 L27.0833333,134 C28.6941639,134 30,135.305836 30,136.916667 L30,137.083333 C30,138.694164 28.6941639,140 27.0833333,140 L2.91666667,140 C1.30583615,140 0,138.694164 0,137.083333 L0,136.916667 C0,135.305836 1.30583615,134 2.91666667,134 L12,134 L12,123 L0,123 L0,65 L12,65 Z"/>
    <path fill="#E5E5E5" d="M122,74 L122,63 L112.916667,63 C111.305836,63 110,61.6941639 110,60.0833333 L110,59.9166667 C110,58.3058361 111.305836,57 112.916667,57 L137.083333,57 C138.694164,57 140,58.3058361 140,59.9166667 L140,60.0833333 C140,61.6941639 138.694164,63 137.083333,63 L128,63 L128,74 L140,74 L140,114 L128,114 L128,125 L137.083333,125 C138.694164,125 140,126.305836 140,127.916667 L140,128.083333 C140,129.694164 138.694164,131 137.083333,131 L112.916667,131 C111.305836,131 110,129.694164 110,128.083333 L110,127.916667 C110,126.305836 111.305836,125 112.916667,125 L122,125 L122,114 L110,114 L110,74 L122,74 Z"/>
  </g>
</svg>
