<svg xmlns="http://www.w3.org/2000/svg" width="140" height="140" viewBox="0 0 140 140">
  <g fill="none">
    <path fill="#E5E5E5" d="M16,108 L76,108 C84.836556,108 92,115.163444 92,124 C92,132.836556 84.836556,140 76,140 L16,140 C7.163444,140 1.082166e-15,132.836556 0,124 C-1.082166e-15,115.163444 7.163444,108 16,108 Z M16,131 C19.8659932,131 23,127.865993 23,124 C23,120.134007 19.8659932,117 16,117 C12.1340068,117 9,120.134007 9,124 C9,127.865993 12.1340068,131 16,131 Z M76,131 C79.8659932,131 83,127.865993 83,124 C83,120.134007 79.8659932,117 76,117 C72.1340068,117 69,120.134007 69,124 C69,127.865993 72.1340068,131 76,131 Z"/>
    <path fill="#DDD" d="M56,54 L124,54 C132.836556,54 140,61.163444 140,70 C140,78.836556 132.836556,86 124,86 L56,86 C47.163444,86 40,78.836556 40,70 C40,61.163444 47.163444,54 56,54 Z M56,77 C59.8659932,77 63,73.8659932 63,70 C63,66.1340068 59.8659932,63 56,63 C52.1340068,63 49,66.1340068 49,70 C49,73.8659932 52.1340068,77 56,77 Z M124,77 C127.865993,77 131,73.8659932 131,70 C131,66.1340068 127.865993,63 124,63 C120.134007,63 117,66.1340068 117,70 C117,73.8659932 120.134007,77 124,77 Z"/>
    <path fill="#D5D5D5" d="M16,0 L61,0 C69.836556,-1.623249e-15 77,7.163444 77,16 C77,24.836556 69.836556,32 61,32 L16,32 C7.163444,32 1.082166e-15,24.836556 0,16 C-1.082166e-15,7.163444 7.163444,1.623249e-15 16,0 Z M17,24 C21.418278,24 25,20.418278 25,16 C25,11.581722 21.418278,8 17,8 C12.581722,8 9,11.581722 9,16 C9,20.418278 12.581722,24 17,24 Z M60,24 C64.418278,24 68,20.418278 68,16 C68,11.581722 64.418278,8 60,8 C55.581722,8 52,11.581722 52,16 C52,20.418278 55.581722,24 60,24 Z"/>
  </g>
</svg>
