<svg xmlns="http://www.w3.org/2000/svg" width="140" height="140" viewBox="0 0 140 140">
  <g fill="none" transform="translate(0 14)">
    <g transform="translate(0 66)">
      <path fill="#D5D5D5" d="M23.8944272,1.78885438 L45.2763932,44.5527864 C45.5233825,45.0467649 45.3231581,45.6474379 44.8291796,45.8944272 C44.6903242,45.9638549 44.5372111,46 44.381966,46 L1.61803399,46 C1.06574924,46 0.618033989,45.5522847 0.618033989,45 C0.618033989,44.8447549 0.654179081,44.6916418 0.723606798,44.5527864 L22.1055728,1.78885438 C22.3525621,1.29487588 22.9532351,1.09465154 23.4472136,1.34164079 C23.640741,1.43840449 23.7976635,1.59532698 23.8944272,1.78885438 Z" transform="matrix(1 0 0 -1 0 46)"/>
      <rect width="60" height="12" x="58" y="4" fill="#DDD"/>
      <rect width="82" height="8" x="58" y="24" fill="#E5E5E5"/>
    </g>
    <path fill="#D5D5D5" d="M117.894427,1.78885438 L139.276393,44.5527864 C139.523382,45.0467649 139.323158,45.6474379 138.82918,45.8944272 C138.690324,45.9638549 138.537211,46 138.381966,46 L95.618034,46 C95.0657492,46 94.618034,45.5522847 94.618034,45 C94.618034,44.8447549 94.6541791,44.6916418 94.7236068,44.5527864 L116.105573,1.78885438 C116.352562,1.29487588 116.953235,1.09465154 117.447214,1.34164079 C117.640741,1.43840449 117.797663,1.59532698 117.894427,1.78885438 Z"/>
    <rect width="60" height="12" x="22" y="4" fill="#DDD"/>
    <rect width="82" height="8" y="24" fill="#E5E5E5"/>
    <rect width="46" height="8" x="36" y="38" fill="#E5E5E5"/>
  </g>
</svg>
