<svg xmlns="http://www.w3.org/2000/svg" width="140" height="140" viewBox="0 0 140 140">
  <g fill="none">
    <polygon fill="#E5E5E5" points="0 72 26 72 26 140 0 140"/>
    <polygon fill="#D5D5D5" points="38 52 64 52 64 140 38 140"/>
    <polygon fill="#E5E5E5" points="76 82 102 82 102 140 76 140"/>
    <polygon fill="#DDD" points="114 52 140 52 140 140 114 140"/>
    <path fill="#DDD" d="M41.4644957,26.614821 L22.9947235,35.8517371 C22.8088117,42.040283 17.7336078,47 11.5,47 C5.14872538,47 0,41.8512746 0,35.5 C0,29.1487254 5.14872538,24 11.5,24 C15.0834097,24 18.2840176,25.6389695 20.3930898,28.2081747 L39.0156488,18.8948484 C39.3303377,12.8248752 44.3517139,8 50.5,8 C56.8512746,8 62,13.1487254 62,19.5 C62,19.8067271 61.9879917,20.1106495 61.9644195,20.4113227 L83.0133808,34.0026807 C84.8598761,32.7391025 87.0936247,32 89.5,32 C91.5332455,32 93.4432485,32.5276642 95.1005406,33.4535242 L117.341233,14.2918563 C117.118327,13.39804 117,12.4628384 117,11.5 C117,5.14872538 122.148725,0 128.5,0 C134.851275,0 140,5.14872538 140,11.5 C140,17.8512746 134.851275,23 128.5,23 C126.045594,23 123.770775,22.2310987 121.903279,20.9210326 L100.298208,39.5350753 C100.752179,40.7710545 101,42.1065864 101,43.5 C101,49.8512746 95.8512746,55 89.5,55 C83.1487254,55 78,49.8512746 78,43.5 C78,42.4755639 78.1339515,41.4824139 78.385295,40.5371095 L58.5396783,27.7227536 C56.4662659,29.7502874 53.6290759,31 50.5,31 C46.834967,31 43.5703735,29.2855149 41.4644957,26.614821 Z M11.5,41 C14.5375661,41 17,38.5375661 17,35.5 C17,32.4624339 14.5375661,30 11.5,30 C8.46243388,30 6,32.4624339 6,35.5 C6,38.5375661 8.46243388,41 11.5,41 Z M50.5,25 C53.5375661,25 56,22.5375661 56,19.5 C56,16.4624339 53.5375661,14 50.5,14 C47.4624339,14 45,16.4624339 45,19.5 C45,22.5375661 47.4624339,25 50.5,25 Z M89.5,49 C92.5375661,49 95,46.5375661 95,43.5 C95,40.4624339 92.5375661,38 89.5,38 C86.4624339,38 84,40.4624339 84,43.5 C84,46.5375661 86.4624339,49 89.5,49 Z M128.5,17 C131.537566,17 134,14.5375661 134,11.5 C134,8.46243388 131.537566,6 128.5,6 C125.462434,6 123,8.46243388 123,11.5 C123,14.5375661 125.462434,17 128.5,17 Z"/>
  </g>
</svg>
