<svg xmlns="http://www.w3.org/2000/svg" width="500" height="500" viewBox="0 0 500 500">
  <g fill="none">
    <path fill="#E5E5E5" d="M139.480601,391.903752 C136.728738,393.859932 132.972682,393.573067 130.549806,391.221672 L20.5251989,284.443072 C17.7509109,281.750633 17.6845595,277.318975 20.3769989,274.544687 C23.0694383,271.770399 27.5010964,271.704047 30.2753844,274.396487 L136.118484,377.116944 L246.546251,298.618641 C248.589658,297.166072 251.25387,296.917229 253.530932,297.966257 L363.481916,348.619978 L471.357368,259.90538 C474.343329,257.449786 478.754581,257.879734 481.210175,260.865695 C483.665769,263.851655 483.235822,268.262907 480.249861,270.718501 L368.984956,362.220516 C366.912147,363.925153 364.047218,364.294648 361.609731,363.171714 L251.354184,312.377682 L139.480601,391.903752 Z"/>
    <circle cx="475" cy="263" r="25" fill="#D5D5D5"/>
    <circle cx="363" cy="349" r="25" fill="#D5D5D5"/>
    <circle cx="251" cy="313" r="25" fill="#D5D5D5"/>
    <circle cx="137" cy="385" r="25" fill="#D5D5D5"/>
    <path fill="#D5D5D5" d="M141.30457,226.481135 L31.8188081,478.058371 C30.2760991,481.603219 26.1518187,483.226274 22.6069699,481.683565 C19.0621211,480.140856 17.4390662,476.016576 18.9817752,472.471727 L129.006383,219.656328 C129.362332,218.838425 129.871325,218.096091 130.505967,217.469278 L245.683021,103.713101 C248.500329,100.930549 253.062893,101.036869 255.747532,103.947631 L363.017712,220.253035 L469.63491,21.4733423 C471.46222,18.0664609 475.705371,16.7859653 479.112252,18.6132755 C482.519134,20.4405857 483.799629,24.6837364 481.972319,28.0906178 L370.707415,235.535608 C368.432729,239.776587 362.655894,240.510394 359.393131,236.972813 L250.367286,118.763867 L141.30457,226.481135 Z"/>
    <circle cx="25" cy="280" r="25" fill="#D5D5D5"/>
    <circle cx="475" cy="25" r="25" fill="#E5E5E5"/>
    <circle cx="25" cy="475" r="25" fill="#E5E5E5"/>
    <circle cx="137" cy="225" r="25" fill="#E5E5E5"/>
    <circle cx="250" cy="110" r="25" fill="#E5E5E5"/>
    <circle cx="363" cy="230" r="25" fill="#E5E5E5"/>
  </g>
</svg>
