<svg xmlns="http://www.w3.org/2000/svg" width="140" height="140" viewBox="0 0 140 140">
  <g fill="none">
    <path fill="#DDD" d="M15.0526316,25.3981347 L0.382363143,3.49800719 C0.133278399,3.12616753 0,2.68612738 0,2.23557355 C1.21492661e-16,1.00090037 0.979877304,0 2.18861722,0 L41.8111742,3.97117636e-15 C42.2522645,3.97117636e-15 42.683062,0.13613786 43.0470915,0.390566666 C44.0446581,1.08778951 44.3000066,2.47903802 43.6174283,3.49800719 L28.9473684,25.3978234 L28.9473684,35.1922546 C28.9473684,35.5554355 28.7757752,35.8974215 28.4842105,36.1153301 L16.9052632,44.7691632 C16.3936731,45.1515136 15.6679031,45.0481949 15.2842105,44.5383943 C15.1338902,44.3386683 15.0526316,44.0957452 15.0526316,43.8460877 L15.0526316,25.3981347 Z"/>
    <rect width="100" height="16" x="40" y="28" fill="#E5E5E5"/>
    <rect width="130" height="16" x="10" y="52" fill="#DDD"/>
    <rect width="130" height="16" x="10" y="76" fill="#D5D5D5"/>
    <rect width="130" height="16" x="10" y="100" fill="#DDD"/>
    <rect width="130" height="16" x="10" y="124" fill="#E5E5E5"/>
  </g>
</svg>
