<svg xmlns="http://www.w3.org/2000/svg" width="140" height="140" viewBox="0 0 140 140">
  <g fill="none" fill-rule="evenodd">
    <circle cx="70" cy="70" r="70" fill="#E5E5E5"/>
    <path fill="#D5D5D5" fill-rule="nonzero" d="M74.0009064.112422141C72.8369627.671816347 68.2524205 3.30688038 74.2508594 7.7503125 81.0506956 12.7873915 79.6149961 15.2020573 77.2045441 15.2020573 74.794092 15.2020573 70.8031916 12.6151237 68.6791291 9.61551431 66.5547931 6.61508462 58.6271875 4.10910615 51.6266406 6.60969209 44.6263672 9.11027803 39.0236302 10.4609853 40.0227709 12.7873915 41.0216381 15.1132509 55.9215743 7.59053815 58.9214571 10.3758594 61.9213399 13.1611806 56.7214118 11.9517058 52.4721931 15.2020573 48.2224275 18.4524089 56.0005469 25.893395 60.5007812 28.3931607 65.0004687 30.89402 65.7502344 28.7519531 67.0017578 27.2521484 68.2524609 25.7520703 59.9798008 13.3116109 71.0583437 18.1640544 82.1368866 23.0164978 81.1371929 26.9603435 78.5744309 32.9603826 76.0116689 38.9604216 68.2574664 46.5032422 68.0069977 50.5017187 67.7565289 54.5007422 68.5018359 57.5937173 67.0017578 57.8425454 65.5016797 58.0913735 63.3630518 54.7526246 62.3636377 53.3766871 61.3647705 52.0015699 56.5693204 51.2540898 54.3194766 52.1282694 52.0693595 53.0024491 47.8239213 57.6511077 50.1995463 60.9014592 52.5754447 64.1523577 55.6705586 62.5426956 58.9214571 64.0430472 62.1718086 65.5431253 67.0017578 72.9074197 65.4423564 73.4005929 63.8829549 73.8937661 61.1874336 72.9074197 58.9214571 68.5015213 56.6549336 64.095076 53.1904057 67.3017445 50.1995463 66.5517055 47.2084135 65.8019399 44.5040344 64.4256501 41.5038781 59.1753767 38.5037219 53.9256501 32.2195833 53.5325 29.6815364 50.5017187 22.4111067 41.8200781 23.6031629 34.4774736 22.1033582 31.4775908 21.129112 29.5287432 18.0756119 26.5825213 16.5843922 24.7564717 29.4245737 9.61214892 48.589768 0 70 0 71.3428019 0 72.6767728.037809559 74.0009064.112422141zM139.993872 69.0641135C139.217972 70.2189386 130.715232 76.1641176 125.500977 73.5856486 120.272612 71.0002027 117.02205 62.1988616 121.02244 54.9489397 125.023104 47.6995647 129.637092 51.5819119 129.637092 48.2874219 129.637092 44.9929318 126.250742 45.6101046 125.500977 41.8599092 124.826587 38.4896807 126.79927 33.2200934 128.91911 32.1881619 135.774613 42.8484476 139.816008 55.4902398 139.993872 69.0641135zM111.364731 13.523276C106.905991 12.7885963 101.221796 11.7959478 99.6831464 13.1716334 96.6086151 15.9215944 91.2582169 24.1889368 87.6253263 14.9379993 85.3004915 9.017406 85.6921417 4.86372359 88.4013863 2.44376711 96.7861337 4.72225988 104.545222 8.52006942 111.364731 13.523276zM75.5007422 72.5886475C82.4188894 71.0002344 83.5047661 71.4806859 86.1245295 73.8912904 88.744293 76.3018949 89.3507135 80.774111 97.5660437 81.2985681 105.781374 81.8230253 106.305986 87.3012898 102.55579 93.552071 98.8058686 99.802032 94.0250946 104.874688 90.7758368 107.874844 87.5268525 110.875273 80.3079579 119.684083 78.8078798 124.683888 77.3080751 129.683146 82.2132378 131.069026 81.6492556 131.99954 81.0852735 132.930054 79.5011328 134.968189 75.5007422 129.467994 71.5000781 123.967252 79.2027249 107.271061 77.1063288 99.6923903 75.0099327 92.1137202 69.5527882 94.3698037 68.1009068 87.4984654 66.6490254 80.6271271 68.5825949 74.1770607 75.5007422 72.5886475z"/>
  </g>
</svg>
