<svg xmlns="http://www.w3.org/2000/svg" width="140" height="140" viewBox="0 0 140 140">
  <g fill="none" fill-rule="evenodd">
    <rect width="16" height="43" x="2" y="97" fill="#E5E5E5"/>
    <rect width="16" height="59" x="26" y="81" fill="#DDD"/>
    <rect width="16" height="68" x="50" y="72" fill="#D5D5D5"/>
    <rect width="16" height="86" x="74" y="54" fill="#E5E5E5"/>
    <rect width="16" height="105" x="98" y="35" fill="#DDD"/>
    <rect width="16" height="83" x="122" y="57" fill="#D5D5D5"/>
    <path fill="#D5D5D5" fill-rule="nonzero" d="M0.288916667,73.5038465 C-0.420988245,72.0160644 0.222338504,70.2404991 1.72582718,69.5380104 C3.22931585,68.8355216 5.02362587,69.4721277 5.73353078,70.9599098 C6.94200361,73.4925649 8.29209882,74.2749932 10.413211,73.9847277 C12.946505,73.6380569 16.4600467,71.7641066 20.9160296,68.3463196 C24.9354634,65.2633704 29.5633401,61.0805974 35.7414083,55.0523836 C38.8178388,52.0505747 50.5559505,40.3187158 53.0272486,37.8875142 C62.5964871,28.4735354 70.0260239,21.7015024 77.3034613,16.0168161 C89.5878871,6.4209787 100.31699,0.957612709 110.168313,0.11327877 C121.930938,-0.894868373 131.859533,4.8149209 139.578303,17.692157 C140.426522,19.1072418 139.954875,20.9348284 138.524852,21.774186 C137.094828,22.6135436 135.247947,22.1468245 134.399729,20.7317398 C122.131967,0.265412291 105.343688,1.70429646 81.0340998,20.6934512 C73.9741581,26.2082432 66.6924808,32.845502 57.2722749,42.1128662 C54.8271728,44.518297 43.0772308,56.2619796 39.9688997,59.2949155 C33.634264,65.4758991 28.855621,69.7949379 24.6046634,73.0554683 C19.3852322,77.0588284 15.0651156,79.362966 11.2380131,79.8866892 C6.42494559,80.5453377 2.58769933,78.3215167 0.288916667,73.5038465 Z"/>
  </g>
</svg>
