<svg id="Layer_1" data-name="Layer 1" xmlns="http://www.w3.org/2000/svg" viewBox="0 0 201.28 43.37"><defs><style>.cls-1{fill:#54565b;}.cls-2{fill:#009a4d;}.cls-3{fill:#b3b3b3;}</style></defs><title>Qlik_Sense_Horizontal-CMYK1</title><path class="cls-1" d="M138.82,34.88a7.4,7.4,0,0,0,5.25,2.38c2.49,0,4-1.25,4-3.1s-1.39-2.55-3.19-3.37l-2.73-1.19c-1.76-.75-3.85-2.11-3.85-4.9s2.55-5.05,6-5.05a7.79,7.79,0,0,1,5.6,2.35l-1.28,1.57a6.13,6.13,0,0,0-4.32-1.8c-2.15,0-3.57,1.08-3.57,2.79s1.69,2.52,3.17,3.16l2.72,1.16c2.21,1,3.92,2.26,3.92,5.08,0,3-2.5,5.42-6.5,5.42a9.15,9.15,0,0,1-6.64-2.81Z" transform="translate(-8.01 -7.86)"/><path class="cls-1" d="M158.78,24.59c3.6,0,5.63,2.58,5.63,6.61a8,8,0,0,1-.09,1.3h-9.51c.17,3,2,5,4.7,5a6.37,6.37,0,0,0,3.51-1.1l.84,1.57a8.43,8.43,0,0,1-4.64,1.45c-3.77,0-6.76-2.76-6.76-7.37S155.56,24.59,158.78,24.59Zm3.54,6.35c0-2.87-1.28-4.47-3.48-4.47-2,0-3.77,1.63-4.06,4.47Z" transform="translate(-8.01 -7.86)"/><path class="cls-1" d="M167.26,24.93h2l.21,2h.08a6.67,6.67,0,0,1,4.73-2.37c3,0,4.29,1.91,4.29,5.51V39h-2.37V30.42c0-2.64-.82-3.77-2.67-3.77-1.45,0-2.44.75-3.86,2.17V39h-2.38Z" transform="translate(-8.01 -7.86)"/><path class="cls-1" d="M182,35.84a6.33,6.33,0,0,0,4.15,1.68c1.86,0,2.79-1,2.79-2.2,0-1.45-1.69-2.09-3.22-2.67-2-.73-4.21-1.68-4.21-4.06s1.8-4,4.84-4a7,7,0,0,1,4.38,1.59l-1.13,1.51a5.19,5.19,0,0,0-3.22-1.25c-1.77,0-2.58,1-2.58,2,0,1.31,1.54,1.83,3.13,2.44,2,.75,4.3,1.59,4.3,4.26,0,2.29-1.83,4.21-5.17,4.21a8.51,8.51,0,0,1-5.25-1.94Z" transform="translate(-8.01 -7.86)"/><path class="cls-1" d="M199.26,24.59c3.6,0,5.63,2.58,5.63,6.61a8,8,0,0,1-.09,1.3h-9.51c.17,3,2,5,4.7,5a6.37,6.37,0,0,0,3.51-1.1l.84,1.57a8.43,8.43,0,0,1-4.64,1.45c-3.77,0-6.76-2.76-6.76-7.37S196,24.59,199.26,24.59Zm3.54,6.35c0-2.87-1.28-4.47-3.48-4.47-2,0-3.77,1.63-4.06,4.47Z" transform="translate(-8.01 -7.86)"/><path class="cls-1" d="M66.56,30.85a1.12,1.12,0,0,1,.15-1.32l5.11-5.27c.58-.61-.26-.61-.26-.61H66.8a2.15,2.15,0,0,0-1.42.61l-4.73,5c-.58.61-.58-.23-.58-.23v-11a.82.82,0,0,0-.84-.84H55.62a.79.79,0,0,0-.81.81V41a.82.82,0,0,0,.84.84h3.58A.79.79,0,0,0,60,41V37a2.09,2.09,0,0,1,.62-1.41L62.33,34l4.24,7.12a1.58,1.58,0,0,0,1.27.72h4.52c.84,0,.41-.72.41-.72L66.56,30.85ZM51.05,41V24.46a.82.82,0,0,0-.84-.84H46.59a.82.82,0,0,0-.84.84V41a.82.82,0,0,0,.84.84h3.62a.82.82,0,0,0,.84-.84Zm-.14-20.59V18a.79.79,0,0,0-.81-.81H46.56a.79.79,0,0,0-.81.81v2.37a.79.79,0,0,0,.81.8H50.1a.79.79,0,0,0,.81-.8ZM41.85,41V18.08a.82.82,0,0,0-.84-.84H37.32a.82.82,0,0,0-.84.84V41a.82.82,0,0,0,.84.84H41a.82.82,0,0,0,.84-.84Zm-8.3-1a.7.7,0,0,0-.07-1l-3-2.57a12.31,12.31,0,1,0-3.46,3.41l3.24,2.82a.71.71,0,0,0,1-.07L33.55,40ZM27.43,29.54a7.11,7.11,0,1,1-7.11-7.1,7.11,7.11,0,0,1,7.11,7.1Z" transform="translate(-8.01 -7.86)"/><path class="cls-2" d="M107.61,40.27l-4-3.32a14.14,14.14,0,1,0-3.82,4l4.21,3.54a.82.82,0,0,0,1.16-.1l2.5-3a.8.8,0,0,0-.1-1.15Zm-7.22-10.85a8.68,8.68,0,1,1-8.68-8.68,8.68,8.68,0,0,1,8.68,8.68Z" transform="translate(-8.01 -7.86)"/><path class="cls-1" d="M86.15,29.42A5.56,5.56,0,1,1,91.71,35a5.57,5.57,0,0,1-5.56-5.56Z" transform="translate(-8.01 -7.86)"/><path class="cls-1" d="M105.23,19.46A1.54,1.54,0,1,1,106.76,21,1.54,1.54,0,0,1,105.23,19.46Zm1.53-1.33a1.33,1.33,0,1,0,1.29,1.33A1.3,1.3,0,0,0,106.76,18.13Zm-.35,2.26h-.21V18.52h.68c.33,0,.58.16.58.52a.48.48,0,0,1-.45.52l.53.83h-.25l-.5-.83h-.38Zm0-1h.42c.25,0,.42-.06.42-.34s-.18-.34-.42-.34h-.42Z" transform="translate(-8.01 -7.86)"/><rect class="cls-3" x="114.45" width="1.08" height="43.37"/><path class="cls-1" d="M206.21,26.41A1.54,1.54,0,1,1,207.75,28,1.54,1.54,0,0,1,206.21,26.41Zm1.54-1.33A1.34,1.34,0,1,0,209,26.41,1.3,1.3,0,0,0,207.75,25.08Zm-.35,2.27h-.21V25.47h.68a.51.51,0,0,1,.58.52.47.47,0,0,1-.45.52l.53.84h-.26l-.49-.84h-.38Zm0-1h.42c.25,0,.42,0,.42-.34s-.18-.34-.42-.34h-.42Z" transform="translate(-8.01 -7.86)"/></svg>