<?xml version="1.0" encoding="UTF-8"?>
<svg width="189px" height="135px" viewBox="0 0 189 135" version="1.1" xmlns="http://www.w3.org/2000/svg" xmlns:xlink="http://www.w3.org/1999/xlink">
    <!-- Generator: Sketch 51.2 (57519) - http://www.bohemiancoding.com/sketch -->
    <title>Group 18</title>
    <desc>Created with Sketch.</desc>
    <defs>
        <path d="M5,1 L152,1 C154.209139,1 156,2.790861 156,5 L156,107 C156,109.209139 154.209139,111 152,111 L5,111 C2.790861,111 1,109.209139 1,107 L1,5 C1,2.790861 2.790861,1 5,1 Z" id="path-1"></path>
        <mask id="mask-2" maskContentUnits="userSpaceOnUse" maskUnits="objectBoundingBox" x="-2" y="-2" width="159" height="114">
            <rect x="-1" y="-1" width="159" height="114" fill="white"></rect>
            <use xlink:href="#path-1" fill="black"></use>
        </mask>
        <path d="M24.6587107,20.09375 C25.4421477,21.34375 24.8153981,22.4375 23.4052115,22.4375 L1.62566285,22.4375 C0.0587888383,22.4375 -0.411273364,21.34375 0.37216364,20.09375 L11.0269069,1.5 C11.8103439,0.25 13.0638431,0.25 13.8472801,1.5 L24.6587107,20.09375 Z M14.0625,7.59375 C14.0625,7.125 13.75,6.8125 13.28125,6.8125 L11.71875,6.8125 C11.25,6.8125 10.9375,7.125 10.9375,7.59375 L10.9375,13.84375 C10.9375,14.3125 11.25,14.625 11.71875,14.625 L13.28125,14.625 C13.75,14.625 14.0625,14.3125 14.0625,13.84375 L14.0625,7.59375 Z M14.0625,16.96875 C14.0625,16.5 13.75,16.1875 13.28125,16.1875 L11.71875,16.1875 C11.25,16.1875 10.9375,16.5 10.9375,16.96875 L10.9375,18.53125 C10.9375,19 11.25,19.3125 11.71875,19.3125 L13.28125,19.3125 C13.75,19.3125 14.0625,19 14.0625,18.53125 L14.0625,16.96875 Z" id="path-3"></path>
        <path d="M16.5625,0 L25,0 L25,8.4375 C25,8.75 24.53125,8.90625 24.375,8.75 L21.875,6.25 L19.375,8.75 C19.0625,9.0625 18.59375,9.0625 18.28125,8.75 L16.25,6.71875 C15.9375,6.40625 15.9375,5.9375 16.25,5.625 L18.75,3.125 L16.25,0.625 C16.09375,0.46875 16.25,0 16.5625,0 Z M8.4375,25 L0,25 L0,16.5625 C0,16.25 0.46875,16.09375 0.625,16.25 L3.125,18.75 L5.625,16.25 C5.9375,15.9375 6.40625,15.9375 6.71875,16.25 L8.75,18.28125 C9.0625,18.59375 9.0625,19.0625 8.75,19.375 L6.25,21.875 L8.75,24.375 C8.90625,24.53125 8.75,25 8.4375,25 Z" id="path-5"></path>
        <path d="M24.6587107,20.09375 C25.4421477,21.34375 24.8153981,22.4375 23.4052115,22.4375 L1.62566285,22.4375 C0.0587888383,22.4375 -0.411273364,21.34375 0.37216364,20.09375 L11.0269069,1.5 C11.8103439,0.25 13.0638431,0.25 13.8472801,1.5 L24.6587107,20.09375 Z M14.0625,7.59375 C14.0625,7.125 13.75,6.8125 13.28125,6.8125 L11.71875,6.8125 C11.25,6.8125 10.9375,7.125 10.9375,7.59375 L10.9375,13.84375 C10.9375,14.3125 11.25,14.625 11.71875,14.625 L13.28125,14.625 C13.75,14.625 14.0625,14.3125 14.0625,13.84375 L14.0625,7.59375 Z M14.0625,16.96875 C14.0625,16.5 13.75,16.1875 13.28125,16.1875 L11.71875,16.1875 C11.25,16.1875 10.9375,16.5 10.9375,16.96875 L10.9375,18.53125 C10.9375,19 11.25,19.3125 11.71875,19.3125 L13.28125,19.3125 C13.75,19.3125 14.0625,19 14.0625,18.53125 L14.0625,16.96875 Z" id="path-7"></path>
    </defs>
    <g id="Page-1" stroke="none" stroke-width="1" fill="none" fill-rule="evenodd">
        <g id="Artboard-Copy-2" transform="translate(-270.000000, -340.000000)">
            <g id="Group-12" transform="translate(205.000000, 341.000000)">
                <g id="Group-18" transform="translate(66.000000, 0.000000)">
                    <g id="Group-17" transform="translate(30.000000, 0.000000)" fill-rule="nonzero">
                        <use id="Rectangle-7" stroke-opacity="0.15" stroke="#000000" mask="url(#mask-2)" stroke-width="4" stroke-dasharray="5" xlink:href="#path-1"></use>
                        <rect id="Rectangle-7-Copy-3" stroke="#A6A6A6" stroke-width="2" fill="#FFFFFF" x="0" y="0" width="125" height="112" rx="4"></rect>
                        <path d="M4,0 L121,0 C123.209139,-4.05812251e-16 125,1.790861 125,4 L125,9 L0,9 L0,4 C-2.705415e-16,1.790861 1.790861,4.05812251e-16 4,0 Z" id="Rectangle-8" fill="#A6A6A6"></path>
                        <rect id="Rectangle-8-Copy" fill="#C7C7C7" x="1" y="4" width="123" height="8"></rect>
                        <circle id="Oval-3" fill="#FFFFFF" cx="7" cy="8" r="2"></circle>
                        <circle id="Oval-3-Copy-2" fill="#FFFFFF" cx="19" cy="8" r="2"></circle>
                        <rect id="Rectangle-10" fill="#FFFFFF" x="27" y="6" width="77" height="4"></rect>
                        <circle id="Oval-3-Copy" fill="#FFFFFF" cx="13" cy="8" r="2"></circle>
                        <rect id="Rectangle-9" fill="#FFFFFF" x="116" y="6" width="4" height="4"></rect>
                        <rect id="Rectangle-9-Copy" fill="#FFFFFF" x="110" y="6" width="4" height="4"></rect>
                    </g>
                    <g id="DLSicons-/Generic-/warning" transform="translate(81.000000, 46.000000)">
                        <mask id="mask-4" fill="white">
                            <use xlink:href="#path-3"></use>
                        </mask>
                        <use id="Shape" fill="#000000" fill-rule="nonzero" xlink:href="#path-3"></use>
                        <g id="Misc-/Greyscale-/80" mask="url(#mask-4)" fill="#CCCCCC">
                            <g transform="translate(0.000000, -1.000000)" id="Greyscale-80">
                                <polygon points="0 0 25 0 25 25 0 25"></polygon>
                            </g>
                        </g>
                    </g>
                    <g id="DLSicons-/Generic-/warning-Copy" opacity="0.098538" transform="translate(154.500000, 92.500000) scale(-1, 1) rotate(-315.000000) translate(-154.500000, -92.500000) translate(142.000000, 80.000000)">
                        <mask id="mask-6" fill="white">
                            <use xlink:href="#path-5"></use>
                        </mask>
                        <use id="Shape" fill="#000000" fill-rule="nonzero" xlink:href="#path-5"></use>
                        <g id="Misc-/Greyscale-/0" mask="url(#mask-6)" fill="#000000">
                            <polygon id="Greyscale-0" points="0 0 25 0 25 25 0 25"></polygon>
                        </g>
                    </g>
                    <g id="Group-16" transform="translate(0.000000, 50.000000)">
                        <g id="Group-15">
                            <rect id="Rectangle-7-Copy" stroke="#A6A6A6" fill="#A6A6A6" fill-rule="nonzero" x="0.217948718" y="-0.5" width="48.82502" height="84" rx="4"></rect>
                            <rect id="Rectangle-7-Copy-2" fill="#FFFFFF" fill-rule="nonzero" x="2.59454137" y="1.875" width="44.0718347" height="79.25" rx="2"></rect>
                            <rect id="Rectangle-6" fill="#A6A6A6" fill-rule="nonzero" x="11" y="0" width="27" height="7" rx="2"></rect>
                            <g id="DLSicons-/Generic-/warning" transform="translate(12.000000, 30.000000)">
                                <mask id="mask-8" fill="white">
                                    <use xlink:href="#path-7"></use>
                                </mask>
                                <use id="Shape" fill="#000000" fill-rule="nonzero" xlink:href="#path-7"></use>
                                <g id="Misc-/Greyscale-/80" mask="url(#mask-8)" fill="#CCCCCC">
                                    <g transform="translate(0.000000, -1.000000)" id="Greyscale-80">
                                        <polygon points="0 0 25 0 25 25 0 25"></polygon>
                                    </g>
                                </g>
                            </g>
                        </g>
                    </g>
                </g>
            </g>
        </g>
    </g>
</svg>