<?xml version="1.0" encoding="UTF-8"?>
<svg width="203px" height="98px" viewBox="0 0 203 98" version="1.1" xmlns="http://www.w3.org/2000/svg" xmlns:xlink="http://www.w3.org/1999/xlink">
    <!-- Generator: Sketch 51.2 (57519) - http://www.bohemiancoding.com/sketch -->
    <title>Group 9</title>
    <desc>Created with Sketch.</desc>
    <defs>
        <rect id="path-1" x="0" y="0" width="201" height="32.9310165" rx="4"></rect>
    </defs>
    <g id="Page-1" stroke="none" stroke-width="1" fill="none" fill-rule="evenodd">
        <g id="Artboard" transform="translate(-860.000000, -388.000000)">
            <g id="Group-12" transform="translate(802.000000, 386.000000)">
                <g id="Group-9" transform="translate(59.000000, 0.000000)">
                    <g id="Group-4">
                        <g id="Group" transform="translate(9.000000, 0.000000)" fill="#C7C7C7" fill-rule="nonzero">
                            <path d="M161.152957,2.4594731 L171.367371,0.659874166 C172.455187,0.468220325 173.492401,1.1947029 173.684055,2.28251841 C173.704241,2.3970893 173.714391,2.51320293 173.714391,2.62953838 L173.714391,97.501523 C173.714391,98.4722162 173.017381,99.3027622 172.061411,99.4711872 L161.846997,101.270786 C160.759182,101.46244 159.721967,100.735957 159.530313,99.6481419 C159.510128,99.533571 159.499977,99.4174574 159.499977,99.3011219 L159.499977,4.42913732 C159.499977,3.45844409 160.196987,2.62789807 161.152957,2.4594731 Z" id="Rectangle-3-Copy" transform="translate(166.607184, 50.965330) scale(-1, 1) rotate(-350.000000) translate(-166.607184, -50.965330) "></path>
                            <path d="M10.3213334,2.4594731 L20.5357471,0.659874166 C21.6235627,0.468220325 22.6607775,1.1947029 22.8524313,2.28251841 C22.8726167,2.3970893 22.8827671,2.51320293 22.8827671,2.62953838 L22.8827671,97.501523 C22.8827671,98.4722162 22.185757,99.3027622 21.2297871,99.4711872 L11.0153734,101.270786 C9.92755786,101.46244 8.89034302,100.735957 8.69868918,99.6481419 C8.67850381,99.533571 8.6683534,99.4174574 8.6683534,99.3011219 L8.6683534,4.42913732 C8.6683534,3.45844409 9.36536356,2.62789807 10.3213334,2.4594731 Z" id="Rectangle-3-Copy-2" transform="translate(15.775560, 50.965330) rotate(-350.000000) translate(-15.775560, -50.965330) "></path>
                        </g>
                        <g id="Group-3" transform="translate(0.000000, 13.000000)">
                            <rect id="Rectangle-4" fill="#E6E6E6" fill-rule="nonzero" x="0" y="0" width="201" height="32.9310165" rx="4"></rect>
                            <g id="Group-2">
                                <mask id="mask-2" fill="white">
                                    <use xlink:href="#path-1"></use>
                                </mask>
                                <rect stroke="#A6A6A6" x="-0.5" y="-0.5" width="202" height="33.9310165" rx="4"></rect>
                                <g mask="url(#mask-2)" fill="#FFFFFF" fill-rule="nonzero">
                                    <g transform="translate(-40.698863, -22.686193)">
                                        <polygon id="Rectangle-5" points="64.3638002 0.644826279 75.0566311 11.3376571 11.4184906 74.9757976 0.72565974 64.2829668"></polygon>
                                        <polygon id="Rectangle-5-Copy" points="149.329985 0.644826279 160.022816 11.3376571 96.3846753 74.9757976 85.6918444 64.2829668"></polygon>
                                        <polygon id="Rectangle-5-Copy-2" points="233.268755 0.644826279 243.961586 11.3376571 180.323445 74.9757976 169.630615 64.2829668"></polygon>
                                        <polygon id="Rectangle-5" points="107.515211 0.644826279 118.208042 11.3376571 54.5699011 74.9757976 43.8770703 64.2829668"></polygon>
                                        <polygon id="Rectangle-5-Copy" points="191.453981 0.644826279 202.146812 11.3376571 138.508671 74.9757976 127.81584 64.2829668"></polygon>
                                        <polygon id="Rectangle-5-Copy-2" points="275.392751 0.644826279 286.085582 11.3376571 222.447441 74.9757976 211.754611 64.2829668"></polygon>
                                    </g>
                                </g>
                            </g>
                        </g>
                    </g>
                </g>
            </g>
        </g>
    </g>
</svg>